<?xml version="1.0" encoding="utf-8" standalone="no"?>
<!DOCTYPE svg PUBLIC "-//W3C//DTD SVG 1.1//EN"
  "http://www.w3.org/Graphics/SVG/1.1/DTD/svg11.dtd">
<!-- Created with matplotlib (https://matplotlib.org/) -->
<svg height="345.6pt" version="1.1" viewBox="0 0 460.8 345.6" width="460.8pt" xmlns="http://www.w3.org/2000/svg" xmlns:xlink="http://www.w3.org/1999/xlink">
 <metadata>
  <rdf:RDF xmlns:cc="http://creativecommons.org/ns#" xmlns:dc="http://purl.org/dc/elements/1.1/" xmlns:rdf="http://www.w3.org/1999/02/22-rdf-syntax-ns#">
   <cc:Work>
    <dc:type rdf:resource="http://purl.org/dc/dcmitype/StillImage"/>
    <dc:date>2021-05-07T16:21:25.996366</dc:date>
    <dc:format>image/svg+xml</dc:format>
    <dc:creator>
     <cc:Agent>
      <dc:title>Matplotlib v3.3.2, https://matplotlib.org/</dc:title>
     </cc:Agent>
    </dc:creator>
   </cc:Work>
  </rdf:RDF>
 </metadata>
 <defs>
  <style type="text/css">*{stroke-linecap:butt;stroke-linejoin:round;}</style>
 </defs>
 <g id="figure_1">
  <g id="patch_1">
   <path d="M 0 345.6 
L 460.8 345.6 
L 460.8 0 
L 0 0 
z
" style="fill:#ffffff;"/>
  </g>
  <g id="axes_1">
   <g id="patch_2">
    <path d="M 33.73 157.11 
L 450 157.11 
L 450 25.44 
L 33.73 25.44 
z
" style="fill:#ffffff;"/>
   </g>
   <g id="matplotlib.axis_1">
    <g id="xtick_1">
     <g id="line2d_1">
      <defs>
       <path d="M 0 0 
L 0 3.5 
" id="m022c566089" style="stroke:#000000;stroke-width:0.8;"/>
      </defs>
      <g>
       <use style="stroke:#000000;stroke-width:0.8;" x="52.651364" xlink:href="#m022c566089" y="157.11"/>
      </g>
     </g>
    </g>
    <g id="xtick_2">
     <g id="line2d_2">
      <g>
       <use style="stroke:#000000;stroke-width:0.8;" x="121.707435" xlink:href="#m022c566089" y="157.11"/>
      </g>
     </g>
    </g>
    <g id="xtick_3">
     <g id="line2d_3">
      <g>
       <use style="stroke:#000000;stroke-width:0.8;" x="190.763507" xlink:href="#m022c566089" y="157.11"/>
      </g>
     </g>
    </g>
    <g id="xtick_4">
     <g id="line2d_4">
      <g>
       <use style="stroke:#000000;stroke-width:0.8;" x="259.819579" xlink:href="#m022c566089" y="157.11"/>
      </g>
     </g>
    </g>
    <g id="xtick_5">
     <g id="line2d_5">
      <g>
       <use style="stroke:#000000;stroke-width:0.8;" x="328.87565" xlink:href="#m022c566089" y="157.11"/>
      </g>
     </g>
    </g>
    <g id="xtick_6">
     <g id="line2d_6">
      <g>
       <use style="stroke:#000000;stroke-width:0.8;" x="397.931722" xlink:href="#m022c566089" y="157.11"/>
      </g>
     </g>
    </g>
   </g>
   <g id="matplotlib.axis_2">
    <g id="ytick_1">
     <g id="line2d_7">
      <defs>
       <path d="M 0 0 
L -3.5 0 
" id="md40d17da60" style="stroke:#000000;stroke-width:0.8;"/>
      </defs>
      <g>
       <use style="stroke:#000000;stroke-width:0.8;" x="33.73" xlink:href="#md40d17da60" y="151.125"/>
      </g>
     </g>
     <g id="text_1">
      <!-- 0.0 -->
      <g transform="translate(10.826875 154.924219)scale(0.1 -0.1)">
       <defs>
        <path d="M 31.78125 66.40625 
Q 24.171875 66.40625 20.328125 58.90625 
Q 16.5 51.421875 16.5 36.375 
Q 16.5 21.390625 20.328125 13.890625 
Q 24.171875 6.390625 31.78125 6.390625 
Q 39.453125 6.390625 43.28125 13.890625 
Q 47.125 21.390625 47.125 36.375 
Q 47.125 51.421875 43.28125 58.90625 
Q 39.453125 66.40625 31.78125 66.40625 
z
M 31.78125 74.21875 
Q 44.046875 74.21875 50.515625 64.515625 
Q 56.984375 54.828125 56.984375 36.375 
Q 56.984375 17.96875 50.515625 8.265625 
Q 44.046875 -1.421875 31.78125 -1.421875 
Q 19.53125 -1.421875 13.0625 8.265625 
Q 6.59375 17.96875 6.59375 36.375 
Q 6.59375 54.828125 13.0625 64.515625 
Q 19.53125 74.21875 31.78125 74.21875 
z
" id="DejaVuSans-48"/>
        <path d="M 10.6875 12.40625 
L 21 12.40625 
L 21 0 
L 10.6875 0 
z
" id="DejaVuSans-46"/>
       </defs>
       <use xlink:href="#DejaVuSans-48"/>
       <use x="63.623047" xlink:href="#DejaVuSans-46"/>
       <use x="95.410156" xlink:href="#DejaVuSans-48"/>
      </g>
     </g>
    </g>
    <g id="ytick_2">
     <g id="line2d_8">
      <g>
       <use style="stroke:#000000;stroke-width:0.8;" x="33.73" xlink:href="#md40d17da60" y="127.185"/>
      </g>
     </g>
     <g id="text_2">
      <!-- 0.2 -->
      <g transform="translate(10.826875 130.984219)scale(0.1 -0.1)">
       <defs>
        <path d="M 19.1875 8.296875 
L 53.609375 8.296875 
L 53.609375 0 
L 7.328125 0 
L 7.328125 8.296875 
Q 12.9375 14.109375 22.625 23.890625 
Q 32.328125 33.6875 34.8125 36.53125 
Q 39.546875 41.84375 41.421875 45.53125 
Q 43.3125 49.21875 43.3125 52.78125 
Q 43.3125 58.59375 39.234375 62.25 
Q 35.15625 65.921875 28.609375 65.921875 
Q 23.96875 65.921875 18.8125 64.3125 
Q 13.671875 62.703125 7.8125 59.421875 
L 7.8125 69.390625 
Q 13.765625 71.78125 18.9375 73 
Q 24.125 74.21875 28.421875 74.21875 
Q 39.75 74.21875 46.484375 68.546875 
Q 53.21875 62.890625 53.21875 53.421875 
Q 53.21875 48.921875 51.53125 44.890625 
Q 49.859375 40.875 45.40625 35.40625 
Q 44.1875 33.984375 37.640625 27.21875 
Q 31.109375 20.453125 19.1875 8.296875 
z
" id="DejaVuSans-50"/>
       </defs>
       <use xlink:href="#DejaVuSans-48"/>
       <use x="63.623047" xlink:href="#DejaVuSans-46"/>
       <use x="95.410156" xlink:href="#DejaVuSans-50"/>
      </g>
     </g>
    </g>
    <g id="ytick_3">
     <g id="line2d_9">
      <g>
       <use style="stroke:#000000;stroke-width:0.8;" x="33.73" xlink:href="#md40d17da60" y="103.245"/>
      </g>
     </g>
     <g id="text_3">
      <!-- 0.4 -->
      <g transform="translate(10.826875 107.044219)scale(0.1 -0.1)">
       <defs>
        <path d="M 37.796875 64.3125 
L 12.890625 25.390625 
L 37.796875 25.390625 
z
M 35.203125 72.90625 
L 47.609375 72.90625 
L 47.609375 25.390625 
L 58.015625 25.390625 
L 58.015625 17.1875 
L 47.609375 17.1875 
L 47.609375 0 
L 37.796875 0 
L 37.796875 17.1875 
L 4.890625 17.1875 
L 4.890625 26.703125 
z
" id="DejaVuSans-52"/>
       </defs>
       <use xlink:href="#DejaVuSans-48"/>
       <use x="63.623047" xlink:href="#DejaVuSans-46"/>
       <use x="95.410156" xlink:href="#DejaVuSans-52"/>
      </g>
     </g>
    </g>
    <g id="ytick_4">
     <g id="line2d_10">
      <g>
       <use style="stroke:#000000;stroke-width:0.8;" x="33.73" xlink:href="#md40d17da60" y="79.305"/>
      </g>
     </g>
     <g id="text_4">
      <!-- 0.6 -->
      <g transform="translate(10.826875 83.104219)scale(0.1 -0.1)">
       <defs>
        <path d="M 33.015625 40.375 
Q 26.375 40.375 22.484375 35.828125 
Q 18.609375 31.296875 18.609375 23.390625 
Q 18.609375 15.53125 22.484375 10.953125 
Q 26.375 6.390625 33.015625 6.390625 
Q 39.65625 6.390625 43.53125 10.953125 
Q 47.40625 15.53125 47.40625 23.390625 
Q 47.40625 31.296875 43.53125 35.828125 
Q 39.65625 40.375 33.015625 40.375 
z
M 52.59375 71.296875 
L 52.59375 62.3125 
Q 48.875 64.0625 45.09375 64.984375 
Q 41.3125 65.921875 37.59375 65.921875 
Q 27.828125 65.921875 22.671875 59.328125 
Q 17.53125 52.734375 16.796875 39.40625 
Q 19.671875 43.65625 24.015625 45.921875 
Q 28.375 48.1875 33.59375 48.1875 
Q 44.578125 48.1875 50.953125 41.515625 
Q 57.328125 34.859375 57.328125 23.390625 
Q 57.328125 12.15625 50.6875 5.359375 
Q 44.046875 -1.421875 33.015625 -1.421875 
Q 20.359375 -1.421875 13.671875 8.265625 
Q 6.984375 17.96875 6.984375 36.375 
Q 6.984375 53.65625 15.1875 63.9375 
Q 23.390625 74.21875 37.203125 74.21875 
Q 40.921875 74.21875 44.703125 73.484375 
Q 48.484375 72.75 52.59375 71.296875 
z
" id="DejaVuSans-54"/>
       </defs>
       <use xlink:href="#DejaVuSans-48"/>
       <use x="63.623047" xlink:href="#DejaVuSans-46"/>
       <use x="95.410156" xlink:href="#DejaVuSans-54"/>
      </g>
     </g>
    </g>
    <g id="ytick_5">
     <g id="line2d_11">
      <g>
       <use style="stroke:#000000;stroke-width:0.8;" x="33.73" xlink:href="#md40d17da60" y="55.365"/>
      </g>
     </g>
     <g id="text_5">
      <!-- 0.8 -->
      <g transform="translate(10.826875 59.164219)scale(0.1 -0.1)">
       <defs>
        <path d="M 31.78125 34.625 
Q 24.75 34.625 20.71875 30.859375 
Q 16.703125 27.09375 16.703125 20.515625 
Q 16.703125 13.921875 20.71875 10.15625 
Q 24.75 6.390625 31.78125 6.390625 
Q 38.8125 6.390625 42.859375 10.171875 
Q 46.921875 13.96875 46.921875 20.515625 
Q 46.921875 27.09375 42.890625 30.859375 
Q 38.875 34.625 31.78125 34.625 
z
M 21.921875 38.8125 
Q 15.578125 40.375 12.03125 44.71875 
Q 8.5 49.078125 8.5 55.328125 
Q 8.5 64.0625 14.71875 69.140625 
Q 20.953125 74.21875 31.78125 74.21875 
Q 42.671875 74.21875 48.875 69.140625 
Q 55.078125 64.0625 55.078125 55.328125 
Q 55.078125 49.078125 51.53125 44.71875 
Q 48 40.375 41.703125 38.8125 
Q 48.828125 37.15625 52.796875 32.3125 
Q 56.78125 27.484375 56.78125 20.515625 
Q 56.78125 9.90625 50.3125 4.234375 
Q 43.84375 -1.421875 31.78125 -1.421875 
Q 19.734375 -1.421875 13.25 4.234375 
Q 6.78125 9.90625 6.78125 20.515625 
Q 6.78125 27.484375 10.78125 32.3125 
Q 14.796875 37.15625 21.921875 38.8125 
z
M 18.3125 54.390625 
Q 18.3125 48.734375 21.84375 45.5625 
Q 25.390625 42.390625 31.78125 42.390625 
Q 38.140625 42.390625 41.71875 45.5625 
Q 45.3125 48.734375 45.3125 54.390625 
Q 45.3125 60.0625 41.71875 63.234375 
Q 38.140625 66.40625 31.78125 66.40625 
Q 25.390625 66.40625 21.84375 63.234375 
Q 18.3125 60.0625 18.3125 54.390625 
z
" id="DejaVuSans-56"/>
       </defs>
       <use xlink:href="#DejaVuSans-48"/>
       <use x="63.623047" xlink:href="#DejaVuSans-46"/>
       <use x="95.410156" xlink:href="#DejaVuSans-56"/>
      </g>
     </g>
    </g>
    <g id="ytick_6">
     <g id="line2d_12">
      <g>
       <use style="stroke:#000000;stroke-width:0.8;" x="33.73" xlink:href="#md40d17da60" y="31.425"/>
      </g>
     </g>
     <g id="text_6">
      <!-- 1.0 -->
      <g transform="translate(10.826875 35.224219)scale(0.1 -0.1)">
       <defs>
        <path d="M 12.40625 8.296875 
L 28.515625 8.296875 
L 28.515625 63.921875 
L 10.984375 60.40625 
L 10.984375 69.390625 
L 28.421875 72.90625 
L 38.28125 72.90625 
L 38.28125 8.296875 
L 54.390625 8.296875 
L 54.390625 0 
L 12.40625 0 
z
" id="DejaVuSans-49"/>
       </defs>
       <use xlink:href="#DejaVuSans-49"/>
       <use x="63.623047" xlink:href="#DejaVuSans-46"/>
       <use x="95.410156" xlink:href="#DejaVuSans-48"/>
      </g>
     </g>
    </g>
   </g>
   <g id="line2d_13">
    <path clip-path="url(#p8399f3da1d)" d="M 52.651364 98.037739 
L 54.032485 97.447461 
L 55.413607 97.958063 
L 56.794728 98.64873 
L 58.175849 98.0631 
L 59.556971 98.986243 
L 60.938092 98.034781 
L 62.319214 98.644714 
L 63.700335 97.922981 
L 65.081457 98.540734 
L 66.462578 97.967785 
L 67.843699 98.449645 
L 69.224821 96.70882 
L 70.605942 98.582368 
L 73.368185 98.329392 
L 74.749307 97.313047 
L 76.130428 97.965249 
L 77.511549 96.613927 
L 78.892671 97.997796 
L 80.273792 97.333547 
L 81.654914 98.619353 
L 83.036035 98.652745 
L 85.798278 97.995471 
L 87.179399 98.2457 
L 88.560521 98.133055 
L 89.941642 99.572084 
L 91.322764 98.665003 
L 92.703885 99.411464 
L 95.466128 97.30248 
L 96.84725 98.614915 
L 98.228371 97.710582 
L 99.609492 98.839149 
L 100.990614 98.602446 
L 102.371735 97.750737 
L 103.752857 99.572506 
L 105.133978 97.396316 
L 106.5151 97.936506 
L 107.896221 98.058874 
L 109.277342 99.370886 
L 110.658464 98.03161 
L 112.039585 99.288674 
L 113.420707 97.78751 
L 114.801828 97.962079 
L 116.18295 97.46162 
L 117.564071 97.815407 
L 118.945192 98.979058 
L 120.326314 98.441826 
L 121.707435 98.726715 
L 123.088557 97.124741 
L 124.469678 98.783566 
L 125.8508 98.01576 
L 128.613042 97.916429 
L 131.375285 98.021255 
L 132.756407 98.118683 
L 134.137528 97.158133 
L 135.51865 99.184905 
L 136.899771 98.042812 
L 138.280893 97.728334 
L 139.662014 99.499593 
L 141.043135 98.32601 
L 142.424257 97.79216 
L 143.805378 97.734041 
L 145.1865 98.15588 
L 146.567621 97.781593 
L 147.948743 98.191385 
L 149.329864 96.494941 
L 150.710985 98.335943 
L 152.092107 96.940662 
L 153.473228 97.993146 
L 154.85435 97.212448 
L 156.235471 98.92284 
L 157.616593 97.775252 
L 158.997714 97.558838 
L 160.378835 97.998218 
L 163.141078 98.207236 
L 164.5222 96.668665 
L 165.903321 97.686489 
L 167.284443 98.424284 
L 168.665564 97.045488 
L 170.046685 98.193921 
L 171.427807 96.744748 
L 172.808928 97.748835 
L 174.19005 98.394274 
L 175.571171 98.465073 
L 176.952293 96.532771 
L 178.333414 96.606319 
L 179.714536 89.252455 
L 181.095657 63.89139 
L 182.476778 36.444377 
L 183.8579 31.425 
L 185.239021 31.769488 
L 186.620143 42.86284 
L 189.382386 136.443057 
L 190.763507 148.360644 
L 192.144628 151.125 
L 193.52575 150.493087 
L 194.906871 150.465612 
L 196.287993 150.579737 
L 197.669114 148.662863 
L 199.050236 150.596644 
L 200.431357 150.192981 
L 201.812478 150.778399 
L 203.1936 150.387416 
L 204.574721 149.026372 
L 205.955843 150.552263 
L 207.336964 150.452932 
L 208.718086 148.812916 
L 210.099207 147.671668 
L 211.480328 147.458213 
L 212.86145 149.024258 
L 214.242571 149.901329 
L 217.004814 148.049971 
L 219.767057 147.287025 
L 221.148179 148.443067 
L 222.5293 147.844969 
L 223.910421 146.648772 
L 225.291543 147.295479 
L 226.672664 146.409955 
L 228.053786 146.477585 
L 229.434907 146.661453 
L 230.816029 145.915415 
L 232.19715 145.477936 
L 233.578271 145.987271 
L 234.959393 143.869622 
L 236.340514 145.778042 
L 237.721636 143.43637 
L 239.102757 144.53535 
L 240.483879 142.937603 
L 241.865 144.05983 
L 243.246121 142.107028 
L 244.627243 142.018264 
L 247.389486 143.104563 
L 248.770607 140.915058 
L 250.151729 141.1264 
L 251.53285 140.099277 
L 252.913971 138.727666 
L 254.295093 139.991492 
L 255.676214 139.966131 
L 257.057336 138.049258 
L 258.438457 137.203889 
L 259.819579 137.825235 
L 261.2007 137.060176 
L 262.581821 137.956267 
L 263.962943 136.867855 
L 265.344064 134.959434 
L 266.725186 135.751968 
L 268.106307 134.386697 
L 269.487429 132.379157 
L 270.86855 133.298285 
L 272.249672 132.244744 
L 273.630793 131.468695 
L 275.011914 130.33738 
L 276.393036 130.419381 
L 277.774157 129.247911 
L 279.155279 128.723149 
L 280.5364 128.014307 
L 281.917522 127.121386 
L 283.298643 126.913848 
L 284.679764 127.382816 
L 286.060886 125.595073 
L 287.442007 125.465942 
L 291.585372 123.546321 
L 292.966493 124.265941 
L 294.347614 122.299825 
L 295.728736 121.737655 
L 297.109857 120.64734 
L 298.490979 120.71497 
L 299.8721 119.07749 
L 301.253222 118.256848 
L 302.634343 116.74237 
L 304.015464 117.538496 
L 305.396586 117.044589 
L 306.777707 116.201545 
L 308.158829 115.577875 
L 309.53995 115.145468 
L 310.921072 115.132365 
L 312.302193 113.586397 
L 313.683315 113.555752 
L 315.064436 113.2969 
L 316.445557 112.255089 
L 319.2078 112.05816 
L 320.588922 110.343858 
L 321.970043 110.122709 
L 324.732286 109.169852 
L 326.113407 108.454163 
L 327.494529 108.589844 
L 328.87565 108.119819 
L 331.637893 108.926301 
L 333.019015 108.640778 
L 334.400136 106.675507 
L 335.781257 106.744827 
L 337.162379 107.028871 
L 338.5435 105.620486 
L 339.924622 105.466207 
L 341.305743 105.88086 
L 342.686865 106.508969 
L 344.067986 105.111363 
L 345.449107 104.472476 
L 346.830229 104.752504 
L 348.21135 104.269164 
L 349.592472 104.360464 
L 350.973593 102.975539 
L 353.735836 103.469234 
L 355.116958 102.965606 
L 356.498079 102.22781 
L 357.8792 102.788501 
L 359.260322 102.756165 
L 360.641443 103.786881 
L 362.022565 103.256835 
L 363.403686 101.554896 
L 364.784808 102.779836 
L 366.165929 100.585258 
L 367.54705 100.474938 
L 368.928172 101.821822 
L 370.309293 101.119954 
L 371.690415 101.565886 
L 373.071536 100.649718 
L 374.452658 100.41386 
L 375.833779 101.671769 
L 377.2149 99.735874 
L 378.596022 99.499805 
L 379.977143 100.137424 
L 381.358265 101.241476 
L 384.120508 100.437953 
L 385.501629 99.736508 
L 386.88275 99.959051 
L 388.263872 100.381102 
L 389.644993 98.906778 
L 391.026115 100.038939 
L 392.407236 100.426329 
L 393.788358 101.09565 
L 395.169479 98.650632 
L 396.550601 99.152569 
L 397.931722 99.42499 
L 399.312843 99.190188 
L 400.693965 98.211463 
L 402.075086 98.818437 
L 403.456208 100.540876 
L 404.837329 99.848308 
L 406.218451 98.32601 
L 407.599572 99.060847 
L 408.980693 97.756866 
L 410.361815 99.987794 
L 411.742936 99.668667 
L 413.124058 99.959897 
L 414.505179 98.007517 
L 415.886301 99.790612 
L 417.267422 100.153275 
L 418.648543 98.49445 
L 420.029665 97.473033 
L 421.410786 98.597162 
L 422.791908 98.715936 
L 424.173029 99.099523 
L 425.554151 98.561023 
L 426.935272 99.449294 
L 428.316393 97.977084 
L 429.697515 98.121008 
L 431.078636 98.385609 
L 431.078636 98.385609 
" style="fill:none;stroke:#1f77b4;stroke-linecap:square;stroke-width:1.5;"/>
   </g>
   <g id="line2d_14">
    <path clip-path="url(#p8399f3da1d)" d="M 176.952293 96.129841 
L 178.333414 94.13753 
L 179.714536 88.810658 
L 181.095657 67.699493 
L 182.476778 41.130119 
L 183.8579 31.48088 
L 185.239021 31.425 
L 186.620143 41.667998 
L 188.001264 91.585425 
L 189.382386 137.848306 
L 190.763507 149.674434 
L 192.144628 151.125 
L 193.52575 150.347164 
L 194.906871 149.096201 
L 196.287993 147.131548 
L 197.669114 146.899531 
L 199.050236 147.47393 
L 200.431357 148.313044 
L 201.812478 149.534118 
L 203.1936 150.479997 
" style="fill:none;stroke:#ff7f0e;stroke-linecap:square;stroke-width:2;"/>
   </g>
   <g id="line2d_15">
    <path clip-path="url(#p8399f3da1d)" d="M 176.952293 157.11 
L 176.952293 25.44 
" style="fill:none;stroke:#000000;stroke-dasharray:5.55,2.4;stroke-dashoffset:0;stroke-opacity:0.25;stroke-width:1.5;"/>
   </g>
   <g id="patch_3">
    <path d="M 33.73 157.11 
L 33.73 25.44 
" style="fill:none;stroke:#000000;stroke-linecap:square;stroke-linejoin:miter;stroke-width:0.8;"/>
   </g>
   <g id="patch_4">
    <path d="M 450 157.11 
L 450 25.44 
" style="fill:none;stroke:#000000;stroke-linecap:square;stroke-linejoin:miter;stroke-width:0.8;"/>
   </g>
   <g id="patch_5">
    <path d="M 33.73 157.11 
L 450 157.11 
" style="fill:none;stroke:#000000;stroke-linecap:square;stroke-linejoin:miter;stroke-width:0.8;"/>
   </g>
   <g id="patch_6">
    <path d="M 33.73 25.44 
L 450 25.44 
" style="fill:none;stroke:#000000;stroke-linecap:square;stroke-linejoin:miter;stroke-width:0.8;"/>
   </g>
   <g id="text_7">
    <!-- The aligned extracted shapelet -->
    <g transform="translate(148.259375 19.44)scale(0.12 -0.12)">
     <defs>
      <path d="M -0.296875 72.90625 
L 61.375 72.90625 
L 61.375 64.59375 
L 35.5 64.59375 
L 35.5 0 
L 25.59375 0 
L 25.59375 64.59375 
L -0.296875 64.59375 
z
" id="DejaVuSans-84"/>
      <path d="M 54.890625 33.015625 
L 54.890625 0 
L 45.90625 0 
L 45.90625 32.71875 
Q 45.90625 40.484375 42.875 44.328125 
Q 39.84375 48.1875 33.796875 48.1875 
Q 26.515625 48.1875 22.3125 43.546875 
Q 18.109375 38.921875 18.109375 30.90625 
L 18.109375 0 
L 9.078125 0 
L 9.078125 75.984375 
L 18.109375 75.984375 
L 18.109375 46.1875 
Q 21.34375 51.125 25.703125 53.5625 
Q 30.078125 56 35.796875 56 
Q 45.21875 56 50.046875 50.171875 
Q 54.890625 44.34375 54.890625 33.015625 
z
" id="DejaVuSans-104"/>
      <path d="M 56.203125 29.59375 
L 56.203125 25.203125 
L 14.890625 25.203125 
Q 15.484375 15.921875 20.484375 11.0625 
Q 25.484375 6.203125 34.421875 6.203125 
Q 39.59375 6.203125 44.453125 7.46875 
Q 49.3125 8.734375 54.109375 11.28125 
L 54.109375 2.78125 
Q 49.265625 0.734375 44.1875 -0.34375 
Q 39.109375 -1.421875 33.890625 -1.421875 
Q 20.796875 -1.421875 13.15625 6.1875 
Q 5.515625 13.8125 5.515625 26.8125 
Q 5.515625 40.234375 12.765625 48.109375 
Q 20.015625 56 32.328125 56 
Q 43.359375 56 49.78125 48.890625 
Q 56.203125 41.796875 56.203125 29.59375 
z
M 47.21875 32.234375 
Q 47.125 39.59375 43.09375 43.984375 
Q 39.0625 48.390625 32.421875 48.390625 
Q 24.90625 48.390625 20.390625 44.140625 
Q 15.875 39.890625 15.1875 32.171875 
z
" id="DejaVuSans-101"/>
      <path id="DejaVuSans-32"/>
      <path d="M 34.28125 27.484375 
Q 23.390625 27.484375 19.1875 25 
Q 14.984375 22.515625 14.984375 16.5 
Q 14.984375 11.71875 18.140625 8.90625 
Q 21.296875 6.109375 26.703125 6.109375 
Q 34.1875 6.109375 38.703125 11.40625 
Q 43.21875 16.703125 43.21875 25.484375 
L 43.21875 27.484375 
z
M 52.203125 31.203125 
L 52.203125 0 
L 43.21875 0 
L 43.21875 8.296875 
Q 40.140625 3.328125 35.546875 0.953125 
Q 30.953125 -1.421875 24.3125 -1.421875 
Q 15.921875 -1.421875 10.953125 3.296875 
Q 6 8.015625 6 15.921875 
Q 6 25.140625 12.171875 29.828125 
Q 18.359375 34.515625 30.609375 34.515625 
L 43.21875 34.515625 
L 43.21875 35.40625 
Q 43.21875 41.609375 39.140625 45 
Q 35.0625 48.390625 27.6875 48.390625 
Q 23 48.390625 18.546875 47.265625 
Q 14.109375 46.140625 10.015625 43.890625 
L 10.015625 52.203125 
Q 14.9375 54.109375 19.578125 55.046875 
Q 24.21875 56 28.609375 56 
Q 40.484375 56 46.34375 49.84375 
Q 52.203125 43.703125 52.203125 31.203125 
z
" id="DejaVuSans-97"/>
      <path d="M 9.421875 75.984375 
L 18.40625 75.984375 
L 18.40625 0 
L 9.421875 0 
z
" id="DejaVuSans-108"/>
      <path d="M 9.421875 54.6875 
L 18.40625 54.6875 
L 18.40625 0 
L 9.421875 0 
z
M 9.421875 75.984375 
L 18.40625 75.984375 
L 18.40625 64.59375 
L 9.421875 64.59375 
z
" id="DejaVuSans-105"/>
      <path d="M 45.40625 27.984375 
Q 45.40625 37.75 41.375 43.109375 
Q 37.359375 48.484375 30.078125 48.484375 
Q 22.859375 48.484375 18.828125 43.109375 
Q 14.796875 37.75 14.796875 27.984375 
Q 14.796875 18.265625 18.828125 12.890625 
Q 22.859375 7.515625 30.078125 7.515625 
Q 37.359375 7.515625 41.375 12.890625 
Q 45.40625 18.265625 45.40625 27.984375 
z
M 54.390625 6.78125 
Q 54.390625 -7.171875 48.1875 -13.984375 
Q 42 -20.796875 29.203125 -20.796875 
Q 24.46875 -20.796875 20.265625 -20.09375 
Q 16.0625 -19.390625 12.109375 -17.921875 
L 12.109375 -9.1875 
Q 16.0625 -11.328125 19.921875 -12.34375 
Q 23.78125 -13.375 27.78125 -13.375 
Q 36.625 -13.375 41.015625 -8.765625 
Q 45.40625 -4.15625 45.40625 5.171875 
L 45.40625 9.625 
Q 42.625 4.78125 38.28125 2.390625 
Q 33.9375 0 27.875 0 
Q 17.828125 0 11.671875 7.65625 
Q 5.515625 15.328125 5.515625 27.984375 
Q 5.515625 40.671875 11.671875 48.328125 
Q 17.828125 56 27.875 56 
Q 33.9375 56 38.28125 53.609375 
Q 42.625 51.21875 45.40625 46.390625 
L 45.40625 54.6875 
L 54.390625 54.6875 
z
" id="DejaVuSans-103"/>
      <path d="M 54.890625 33.015625 
L 54.890625 0 
L 45.90625 0 
L 45.90625 32.71875 
Q 45.90625 40.484375 42.875 44.328125 
Q 39.84375 48.1875 33.796875 48.1875 
Q 26.515625 48.1875 22.3125 43.546875 
Q 18.109375 38.921875 18.109375 30.90625 
L 18.109375 0 
L 9.078125 0 
L 9.078125 54.6875 
L 18.109375 54.6875 
L 18.109375 46.1875 
Q 21.34375 51.125 25.703125 53.5625 
Q 30.078125 56 35.796875 56 
Q 45.21875 56 50.046875 50.171875 
Q 54.890625 44.34375 54.890625 33.015625 
z
" id="DejaVuSans-110"/>
      <path d="M 45.40625 46.390625 
L 45.40625 75.984375 
L 54.390625 75.984375 
L 54.390625 0 
L 45.40625 0 
L 45.40625 8.203125 
Q 42.578125 3.328125 38.25 0.953125 
Q 33.9375 -1.421875 27.875 -1.421875 
Q 17.96875 -1.421875 11.734375 6.484375 
Q 5.515625 14.40625 5.515625 27.296875 
Q 5.515625 40.1875 11.734375 48.09375 
Q 17.96875 56 27.875 56 
Q 33.9375 56 38.25 53.625 
Q 42.578125 51.265625 45.40625 46.390625 
z
M 14.796875 27.296875 
Q 14.796875 17.390625 18.875 11.75 
Q 22.953125 6.109375 30.078125 6.109375 
Q 37.203125 6.109375 41.296875 11.75 
Q 45.40625 17.390625 45.40625 27.296875 
Q 45.40625 37.203125 41.296875 42.84375 
Q 37.203125 48.484375 30.078125 48.484375 
Q 22.953125 48.484375 18.875 42.84375 
Q 14.796875 37.203125 14.796875 27.296875 
z
" id="DejaVuSans-100"/>
      <path d="M 54.890625 54.6875 
L 35.109375 28.078125 
L 55.90625 0 
L 45.3125 0 
L 29.390625 21.484375 
L 13.484375 0 
L 2.875 0 
L 24.125 28.609375 
L 4.6875 54.6875 
L 15.28125 54.6875 
L 29.78125 35.203125 
L 44.28125 54.6875 
z
" id="DejaVuSans-120"/>
      <path d="M 18.3125 70.21875 
L 18.3125 54.6875 
L 36.8125 54.6875 
L 36.8125 47.703125 
L 18.3125 47.703125 
L 18.3125 18.015625 
Q 18.3125 11.328125 20.140625 9.421875 
Q 21.96875 7.515625 27.59375 7.515625 
L 36.8125 7.515625 
L 36.8125 0 
L 27.59375 0 
Q 17.1875 0 13.234375 3.875 
Q 9.28125 7.765625 9.28125 18.015625 
L 9.28125 47.703125 
L 2.6875 47.703125 
L 2.6875 54.6875 
L 9.28125 54.6875 
L 9.28125 70.21875 
z
" id="DejaVuSans-116"/>
      <path d="M 41.109375 46.296875 
Q 39.59375 47.171875 37.8125 47.578125 
Q 36.03125 48 33.890625 48 
Q 26.265625 48 22.1875 43.046875 
Q 18.109375 38.09375 18.109375 28.8125 
L 18.109375 0 
L 9.078125 0 
L 9.078125 54.6875 
L 18.109375 54.6875 
L 18.109375 46.1875 
Q 20.953125 51.171875 25.484375 53.578125 
Q 30.03125 56 36.53125 56 
Q 37.453125 56 38.578125 55.875 
Q 39.703125 55.765625 41.0625 55.515625 
z
" id="DejaVuSans-114"/>
      <path d="M 48.78125 52.59375 
L 48.78125 44.1875 
Q 44.96875 46.296875 41.140625 47.34375 
Q 37.3125 48.390625 33.40625 48.390625 
Q 24.65625 48.390625 19.8125 42.84375 
Q 14.984375 37.3125 14.984375 27.296875 
Q 14.984375 17.28125 19.8125 11.734375 
Q 24.65625 6.203125 33.40625 6.203125 
Q 37.3125 6.203125 41.140625 7.25 
Q 44.96875 8.296875 48.78125 10.40625 
L 48.78125 2.09375 
Q 45.015625 0.34375 40.984375 -0.53125 
Q 36.96875 -1.421875 32.421875 -1.421875 
Q 20.0625 -1.421875 12.78125 6.34375 
Q 5.515625 14.109375 5.515625 27.296875 
Q 5.515625 40.671875 12.859375 48.328125 
Q 20.21875 56 33.015625 56 
Q 37.15625 56 41.109375 55.140625 
Q 45.0625 54.296875 48.78125 52.59375 
z
" id="DejaVuSans-99"/>
      <path d="M 44.28125 53.078125 
L 44.28125 44.578125 
Q 40.484375 46.53125 36.375 47.5 
Q 32.28125 48.484375 27.875 48.484375 
Q 21.1875 48.484375 17.84375 46.4375 
Q 14.5 44.390625 14.5 40.28125 
Q 14.5 37.15625 16.890625 35.375 
Q 19.28125 33.59375 26.515625 31.984375 
L 29.59375 31.296875 
Q 39.15625 29.25 43.1875 25.515625 
Q 47.21875 21.78125 47.21875 15.09375 
Q 47.21875 7.46875 41.1875 3.015625 
Q 35.15625 -1.421875 24.609375 -1.421875 
Q 20.21875 -1.421875 15.453125 -0.5625 
Q 10.6875 0.296875 5.421875 2 
L 5.421875 11.28125 
Q 10.40625 8.6875 15.234375 7.390625 
Q 20.0625 6.109375 24.8125 6.109375 
Q 31.15625 6.109375 34.5625 8.28125 
Q 37.984375 10.453125 37.984375 14.40625 
Q 37.984375 18.0625 35.515625 20.015625 
Q 33.0625 21.96875 24.703125 23.78125 
L 21.578125 24.515625 
Q 13.234375 26.265625 9.515625 29.90625 
Q 5.8125 33.546875 5.8125 39.890625 
Q 5.8125 47.609375 11.28125 51.796875 
Q 16.75 56 26.8125 56 
Q 31.78125 56 36.171875 55.265625 
Q 40.578125 54.546875 44.28125 53.078125 
z
" id="DejaVuSans-115"/>
      <path d="M 18.109375 8.203125 
L 18.109375 -20.796875 
L 9.078125 -20.796875 
L 9.078125 54.6875 
L 18.109375 54.6875 
L 18.109375 46.390625 
Q 20.953125 51.265625 25.265625 53.625 
Q 29.59375 56 35.59375 56 
Q 45.5625 56 51.78125 48.09375 
Q 58.015625 40.1875 58.015625 27.296875 
Q 58.015625 14.40625 51.78125 6.484375 
Q 45.5625 -1.421875 35.59375 -1.421875 
Q 29.59375 -1.421875 25.265625 0.953125 
Q 20.953125 3.328125 18.109375 8.203125 
z
M 48.6875 27.296875 
Q 48.6875 37.203125 44.609375 42.84375 
Q 40.53125 48.484375 33.40625 48.484375 
Q 26.265625 48.484375 22.1875 42.84375 
Q 18.109375 37.203125 18.109375 27.296875 
Q 18.109375 17.390625 22.1875 11.75 
Q 26.265625 6.109375 33.40625 6.109375 
Q 40.53125 6.109375 44.609375 11.75 
Q 48.6875 17.390625 48.6875 27.296875 
z
" id="DejaVuSans-112"/>
     </defs>
     <use xlink:href="#DejaVuSans-84"/>
     <use x="61.083984" xlink:href="#DejaVuSans-104"/>
     <use x="124.462891" xlink:href="#DejaVuSans-101"/>
     <use x="185.986328" xlink:href="#DejaVuSans-32"/>
     <use x="217.773438" xlink:href="#DejaVuSans-97"/>
     <use x="279.052734" xlink:href="#DejaVuSans-108"/>
     <use x="306.835938" xlink:href="#DejaVuSans-105"/>
     <use x="334.619141" xlink:href="#DejaVuSans-103"/>
     <use x="398.095703" xlink:href="#DejaVuSans-110"/>
     <use x="461.474609" xlink:href="#DejaVuSans-101"/>
     <use x="522.998047" xlink:href="#DejaVuSans-100"/>
     <use x="586.474609" xlink:href="#DejaVuSans-32"/>
     <use x="618.261719" xlink:href="#DejaVuSans-101"/>
     <use x="678.035156" xlink:href="#DejaVuSans-120"/>
     <use x="737.214844" xlink:href="#DejaVuSans-116"/>
     <use x="776.423828" xlink:href="#DejaVuSans-114"/>
     <use x="817.537109" xlink:href="#DejaVuSans-97"/>
     <use x="878.816406" xlink:href="#DejaVuSans-99"/>
     <use x="933.796875" xlink:href="#DejaVuSans-116"/>
     <use x="973.005859" xlink:href="#DejaVuSans-101"/>
     <use x="1034.529297" xlink:href="#DejaVuSans-100"/>
     <use x="1098.005859" xlink:href="#DejaVuSans-32"/>
     <use x="1129.792969" xlink:href="#DejaVuSans-115"/>
     <use x="1181.892578" xlink:href="#DejaVuSans-104"/>
     <use x="1245.271484" xlink:href="#DejaVuSans-97"/>
     <use x="1306.550781" xlink:href="#DejaVuSans-112"/>
     <use x="1370.027344" xlink:href="#DejaVuSans-101"/>
     <use x="1431.550781" xlink:href="#DejaVuSans-108"/>
     <use x="1459.333984" xlink:href="#DejaVuSans-101"/>
     <use x="1520.857422" xlink:href="#DejaVuSans-116"/>
    </g>
   </g>
  </g>
  <g id="axes_2">
   <g id="patch_7">
    <path d="M 33.73 317.72 
L 450 317.72 
L 450 186.05 
L 33.73 186.05 
z
" style="fill:#ffffff;"/>
   </g>
   <g id="matplotlib.axis_3">
    <g id="xtick_7">
     <g id="line2d_16">
      <g>
       <use style="stroke:#000000;stroke-width:0.8;" x="52.651364" xlink:href="#m022c566089" y="317.72"/>
      </g>
     </g>
     <g id="text_8">
      <!-- 0 -->
      <g transform="translate(49.470114 332.318437)scale(0.1 -0.1)">
       <use xlink:href="#DejaVuSans-48"/>
      </g>
     </g>
    </g>
    <g id="xtick_8">
     <g id="line2d_17">
      <g>
       <use style="stroke:#000000;stroke-width:0.8;" x="121.707435" xlink:href="#m022c566089" y="317.72"/>
      </g>
     </g>
     <g id="text_9">
      <!-- 50 -->
      <g transform="translate(115.344935 332.318437)scale(0.1 -0.1)">
       <defs>
        <path d="M 10.796875 72.90625 
L 49.515625 72.90625 
L 49.515625 64.59375 
L 19.828125 64.59375 
L 19.828125 46.734375 
Q 21.96875 47.46875 24.109375 47.828125 
Q 26.265625 48.1875 28.421875 48.1875 
Q 40.625 48.1875 47.75 41.5 
Q 54.890625 34.8125 54.890625 23.390625 
Q 54.890625 11.625 47.5625 5.09375 
Q 40.234375 -1.421875 26.90625 -1.421875 
Q 22.3125 -1.421875 17.546875 -0.640625 
Q 12.796875 0.140625 7.71875 1.703125 
L 7.71875 11.625 
Q 12.109375 9.234375 16.796875 8.0625 
Q 21.484375 6.890625 26.703125 6.890625 
Q 35.15625 6.890625 40.078125 11.328125 
Q 45.015625 15.765625 45.015625 23.390625 
Q 45.015625 31 40.078125 35.4375 
Q 35.15625 39.890625 26.703125 39.890625 
Q 22.75 39.890625 18.8125 39.015625 
Q 14.890625 38.140625 10.796875 36.28125 
z
" id="DejaVuSans-53"/>
       </defs>
       <use xlink:href="#DejaVuSans-53"/>
       <use x="63.623047" xlink:href="#DejaVuSans-48"/>
      </g>
     </g>
    </g>
    <g id="xtick_9">
     <g id="line2d_18">
      <g>
       <use style="stroke:#000000;stroke-width:0.8;" x="190.763507" xlink:href="#m022c566089" y="317.72"/>
      </g>
     </g>
     <g id="text_10">
      <!-- 100 -->
      <g transform="translate(181.219757 332.318437)scale(0.1 -0.1)">
       <use xlink:href="#DejaVuSans-49"/>
       <use x="63.623047" xlink:href="#DejaVuSans-48"/>
       <use x="127.246094" xlink:href="#DejaVuSans-48"/>
      </g>
     </g>
    </g>
    <g id="xtick_10">
     <g id="line2d_19">
      <g>
       <use style="stroke:#000000;stroke-width:0.8;" x="259.819579" xlink:href="#m022c566089" y="317.72"/>
      </g>
     </g>
     <g id="text_11">
      <!-- 150 -->
      <g transform="translate(250.275829 332.318437)scale(0.1 -0.1)">
       <use xlink:href="#DejaVuSans-49"/>
       <use x="63.623047" xlink:href="#DejaVuSans-53"/>
       <use x="127.246094" xlink:href="#DejaVuSans-48"/>
      </g>
     </g>
    </g>
    <g id="xtick_11">
     <g id="line2d_20">
      <g>
       <use style="stroke:#000000;stroke-width:0.8;" x="328.87565" xlink:href="#m022c566089" y="317.72"/>
      </g>
     </g>
     <g id="text_12">
      <!-- 200 -->
      <g transform="translate(319.3319 332.318437)scale(0.1 -0.1)">
       <use xlink:href="#DejaVuSans-50"/>
       <use x="63.623047" xlink:href="#DejaVuSans-48"/>
       <use x="127.246094" xlink:href="#DejaVuSans-48"/>
      </g>
     </g>
    </g>
    <g id="xtick_12">
     <g id="line2d_21">
      <g>
       <use style="stroke:#000000;stroke-width:0.8;" x="397.931722" xlink:href="#m022c566089" y="317.72"/>
      </g>
     </g>
     <g id="text_13">
      <!-- 250 -->
      <g transform="translate(388.387972 332.318437)scale(0.1 -0.1)">
       <use xlink:href="#DejaVuSans-50"/>
       <use x="63.623047" xlink:href="#DejaVuSans-53"/>
       <use x="127.246094" xlink:href="#DejaVuSans-48"/>
      </g>
     </g>
    </g>
   </g>
   <g id="matplotlib.axis_4">
    <g id="ytick_7">
     <g id="line2d_22">
      <g>
       <use style="stroke:#000000;stroke-width:0.8;" x="33.73" xlink:href="#md40d17da60" y="315.408752"/>
      </g>
     </g>
     <g id="text_14">
      <!-- 0.0 -->
      <g transform="translate(10.826875 319.20797)scale(0.1 -0.1)">
       <use xlink:href="#DejaVuSans-48"/>
       <use x="63.623047" xlink:href="#DejaVuSans-46"/>
       <use x="95.410156" xlink:href="#DejaVuSans-48"/>
      </g>
     </g>
    </g>
    <g id="ytick_8">
     <g id="line2d_23">
      <g>
       <use style="stroke:#000000;stroke-width:0.8;" x="33.73" xlink:href="#md40d17da60" y="290.910173"/>
      </g>
     </g>
     <g id="text_15">
      <!-- 0.5 -->
      <g transform="translate(10.826875 294.709392)scale(0.1 -0.1)">
       <use xlink:href="#DejaVuSans-48"/>
       <use x="63.623047" xlink:href="#DejaVuSans-46"/>
       <use x="95.410156" xlink:href="#DejaVuSans-53"/>
      </g>
     </g>
    </g>
    <g id="ytick_9">
     <g id="line2d_24">
      <g>
       <use style="stroke:#000000;stroke-width:0.8;" x="33.73" xlink:href="#md40d17da60" y="266.411595"/>
      </g>
     </g>
     <g id="text_16">
      <!-- 1.0 -->
      <g transform="translate(10.826875 270.210813)scale(0.1 -0.1)">
       <use xlink:href="#DejaVuSans-49"/>
       <use x="63.623047" xlink:href="#DejaVuSans-46"/>
       <use x="95.410156" xlink:href="#DejaVuSans-48"/>
      </g>
     </g>
    </g>
    <g id="ytick_10">
     <g id="line2d_25">
      <g>
       <use style="stroke:#000000;stroke-width:0.8;" x="33.73" xlink:href="#md40d17da60" y="241.913016"/>
      </g>
     </g>
     <g id="text_17">
      <!-- 1.5 -->
      <g transform="translate(10.826875 245.712235)scale(0.1 -0.1)">
       <use xlink:href="#DejaVuSans-49"/>
       <use x="63.623047" xlink:href="#DejaVuSans-46"/>
       <use x="95.410156" xlink:href="#DejaVuSans-53"/>
      </g>
     </g>
    </g>
    <g id="ytick_11">
     <g id="line2d_26">
      <g>
       <use style="stroke:#000000;stroke-width:0.8;" x="33.73" xlink:href="#md40d17da60" y="217.414438"/>
      </g>
     </g>
     <g id="text_18">
      <!-- 2.0 -->
      <g transform="translate(10.826875 221.213656)scale(0.1 -0.1)">
       <use xlink:href="#DejaVuSans-50"/>
       <use x="63.623047" xlink:href="#DejaVuSans-46"/>
       <use x="95.410156" xlink:href="#DejaVuSans-48"/>
      </g>
     </g>
    </g>
    <g id="ytick_12">
     <g id="line2d_27">
      <g>
       <use style="stroke:#000000;stroke-width:0.8;" x="33.73" xlink:href="#md40d17da60" y="192.915859"/>
      </g>
     </g>
     <g id="text_19">
      <!-- 2.5 -->
      <g transform="translate(10.826875 196.715078)scale(0.1 -0.1)">
       <use xlink:href="#DejaVuSans-50"/>
       <use x="63.623047" xlink:href="#DejaVuSans-46"/>
       <use x="95.410156" xlink:href="#DejaVuSans-53"/>
      </g>
     </g>
    </g>
   </g>
   <g id="line2d_28">
    <path clip-path="url(#p484b78c325)" d="M 52.651364 229.218593 
L 54.032485 229.147009 
L 65.081457 229.804894 
L 67.843699 230.308959 
L 70.605942 230.364553 
L 73.368185 230.08857 
L 78.892671 229.845806 
L 81.654914 229.434119 
L 84.417157 229.466875 
L 85.798278 229.712518 
L 88.560521 229.819621 
L 91.322764 229.626722 
L 94.085007 229.613337 
L 95.466128 229.763596 
L 100.990614 229.491095 
L 102.371735 229.373092 
L 105.133978 229.545077 
L 106.5151 229.686597 
L 112.039585 229.443954 
L 113.420707 229.586214 
L 124.469678 229.671751 
L 125.8508 229.458971 
L 127.231921 229.421134 
L 128.613042 229.216427 
L 131.375285 229.09598 
L 135.51865 229.256227 
L 136.899771 229.386028 
L 139.662014 229.473685 
L 141.043135 229.614578 
L 143.805378 229.692745 
L 146.567621 229.364395 
L 149.329864 229.422118 
L 152.092107 229.091871 
L 153.473228 228.239678 
L 154.85435 223.924472 
L 157.616593 206.162917 
L 158.997714 198.092945 
L 160.378835 192.270033 
L 161.759957 192.035 
L 164.5222 195.553736 
L 167.284443 198.850202 
L 168.665564 201.623357 
L 170.046685 207.549223 
L 171.427807 218.598917 
L 172.808928 234.985668 
L 174.19005 256.454916 
L 176.952293 311.735 
L 179.714536 255.83445 
L 181.095657 234.957881 
L 182.476778 220.133019 
L 183.8579 212.416591 
L 185.239021 209.481127 
L 188.001264 208.868736 
L 189.382386 206.594475 
L 190.763507 205.577313 
L 192.144628 205.388055 
L 197.669114 205.728247 
L 199.050236 205.942678 
L 201.812478 206.677747 
L 203.1936 206.893931 
L 207.336964 207.206946 
L 210.099207 207.719296 
L 212.86145 207.897408 
L 215.623693 208.459699 
L 218.385936 208.986395 
L 221.148179 209.41212 
L 229.434907 211.327441 
L 234.959393 212.796197 
L 236.340514 212.954833 
L 237.721636 213.321379 
L 239.102757 213.57256 
L 241.865 214.434038 
L 243.246121 214.950297 
L 246.008364 215.557809 
L 248.770607 216.500553 
L 251.53285 217.08807 
L 254.295093 217.386119 
L 257.057336 218.124189 
L 261.2007 219.645392 
L 262.581821 220.14747 
L 265.344064 221.306165 
L 272.249672 223.694444 
L 275.011914 224.165017 
L 277.774157 224.526418 
L 281.917522 225.015588 
L 283.298643 225.070925 
L 287.442007 225.780499 
L 290.20425 226.564283 
L 292.966493 227.508367 
L 295.728736 227.995806 
L 298.490979 228.200139 
L 301.253222 228.363454 
L 305.396586 228.791154 
L 306.777707 229.02012 
L 309.53995 229.143691 
L 312.302193 229.598582 
L 315.064436 230.072096 
L 316.445557 230.37502 
L 317.826679 230.455985 
L 320.588922 230.266111 
L 321.970043 229.987786 
L 324.732286 229.788667 
L 326.113407 229.758192 
L 330.256772 229.997318 
L 333.019015 229.838145 
L 335.781257 230.030757 
L 337.162379 229.971738 
L 338.5435 230.115542 
L 341.305743 230.084614 
L 345.449107 230.371054 
L 346.830229 230.352874 
L 349.592472 230.088169 
L 352.354715 229.4629 
L 353.735836 229.371091 
L 355.116958 229.530657 
L 356.498079 229.857395 
L 357.8792 230.068384 
L 366.165929 230.031232 
L 367.54705 230.337997 
L 370.309293 230.236498 
L 375.833779 229.644609 
L 378.596022 229.945929 
L 381.358265 229.798915 
L 382.739386 229.472917 
L 385.501629 229.638274 
L 386.88275 229.790364 
L 388.263872 229.811966 
L 391.026115 230.364688 
L 392.407236 230.222511 
L 393.788358 229.905087 
L 396.550601 229.861362 
L 399.312843 230.025201 
L 400.693965 230.012791 
L 403.456208 229.597586 
L 403.456208 229.597586 
" style="fill:none;stroke:#1f77b4;stroke-linecap:square;stroke-width:1.5;"/>
   </g>
   <g id="line2d_29">
    <path clip-path="url(#p484b78c325)" d="M 176.952293 317.72 
L 176.952293 186.05 
" style="fill:none;stroke:#000000;stroke-dasharray:5.55,2.4;stroke-dashoffset:0;stroke-opacity:0.25;stroke-width:1.5;"/>
   </g>
   <g id="patch_8">
    <path d="M 33.73 317.72 
L 33.73 186.05 
" style="fill:none;stroke:#000000;stroke-linecap:square;stroke-linejoin:miter;stroke-width:0.8;"/>
   </g>
   <g id="patch_9">
    <path d="M 450 317.72 
L 450 186.05 
" style="fill:none;stroke:#000000;stroke-linecap:square;stroke-linejoin:miter;stroke-width:0.8;"/>
   </g>
   <g id="patch_10">
    <path d="M 33.73 317.72 
L 450 317.72 
" style="fill:none;stroke:#000000;stroke-linecap:square;stroke-linejoin:miter;stroke-width:0.8;"/>
   </g>
   <g id="patch_11">
    <path d="M 33.73 186.05 
L 450 186.05 
" style="fill:none;stroke:#000000;stroke-linecap:square;stroke-linejoin:miter;stroke-width:0.8;"/>
   </g>
   <g id="text_20">
    <!-- The distances between the time series and the shapelet -->
    <g transform="translate(72.832813 180.05)scale(0.12 -0.12)">
     <defs>
      <path d="M 48.6875 27.296875 
Q 48.6875 37.203125 44.609375 42.84375 
Q 40.53125 48.484375 33.40625 48.484375 
Q 26.265625 48.484375 22.1875 42.84375 
Q 18.109375 37.203125 18.109375 27.296875 
Q 18.109375 17.390625 22.1875 11.75 
Q 26.265625 6.109375 33.40625 6.109375 
Q 40.53125 6.109375 44.609375 11.75 
Q 48.6875 17.390625 48.6875 27.296875 
z
M 18.109375 46.390625 
Q 20.953125 51.265625 25.265625 53.625 
Q 29.59375 56 35.59375 56 
Q 45.5625 56 51.78125 48.09375 
Q 58.015625 40.1875 58.015625 27.296875 
Q 58.015625 14.40625 51.78125 6.484375 
Q 45.5625 -1.421875 35.59375 -1.421875 
Q 29.59375 -1.421875 25.265625 0.953125 
Q 20.953125 3.328125 18.109375 8.203125 
L 18.109375 0 
L 9.078125 0 
L 9.078125 75.984375 
L 18.109375 75.984375 
z
" id="DejaVuSans-98"/>
      <path d="M 4.203125 54.6875 
L 13.1875 54.6875 
L 24.421875 12.015625 
L 35.59375 54.6875 
L 46.1875 54.6875 
L 57.421875 12.015625 
L 68.609375 54.6875 
L 77.59375 54.6875 
L 63.28125 0 
L 52.6875 0 
L 40.921875 44.828125 
L 29.109375 0 
L 18.5 0 
z
" id="DejaVuSans-119"/>
      <path d="M 52 44.1875 
Q 55.375 50.25 60.0625 53.125 
Q 64.75 56 71.09375 56 
Q 79.640625 56 84.28125 50.015625 
Q 88.921875 44.046875 88.921875 33.015625 
L 88.921875 0 
L 79.890625 0 
L 79.890625 32.71875 
Q 79.890625 40.578125 77.09375 44.375 
Q 74.3125 48.1875 68.609375 48.1875 
Q 61.625 48.1875 57.5625 43.546875 
Q 53.515625 38.921875 53.515625 30.90625 
L 53.515625 0 
L 44.484375 0 
L 44.484375 32.71875 
Q 44.484375 40.625 41.703125 44.40625 
Q 38.921875 48.1875 33.109375 48.1875 
Q 26.21875 48.1875 22.15625 43.53125 
Q 18.109375 38.875 18.109375 30.90625 
L 18.109375 0 
L 9.078125 0 
L 9.078125 54.6875 
L 18.109375 54.6875 
L 18.109375 46.1875 
Q 21.1875 51.21875 25.484375 53.609375 
Q 29.78125 56 35.6875 56 
Q 41.65625 56 45.828125 52.96875 
Q 50 49.953125 52 44.1875 
z
" id="DejaVuSans-109"/>
     </defs>
     <use xlink:href="#DejaVuSans-84"/>
     <use x="61.083984" xlink:href="#DejaVuSans-104"/>
     <use x="124.462891" xlink:href="#DejaVuSans-101"/>
     <use x="185.986328" xlink:href="#DejaVuSans-32"/>
     <use x="217.773438" xlink:href="#DejaVuSans-100"/>
     <use x="281.25" xlink:href="#DejaVuSans-105"/>
     <use x="309.033203" xlink:href="#DejaVuSans-115"/>
     <use x="361.132812" xlink:href="#DejaVuSans-116"/>
     <use x="400.341797" xlink:href="#DejaVuSans-97"/>
     <use x="461.621094" xlink:href="#DejaVuSans-110"/>
     <use x="525" xlink:href="#DejaVuSans-99"/>
     <use x="579.980469" xlink:href="#DejaVuSans-101"/>
     <use x="641.503906" xlink:href="#DejaVuSans-115"/>
     <use x="693.603516" xlink:href="#DejaVuSans-32"/>
     <use x="725.390625" xlink:href="#DejaVuSans-98"/>
     <use x="788.867188" xlink:href="#DejaVuSans-101"/>
     <use x="850.390625" xlink:href="#DejaVuSans-116"/>
     <use x="889.599609" xlink:href="#DejaVuSans-119"/>
     <use x="971.386719" xlink:href="#DejaVuSans-101"/>
     <use x="1032.910156" xlink:href="#DejaVuSans-101"/>
     <use x="1094.433594" xlink:href="#DejaVuSans-110"/>
     <use x="1157.8125" xlink:href="#DejaVuSans-32"/>
     <use x="1189.599609" xlink:href="#DejaVuSans-116"/>
     <use x="1228.808594" xlink:href="#DejaVuSans-104"/>
     <use x="1292.1875" xlink:href="#DejaVuSans-101"/>
     <use x="1353.710938" xlink:href="#DejaVuSans-32"/>
     <use x="1385.498047" xlink:href="#DejaVuSans-116"/>
     <use x="1424.707031" xlink:href="#DejaVuSans-105"/>
     <use x="1452.490234" xlink:href="#DejaVuSans-109"/>
     <use x="1549.902344" xlink:href="#DejaVuSans-101"/>
     <use x="1611.425781" xlink:href="#DejaVuSans-32"/>
     <use x="1643.212891" xlink:href="#DejaVuSans-115"/>
     <use x="1695.3125" xlink:href="#DejaVuSans-101"/>
     <use x="1756.835938" xlink:href="#DejaVuSans-114"/>
     <use x="1797.949219" xlink:href="#DejaVuSans-105"/>
     <use x="1825.732422" xlink:href="#DejaVuSans-101"/>
     <use x="1887.255859" xlink:href="#DejaVuSans-115"/>
     <use x="1939.355469" xlink:href="#DejaVuSans-32"/>
     <use x="1971.142578" xlink:href="#DejaVuSans-97"/>
     <use x="2032.421875" xlink:href="#DejaVuSans-110"/>
     <use x="2095.800781" xlink:href="#DejaVuSans-100"/>
     <use x="2159.277344" xlink:href="#DejaVuSans-32"/>
     <use x="2191.064453" xlink:href="#DejaVuSans-116"/>
     <use x="2230.273438" xlink:href="#DejaVuSans-104"/>
     <use x="2293.652344" xlink:href="#DejaVuSans-101"/>
     <use x="2355.175781" xlink:href="#DejaVuSans-32"/>
     <use x="2386.962891" xlink:href="#DejaVuSans-115"/>
     <use x="2439.0625" xlink:href="#DejaVuSans-104"/>
     <use x="2502.441406" xlink:href="#DejaVuSans-97"/>
     <use x="2563.720703" xlink:href="#DejaVuSans-112"/>
     <use x="2627.197266" xlink:href="#DejaVuSans-101"/>
     <use x="2688.720703" xlink:href="#DejaVuSans-108"/>
     <use x="2716.503906" xlink:href="#DejaVuSans-101"/>
     <use x="2778.027344" xlink:href="#DejaVuSans-116"/>
    </g>
   </g>
  </g>
 </g>
 <defs>
  <clipPath id="p8399f3da1d">
   <rect height="131.67" width="416.27" x="33.73" y="25.44"/>
  </clipPath>
  <clipPath id="p484b78c325">
   <rect height="131.67" width="416.27" x="33.73" y="186.05"/>
  </clipPath>
 </defs>
</svg>
