<?xml version="1.0" encoding="utf-8" standalone="no"?>
<!DOCTYPE svg PUBLIC "-//W3C//DTD SVG 1.1//EN"
  "http://www.w3.org/Graphics/SVG/1.1/DTD/svg11.dtd">
<!-- Created with matplotlib (https://matplotlib.org/) -->
<svg height="345.6pt" version="1.1" viewBox="0 0 460.8 345.6" width="460.8pt" xmlns="http://www.w3.org/2000/svg" xmlns:xlink="http://www.w3.org/1999/xlink">
 <metadata>
  <rdf:RDF xmlns:cc="http://creativecommons.org/ns#" xmlns:dc="http://purl.org/dc/elements/1.1/" xmlns:rdf="http://www.w3.org/1999/02/22-rdf-syntax-ns#">
   <cc:Work>
    <dc:type rdf:resource="http://purl.org/dc/dcmitype/StillImage"/>
    <dc:date>2021-05-07T16:17:53.314819</dc:date>
    <dc:format>image/svg+xml</dc:format>
    <dc:creator>
     <cc:Agent>
      <dc:title>Matplotlib v3.3.2, https://matplotlib.org/</dc:title>
     </cc:Agent>
    </dc:creator>
   </cc:Work>
  </rdf:RDF>
 </metadata>
 <defs>
  <style type="text/css">*{stroke-linecap:butt;stroke-linejoin:round;}</style>
 </defs>
 <g id="figure_1">
  <g id="patch_1">
   <path d="M 0 345.6 
L 460.8 345.6 
L 460.8 0 
L 0 0 
z
" style="fill:#ffffff;"/>
  </g>
  <g id="axes_1">
   <g id="patch_2">
    <path d="M 32.56 150.32 
L 450 150.32 
L 450 25.44 
L 32.56 25.44 
z
" style="fill:#ffffff;"/>
   </g>
   <g id="PolyCollection_1">
    <path clip-path="url(#p9c97d0d4f6)" d="M 83.580444 25.44 
L 83.580444 150.32 
L 114.501926 150.32 
L 114.501926 25.44 
L 114.501926 25.44 
L 83.580444 25.44 
z
" style="fill:#ff0000;fill-opacity:0.2;"/>
   </g>
   <g id="matplotlib.axis_1">
    <g id="xtick_1">
     <g id="line2d_1">
      <defs>
       <path d="M 0 0 
L 0 3.5 
" id="m98199460bc" style="stroke:#000000;stroke-width:0.8;"/>
      </defs>
      <g>
       <use style="stroke:#000000;stroke-width:0.8;" x="32.56" xlink:href="#m98199460bc" y="150.32"/>
      </g>
     </g>
     <g id="text_1">
      <!-- 0 -->
      <g transform="translate(29.37875 164.918437)scale(0.1 -0.1)">
       <defs>
        <path d="M 31.78125 66.40625 
Q 24.171875 66.40625 20.328125 58.90625 
Q 16.5 51.421875 16.5 36.375 
Q 16.5 21.390625 20.328125 13.890625 
Q 24.171875 6.390625 31.78125 6.390625 
Q 39.453125 6.390625 43.28125 13.890625 
Q 47.125 21.390625 47.125 36.375 
Q 47.125 51.421875 43.28125 58.90625 
Q 39.453125 66.40625 31.78125 66.40625 
z
M 31.78125 74.21875 
Q 44.046875 74.21875 50.515625 64.515625 
Q 56.984375 54.828125 56.984375 36.375 
Q 56.984375 17.96875 50.515625 8.265625 
Q 44.046875 -1.421875 31.78125 -1.421875 
Q 19.53125 -1.421875 13.0625 8.265625 
Q 6.59375 17.96875 6.59375 36.375 
Q 6.59375 54.828125 13.0625 64.515625 
Q 19.53125 74.21875 31.78125 74.21875 
z
" id="DejaVuSans-48"/>
       </defs>
       <use xlink:href="#DejaVuSans-48"/>
      </g>
     </g>
    </g>
    <g id="xtick_2">
     <g id="line2d_2">
      <g>
       <use style="stroke:#000000;stroke-width:0.8;" x="109.863704" xlink:href="#m98199460bc" y="150.32"/>
      </g>
     </g>
     <g id="text_2">
      <!-- 50 -->
      <g transform="translate(103.501204 164.918437)scale(0.1 -0.1)">
       <defs>
        <path d="M 10.796875 72.90625 
L 49.515625 72.90625 
L 49.515625 64.59375 
L 19.828125 64.59375 
L 19.828125 46.734375 
Q 21.96875 47.46875 24.109375 47.828125 
Q 26.265625 48.1875 28.421875 48.1875 
Q 40.625 48.1875 47.75 41.5 
Q 54.890625 34.8125 54.890625 23.390625 
Q 54.890625 11.625 47.5625 5.09375 
Q 40.234375 -1.421875 26.90625 -1.421875 
Q 22.3125 -1.421875 17.546875 -0.640625 
Q 12.796875 0.140625 7.71875 1.703125 
L 7.71875 11.625 
Q 12.109375 9.234375 16.796875 8.0625 
Q 21.484375 6.890625 26.703125 6.890625 
Q 35.15625 6.890625 40.078125 11.328125 
Q 45.015625 15.765625 45.015625 23.390625 
Q 45.015625 31 40.078125 35.4375 
Q 35.15625 39.890625 26.703125 39.890625 
Q 22.75 39.890625 18.8125 39.015625 
Q 14.890625 38.140625 10.796875 36.28125 
z
" id="DejaVuSans-53"/>
       </defs>
       <use xlink:href="#DejaVuSans-53"/>
       <use x="63.623047" xlink:href="#DejaVuSans-48"/>
      </g>
     </g>
    </g>
    <g id="xtick_3">
     <g id="line2d_3">
      <g>
       <use style="stroke:#000000;stroke-width:0.8;" x="187.167407" xlink:href="#m98199460bc" y="150.32"/>
      </g>
     </g>
     <g id="text_3">
      <!-- 100 -->
      <g transform="translate(177.623657 164.918437)scale(0.1 -0.1)">
       <defs>
        <path d="M 12.40625 8.296875 
L 28.515625 8.296875 
L 28.515625 63.921875 
L 10.984375 60.40625 
L 10.984375 69.390625 
L 28.421875 72.90625 
L 38.28125 72.90625 
L 38.28125 8.296875 
L 54.390625 8.296875 
L 54.390625 0 
L 12.40625 0 
z
" id="DejaVuSans-49"/>
       </defs>
       <use xlink:href="#DejaVuSans-49"/>
       <use x="63.623047" xlink:href="#DejaVuSans-48"/>
       <use x="127.246094" xlink:href="#DejaVuSans-48"/>
      </g>
     </g>
    </g>
    <g id="xtick_4">
     <g id="line2d_4">
      <g>
       <use style="stroke:#000000;stroke-width:0.8;" x="264.471111" xlink:href="#m98199460bc" y="150.32"/>
      </g>
     </g>
     <g id="text_4">
      <!-- 150 -->
      <g transform="translate(254.927361 164.918437)scale(0.1 -0.1)">
       <use xlink:href="#DejaVuSans-49"/>
       <use x="63.623047" xlink:href="#DejaVuSans-53"/>
       <use x="127.246094" xlink:href="#DejaVuSans-48"/>
      </g>
     </g>
    </g>
    <g id="xtick_5">
     <g id="line2d_5">
      <g>
       <use style="stroke:#000000;stroke-width:0.8;" x="341.774815" xlink:href="#m98199460bc" y="150.32"/>
      </g>
     </g>
     <g id="text_5">
      <!-- 200 -->
      <g transform="translate(332.231065 164.918437)scale(0.1 -0.1)">
       <defs>
        <path d="M 19.1875 8.296875 
L 53.609375 8.296875 
L 53.609375 0 
L 7.328125 0 
L 7.328125 8.296875 
Q 12.9375 14.109375 22.625 23.890625 
Q 32.328125 33.6875 34.8125 36.53125 
Q 39.546875 41.84375 41.421875 45.53125 
Q 43.3125 49.21875 43.3125 52.78125 
Q 43.3125 58.59375 39.234375 62.25 
Q 35.15625 65.921875 28.609375 65.921875 
Q 23.96875 65.921875 18.8125 64.3125 
Q 13.671875 62.703125 7.8125 59.421875 
L 7.8125 69.390625 
Q 13.765625 71.78125 18.9375 73 
Q 24.125 74.21875 28.421875 74.21875 
Q 39.75 74.21875 46.484375 68.546875 
Q 53.21875 62.890625 53.21875 53.421875 
Q 53.21875 48.921875 51.53125 44.890625 
Q 49.859375 40.875 45.40625 35.40625 
Q 44.1875 33.984375 37.640625 27.21875 
Q 31.109375 20.453125 19.1875 8.296875 
z
" id="DejaVuSans-50"/>
       </defs>
       <use xlink:href="#DejaVuSans-50"/>
       <use x="63.623047" xlink:href="#DejaVuSans-48"/>
       <use x="127.246094" xlink:href="#DejaVuSans-48"/>
      </g>
     </g>
    </g>
    <g id="xtick_6">
     <g id="line2d_6">
      <g>
       <use style="stroke:#000000;stroke-width:0.8;" x="419.078519" xlink:href="#m98199460bc" y="150.32"/>
      </g>
     </g>
     <g id="text_6">
      <!-- 250 -->
      <g transform="translate(409.534769 164.918437)scale(0.1 -0.1)">
       <use xlink:href="#DejaVuSans-50"/>
       <use x="63.623047" xlink:href="#DejaVuSans-53"/>
       <use x="127.246094" xlink:href="#DejaVuSans-48"/>
      </g>
     </g>
    </g>
   </g>
   <g id="matplotlib.axis_2">
    <g id="ytick_1">
     <g id="line2d_7">
      <defs>
       <path d="M 0 0 
L -3.5 0 
" id="m71142b2048" style="stroke:#000000;stroke-width:0.8;"/>
      </defs>
      <g>
       <use style="stroke:#000000;stroke-width:0.8;" x="32.56" xlink:href="#m71142b2048" y="149.073603"/>
      </g>
     </g>
     <g id="text_7">
      <!-- −1 -->
      <g transform="translate(10.817813 152.872821)scale(0.1 -0.1)">
       <defs>
        <path d="M 10.59375 35.5 
L 73.1875 35.5 
L 73.1875 27.203125 
L 10.59375 27.203125 
z
" id="DejaVuSans-8722"/>
       </defs>
       <use xlink:href="#DejaVuSans-8722"/>
       <use x="83.789062" xlink:href="#DejaVuSans-49"/>
      </g>
     </g>
    </g>
    <g id="ytick_2">
     <g id="line2d_8">
      <g>
       <use style="stroke:#000000;stroke-width:0.8;" x="32.56" xlink:href="#m71142b2048" y="124.045544"/>
      </g>
     </g>
     <g id="text_8">
      <!-- 0 -->
      <g transform="translate(19.1975 127.844763)scale(0.1 -0.1)">
       <use xlink:href="#DejaVuSans-48"/>
      </g>
     </g>
    </g>
    <g id="ytick_3">
     <g id="line2d_9">
      <g>
       <use style="stroke:#000000;stroke-width:0.8;" x="32.56" xlink:href="#m71142b2048" y="99.017486"/>
      </g>
     </g>
     <g id="text_9">
      <!-- 1 -->
      <g transform="translate(19.1975 102.816705)scale(0.1 -0.1)">
       <use xlink:href="#DejaVuSans-49"/>
      </g>
     </g>
    </g>
    <g id="ytick_4">
     <g id="line2d_10">
      <g>
       <use style="stroke:#000000;stroke-width:0.8;" x="32.56" xlink:href="#m71142b2048" y="73.989428"/>
      </g>
     </g>
     <g id="text_10">
      <!-- 2 -->
      <g transform="translate(19.1975 77.788646)scale(0.1 -0.1)">
       <use xlink:href="#DejaVuSans-50"/>
      </g>
     </g>
    </g>
    <g id="ytick_5">
     <g id="line2d_11">
      <g>
       <use style="stroke:#000000;stroke-width:0.8;" x="32.56" xlink:href="#m71142b2048" y="48.961369"/>
      </g>
     </g>
     <g id="text_11">
      <!-- 3 -->
      <g transform="translate(19.1975 52.760588)scale(0.1 -0.1)">
       <defs>
        <path d="M 40.578125 39.3125 
Q 47.65625 37.796875 51.625 33 
Q 55.609375 28.21875 55.609375 21.1875 
Q 55.609375 10.40625 48.1875 4.484375 
Q 40.765625 -1.421875 27.09375 -1.421875 
Q 22.515625 -1.421875 17.65625 -0.515625 
Q 12.796875 0.390625 7.625 2.203125 
L 7.625 11.71875 
Q 11.71875 9.328125 16.59375 8.109375 
Q 21.484375 6.890625 26.8125 6.890625 
Q 36.078125 6.890625 40.9375 10.546875 
Q 45.796875 14.203125 45.796875 21.1875 
Q 45.796875 27.640625 41.28125 31.265625 
Q 36.765625 34.90625 28.71875 34.90625 
L 20.21875 34.90625 
L 20.21875 43.015625 
L 29.109375 43.015625 
Q 36.375 43.015625 40.234375 45.921875 
Q 44.09375 48.828125 44.09375 54.296875 
Q 44.09375 59.90625 40.109375 62.90625 
Q 36.140625 65.921875 28.71875 65.921875 
Q 24.65625 65.921875 20.015625 65.03125 
Q 15.375 64.15625 9.8125 62.3125 
L 9.8125 71.09375 
Q 15.4375 72.65625 20.34375 73.4375 
Q 25.25 74.21875 29.59375 74.21875 
Q 40.828125 74.21875 47.359375 69.109375 
Q 53.90625 64.015625 53.90625 55.328125 
Q 53.90625 49.265625 50.4375 45.09375 
Q 46.96875 40.921875 40.578125 39.3125 
z
" id="DejaVuSans-51"/>
       </defs>
       <use xlink:href="#DejaVuSans-51"/>
      </g>
     </g>
    </g>
   </g>
   <g id="line2d_12">
    <path clip-path="url(#p9c97d0d4f6)" d="M 32.56 143.81771 
L 34.106074 143.192009 
L 41.836444 139.362716 
L 44.928593 138.161369 
L 46.474667 137.660808 
L 49.566815 137.010079 
L 54.205037 136.409405 
L 60.389333 135.858788 
L 75.850074 135.258114 
L 77.396148 134.832637 
L 78.942222 134.256992 
L 80.488296 133.431066 
L 82.03437 132.379888 
L 83.580444 130.978316 
L 85.126519 128.951044 
L 86.672593 126.29807 
L 88.218667 122.869226 
L 89.764741 118.539371 
L 91.310815 113.383591 
L 92.856889 107.251717 
L 94.402963 99.968552 
L 95.949037 91.509068 
L 97.495111 81.923322 
L 102.133333 51.589315 
L 103.679407 43.480224 
L 105.225481 37.373378 
L 106.771556 33.418945 
L 108.31763 31.441728 
L 109.863704 31.116364 
L 111.409778 32.017374 
L 112.955852 33.794366 
L 114.501926 36.197059 
L 116.048 38.950146 
L 125.324444 57.07046 
L 126.870519 60.524332 
L 128.416593 64.428709 
L 129.962667 68.833648 
L 137.693037 92.510191 
L 140.785185 101.094815 
L 143.877333 108.828485 
L 145.423407 112.132189 
L 146.969481 115.010415 
L 148.515556 117.563277 
L 150.06163 119.71569 
L 151.607704 121.642851 
L 153.153778 123.369787 
L 156.245926 126.222985 
L 157.792 127.474388 
L 162.430222 130.55284 
L 167.068444 133.030617 
L 171.706667 134.982806 
L 176.344889 136.509517 
L 180.983111 137.460584 
L 185.621333 137.961145 
L 190.259556 138.261481 
L 193.351704 138.311538 
L 196.443852 138.061257 
L 197.989926 137.785948 
L 199.536 137.360471 
L 201.082074 136.809854 
L 202.628148 136.059012 
L 205.720296 134.106824 
L 208.812444 131.754186 
L 211.904593 129.051156 
L 214.996741 125.872593 
L 219.634963 120.766869 
L 221.181037 119.390325 
L 222.727111 118.314119 
L 224.273185 117.563277 
L 225.819259 117.1378 
L 227.365333 117.037688 
L 228.911407 117.237912 
L 230.457481 117.638361 
L 235.095704 119.390325 
L 239.733926 121.242402 
L 242.826074 122.894254 
L 252.102519 128.550595 
L 253.648593 129.301437 
L 256.740741 130.452727 
L 259.832889 131.353737 
L 262.925037 132.054523 
L 267.563259 132.930505 
L 270.655407 133.230842 
L 272.201481 133.155758 
L 273.747556 132.830393 
L 275.29363 132.304804 
L 276.839704 131.528934 
L 279.931852 129.476633 
L 283.024 127.249136 
L 284.570074 126.323098 
L 286.116148 125.547228 
L 287.662222 124.946554 
L 289.208296 124.596162 
L 290.75437 124.445993 
L 292.300444 124.546105 
L 293.846519 124.971582 
L 295.392593 125.672368 
L 296.938667 126.648462 
L 300.030815 129.076184 
L 303.122963 131.604018 
L 306.215111 133.756431 
L 309.307259 135.558451 
L 310.853333 136.334321 
L 313.945481 137.535668 
L 317.03763 138.436678 
L 320.129778 139.062379 
L 321.675852 139.212548 
L 324.768 139.162492 
L 327.860148 138.787071 
L 329.406222 138.486734 
L 330.952296 138.011201 
L 332.49837 137.335443 
L 334.044444 136.459461 
L 337.136593 134.307048 
L 341.774815 130.953288 
L 344.866963 129.12624 
L 346.413037 128.450483 
L 347.959111 127.974949 
L 349.505185 127.674613 
L 351.051259 127.599529 
L 352.597333 127.674613 
L 354.143407 127.899865 
L 357.235556 128.675735 
L 360.327704 129.801998 
L 363.419852 131.203569 
L 371.150222 135.107946 
L 374.24237 136.284265 
L 377.334519 137.135219 
L 380.426667 137.660808 
L 383.518815 137.986173 
L 386.610963 138.061257 
L 389.703111 137.836004 
L 392.795259 137.335443 
L 398.979556 136.159125 
L 405.163852 135.458339 
L 411.348148 134.832637 
L 414.440296 134.807609 
L 417.532444 135.107946 
L 420.624593 135.683591 
L 426.808889 136.985051 
L 431.447111 137.76092 
L 432.993185 138.236453 
L 434.539259 138.862155 
L 437.631407 140.438923 
L 443.815704 143.942851 
L 445.361778 144.443412 
L 446.907852 144.643636 
L 448.453926 144.59358 
L 448.453926 144.59358 
" style="fill:none;stroke:#0000ff;stroke-linecap:square;stroke-width:1.5;"/>
   </g>
   <g id="line2d_13">
    <path clip-path="url(#p9c97d0d4f6)" d="M 83.580444 150.32 
L 83.580444 25.44 
" style="fill:none;stroke:#ff0000;stroke-linecap:square;stroke-width:2;"/>
   </g>
   <g id="patch_3">
    <path d="M 32.56 150.32 
L 32.56 25.44 
" style="fill:none;stroke:#000000;stroke-linecap:square;stroke-linejoin:miter;stroke-width:0.8;"/>
   </g>
   <g id="patch_4">
    <path d="M 450 150.32 
L 450 25.44 
" style="fill:none;stroke:#000000;stroke-linecap:square;stroke-linejoin:miter;stroke-width:0.8;"/>
   </g>
   <g id="patch_5">
    <path d="M 32.56 150.32 
L 450 150.32 
" style="fill:none;stroke:#000000;stroke-linecap:square;stroke-linejoin:miter;stroke-width:0.8;"/>
   </g>
   <g id="patch_6">
    <path d="M 32.56 25.44 
L 450 25.44 
" style="fill:none;stroke:#000000;stroke-linecap:square;stroke-linejoin:miter;stroke-width:0.8;"/>
   </g>
   <g id="text_12">
    <!-- Raw time series -->
    <g transform="translate(193.524687 19.44)scale(0.12 -0.12)">
     <defs>
      <path d="M 44.390625 34.1875 
Q 47.5625 33.109375 50.5625 29.59375 
Q 53.5625 26.078125 56.59375 19.921875 
L 66.609375 0 
L 56 0 
L 46.6875 18.703125 
Q 43.0625 26.03125 39.671875 28.421875 
Q 36.28125 30.8125 30.421875 30.8125 
L 19.671875 30.8125 
L 19.671875 0 
L 9.8125 0 
L 9.8125 72.90625 
L 32.078125 72.90625 
Q 44.578125 72.90625 50.734375 67.671875 
Q 56.890625 62.453125 56.890625 51.90625 
Q 56.890625 45.015625 53.6875 40.46875 
Q 50.484375 35.9375 44.390625 34.1875 
z
M 19.671875 64.796875 
L 19.671875 38.921875 
L 32.078125 38.921875 
Q 39.203125 38.921875 42.84375 42.21875 
Q 46.484375 45.515625 46.484375 51.90625 
Q 46.484375 58.296875 42.84375 61.546875 
Q 39.203125 64.796875 32.078125 64.796875 
z
" id="DejaVuSans-82"/>
      <path d="M 34.28125 27.484375 
Q 23.390625 27.484375 19.1875 25 
Q 14.984375 22.515625 14.984375 16.5 
Q 14.984375 11.71875 18.140625 8.90625 
Q 21.296875 6.109375 26.703125 6.109375 
Q 34.1875 6.109375 38.703125 11.40625 
Q 43.21875 16.703125 43.21875 25.484375 
L 43.21875 27.484375 
z
M 52.203125 31.203125 
L 52.203125 0 
L 43.21875 0 
L 43.21875 8.296875 
Q 40.140625 3.328125 35.546875 0.953125 
Q 30.953125 -1.421875 24.3125 -1.421875 
Q 15.921875 -1.421875 10.953125 3.296875 
Q 6 8.015625 6 15.921875 
Q 6 25.140625 12.171875 29.828125 
Q 18.359375 34.515625 30.609375 34.515625 
L 43.21875 34.515625 
L 43.21875 35.40625 
Q 43.21875 41.609375 39.140625 45 
Q 35.0625 48.390625 27.6875 48.390625 
Q 23 48.390625 18.546875 47.265625 
Q 14.109375 46.140625 10.015625 43.890625 
L 10.015625 52.203125 
Q 14.9375 54.109375 19.578125 55.046875 
Q 24.21875 56 28.609375 56 
Q 40.484375 56 46.34375 49.84375 
Q 52.203125 43.703125 52.203125 31.203125 
z
" id="DejaVuSans-97"/>
      <path d="M 4.203125 54.6875 
L 13.1875 54.6875 
L 24.421875 12.015625 
L 35.59375 54.6875 
L 46.1875 54.6875 
L 57.421875 12.015625 
L 68.609375 54.6875 
L 77.59375 54.6875 
L 63.28125 0 
L 52.6875 0 
L 40.921875 44.828125 
L 29.109375 0 
L 18.5 0 
z
" id="DejaVuSans-119"/>
      <path id="DejaVuSans-32"/>
      <path d="M 18.3125 70.21875 
L 18.3125 54.6875 
L 36.8125 54.6875 
L 36.8125 47.703125 
L 18.3125 47.703125 
L 18.3125 18.015625 
Q 18.3125 11.328125 20.140625 9.421875 
Q 21.96875 7.515625 27.59375 7.515625 
L 36.8125 7.515625 
L 36.8125 0 
L 27.59375 0 
Q 17.1875 0 13.234375 3.875 
Q 9.28125 7.765625 9.28125 18.015625 
L 9.28125 47.703125 
L 2.6875 47.703125 
L 2.6875 54.6875 
L 9.28125 54.6875 
L 9.28125 70.21875 
z
" id="DejaVuSans-116"/>
      <path d="M 9.421875 54.6875 
L 18.40625 54.6875 
L 18.40625 0 
L 9.421875 0 
z
M 9.421875 75.984375 
L 18.40625 75.984375 
L 18.40625 64.59375 
L 9.421875 64.59375 
z
" id="DejaVuSans-105"/>
      <path d="M 52 44.1875 
Q 55.375 50.25 60.0625 53.125 
Q 64.75 56 71.09375 56 
Q 79.640625 56 84.28125 50.015625 
Q 88.921875 44.046875 88.921875 33.015625 
L 88.921875 0 
L 79.890625 0 
L 79.890625 32.71875 
Q 79.890625 40.578125 77.09375 44.375 
Q 74.3125 48.1875 68.609375 48.1875 
Q 61.625 48.1875 57.5625 43.546875 
Q 53.515625 38.921875 53.515625 30.90625 
L 53.515625 0 
L 44.484375 0 
L 44.484375 32.71875 
Q 44.484375 40.625 41.703125 44.40625 
Q 38.921875 48.1875 33.109375 48.1875 
Q 26.21875 48.1875 22.15625 43.53125 
Q 18.109375 38.875 18.109375 30.90625 
L 18.109375 0 
L 9.078125 0 
L 9.078125 54.6875 
L 18.109375 54.6875 
L 18.109375 46.1875 
Q 21.1875 51.21875 25.484375 53.609375 
Q 29.78125 56 35.6875 56 
Q 41.65625 56 45.828125 52.96875 
Q 50 49.953125 52 44.1875 
z
" id="DejaVuSans-109"/>
      <path d="M 56.203125 29.59375 
L 56.203125 25.203125 
L 14.890625 25.203125 
Q 15.484375 15.921875 20.484375 11.0625 
Q 25.484375 6.203125 34.421875 6.203125 
Q 39.59375 6.203125 44.453125 7.46875 
Q 49.3125 8.734375 54.109375 11.28125 
L 54.109375 2.78125 
Q 49.265625 0.734375 44.1875 -0.34375 
Q 39.109375 -1.421875 33.890625 -1.421875 
Q 20.796875 -1.421875 13.15625 6.1875 
Q 5.515625 13.8125 5.515625 26.8125 
Q 5.515625 40.234375 12.765625 48.109375 
Q 20.015625 56 32.328125 56 
Q 43.359375 56 49.78125 48.890625 
Q 56.203125 41.796875 56.203125 29.59375 
z
M 47.21875 32.234375 
Q 47.125 39.59375 43.09375 43.984375 
Q 39.0625 48.390625 32.421875 48.390625 
Q 24.90625 48.390625 20.390625 44.140625 
Q 15.875 39.890625 15.1875 32.171875 
z
" id="DejaVuSans-101"/>
      <path d="M 44.28125 53.078125 
L 44.28125 44.578125 
Q 40.484375 46.53125 36.375 47.5 
Q 32.28125 48.484375 27.875 48.484375 
Q 21.1875 48.484375 17.84375 46.4375 
Q 14.5 44.390625 14.5 40.28125 
Q 14.5 37.15625 16.890625 35.375 
Q 19.28125 33.59375 26.515625 31.984375 
L 29.59375 31.296875 
Q 39.15625 29.25 43.1875 25.515625 
Q 47.21875 21.78125 47.21875 15.09375 
Q 47.21875 7.46875 41.1875 3.015625 
Q 35.15625 -1.421875 24.609375 -1.421875 
Q 20.21875 -1.421875 15.453125 -0.5625 
Q 10.6875 0.296875 5.421875 2 
L 5.421875 11.28125 
Q 10.40625 8.6875 15.234375 7.390625 
Q 20.0625 6.109375 24.8125 6.109375 
Q 31.15625 6.109375 34.5625 8.28125 
Q 37.984375 10.453125 37.984375 14.40625 
Q 37.984375 18.0625 35.515625 20.015625 
Q 33.0625 21.96875 24.703125 23.78125 
L 21.578125 24.515625 
Q 13.234375 26.265625 9.515625 29.90625 
Q 5.8125 33.546875 5.8125 39.890625 
Q 5.8125 47.609375 11.28125 51.796875 
Q 16.75 56 26.8125 56 
Q 31.78125 56 36.171875 55.265625 
Q 40.578125 54.546875 44.28125 53.078125 
z
" id="DejaVuSans-115"/>
      <path d="M 41.109375 46.296875 
Q 39.59375 47.171875 37.8125 47.578125 
Q 36.03125 48 33.890625 48 
Q 26.265625 48 22.1875 43.046875 
Q 18.109375 38.09375 18.109375 28.8125 
L 18.109375 0 
L 9.078125 0 
L 9.078125 54.6875 
L 18.109375 54.6875 
L 18.109375 46.1875 
Q 20.953125 51.171875 25.484375 53.578125 
Q 30.03125 56 36.53125 56 
Q 37.453125 56 38.578125 55.875 
Q 39.703125 55.765625 41.0625 55.515625 
z
" id="DejaVuSans-114"/>
     </defs>
     <use xlink:href="#DejaVuSans-82"/>
     <use x="67.232422" xlink:href="#DejaVuSans-97"/>
     <use x="128.511719" xlink:href="#DejaVuSans-119"/>
     <use x="210.298828" xlink:href="#DejaVuSans-32"/>
     <use x="242.085938" xlink:href="#DejaVuSans-116"/>
     <use x="281.294922" xlink:href="#DejaVuSans-105"/>
     <use x="309.078125" xlink:href="#DejaVuSans-109"/>
     <use x="406.490234" xlink:href="#DejaVuSans-101"/>
     <use x="468.013672" xlink:href="#DejaVuSans-32"/>
     <use x="499.800781" xlink:href="#DejaVuSans-115"/>
     <use x="551.900391" xlink:href="#DejaVuSans-101"/>
     <use x="613.423828" xlink:href="#DejaVuSans-114"/>
     <use x="654.537109" xlink:href="#DejaVuSans-105"/>
     <use x="682.320312" xlink:href="#DejaVuSans-101"/>
     <use x="743.84375" xlink:href="#DejaVuSans-115"/>
    </g>
   </g>
  </g>
  <g id="axes_2">
   <g id="patch_7">
    <path d="M 32.56 317.72 
L 450 317.72 
L 450 192.84 
L 32.56 192.84 
z
" style="fill:#ffffff;"/>
   </g>
   <g id="matplotlib.axis_3">
    <g id="xtick_7">
     <g id="line2d_14">
      <g>
       <use style="stroke:#000000;stroke-width:0.8;" x="32.56" xlink:href="#m98199460bc" y="317.72"/>
      </g>
     </g>
     <g id="text_13">
      <!-- 0 -->
      <g transform="translate(29.37875 332.318437)scale(0.1 -0.1)">
       <use xlink:href="#DejaVuSans-48"/>
      </g>
     </g>
    </g>
    <g id="xtick_8">
     <g id="line2d_15">
      <g>
       <use style="stroke:#000000;stroke-width:0.8;" x="109.863704" xlink:href="#m98199460bc" y="317.72"/>
      </g>
     </g>
     <g id="text_14">
      <!-- 50 -->
      <g transform="translate(103.501204 332.318437)scale(0.1 -0.1)">
       <use xlink:href="#DejaVuSans-53"/>
       <use x="63.623047" xlink:href="#DejaVuSans-48"/>
      </g>
     </g>
    </g>
    <g id="xtick_9">
     <g id="line2d_16">
      <g>
       <use style="stroke:#000000;stroke-width:0.8;" x="187.167407" xlink:href="#m98199460bc" y="317.72"/>
      </g>
     </g>
     <g id="text_15">
      <!-- 100 -->
      <g transform="translate(177.623657 332.318437)scale(0.1 -0.1)">
       <use xlink:href="#DejaVuSans-49"/>
       <use x="63.623047" xlink:href="#DejaVuSans-48"/>
       <use x="127.246094" xlink:href="#DejaVuSans-48"/>
      </g>
     </g>
    </g>
    <g id="xtick_10">
     <g id="line2d_17">
      <g>
       <use style="stroke:#000000;stroke-width:0.8;" x="264.471111" xlink:href="#m98199460bc" y="317.72"/>
      </g>
     </g>
     <g id="text_16">
      <!-- 150 -->
      <g transform="translate(254.927361 332.318437)scale(0.1 -0.1)">
       <use xlink:href="#DejaVuSans-49"/>
       <use x="63.623047" xlink:href="#DejaVuSans-53"/>
       <use x="127.246094" xlink:href="#DejaVuSans-48"/>
      </g>
     </g>
    </g>
    <g id="xtick_11">
     <g id="line2d_18">
      <g>
       <use style="stroke:#000000;stroke-width:0.8;" x="341.774815" xlink:href="#m98199460bc" y="317.72"/>
      </g>
     </g>
     <g id="text_17">
      <!-- 200 -->
      <g transform="translate(332.231065 332.318437)scale(0.1 -0.1)">
       <use xlink:href="#DejaVuSans-50"/>
       <use x="63.623047" xlink:href="#DejaVuSans-48"/>
       <use x="127.246094" xlink:href="#DejaVuSans-48"/>
      </g>
     </g>
    </g>
    <g id="xtick_12">
     <g id="line2d_19">
      <g>
       <use style="stroke:#000000;stroke-width:0.8;" x="419.078519" xlink:href="#m98199460bc" y="317.72"/>
      </g>
     </g>
     <g id="text_18">
      <!-- 250 -->
      <g transform="translate(409.534769 332.318437)scale(0.1 -0.1)">
       <use xlink:href="#DejaVuSans-50"/>
       <use x="63.623047" xlink:href="#DejaVuSans-53"/>
       <use x="127.246094" xlink:href="#DejaVuSans-48"/>
      </g>
     </g>
    </g>
   </g>
   <g id="matplotlib.axis_4">
    <g id="ytick_6">
     <g id="line2d_20">
      <g>
       <use style="stroke:#000000;stroke-width:0.8;" x="32.56" xlink:href="#m71142b2048" y="312.707043"/>
      </g>
     </g>
     <g id="text_19">
      <!-- 0 -->
      <g transform="translate(19.1975 316.506261)scale(0.1 -0.1)">
       <use xlink:href="#DejaVuSans-48"/>
      </g>
     </g>
    </g>
    <g id="ytick_7">
     <g id="line2d_21">
      <g>
       <use style="stroke:#000000;stroke-width:0.8;" x="32.56" xlink:href="#m71142b2048" y="276.284172"/>
      </g>
     </g>
     <g id="text_20">
      <!-- 2 -->
      <g transform="translate(19.1975 280.083391)scale(0.1 -0.1)">
       <use xlink:href="#DejaVuSans-50"/>
      </g>
     </g>
    </g>
    <g id="ytick_8">
     <g id="line2d_22">
      <g>
       <use style="stroke:#000000;stroke-width:0.8;" x="32.56" xlink:href="#m71142b2048" y="239.861302"/>
      </g>
     </g>
     <g id="text_21">
      <!-- 4 -->
      <g transform="translate(19.1975 243.66052)scale(0.1 -0.1)">
       <defs>
        <path d="M 37.796875 64.3125 
L 12.890625 25.390625 
L 37.796875 25.390625 
z
M 35.203125 72.90625 
L 47.609375 72.90625 
L 47.609375 25.390625 
L 58.015625 25.390625 
L 58.015625 17.1875 
L 47.609375 17.1875 
L 47.609375 0 
L 37.796875 0 
L 37.796875 17.1875 
L 4.890625 17.1875 
L 4.890625 26.703125 
z
" id="DejaVuSans-52"/>
       </defs>
       <use xlink:href="#DejaVuSans-52"/>
      </g>
     </g>
    </g>
    <g id="ytick_9">
     <g id="line2d_23">
      <g>
       <use style="stroke:#000000;stroke-width:0.8;" x="32.56" xlink:href="#m71142b2048" y="203.438431"/>
      </g>
     </g>
     <g id="text_22">
      <!-- 6 -->
      <g transform="translate(19.1975 207.23765)scale(0.1 -0.1)">
       <defs>
        <path d="M 33.015625 40.375 
Q 26.375 40.375 22.484375 35.828125 
Q 18.609375 31.296875 18.609375 23.390625 
Q 18.609375 15.53125 22.484375 10.953125 
Q 26.375 6.390625 33.015625 6.390625 
Q 39.65625 6.390625 43.53125 10.953125 
Q 47.40625 15.53125 47.40625 23.390625 
Q 47.40625 31.296875 43.53125 35.828125 
Q 39.65625 40.375 33.015625 40.375 
z
M 52.59375 71.296875 
L 52.59375 62.3125 
Q 48.875 64.0625 45.09375 64.984375 
Q 41.3125 65.921875 37.59375 65.921875 
Q 27.828125 65.921875 22.671875 59.328125 
Q 17.53125 52.734375 16.796875 39.40625 
Q 19.671875 43.65625 24.015625 45.921875 
Q 28.375 48.1875 33.59375 48.1875 
Q 44.578125 48.1875 50.953125 41.515625 
Q 57.328125 34.859375 57.328125 23.390625 
Q 57.328125 12.15625 50.6875 5.359375 
Q 44.046875 -1.421875 33.015625 -1.421875 
Q 20.359375 -1.421875 13.671875 8.265625 
Q 6.984375 17.96875 6.984375 36.375 
Q 6.984375 53.65625 15.1875 63.9375 
Q 23.390625 74.21875 37.203125 74.21875 
Q 40.921875 74.21875 44.703125 73.484375 
Q 48.484375 72.75 52.59375 71.296875 
z
" id="DejaVuSans-54"/>
       </defs>
       <use xlink:href="#DejaVuSans-54"/>
      </g>
     </g>
    </g>
   </g>
   <g id="line2d_24">
    <path clip-path="url(#pbbd6a7180f)" d="M 32.56 304.867596 
L 37.198222 308.723773 
L 38.744296 309.732161 
L 40.29037 310.542409 
L 41.836444 311.047502 
L 43.382519 311.275851 
L 46.474667 311.335733 
L 48.020741 311.207831 
L 49.566815 310.917682 
L 51.112889 310.336266 
L 52.658963 309.487634 
L 54.205037 308.219189 
L 55.751111 306.786281 
L 57.297185 306.806903 
L 58.843259 306.624314 
L 60.389333 306.194576 
L 61.935407 304.436244 
L 63.481481 301.182844 
L 65.027556 295.5881 
L 66.57363 287.460764 
L 68.119704 276.832826 
L 69.665778 263.843705 
L 71.211852 248.903878 
L 72.757926 232.812285 
L 74.304 219.619644 
L 75.850074 211.628217 
L 77.396148 205.643872 
L 78.942222 201.731497 
L 80.488296 199.593449 
L 82.03437 198.710969 
L 83.580444 198.516364 
L 85.126519 198.996506 
L 86.672593 200.193963 
L 88.218667 202.248915 
L 89.764741 205.408224 
L 91.310815 209.87031 
L 92.856889 215.725462 
L 94.402963 222.798651 
L 97.495111 237.821145 
L 99.041185 243.571198 
L 100.587259 246.803726 
L 102.133333 247.408911 
L 103.679407 246.105304 
L 106.771556 241.732864 
L 108.31763 243.571198 
L 109.863704 246.803726 
L 111.409778 247.408911 
L 112.955852 246.105304 
L 116.048 241.732864 
L 117.594074 239.98029 
L 119.140148 240.701971 
L 120.686222 241.81199 
L 122.232296 243.209879 
L 123.77837 244.98158 
L 125.324444 247.202781 
L 126.870519 249.896882 
L 128.416593 253.033877 
L 131.508741 260.238984 
L 133.054815 264.099299 
L 134.600889 268.505466 
L 136.146963 276.184973 
L 137.693037 283.090109 
L 139.239111 289.00992 
L 140.785185 293.920131 
L 142.331259 297.809265 
L 143.877333 300.960187 
L 145.423407 303.2344 
L 146.969481 304.718738 
L 148.515556 305.326781 
L 150.06163 307.489761 
L 151.607704 308.711137 
L 153.153778 309.090158 
L 154.699852 309.802619 
L 156.245926 310.834982 
L 157.792 311.554243 
L 159.338074 311.941512 
L 160.884148 312.043636 
L 163.976296 311.624266 
L 167.068444 311.03754 
L 170.160593 310.944387 
L 174.798815 311.025465 
L 177.890963 310.493848 
L 179.437037 310.688364 
L 180.983111 310.757313 
L 182.529185 310.673387 
L 184.075259 310.364837 
L 185.621333 309.92528 
L 187.167407 308.953896 
L 188.713481 307.422117 
L 190.259556 305.451894 
L 191.80563 304.261334 
L 193.351704 302.501698 
L 194.897778 300.47602 
L 196.443852 299.773141 
L 197.989926 298.940402 
L 205.720296 293.208395 
L 207.26637 293.260035 
L 210.358519 294.784853 
L 216.542815 298.415219 
L 218.088889 298.930588 
L 219.634963 299.155973 
L 221.181037 299.14198 
L 225.819259 298.777533 
L 228.911407 299.155973 
L 230.457481 299.771051 
L 233.54963 302.313449 
L 235.095704 303.091784 
L 236.641778 304.196669 
L 239.733926 305.302263 
L 242.826074 305.450043 
L 244.372148 306.164371 
L 245.918222 306.236804 
L 247.464296 305.591707 
L 249.01037 304.399933 
L 250.556444 302.868282 
L 252.102519 301.805875 
L 253.648593 301.826385 
L 255.194667 302.25057 
L 256.740741 302.460185 
L 258.286815 302.179604 
L 259.832889 301.723101 
L 267.563259 303.993332 
L 272.201481 305.065853 
L 278.385778 305.725433 
L 284.570074 306.067532 
L 286.116148 306.247937 
L 287.662222 307.151182 
L 289.208296 308.550445 
L 290.75437 309.005773 
L 292.300444 309.090158 
L 295.392593 308.950937 
L 296.938667 309.104261 
L 298.484741 309.543438 
L 300.030815 309.818305 
L 303.122963 310.018712 
L 306.215111 310.140845 
L 307.761185 310.391682 
L 312.399407 310.757313 
L 313.945481 310.673387 
L 315.491556 310.430103 
L 317.03763 310.34622 
L 318.583704 309.92528 
L 321.675852 307.918994 
L 323.221926 306.622679 
L 324.768 305.096907 
L 326.314074 303.376441 
L 327.860148 302.337249 
L 330.952296 303.791843 
L 334.044444 304.870093 
L 335.590519 305.242198 
L 338.682667 305.629164 
L 344.866963 305.995023 
L 347.959111 306.530144 
L 351.051259 308.581238 
L 352.597333 309.697414 
L 354.143407 310.510846 
L 355.689481 310.880898 
L 357.235556 311.554243 
L 358.78163 311.941512 
L 360.327704 312.043636 
L 363.419852 311.624266 
L 366.512 311.03754 
L 368.058074 310.944387 
L 372.696296 310.974466 
L 375.788444 310.258976 
L 377.334519 309.74613 
L 378.880593 309.925697 
L 381.972741 310.738185 
L 385.064889 311.205621 
L 389.703111 311.335733 
L 391.249185 311.236307 
L 392.795259 310.996525 
L 395.887407 310.167935 
L 400.52563 308.76857 
L 402.071704 308.544624 
L 405.163852 308.31616 
L 408.256 308.7508 
L 409.802074 308.590412 
L 411.348148 307.932172 
L 412.894222 306.861739 
L 415.98637 304.158563 
L 417.532444 303.136574 
L 419.078519 302.843705 
L 419.078519 302.843705 
" style="fill:none;stroke:#0000ff;stroke-linecap:square;stroke-width:1.5;"/>
   </g>
   <g id="line2d_25">
    <path clip-path="url(#pbbd6a7180f)" d="M 83.580444 317.72 
L 83.580444 192.84 
" style="fill:none;stroke:#ff0000;stroke-dasharray:7.4,3.2;stroke-dashoffset:0;stroke-width:2;"/>
   </g>
   <g id="patch_8">
    <path d="M 32.56 317.72 
L 32.56 192.84 
" style="fill:none;stroke:#000000;stroke-linecap:square;stroke-linejoin:miter;stroke-width:0.8;"/>
   </g>
   <g id="patch_9">
    <path d="M 450 317.72 
L 450 192.84 
" style="fill:none;stroke:#000000;stroke-linecap:square;stroke-linejoin:miter;stroke-width:0.8;"/>
   </g>
   <g id="patch_10">
    <path d="M 32.56 317.72 
L 450 317.72 
" style="fill:none;stroke:#000000;stroke-linecap:square;stroke-linejoin:miter;stroke-width:0.8;"/>
   </g>
   <g id="patch_11">
    <path d="M 32.56 192.84 
L 450 192.84 
" style="fill:none;stroke:#000000;stroke-linecap:square;stroke-linejoin:miter;stroke-width:0.8;"/>
   </g>
   <g id="text_23">
    <!-- Matrix Profile -->
    <g transform="translate(201.829062 186.84)scale(0.12 -0.12)">
     <defs>
      <path d="M 9.8125 72.90625 
L 24.515625 72.90625 
L 43.109375 23.296875 
L 61.8125 72.90625 
L 76.515625 72.90625 
L 76.515625 0 
L 66.890625 0 
L 66.890625 64.015625 
L 48.09375 14.015625 
L 38.1875 14.015625 
L 19.390625 64.015625 
L 19.390625 0 
L 9.8125 0 
z
" id="DejaVuSans-77"/>
      <path d="M 54.890625 54.6875 
L 35.109375 28.078125 
L 55.90625 0 
L 45.3125 0 
L 29.390625 21.484375 
L 13.484375 0 
L 2.875 0 
L 24.125 28.609375 
L 4.6875 54.6875 
L 15.28125 54.6875 
L 29.78125 35.203125 
L 44.28125 54.6875 
z
" id="DejaVuSans-120"/>
      <path d="M 19.671875 64.796875 
L 19.671875 37.40625 
L 32.078125 37.40625 
Q 38.96875 37.40625 42.71875 40.96875 
Q 46.484375 44.53125 46.484375 51.125 
Q 46.484375 57.671875 42.71875 61.234375 
Q 38.96875 64.796875 32.078125 64.796875 
z
M 9.8125 72.90625 
L 32.078125 72.90625 
Q 44.34375 72.90625 50.609375 67.359375 
Q 56.890625 61.8125 56.890625 51.125 
Q 56.890625 40.328125 50.609375 34.8125 
Q 44.34375 29.296875 32.078125 29.296875 
L 19.671875 29.296875 
L 19.671875 0 
L 9.8125 0 
z
" id="DejaVuSans-80"/>
      <path d="M 30.609375 48.390625 
Q 23.390625 48.390625 19.1875 42.75 
Q 14.984375 37.109375 14.984375 27.296875 
Q 14.984375 17.484375 19.15625 11.84375 
Q 23.34375 6.203125 30.609375 6.203125 
Q 37.796875 6.203125 41.984375 11.859375 
Q 46.1875 17.53125 46.1875 27.296875 
Q 46.1875 37.015625 41.984375 42.703125 
Q 37.796875 48.390625 30.609375 48.390625 
z
M 30.609375 56 
Q 42.328125 56 49.015625 48.375 
Q 55.71875 40.765625 55.71875 27.296875 
Q 55.71875 13.875 49.015625 6.21875 
Q 42.328125 -1.421875 30.609375 -1.421875 
Q 18.84375 -1.421875 12.171875 6.21875 
Q 5.515625 13.875 5.515625 27.296875 
Q 5.515625 40.765625 12.171875 48.375 
Q 18.84375 56 30.609375 56 
z
" id="DejaVuSans-111"/>
      <path d="M 37.109375 75.984375 
L 37.109375 68.5 
L 28.515625 68.5 
Q 23.6875 68.5 21.796875 66.546875 
Q 19.921875 64.59375 19.921875 59.515625 
L 19.921875 54.6875 
L 34.71875 54.6875 
L 34.71875 47.703125 
L 19.921875 47.703125 
L 19.921875 0 
L 10.890625 0 
L 10.890625 47.703125 
L 2.296875 47.703125 
L 2.296875 54.6875 
L 10.890625 54.6875 
L 10.890625 58.5 
Q 10.890625 67.625 15.140625 71.796875 
Q 19.390625 75.984375 28.609375 75.984375 
z
" id="DejaVuSans-102"/>
      <path d="M 9.421875 75.984375 
L 18.40625 75.984375 
L 18.40625 0 
L 9.421875 0 
z
" id="DejaVuSans-108"/>
     </defs>
     <use xlink:href="#DejaVuSans-77"/>
     <use x="86.279297" xlink:href="#DejaVuSans-97"/>
     <use x="147.558594" xlink:href="#DejaVuSans-116"/>
     <use x="186.767578" xlink:href="#DejaVuSans-114"/>
     <use x="227.880859" xlink:href="#DejaVuSans-105"/>
     <use x="255.664062" xlink:href="#DejaVuSans-120"/>
     <use x="314.84375" xlink:href="#DejaVuSans-32"/>
     <use x="346.630859" xlink:href="#DejaVuSans-80"/>
     <use x="405.183594" xlink:href="#DejaVuSans-114"/>
     <use x="444.046875" xlink:href="#DejaVuSans-111"/>
     <use x="505.228516" xlink:href="#DejaVuSans-102"/>
     <use x="540.433594" xlink:href="#DejaVuSans-105"/>
     <use x="568.216797" xlink:href="#DejaVuSans-108"/>
     <use x="596" xlink:href="#DejaVuSans-101"/>
    </g>
   </g>
  </g>
 </g>
 <defs>
  <clipPath id="p9c97d0d4f6">
   <rect height="124.88" width="417.44" x="32.56" y="25.44"/>
  </clipPath>
  <clipPath id="pbbd6a7180f">
   <rect height="124.88" width="417.44" x="32.56" y="192.84"/>
  </clipPath>
 </defs>
</svg>
