<?xml version="1.0" encoding="utf-8" standalone="no"?>
<!DOCTYPE svg PUBLIC "-//W3C//DTD SVG 1.1//EN"
  "http://www.w3.org/Graphics/SVG/1.1/DTD/svg11.dtd">
<!-- Created with matplotlib (https://matplotlib.org/) -->
<svg height="345.6pt" version="1.1" viewBox="0 0 460.8 345.6" width="460.8pt" xmlns="http://www.w3.org/2000/svg" xmlns:xlink="http://www.w3.org/1999/xlink">
 <metadata>
  <rdf:RDF xmlns:cc="http://creativecommons.org/ns#" xmlns:dc="http://purl.org/dc/elements/1.1/" xmlns:rdf="http://www.w3.org/1999/02/22-rdf-syntax-ns#">
   <cc:Work>
    <dc:type rdf:resource="http://purl.org/dc/dcmitype/StillImage"/>
    <dc:date>2021-05-07T16:17:53.963869</dc:date>
    <dc:format>image/svg+xml</dc:format>
    <dc:creator>
     <cc:Agent>
      <dc:title>Matplotlib v3.3.2, https://matplotlib.org/</dc:title>
     </cc:Agent>
    </dc:creator>
   </cc:Work>
  </rdf:RDF>
 </metadata>
 <defs>
  <style type="text/css">*{stroke-linecap:butt;stroke-linejoin:round;}</style>
 </defs>
 <g id="figure_1">
  <g id="patch_1">
   <path d="M 0 345.6 
L 460.8 345.6 
L 460.8 0 
L 0 0 
z
" style="fill:#ffffff;"/>
  </g>
  <g id="axes_1">
   <g id="patch_2">
    <path d="M 33.73 103.573333 
L 450 103.573333 
L 450 25.44 
L 33.73 25.44 
z
" style="fill:#ffffff;"/>
   </g>
   <g id="patch_3">
    <path clip-path="url(#p1b95bca9d2)" d="M 114.801828 100.021818 
L 142.424257 100.021818 
L 142.424257 28.991515 
L 114.801828 28.991515 
z
" style="fill:#0000ff;opacity:0.25;"/>
   </g>
   <g id="matplotlib.axis_1">
    <g id="xtick_1">
     <g id="line2d_1">
      <defs>
       <path d="M 0 0 
L 0 3.5 
" id="m7ceea94af4" style="stroke:#000000;stroke-width:0.8;"/>
      </defs>
      <g>
       <use style="stroke:#000000;stroke-width:0.8;" x="52.651364" xlink:href="#m7ceea94af4" y="103.573333"/>
      </g>
     </g>
    </g>
    <g id="xtick_2">
     <g id="line2d_2">
      <g>
       <use style="stroke:#000000;stroke-width:0.8;" x="121.707435" xlink:href="#m7ceea94af4" y="103.573333"/>
      </g>
     </g>
    </g>
    <g id="xtick_3">
     <g id="line2d_3">
      <g>
       <use style="stroke:#000000;stroke-width:0.8;" x="190.763507" xlink:href="#m7ceea94af4" y="103.573333"/>
      </g>
     </g>
    </g>
    <g id="xtick_4">
     <g id="line2d_4">
      <g>
       <use style="stroke:#000000;stroke-width:0.8;" x="259.819579" xlink:href="#m7ceea94af4" y="103.573333"/>
      </g>
     </g>
    </g>
    <g id="xtick_5">
     <g id="line2d_5">
      <g>
       <use style="stroke:#000000;stroke-width:0.8;" x="328.87565" xlink:href="#m7ceea94af4" y="103.573333"/>
      </g>
     </g>
    </g>
    <g id="xtick_6">
     <g id="line2d_6">
      <g>
       <use style="stroke:#000000;stroke-width:0.8;" x="397.931722" xlink:href="#m7ceea94af4" y="103.573333"/>
      </g>
     </g>
    </g>
   </g>
   <g id="matplotlib.axis_2">
    <g id="ytick_1">
     <g id="line2d_7">
      <defs>
       <path d="M 0 0 
L -3.5 0 
" id="ma29a235b57" style="stroke:#000000;stroke-width:0.8;"/>
      </defs>
      <g>
       <use style="stroke:#000000;stroke-width:0.8;" x="33.73" xlink:href="#ma29a235b57" y="75.371061"/>
      </g>
     </g>
     <g id="text_1">
      <!-- 0.0 -->
      <g transform="translate(10.826875 79.17028)scale(0.1 -0.1)">
       <defs>
        <path d="M 31.78125 66.40625 
Q 24.171875 66.40625 20.328125 58.90625 
Q 16.5 51.421875 16.5 36.375 
Q 16.5 21.390625 20.328125 13.890625 
Q 24.171875 6.390625 31.78125 6.390625 
Q 39.453125 6.390625 43.28125 13.890625 
Q 47.125 21.390625 47.125 36.375 
Q 47.125 51.421875 43.28125 58.90625 
Q 39.453125 66.40625 31.78125 66.40625 
z
M 31.78125 74.21875 
Q 44.046875 74.21875 50.515625 64.515625 
Q 56.984375 54.828125 56.984375 36.375 
Q 56.984375 17.96875 50.515625 8.265625 
Q 44.046875 -1.421875 31.78125 -1.421875 
Q 19.53125 -1.421875 13.0625 8.265625 
Q 6.59375 17.96875 6.59375 36.375 
Q 6.59375 54.828125 13.0625 64.515625 
Q 19.53125 74.21875 31.78125 74.21875 
z
" id="DejaVuSans-48"/>
        <path d="M 10.6875 12.40625 
L 21 12.40625 
L 21 0 
L 10.6875 0 
z
" id="DejaVuSans-46"/>
       </defs>
       <use xlink:href="#DejaVuSans-48"/>
       <use x="63.623047" xlink:href="#DejaVuSans-46"/>
       <use x="95.410156" xlink:href="#DejaVuSans-48"/>
      </g>
     </g>
    </g>
    <g id="ytick_2">
     <g id="line2d_8">
      <g>
       <use style="stroke:#000000;stroke-width:0.8;" x="33.73" xlink:href="#ma29a235b57" y="45.900324"/>
      </g>
     </g>
     <g id="text_2">
      <!-- 2.5 -->
      <g transform="translate(10.826875 49.699543)scale(0.1 -0.1)">
       <defs>
        <path d="M 19.1875 8.296875 
L 53.609375 8.296875 
L 53.609375 0 
L 7.328125 0 
L 7.328125 8.296875 
Q 12.9375 14.109375 22.625 23.890625 
Q 32.328125 33.6875 34.8125 36.53125 
Q 39.546875 41.84375 41.421875 45.53125 
Q 43.3125 49.21875 43.3125 52.78125 
Q 43.3125 58.59375 39.234375 62.25 
Q 35.15625 65.921875 28.609375 65.921875 
Q 23.96875 65.921875 18.8125 64.3125 
Q 13.671875 62.703125 7.8125 59.421875 
L 7.8125 69.390625 
Q 13.765625 71.78125 18.9375 73 
Q 24.125 74.21875 28.421875 74.21875 
Q 39.75 74.21875 46.484375 68.546875 
Q 53.21875 62.890625 53.21875 53.421875 
Q 53.21875 48.921875 51.53125 44.890625 
Q 49.859375 40.875 45.40625 35.40625 
Q 44.1875 33.984375 37.640625 27.21875 
Q 31.109375 20.453125 19.1875 8.296875 
z
" id="DejaVuSans-50"/>
        <path d="M 10.796875 72.90625 
L 49.515625 72.90625 
L 49.515625 64.59375 
L 19.828125 64.59375 
L 19.828125 46.734375 
Q 21.96875 47.46875 24.109375 47.828125 
Q 26.265625 48.1875 28.421875 48.1875 
Q 40.625 48.1875 47.75 41.5 
Q 54.890625 34.8125 54.890625 23.390625 
Q 54.890625 11.625 47.5625 5.09375 
Q 40.234375 -1.421875 26.90625 -1.421875 
Q 22.3125 -1.421875 17.546875 -0.640625 
Q 12.796875 0.140625 7.71875 1.703125 
L 7.71875 11.625 
Q 12.109375 9.234375 16.796875 8.0625 
Q 21.484375 6.890625 26.703125 6.890625 
Q 35.15625 6.890625 40.078125 11.328125 
Q 45.015625 15.765625 45.015625 23.390625 
Q 45.015625 31 40.078125 35.4375 
Q 35.15625 39.890625 26.703125 39.890625 
Q 22.75 39.890625 18.8125 39.015625 
Q 14.890625 38.140625 10.796875 36.28125 
z
" id="DejaVuSans-53"/>
       </defs>
       <use xlink:href="#DejaVuSans-50"/>
       <use x="63.623047" xlink:href="#DejaVuSans-46"/>
       <use x="95.410156" xlink:href="#DejaVuSans-53"/>
      </g>
     </g>
    </g>
   </g>
   <g id="line2d_9">
    <path clip-path="url(#p1b95bca9d2)" d="M 52.651364 68.945724 
L 54.032485 67.60189 
L 55.413607 68.152461 
L 56.794728 68.929899 
L 58.175849 69.086378 
L 59.556971 68.367754 
L 60.938092 68.340945 
L 62.319214 69.014102 
L 65.081457 68.332915 
L 66.462578 67.896544 
L 67.843699 68.466483 
L 69.224821 68.011335 
L 71.987064 68.398931 
L 73.368185 67.966103 
L 74.749307 68.125889 
L 76.130428 68.012988 
L 77.511549 68.922695 
L 78.892671 67.799349 
L 80.273792 68.882896 
L 81.654914 68.158839 
L 83.036035 68.545373 
L 84.417157 67.863949 
L 85.798278 68.589659 
L 88.560521 67.835841 
L 89.941642 67.805727 
L 91.322764 68.216588 
L 92.703885 67.637201 
L 94.085007 67.938705 
L 95.466128 67.416595 
L 96.84725 67.80301 
L 98.228371 67.445883 
L 99.609492 68.339646 
L 100.990614 68.410033 
L 102.371735 68.097782 
L 103.752857 67.493476 
L 105.133978 68.240326 
L 106.5151 67.885324 
L 107.896221 67.7279 
L 110.658464 67.769234 
L 112.039585 68.007674 
L 113.420707 68.729605 
L 114.801828 68.159665 
L 116.18295 68.193914 
L 117.564071 67.784351 
L 118.945192 68.545963 
L 120.326314 67.267083 
L 121.707435 68.131912 
L 123.088557 63.457368 
L 124.469678 48.11057 
L 125.8508 34.196296 
L 127.231921 30.170345 
L 128.613042 30.283718 
L 129.994164 63.419577 
L 131.375285 90.110843 
L 132.756407 97.566352 
L 134.137528 98.380046 
L 135.51865 97.824986 
L 136.899771 98.0352 
L 138.280893 98.07063 
L 139.662014 98.77213 
L 141.043135 98.658756 
L 142.424257 98.842989 
L 143.805378 97.566352 
L 145.1865 97.816719 
L 147.948743 97.497856 
L 149.329864 97.663192 
L 150.710985 98.402484 
L 152.092107 97.69626 
L 154.85435 97.34551 
L 156.235471 97.92655 
L 157.616593 97.410463 
L 158.997714 97.592334 
L 161.759957 96.426709 
L 163.141078 96.178704 
L 164.5222 97.142382 
L 167.284443 96.551893 
L 168.665564 95.902355 
L 170.046685 95.615378 
L 171.427807 96.405452 
L 172.808928 95.467756 
L 174.19005 96.139732 
L 175.571171 94.694216 
L 176.952293 95.166607 
L 178.333414 94.683587 
L 179.714536 95.033156 
L 181.095657 94.900887 
L 182.476778 94.258435 
L 186.620143 93.752977 
L 188.001264 93.389236 
L 189.382386 93.491981 
L 190.763507 93.255785 
L 192.144628 92.595619 
L 193.52575 92.307461 
L 194.906871 91.897662 
L 196.287993 92.371234 
L 197.669114 91.767754 
L 199.050236 90.890288 
L 200.431357 90.573786 
L 201.812478 90.060061 
L 203.1936 90.3246 
L 204.574721 89.748283 
L 205.955843 88.838931 
L 207.336964 88.10082 
L 208.718086 87.607171 
L 210.099207 87.459549 
L 211.480328 86.495045 
L 212.86145 86.762891 
L 214.242571 86.317899 
L 215.623693 84.900608 
L 217.004814 84.996385 
L 218.385936 84.845811 
L 219.767057 84.554818 
L 221.148179 83.827926 
L 222.5293 83.858986 
L 223.910421 82.439569 
L 226.672664 82.963215 
L 228.053786 82.666671 
L 229.434907 81.919467 
L 230.816029 81.396058 
L 232.19715 81.303942 
L 233.578271 79.948062 
L 234.959393 80.193351 
L 236.340514 79.632505 
L 237.721636 79.348007 
L 239.102757 78.57246 
L 240.483879 78.099596 
L 241.865 78.382913 
L 244.627243 76.925823 
L 246.008364 76.447492 
L 247.389486 75.597448 
L 248.770607 76.950387 
L 250.151729 76.273428 
L 252.913971 76.06332 
L 254.295093 75.496475 
L 255.676214 74.52851 
L 257.057336 75.12181 
L 258.438457 74.158439 
L 259.819579 73.961452 
L 261.2007 73.972908 
L 262.581821 73.597003 
L 265.344064 73.61082 
L 266.725186 73.458002 
L 268.106307 72.524321 
L 269.487429 72.563175 
L 272.249672 71.612725 
L 273.630793 70.904847 
L 275.011914 70.919373 
L 276.393036 71.777235 
L 277.774157 71.137381 
L 279.155279 71.915882 
L 280.5364 71.381017 
L 281.917522 70.975587 
L 283.298643 71.00027 
L 284.679764 70.590353 
L 286.060886 70.995664 
L 287.442007 70.458556 
L 288.823129 70.601926 
L 290.20425 70.212676 
L 291.585372 70.574764 
L 292.966493 70.629089 
L 294.347614 69.744064 
L 295.728736 70.154808 
L 297.109857 70.129417 
L 298.490979 70.81899 
L 299.8721 69.894639 
L 301.253222 70.100365 
L 302.634343 70.117489 
L 304.015464 69.658207 
L 305.396586 69.633171 
L 306.777707 69.061696 
L 308.158829 69.00678 
L 309.53995 69.887317 
L 310.921072 69.303796 
L 312.302193 69.531489 
L 313.683315 68.995797 
L 315.064436 69.20483 
L 317.826679 69.176487 
L 319.2078 68.710827 
L 320.588922 68.838609 
L 321.970043 68.271504 
L 323.351165 68.857859 
L 326.113407 68.914664 
L 327.494529 68.443572 
L 328.87565 69.152513 
L 331.637893 68.613397 
L 333.019015 69.219592 
L 334.400136 68.498015 
L 337.162379 68.678587 
L 339.924622 68.639615 
L 341.305743 68.926238 
L 342.686865 68.311303 
L 344.067986 68.607728 
L 345.449107 68.618239 
L 346.830229 67.865248 
L 348.21135 69.459095 
L 349.592472 68.852663 
L 350.973593 68.387948 
L 352.354715 68.863528 
L 353.735836 68.605484 
L 355.116958 68.773183 
L 356.498079 68.376965 
L 359.260322 68.628631 
L 360.641443 68.219187 
L 362.022565 67.612755 
L 363.403686 68.697246 
L 364.784808 68.84723 
L 367.54705 68.484552 
L 368.928172 67.883907 
L 370.309293 68.521635 
L 371.690415 67.985826 
L 373.071536 68.405427 
L 374.452658 68.571945 
L 375.833779 68.220368 
L 377.2149 69.046225 
L 378.596022 68.882542 
L 379.977143 68.834003 
L 381.358265 68.339764 
L 382.739386 69.058035 
L 384.120508 69.105392 
L 385.501629 68.144076 
L 386.88275 68.44995 
L 388.263872 68.93108 
L 391.026115 68.711064 
L 392.407236 68.172538 
L 393.788358 69.034651 
L 395.169479 68.396806 
L 396.550601 68.838727 
L 397.931722 68.424677 
L 399.312843 69.072443 
L 400.693965 68.427629 
L 402.075086 68.486324 
L 403.456208 68.307051 
L 404.837329 68.281424 
L 406.218451 68.679886 
L 407.599572 67.435608 
L 408.980693 68.033891 
L 410.361815 68.814872 
L 411.742936 68.506755 
L 413.124058 67.403722 
L 414.505179 68.567811 
L 415.886301 67.845762 
L 417.267422 68.54242 
L 418.648543 68.424204 
L 420.029665 68.546317 
L 421.410786 68.307996 
L 422.791908 68.477821 
L 424.173029 68.251191 
L 426.935272 69.299072 
L 428.316393 68.24068 
L 431.078636 68.483371 
L 431.078636 68.483371 
" style="fill:none;stroke:#0000ff;stroke-linecap:square;stroke-width:1.5;"/>
   </g>
   <g id="line2d_10">
    <path clip-path="url(#p1b95bca9d2)" d="M 114.801828 103.573333 
L 114.801828 25.44 
" style="fill:none;stroke:#0000ff;stroke-dasharray:7.4,3.2;stroke-dashoffset:0;stroke-opacity:0.5;stroke-width:2;"/>
   </g>
   <g id="patch_4">
    <path d="M 33.73 103.573333 
L 33.73 25.44 
" style="fill:none;stroke:#000000;stroke-linecap:square;stroke-linejoin:miter;stroke-width:0.8;"/>
   </g>
   <g id="patch_5">
    <path d="M 450 103.573333 
L 450 25.44 
" style="fill:none;stroke:#000000;stroke-linecap:square;stroke-linejoin:miter;stroke-width:0.8;"/>
   </g>
   <g id="patch_6">
    <path d="M 33.73 103.573333 
L 450 103.573333 
" style="fill:none;stroke:#000000;stroke-linecap:square;stroke-linejoin:miter;stroke-width:0.8;"/>
   </g>
   <g id="patch_7">
    <path d="M 33.73 25.44 
L 450 25.44 
" style="fill:none;stroke:#000000;stroke-linecap:square;stroke-linejoin:miter;stroke-width:0.8;"/>
   </g>
   <g id="text_3">
    <!-- The time series -->
    <g transform="translate(195.568438 19.44)scale(0.12 -0.12)">
     <defs>
      <path d="M -0.296875 72.90625 
L 61.375 72.90625 
L 61.375 64.59375 
L 35.5 64.59375 
L 35.5 0 
L 25.59375 0 
L 25.59375 64.59375 
L -0.296875 64.59375 
z
" id="DejaVuSans-84"/>
      <path d="M 54.890625 33.015625 
L 54.890625 0 
L 45.90625 0 
L 45.90625 32.71875 
Q 45.90625 40.484375 42.875 44.328125 
Q 39.84375 48.1875 33.796875 48.1875 
Q 26.515625 48.1875 22.3125 43.546875 
Q 18.109375 38.921875 18.109375 30.90625 
L 18.109375 0 
L 9.078125 0 
L 9.078125 75.984375 
L 18.109375 75.984375 
L 18.109375 46.1875 
Q 21.34375 51.125 25.703125 53.5625 
Q 30.078125 56 35.796875 56 
Q 45.21875 56 50.046875 50.171875 
Q 54.890625 44.34375 54.890625 33.015625 
z
" id="DejaVuSans-104"/>
      <path d="M 56.203125 29.59375 
L 56.203125 25.203125 
L 14.890625 25.203125 
Q 15.484375 15.921875 20.484375 11.0625 
Q 25.484375 6.203125 34.421875 6.203125 
Q 39.59375 6.203125 44.453125 7.46875 
Q 49.3125 8.734375 54.109375 11.28125 
L 54.109375 2.78125 
Q 49.265625 0.734375 44.1875 -0.34375 
Q 39.109375 -1.421875 33.890625 -1.421875 
Q 20.796875 -1.421875 13.15625 6.1875 
Q 5.515625 13.8125 5.515625 26.8125 
Q 5.515625 40.234375 12.765625 48.109375 
Q 20.015625 56 32.328125 56 
Q 43.359375 56 49.78125 48.890625 
Q 56.203125 41.796875 56.203125 29.59375 
z
M 47.21875 32.234375 
Q 47.125 39.59375 43.09375 43.984375 
Q 39.0625 48.390625 32.421875 48.390625 
Q 24.90625 48.390625 20.390625 44.140625 
Q 15.875 39.890625 15.1875 32.171875 
z
" id="DejaVuSans-101"/>
      <path id="DejaVuSans-32"/>
      <path d="M 18.3125 70.21875 
L 18.3125 54.6875 
L 36.8125 54.6875 
L 36.8125 47.703125 
L 18.3125 47.703125 
L 18.3125 18.015625 
Q 18.3125 11.328125 20.140625 9.421875 
Q 21.96875 7.515625 27.59375 7.515625 
L 36.8125 7.515625 
L 36.8125 0 
L 27.59375 0 
Q 17.1875 0 13.234375 3.875 
Q 9.28125 7.765625 9.28125 18.015625 
L 9.28125 47.703125 
L 2.6875 47.703125 
L 2.6875 54.6875 
L 9.28125 54.6875 
L 9.28125 70.21875 
z
" id="DejaVuSans-116"/>
      <path d="M 9.421875 54.6875 
L 18.40625 54.6875 
L 18.40625 0 
L 9.421875 0 
z
M 9.421875 75.984375 
L 18.40625 75.984375 
L 18.40625 64.59375 
L 9.421875 64.59375 
z
" id="DejaVuSans-105"/>
      <path d="M 52 44.1875 
Q 55.375 50.25 60.0625 53.125 
Q 64.75 56 71.09375 56 
Q 79.640625 56 84.28125 50.015625 
Q 88.921875 44.046875 88.921875 33.015625 
L 88.921875 0 
L 79.890625 0 
L 79.890625 32.71875 
Q 79.890625 40.578125 77.09375 44.375 
Q 74.3125 48.1875 68.609375 48.1875 
Q 61.625 48.1875 57.5625 43.546875 
Q 53.515625 38.921875 53.515625 30.90625 
L 53.515625 0 
L 44.484375 0 
L 44.484375 32.71875 
Q 44.484375 40.625 41.703125 44.40625 
Q 38.921875 48.1875 33.109375 48.1875 
Q 26.21875 48.1875 22.15625 43.53125 
Q 18.109375 38.875 18.109375 30.90625 
L 18.109375 0 
L 9.078125 0 
L 9.078125 54.6875 
L 18.109375 54.6875 
L 18.109375 46.1875 
Q 21.1875 51.21875 25.484375 53.609375 
Q 29.78125 56 35.6875 56 
Q 41.65625 56 45.828125 52.96875 
Q 50 49.953125 52 44.1875 
z
" id="DejaVuSans-109"/>
      <path d="M 44.28125 53.078125 
L 44.28125 44.578125 
Q 40.484375 46.53125 36.375 47.5 
Q 32.28125 48.484375 27.875 48.484375 
Q 21.1875 48.484375 17.84375 46.4375 
Q 14.5 44.390625 14.5 40.28125 
Q 14.5 37.15625 16.890625 35.375 
Q 19.28125 33.59375 26.515625 31.984375 
L 29.59375 31.296875 
Q 39.15625 29.25 43.1875 25.515625 
Q 47.21875 21.78125 47.21875 15.09375 
Q 47.21875 7.46875 41.1875 3.015625 
Q 35.15625 -1.421875 24.609375 -1.421875 
Q 20.21875 -1.421875 15.453125 -0.5625 
Q 10.6875 0.296875 5.421875 2 
L 5.421875 11.28125 
Q 10.40625 8.6875 15.234375 7.390625 
Q 20.0625 6.109375 24.8125 6.109375 
Q 31.15625 6.109375 34.5625 8.28125 
Q 37.984375 10.453125 37.984375 14.40625 
Q 37.984375 18.0625 35.515625 20.015625 
Q 33.0625 21.96875 24.703125 23.78125 
L 21.578125 24.515625 
Q 13.234375 26.265625 9.515625 29.90625 
Q 5.8125 33.546875 5.8125 39.890625 
Q 5.8125 47.609375 11.28125 51.796875 
Q 16.75 56 26.8125 56 
Q 31.78125 56 36.171875 55.265625 
Q 40.578125 54.546875 44.28125 53.078125 
z
" id="DejaVuSans-115"/>
      <path d="M 41.109375 46.296875 
Q 39.59375 47.171875 37.8125 47.578125 
Q 36.03125 48 33.890625 48 
Q 26.265625 48 22.1875 43.046875 
Q 18.109375 38.09375 18.109375 28.8125 
L 18.109375 0 
L 9.078125 0 
L 9.078125 54.6875 
L 18.109375 54.6875 
L 18.109375 46.1875 
Q 20.953125 51.171875 25.484375 53.578125 
Q 30.03125 56 36.53125 56 
Q 37.453125 56 38.578125 55.875 
Q 39.703125 55.765625 41.0625 55.515625 
z
" id="DejaVuSans-114"/>
     </defs>
     <use xlink:href="#DejaVuSans-84"/>
     <use x="61.083984" xlink:href="#DejaVuSans-104"/>
     <use x="124.462891" xlink:href="#DejaVuSans-101"/>
     <use x="185.986328" xlink:href="#DejaVuSans-32"/>
     <use x="217.773438" xlink:href="#DejaVuSans-116"/>
     <use x="256.982422" xlink:href="#DejaVuSans-105"/>
     <use x="284.765625" xlink:href="#DejaVuSans-109"/>
     <use x="382.177734" xlink:href="#DejaVuSans-101"/>
     <use x="443.701172" xlink:href="#DejaVuSans-32"/>
     <use x="475.488281" xlink:href="#DejaVuSans-115"/>
     <use x="527.587891" xlink:href="#DejaVuSans-101"/>
     <use x="589.111328" xlink:href="#DejaVuSans-114"/>
     <use x="630.224609" xlink:href="#DejaVuSans-105"/>
     <use x="658.007812" xlink:href="#DejaVuSans-101"/>
     <use x="719.53125" xlink:href="#DejaVuSans-115"/>
    </g>
   </g>
   <g id="patch_8">
    <path clip-path="url(#p1b95bca9d2)" d="M 114.801828 100.021818 
L 142.424257 100.021818 
L 142.424257 28.991515 
L 114.801828 28.991515 
z
" style="fill:none;opacity:0.75;stroke:#808080;stroke-dasharray:3.7,1.6;stroke-dashoffset:0;stroke-linejoin:miter;"/>
   </g>
   <g id="patch_9">
    <path d="M 325.119 60.6 
Q 233.771628 80.310909 142.424257 100.021818 
" style="fill:none;opacity:0.75;stroke:#808080;stroke-linecap:round;"/>
   </g>
   <g id="patch_10">
    <path d="M 325.119 29.346667 
Q 233.771628 29.169091 142.424257 28.991515 
" style="fill:none;opacity:0.75;stroke:#808080;stroke-linecap:round;"/>
   </g>
   <g id="axes_2">
    <g id="patch_11">
     <path d="M 241.865 60.6 
L 325.119 60.6 
L 325.119 29.346667 
L 241.865 29.346667 
z
" style="fill:#ffffff;"/>
    </g>
    <g id="line2d_11">
     <path clip-path="url(#pa60477d5c9)" d="M 245.649273 46.500933 
L 249.632718 46.515117 
L 253.616163 46.345493 
L 257.599608 46.660922 
L 261.583053 46.131261 
L 265.566498 46.489439 
L 269.549943 44.553429 
L 273.533388 38.197398 
L 277.516833 32.434661 
L 281.500278 30.767273 
L 285.483722 30.814228 
L 289.467167 44.537778 
L 293.450612 55.592235 
L 297.434057 58.680009 
L 301.417502 59.017008 
L 305.400947 58.787125 
L 309.384392 58.874187 
L 313.367837 58.88886 
L 317.351282 59.179394 
L 321.334727 59.132439 
" style="fill:none;stroke:#0000ff;stroke-linecap:square;stroke-width:1.5;"/>
    </g>
    <g id="patch_12">
     <path d="M 241.865 60.6 
L 241.865 29.346667 
" style="fill:none;stroke:#000000;stroke-linecap:square;stroke-linejoin:miter;stroke-width:0.8;"/>
    </g>
    <g id="patch_13">
     <path d="M 325.119 60.6 
L 325.119 29.346667 
" style="fill:none;stroke:#000000;stroke-linecap:square;stroke-linejoin:miter;stroke-width:0.8;"/>
    </g>
    <g id="patch_14">
     <path d="M 241.865 60.6 
L 325.119 60.6 
" style="fill:none;stroke:#000000;stroke-linecap:square;stroke-linejoin:miter;stroke-width:0.8;"/>
    </g>
    <g id="patch_15">
     <path d="M 241.865 29.346667 
L 325.119 29.346667 
" style="fill:none;stroke:#000000;stroke-linecap:square;stroke-linejoin:miter;stroke-width:0.8;"/>
    </g>
   </g>
   <g id="legend_1">
    <g id="patch_16">
     <path d="M 247.13875 99.573333 
L 444.4 99.573333 
Q 446 99.573333 446 97.973333 
L 446 87.030833 
Q 446 85.430833 444.4 85.430833 
L 247.13875 85.430833 
Q 245.53875 85.430833 245.53875 87.030833 
L 245.53875 97.973333 
Q 245.53875 99.573333 247.13875 99.573333 
z
" style="fill:#ffffff;opacity:0.8;stroke:#cccccc;stroke-linejoin:miter;"/>
    </g>
    <g id="line2d_12">
     <path d="M 248.73875 91.909583 
L 264.73875 91.909583 
" style="fill:none;stroke:#0000ff;stroke-linecap:square;stroke-width:1.5;"/>
    </g>
    <g id="line2d_13"/>
    <g id="text_4">
     <!-- time series -->
     <g transform="translate(265.53875 94.709583)scale(0.08 -0.08)">
      <use xlink:href="#DejaVuSans-116"/>
      <use x="39.208984" xlink:href="#DejaVuSans-105"/>
      <use x="66.992188" xlink:href="#DejaVuSans-109"/>
      <use x="164.404297" xlink:href="#DejaVuSans-101"/>
      <use x="225.927734" xlink:href="#DejaVuSans-32"/>
      <use x="257.714844" xlink:href="#DejaVuSans-115"/>
      <use x="309.814453" xlink:href="#DejaVuSans-101"/>
      <use x="371.337891" xlink:href="#DejaVuSans-114"/>
      <use x="412.451172" xlink:href="#DejaVuSans-105"/>
      <use x="440.234375" xlink:href="#DejaVuSans-101"/>
      <use x="501.757812" xlink:href="#DejaVuSans-115"/>
     </g>
    </g>
    <g id="line2d_14">
     <path d="M 313.84625 91.909583 
L 329.84625 91.909583 
" style="fill:none;stroke:#0000ff;stroke-dasharray:7.4,3.2;stroke-dashoffset:0;stroke-opacity:0.5;stroke-width:2;"/>
    </g>
    <g id="line2d_15"/>
    <g id="text_5">
     <!-- segment start -->
     <g transform="translate(330.64625 94.709583)scale(0.08 -0.08)">
      <defs>
       <path d="M 45.40625 27.984375 
Q 45.40625 37.75 41.375 43.109375 
Q 37.359375 48.484375 30.078125 48.484375 
Q 22.859375 48.484375 18.828125 43.109375 
Q 14.796875 37.75 14.796875 27.984375 
Q 14.796875 18.265625 18.828125 12.890625 
Q 22.859375 7.515625 30.078125 7.515625 
Q 37.359375 7.515625 41.375 12.890625 
Q 45.40625 18.265625 45.40625 27.984375 
z
M 54.390625 6.78125 
Q 54.390625 -7.171875 48.1875 -13.984375 
Q 42 -20.796875 29.203125 -20.796875 
Q 24.46875 -20.796875 20.265625 -20.09375 
Q 16.0625 -19.390625 12.109375 -17.921875 
L 12.109375 -9.1875 
Q 16.0625 -11.328125 19.921875 -12.34375 
Q 23.78125 -13.375 27.78125 -13.375 
Q 36.625 -13.375 41.015625 -8.765625 
Q 45.40625 -4.15625 45.40625 5.171875 
L 45.40625 9.625 
Q 42.625 4.78125 38.28125 2.390625 
Q 33.9375 0 27.875 0 
Q 17.828125 0 11.671875 7.65625 
Q 5.515625 15.328125 5.515625 27.984375 
Q 5.515625 40.671875 11.671875 48.328125 
Q 17.828125 56 27.875 56 
Q 33.9375 56 38.28125 53.609375 
Q 42.625 51.21875 45.40625 46.390625 
L 45.40625 54.6875 
L 54.390625 54.6875 
z
" id="DejaVuSans-103"/>
       <path d="M 54.890625 33.015625 
L 54.890625 0 
L 45.90625 0 
L 45.90625 32.71875 
Q 45.90625 40.484375 42.875 44.328125 
Q 39.84375 48.1875 33.796875 48.1875 
Q 26.515625 48.1875 22.3125 43.546875 
Q 18.109375 38.921875 18.109375 30.90625 
L 18.109375 0 
L 9.078125 0 
L 9.078125 54.6875 
L 18.109375 54.6875 
L 18.109375 46.1875 
Q 21.34375 51.125 25.703125 53.5625 
Q 30.078125 56 35.796875 56 
Q 45.21875 56 50.046875 50.171875 
Q 54.890625 44.34375 54.890625 33.015625 
z
" id="DejaVuSans-110"/>
       <path d="M 34.28125 27.484375 
Q 23.390625 27.484375 19.1875 25 
Q 14.984375 22.515625 14.984375 16.5 
Q 14.984375 11.71875 18.140625 8.90625 
Q 21.296875 6.109375 26.703125 6.109375 
Q 34.1875 6.109375 38.703125 11.40625 
Q 43.21875 16.703125 43.21875 25.484375 
L 43.21875 27.484375 
z
M 52.203125 31.203125 
L 52.203125 0 
L 43.21875 0 
L 43.21875 8.296875 
Q 40.140625 3.328125 35.546875 0.953125 
Q 30.953125 -1.421875 24.3125 -1.421875 
Q 15.921875 -1.421875 10.953125 3.296875 
Q 6 8.015625 6 15.921875 
Q 6 25.140625 12.171875 29.828125 
Q 18.359375 34.515625 30.609375 34.515625 
L 43.21875 34.515625 
L 43.21875 35.40625 
Q 43.21875 41.609375 39.140625 45 
Q 35.0625 48.390625 27.6875 48.390625 
Q 23 48.390625 18.546875 47.265625 
Q 14.109375 46.140625 10.015625 43.890625 
L 10.015625 52.203125 
Q 14.9375 54.109375 19.578125 55.046875 
Q 24.21875 56 28.609375 56 
Q 40.484375 56 46.34375 49.84375 
Q 52.203125 43.703125 52.203125 31.203125 
z
" id="DejaVuSans-97"/>
      </defs>
      <use xlink:href="#DejaVuSans-115"/>
      <use x="52.099609" xlink:href="#DejaVuSans-101"/>
      <use x="113.623047" xlink:href="#DejaVuSans-103"/>
      <use x="177.099609" xlink:href="#DejaVuSans-109"/>
      <use x="274.511719" xlink:href="#DejaVuSans-101"/>
      <use x="336.035156" xlink:href="#DejaVuSans-110"/>
      <use x="399.414062" xlink:href="#DejaVuSans-116"/>
      <use x="438.623047" xlink:href="#DejaVuSans-32"/>
      <use x="470.410156" xlink:href="#DejaVuSans-115"/>
      <use x="522.509766" xlink:href="#DejaVuSans-116"/>
      <use x="561.71875" xlink:href="#DejaVuSans-97"/>
      <use x="622.998047" xlink:href="#DejaVuSans-114"/>
      <use x="664.111328" xlink:href="#DejaVuSans-116"/>
     </g>
    </g>
    <g id="patch_17">
     <path d="M 390.91 94.709583 
L 406.91 94.709583 
L 406.91 89.109583 
L 390.91 89.109583 
z
" style="fill:#0000ff;opacity:0.25;"/>
    </g>
    <g id="text_6">
     <!-- segment -->
     <g transform="translate(407.71 94.709583)scale(0.08 -0.08)">
      <use xlink:href="#DejaVuSans-115"/>
      <use x="52.099609" xlink:href="#DejaVuSans-101"/>
      <use x="113.623047" xlink:href="#DejaVuSans-103"/>
      <use x="177.099609" xlink:href="#DejaVuSans-109"/>
      <use x="274.511719" xlink:href="#DejaVuSans-101"/>
      <use x="336.035156" xlink:href="#DejaVuSans-110"/>
      <use x="399.414062" xlink:href="#DejaVuSans-116"/>
     </g>
    </g>
   </g>
  </g>
  <g id="axes_3">
   <g id="patch_18">
    <path d="M 33.73 210.646667 
L 450 210.646667 
L 450 132.513333 
L 33.73 132.513333 
z
" style="fill:#ffffff;"/>
   </g>
   <g id="PathCollection_1">
    <defs>
     <path d="M -3.535534 3.535534 
L 3.535534 -3.535534 
M -3.535534 -3.535534 
L 3.535534 3.535534 
" id="m45e3f28455" style="stroke:#ff0000;stroke-width:1.5;"/>
    </defs>
    <g clip-path="url(#p85b686080b)">
     <use style="fill:#ff0000;stroke:#ff0000;stroke-width:1.5;" x="357.8792" xlink:href="#m45e3f28455" y="170.206279"/>
    </g>
   </g>
   <g id="patch_19">
    <path clip-path="url(#p85b686080b)" d="M 107.896221 207.095152 
L 121.707435 207.095152 
L 121.707435 136.064848 
L 107.896221 136.064848 
z
" style="fill:#ff0000;opacity:0.5;"/>
   </g>
   <g id="matplotlib.axis_3">
    <g id="xtick_7">
     <g id="line2d_16">
      <g>
       <use style="stroke:#000000;stroke-width:0.8;" x="52.651364" xlink:href="#m7ceea94af4" y="210.646667"/>
      </g>
     </g>
    </g>
    <g id="xtick_8">
     <g id="line2d_17">
      <g>
       <use style="stroke:#000000;stroke-width:0.8;" x="121.707435" xlink:href="#m7ceea94af4" y="210.646667"/>
      </g>
     </g>
    </g>
    <g id="xtick_9">
     <g id="line2d_18">
      <g>
       <use style="stroke:#000000;stroke-width:0.8;" x="190.763507" xlink:href="#m7ceea94af4" y="210.646667"/>
      </g>
     </g>
    </g>
    <g id="xtick_10">
     <g id="line2d_19">
      <g>
       <use style="stroke:#000000;stroke-width:0.8;" x="259.819579" xlink:href="#m7ceea94af4" y="210.646667"/>
      </g>
     </g>
    </g>
    <g id="xtick_11">
     <g id="line2d_20">
      <g>
       <use style="stroke:#000000;stroke-width:0.8;" x="328.87565" xlink:href="#m7ceea94af4" y="210.646667"/>
      </g>
     </g>
    </g>
    <g id="xtick_12">
     <g id="line2d_21">
      <g>
       <use style="stroke:#000000;stroke-width:0.8;" x="397.931722" xlink:href="#m7ceea94af4" y="210.646667"/>
      </g>
     </g>
    </g>
   </g>
   <g id="matplotlib.axis_4">
    <g id="ytick_3">
     <g id="line2d_22">
      <g>
       <use style="stroke:#000000;stroke-width:0.8;" x="33.73" xlink:href="#ma29a235b57" y="206.254488"/>
      </g>
     </g>
     <g id="text_7">
      <!-- 0 -->
      <g transform="translate(20.3675 210.053707)scale(0.1 -0.1)">
       <use xlink:href="#DejaVuSans-48"/>
      </g>
     </g>
    </g>
    <g id="ytick_4">
     <g id="line2d_23">
      <g>
       <use style="stroke:#000000;stroke-width:0.8;" x="33.73" xlink:href="#ma29a235b57" y="164.221327"/>
      </g>
     </g>
     <g id="text_8">
      <!-- 5 -->
      <g transform="translate(20.3675 168.020546)scale(0.1 -0.1)">
       <use xlink:href="#DejaVuSans-53"/>
      </g>
     </g>
    </g>
   </g>
   <g id="line2d_24">
    <path clip-path="url(#p85b686080b)" d="M 52.651364 147.106979 
L 54.032485 151.78095 
L 55.413607 153.563291 
L 56.794728 154.312764 
L 58.175849 153.567182 
L 59.556971 157.687128 
L 60.938092 158.351973 
L 62.319214 154.971323 
L 63.700335 151.122602 
L 65.081457 149.816226 
L 66.462578 144.298242 
L 67.843699 143.109545 
L 69.224821 141.691441 
L 70.605942 141.429559 
L 71.987064 139.794122 
L 73.368185 142.480619 
L 74.749307 145.927319 
L 76.130428 148.038552 
L 77.511549 148.231804 
L 78.892671 152.127321 
L 80.273792 153.835988 
L 81.654914 158.202354 
L 83.036035 160.084125 
L 84.417157 159.612858 
L 85.798278 153.066723 
L 87.179399 152.318305 
L 88.560521 152.462776 
L 89.941642 154.671795 
L 91.322764 154.442039 
L 92.703885 160.589045 
L 94.085007 158.939233 
L 95.466128 161.014161 
L 96.84725 149.429609 
L 98.228371 145.674375 
L 99.609492 143.502008 
L 102.371735 139.796367 
L 103.752857 139.42856 
L 105.133978 142.586541 
L 107.896221 149.877349 
L 109.277342 155.030463 
L 110.658464 163.080466 
L 112.039585 174.275448 
L 113.420707 188.724704 
L 114.801828 206.254488 
L 116.18295 189.246775 
L 117.564071 176.084371 
L 118.945192 166.713852 
L 120.326314 160.803127 
L 121.707435 157.912626 
L 123.088557 156.813169 
L 127.231921 155.02844 
L 129.994164 153.684722 
L 131.375285 151.528999 
L 132.756407 147.926927 
L 134.137528 148.711039 
L 136.899771 142.009136 
L 138.280893 141.504495 
L 139.662014 141.191028 
L 141.043135 140.351375 
L 142.424257 138.806911 
L 143.805378 137.05341 
L 145.1865 136.905512 
L 146.567621 138.680493 
L 147.948743 141.387525 
L 149.329864 142.205536 
L 150.710985 141.003975 
L 152.092107 139.453343 
L 153.473228 138.970891 
L 154.85435 139.799783 
L 156.235471 140.400289 
L 157.616593 139.751651 
L 158.997714 139.398822 
L 160.378835 138.634486 
L 161.759957 139.559685 
L 163.141078 140.276209 
L 164.5222 140.789746 
L 165.903321 139.780944 
L 167.284443 138.962529 
L 168.665564 138.738974 
L 171.427807 139.498833 
L 174.19005 139.140305 
L 175.571171 138.252406 
L 176.952293 138.321709 
L 178.333414 138.547807 
L 179.714536 138.916775 
L 181.095657 138.754459 
L 182.476778 138.122413 
L 183.8579 138.002386 
L 186.620143 138.482954 
L 188.001264 138.596041 
L 190.763507 138.181385 
L 192.144628 138.412742 
L 196.287993 140.245998 
L 197.669114 140.230991 
L 199.050236 139.908144 
L 200.431357 140.192639 
L 201.812478 140.777244 
L 203.1936 140.953006 
L 205.955843 140.407367 
L 207.336964 140.128307 
L 208.718086 140.302618 
L 210.099207 140.858386 
L 211.480328 140.476705 
L 212.86145 139.8184 
L 214.242571 138.904336 
L 215.623693 138.256145 
L 217.004814 138.340955 
L 218.385936 138.744722 
L 219.767057 139.265948 
L 221.148179 139.301799 
L 222.5293 139.614912 
L 223.910421 139.78377 
L 225.291543 140.404742 
L 226.672664 140.781131 
L 228.053786 140.719289 
L 229.434907 140.831671 
L 230.816029 141.61586 
L 232.19715 142.587186 
L 233.578271 142.946394 
L 234.959393 142.301934 
L 236.340514 141.18392 
L 237.721636 139.809981 
L 239.102757 138.749985 
L 240.483879 139.056836 
L 241.865 139.699073 
L 243.246121 139.66233 
L 244.627243 140.469144 
L 246.008364 140.855514 
L 248.770607 140.979202 
L 251.53285 139.177964 
L 252.913971 138.914944 
L 254.295093 138.945374 
L 255.676214 139.357654 
L 258.438457 143.082872 
L 259.819579 145.894051 
L 261.2007 147.068898 
L 262.581821 146.737921 
L 263.962943 145.22598 
L 265.344064 142.75871 
L 268.106307 140.177597 
L 270.86855 140.865538 
L 272.249672 142.021293 
L 273.630793 142.808014 
L 276.393036 144.798695 
L 277.774157 143.820486 
L 279.155279 144.264319 
L 280.5364 144.264663 
L 281.917522 143.132854 
L 283.298643 142.218022 
L 284.679764 139.755104 
L 286.060886 139.062679 
L 287.442007 137.467865 
L 288.823129 137.994164 
L 290.20425 139.72341 
L 292.966493 145.10088 
L 294.347614 145.89179 
L 295.728736 143.911246 
L 299.8721 141.489934 
L 301.253222 141.315118 
L 302.634343 141.685613 
L 304.015464 142.191742 
L 305.396586 144.396932 
L 306.777707 149.809312 
L 308.158829 153.365147 
L 309.53995 152.996979 
L 310.921072 152.445933 
L 313.683315 150.081641 
L 317.826679 144.478066 
L 319.2078 142.625563 
L 320.588922 143.888504 
L 321.970043 149.454364 
L 323.351165 151.023441 
L 324.732286 151.034572 
L 326.113407 151.409111 
L 327.494529 151.195268 
L 328.87565 154.002458 
L 330.256772 154.580644 
L 331.637893 157.325775 
L 333.019015 157.706914 
L 334.400136 149.787649 
L 335.781257 145.546211 
L 337.162379 145.130412 
L 338.5435 145.035298 
L 339.924622 146.693461 
L 341.305743 147.325173 
L 342.686865 146.692768 
L 344.067986 147.828846 
L 345.449107 148.483812 
L 346.830229 152.68182 
L 348.21135 155.789133 
L 349.592472 152.545973 
L 350.973593 151.659719 
L 352.354715 150.481973 
L 353.735836 153.064681 
L 355.116958 157.250442 
L 357.8792 170.206279 
L 359.260322 166.969698 
L 360.641443 164.781928 
L 362.022565 163.108237 
L 363.403686 158.414197 
L 366.165929 151.985024 
L 367.54705 152.776323 
L 368.928172 149.774899 
L 370.309293 150.701232 
L 371.690415 152.998466 
L 373.071536 154.632742 
L 374.452658 152.360439 
L 375.833779 150.808891 
L 377.2149 148.969808 
L 378.596022 148.826496 
L 379.977143 149.164266 
L 381.358265 147.025208 
L 382.739386 144.339616 
L 384.120508 144.364144 
L 385.501629 143.008212 
L 386.88275 142.198789 
L 388.263872 143.613696 
L 389.644993 144.434924 
L 391.026115 146.501849 
L 392.407236 149.623201 
L 393.788358 154.69393 
L 395.169479 154.9898 
L 396.550601 153.492745 
L 397.931722 154.94785 
L 399.312843 158.864306 
L 400.693965 163.303493 
L 402.075086 165.519843 
L 403.456208 162.370905 
L 403.456208 162.370905 
" style="fill:none;stroke:#0000ff;stroke-linecap:square;stroke-width:1.5;"/>
   </g>
   <g id="line2d_25">
    <path clip-path="url(#p85b686080b)" d="M 114.801828 210.646667 
L 114.801828 132.513333 
" style="fill:none;stroke:#0000ff;stroke-dasharray:7.4,3.2;stroke-dashoffset:0;stroke-opacity:0.5;stroke-width:2;"/>
   </g>
   <g id="patch_20">
    <path d="M 33.73 210.646667 
L 33.73 132.513333 
" style="fill:none;stroke:#000000;stroke-linecap:square;stroke-linejoin:miter;stroke-width:0.8;"/>
   </g>
   <g id="patch_21">
    <path d="M 450 210.646667 
L 450 132.513333 
" style="fill:none;stroke:#000000;stroke-linecap:square;stroke-linejoin:miter;stroke-width:0.8;"/>
   </g>
   <g id="patch_22">
    <path d="M 33.73 210.646667 
L 450 210.646667 
" style="fill:none;stroke:#000000;stroke-linecap:square;stroke-linejoin:miter;stroke-width:0.8;"/>
   </g>
   <g id="patch_23">
    <path d="M 33.73 132.513333 
L 450 132.513333 
" style="fill:none;stroke:#000000;stroke-linecap:square;stroke-linejoin:miter;stroke-width:0.8;"/>
   </g>
   <g id="text_9">
    <!-- Segment distance profile -->
    <g transform="translate(166.676563 126.513333)scale(0.12 -0.12)">
     <defs>
      <path d="M 53.515625 70.515625 
L 53.515625 60.890625 
Q 47.90625 63.578125 42.921875 64.890625 
Q 37.9375 66.21875 33.296875 66.21875 
Q 25.25 66.21875 20.875 63.09375 
Q 16.5 59.96875 16.5 54.203125 
Q 16.5 49.359375 19.40625 46.890625 
Q 22.3125 44.4375 30.421875 42.921875 
L 36.375 41.703125 
Q 47.40625 39.59375 52.65625 34.296875 
Q 57.90625 29 57.90625 20.125 
Q 57.90625 9.515625 50.796875 4.046875 
Q 43.703125 -1.421875 29.984375 -1.421875 
Q 24.8125 -1.421875 18.96875 -0.25 
Q 13.140625 0.921875 6.890625 3.21875 
L 6.890625 13.375 
Q 12.890625 10.015625 18.65625 8.296875 
Q 24.421875 6.59375 29.984375 6.59375 
Q 38.421875 6.59375 43.015625 9.90625 
Q 47.609375 13.234375 47.609375 19.390625 
Q 47.609375 24.75 44.3125 27.78125 
Q 41.015625 30.8125 33.5 32.328125 
L 27.484375 33.5 
Q 16.453125 35.6875 11.515625 40.375 
Q 6.59375 45.0625 6.59375 53.421875 
Q 6.59375 63.09375 13.40625 68.65625 
Q 20.21875 74.21875 32.171875 74.21875 
Q 37.3125 74.21875 42.625 73.28125 
Q 47.953125 72.359375 53.515625 70.515625 
z
" id="DejaVuSans-83"/>
      <path d="M 45.40625 46.390625 
L 45.40625 75.984375 
L 54.390625 75.984375 
L 54.390625 0 
L 45.40625 0 
L 45.40625 8.203125 
Q 42.578125 3.328125 38.25 0.953125 
Q 33.9375 -1.421875 27.875 -1.421875 
Q 17.96875 -1.421875 11.734375 6.484375 
Q 5.515625 14.40625 5.515625 27.296875 
Q 5.515625 40.1875 11.734375 48.09375 
Q 17.96875 56 27.875 56 
Q 33.9375 56 38.25 53.625 
Q 42.578125 51.265625 45.40625 46.390625 
z
M 14.796875 27.296875 
Q 14.796875 17.390625 18.875 11.75 
Q 22.953125 6.109375 30.078125 6.109375 
Q 37.203125 6.109375 41.296875 11.75 
Q 45.40625 17.390625 45.40625 27.296875 
Q 45.40625 37.203125 41.296875 42.84375 
Q 37.203125 48.484375 30.078125 48.484375 
Q 22.953125 48.484375 18.875 42.84375 
Q 14.796875 37.203125 14.796875 27.296875 
z
" id="DejaVuSans-100"/>
      <path d="M 48.78125 52.59375 
L 48.78125 44.1875 
Q 44.96875 46.296875 41.140625 47.34375 
Q 37.3125 48.390625 33.40625 48.390625 
Q 24.65625 48.390625 19.8125 42.84375 
Q 14.984375 37.3125 14.984375 27.296875 
Q 14.984375 17.28125 19.8125 11.734375 
Q 24.65625 6.203125 33.40625 6.203125 
Q 37.3125 6.203125 41.140625 7.25 
Q 44.96875 8.296875 48.78125 10.40625 
L 48.78125 2.09375 
Q 45.015625 0.34375 40.984375 -0.53125 
Q 36.96875 -1.421875 32.421875 -1.421875 
Q 20.0625 -1.421875 12.78125 6.34375 
Q 5.515625 14.109375 5.515625 27.296875 
Q 5.515625 40.671875 12.859375 48.328125 
Q 20.21875 56 33.015625 56 
Q 37.15625 56 41.109375 55.140625 
Q 45.0625 54.296875 48.78125 52.59375 
z
" id="DejaVuSans-99"/>
      <path d="M 18.109375 8.203125 
L 18.109375 -20.796875 
L 9.078125 -20.796875 
L 9.078125 54.6875 
L 18.109375 54.6875 
L 18.109375 46.390625 
Q 20.953125 51.265625 25.265625 53.625 
Q 29.59375 56 35.59375 56 
Q 45.5625 56 51.78125 48.09375 
Q 58.015625 40.1875 58.015625 27.296875 
Q 58.015625 14.40625 51.78125 6.484375 
Q 45.5625 -1.421875 35.59375 -1.421875 
Q 29.59375 -1.421875 25.265625 0.953125 
Q 20.953125 3.328125 18.109375 8.203125 
z
M 48.6875 27.296875 
Q 48.6875 37.203125 44.609375 42.84375 
Q 40.53125 48.484375 33.40625 48.484375 
Q 26.265625 48.484375 22.1875 42.84375 
Q 18.109375 37.203125 18.109375 27.296875 
Q 18.109375 17.390625 22.1875 11.75 
Q 26.265625 6.109375 33.40625 6.109375 
Q 40.53125 6.109375 44.609375 11.75 
Q 48.6875 17.390625 48.6875 27.296875 
z
" id="DejaVuSans-112"/>
      <path d="M 30.609375 48.390625 
Q 23.390625 48.390625 19.1875 42.75 
Q 14.984375 37.109375 14.984375 27.296875 
Q 14.984375 17.484375 19.15625 11.84375 
Q 23.34375 6.203125 30.609375 6.203125 
Q 37.796875 6.203125 41.984375 11.859375 
Q 46.1875 17.53125 46.1875 27.296875 
Q 46.1875 37.015625 41.984375 42.703125 
Q 37.796875 48.390625 30.609375 48.390625 
z
M 30.609375 56 
Q 42.328125 56 49.015625 48.375 
Q 55.71875 40.765625 55.71875 27.296875 
Q 55.71875 13.875 49.015625 6.21875 
Q 42.328125 -1.421875 30.609375 -1.421875 
Q 18.84375 -1.421875 12.171875 6.21875 
Q 5.515625 13.875 5.515625 27.296875 
Q 5.515625 40.765625 12.171875 48.375 
Q 18.84375 56 30.609375 56 
z
" id="DejaVuSans-111"/>
      <path d="M 37.109375 75.984375 
L 37.109375 68.5 
L 28.515625 68.5 
Q 23.6875 68.5 21.796875 66.546875 
Q 19.921875 64.59375 19.921875 59.515625 
L 19.921875 54.6875 
L 34.71875 54.6875 
L 34.71875 47.703125 
L 19.921875 47.703125 
L 19.921875 0 
L 10.890625 0 
L 10.890625 47.703125 
L 2.296875 47.703125 
L 2.296875 54.6875 
L 10.890625 54.6875 
L 10.890625 58.5 
Q 10.890625 67.625 15.140625 71.796875 
Q 19.390625 75.984375 28.609375 75.984375 
z
" id="DejaVuSans-102"/>
      <path d="M 9.421875 75.984375 
L 18.40625 75.984375 
L 18.40625 0 
L 9.421875 0 
z
" id="DejaVuSans-108"/>
     </defs>
     <use xlink:href="#DejaVuSans-83"/>
     <use x="63.476562" xlink:href="#DejaVuSans-101"/>
     <use x="125" xlink:href="#DejaVuSans-103"/>
     <use x="188.476562" xlink:href="#DejaVuSans-109"/>
     <use x="285.888672" xlink:href="#DejaVuSans-101"/>
     <use x="347.412109" xlink:href="#DejaVuSans-110"/>
     <use x="410.791016" xlink:href="#DejaVuSans-116"/>
     <use x="450" xlink:href="#DejaVuSans-32"/>
     <use x="481.787109" xlink:href="#DejaVuSans-100"/>
     <use x="545.263672" xlink:href="#DejaVuSans-105"/>
     <use x="573.046875" xlink:href="#DejaVuSans-115"/>
     <use x="625.146484" xlink:href="#DejaVuSans-116"/>
     <use x="664.355469" xlink:href="#DejaVuSans-97"/>
     <use x="725.634766" xlink:href="#DejaVuSans-110"/>
     <use x="789.013672" xlink:href="#DejaVuSans-99"/>
     <use x="843.994141" xlink:href="#DejaVuSans-101"/>
     <use x="905.517578" xlink:href="#DejaVuSans-32"/>
     <use x="937.304688" xlink:href="#DejaVuSans-112"/>
     <use x="1000.78125" xlink:href="#DejaVuSans-114"/>
     <use x="1039.644531" xlink:href="#DejaVuSans-111"/>
     <use x="1100.826172" xlink:href="#DejaVuSans-102"/>
     <use x="1136.03125" xlink:href="#DejaVuSans-105"/>
     <use x="1163.814453" xlink:href="#DejaVuSans-108"/>
     <use x="1191.597656" xlink:href="#DejaVuSans-101"/>
    </g>
   </g>
   <g id="legend_2">
    <g id="patch_24">
     <path d="M 180.01875 206.646667 
L 444.4 206.646667 
Q 446 206.646667 446 205.046667 
L 446 194.104167 
Q 446 192.504167 444.4 192.504167 
L 180.01875 192.504167 
Q 178.41875 192.504167 178.41875 194.104167 
L 178.41875 205.046667 
Q 178.41875 206.646667 180.01875 206.646667 
z
" style="fill:#ffffff;opacity:0.8;stroke:#cccccc;stroke-linejoin:miter;"/>
    </g>
    <g id="line2d_26">
     <path d="M 181.61875 198.982917 
L 197.61875 198.982917 
" style="fill:none;stroke:#0000ff;stroke-dasharray:7.4,3.2;stroke-dashoffset:0;stroke-opacity:0.5;stroke-width:2;"/>
    </g>
    <g id="line2d_27"/>
    <g id="text_10">
     <!-- segment start -->
     <g transform="translate(198.41875 201.782917)scale(0.08 -0.08)">
      <use xlink:href="#DejaVuSans-115"/>
      <use x="52.099609" xlink:href="#DejaVuSans-101"/>
      <use x="113.623047" xlink:href="#DejaVuSans-103"/>
      <use x="177.099609" xlink:href="#DejaVuSans-109"/>
      <use x="274.511719" xlink:href="#DejaVuSans-101"/>
      <use x="336.035156" xlink:href="#DejaVuSans-110"/>
      <use x="399.414062" xlink:href="#DejaVuSans-116"/>
      <use x="438.623047" xlink:href="#DejaVuSans-32"/>
      <use x="470.410156" xlink:href="#DejaVuSans-115"/>
      <use x="522.509766" xlink:href="#DejaVuSans-116"/>
      <use x="561.71875" xlink:href="#DejaVuSans-97"/>
      <use x="622.998047" xlink:href="#DejaVuSans-114"/>
      <use x="664.111328" xlink:href="#DejaVuSans-116"/>
     </g>
    </g>
    <g id="patch_25">
     <path d="M 258.6825 201.782917 
L 274.6825 201.782917 
L 274.6825 196.182917 
L 258.6825 196.182917 
z
" style="fill:#ff0000;opacity:0.5;"/>
    </g>
    <g id="text_11">
     <!-- exclusion zone -->
     <g transform="translate(275.4825 201.782917)scale(0.08 -0.08)">
      <defs>
       <path d="M 54.890625 54.6875 
L 35.109375 28.078125 
L 55.90625 0 
L 45.3125 0 
L 29.390625 21.484375 
L 13.484375 0 
L 2.875 0 
L 24.125 28.609375 
L 4.6875 54.6875 
L 15.28125 54.6875 
L 29.78125 35.203125 
L 44.28125 54.6875 
z
" id="DejaVuSans-120"/>
       <path d="M 8.5 21.578125 
L 8.5 54.6875 
L 17.484375 54.6875 
L 17.484375 21.921875 
Q 17.484375 14.15625 20.5 10.265625 
Q 23.53125 6.390625 29.59375 6.390625 
Q 36.859375 6.390625 41.078125 11.03125 
Q 45.3125 15.671875 45.3125 23.6875 
L 45.3125 54.6875 
L 54.296875 54.6875 
L 54.296875 0 
L 45.3125 0 
L 45.3125 8.40625 
Q 42.046875 3.421875 37.71875 1 
Q 33.40625 -1.421875 27.6875 -1.421875 
Q 18.265625 -1.421875 13.375 4.4375 
Q 8.5 10.296875 8.5 21.578125 
z
M 31.109375 56 
z
" id="DejaVuSans-117"/>
       <path d="M 5.515625 54.6875 
L 48.1875 54.6875 
L 48.1875 46.484375 
L 14.40625 7.171875 
L 48.1875 7.171875 
L 48.1875 0 
L 4.296875 0 
L 4.296875 8.203125 
L 38.09375 47.515625 
L 5.515625 47.515625 
z
" id="DejaVuSans-122"/>
      </defs>
      <use xlink:href="#DejaVuSans-101"/>
      <use x="59.773438" xlink:href="#DejaVuSans-120"/>
      <use x="117.203125" xlink:href="#DejaVuSans-99"/>
      <use x="172.183594" xlink:href="#DejaVuSans-108"/>
      <use x="199.966797" xlink:href="#DejaVuSans-117"/>
      <use x="263.345703" xlink:href="#DejaVuSans-115"/>
      <use x="315.445312" xlink:href="#DejaVuSans-105"/>
      <use x="343.228516" xlink:href="#DejaVuSans-111"/>
      <use x="404.410156" xlink:href="#DejaVuSans-110"/>
      <use x="467.789062" xlink:href="#DejaVuSans-32"/>
      <use x="499.576172" xlink:href="#DejaVuSans-122"/>
      <use x="552.066406" xlink:href="#DejaVuSans-111"/>
      <use x="613.248047" xlink:href="#DejaVuSans-110"/>
      <use x="676.626953" xlink:href="#DejaVuSans-101"/>
     </g>
    </g>
    <g id="PathCollection_2">
     <g>
      <use style="fill:#ff0000;stroke:#ff0000;stroke-width:1.5;" x="346.535" xlink:href="#m45e3f28455" y="199.682917"/>
     </g>
    </g>
    <g id="text_12">
     <!-- neighbor dist = 4.288 -->
     <g transform="translate(355.335 201.782917)scale(0.08 -0.08)">
      <defs>
       <path d="M 48.6875 27.296875 
Q 48.6875 37.203125 44.609375 42.84375 
Q 40.53125 48.484375 33.40625 48.484375 
Q 26.265625 48.484375 22.1875 42.84375 
Q 18.109375 37.203125 18.109375 27.296875 
Q 18.109375 17.390625 22.1875 11.75 
Q 26.265625 6.109375 33.40625 6.109375 
Q 40.53125 6.109375 44.609375 11.75 
Q 48.6875 17.390625 48.6875 27.296875 
z
M 18.109375 46.390625 
Q 20.953125 51.265625 25.265625 53.625 
Q 29.59375 56 35.59375 56 
Q 45.5625 56 51.78125 48.09375 
Q 58.015625 40.1875 58.015625 27.296875 
Q 58.015625 14.40625 51.78125 6.484375 
Q 45.5625 -1.421875 35.59375 -1.421875 
Q 29.59375 -1.421875 25.265625 0.953125 
Q 20.953125 3.328125 18.109375 8.203125 
L 18.109375 0 
L 9.078125 0 
L 9.078125 75.984375 
L 18.109375 75.984375 
z
" id="DejaVuSans-98"/>
       <path d="M 10.59375 45.40625 
L 73.1875 45.40625 
L 73.1875 37.203125 
L 10.59375 37.203125 
z
M 10.59375 25.484375 
L 73.1875 25.484375 
L 73.1875 17.1875 
L 10.59375 17.1875 
z
" id="DejaVuSans-61"/>
       <path d="M 37.796875 64.3125 
L 12.890625 25.390625 
L 37.796875 25.390625 
z
M 35.203125 72.90625 
L 47.609375 72.90625 
L 47.609375 25.390625 
L 58.015625 25.390625 
L 58.015625 17.1875 
L 47.609375 17.1875 
L 47.609375 0 
L 37.796875 0 
L 37.796875 17.1875 
L 4.890625 17.1875 
L 4.890625 26.703125 
z
" id="DejaVuSans-52"/>
       <path d="M 31.78125 34.625 
Q 24.75 34.625 20.71875 30.859375 
Q 16.703125 27.09375 16.703125 20.515625 
Q 16.703125 13.921875 20.71875 10.15625 
Q 24.75 6.390625 31.78125 6.390625 
Q 38.8125 6.390625 42.859375 10.171875 
Q 46.921875 13.96875 46.921875 20.515625 
Q 46.921875 27.09375 42.890625 30.859375 
Q 38.875 34.625 31.78125 34.625 
z
M 21.921875 38.8125 
Q 15.578125 40.375 12.03125 44.71875 
Q 8.5 49.078125 8.5 55.328125 
Q 8.5 64.0625 14.71875 69.140625 
Q 20.953125 74.21875 31.78125 74.21875 
Q 42.671875 74.21875 48.875 69.140625 
Q 55.078125 64.0625 55.078125 55.328125 
Q 55.078125 49.078125 51.53125 44.71875 
Q 48 40.375 41.703125 38.8125 
Q 48.828125 37.15625 52.796875 32.3125 
Q 56.78125 27.484375 56.78125 20.515625 
Q 56.78125 9.90625 50.3125 4.234375 
Q 43.84375 -1.421875 31.78125 -1.421875 
Q 19.734375 -1.421875 13.25 4.234375 
Q 6.78125 9.90625 6.78125 20.515625 
Q 6.78125 27.484375 10.78125 32.3125 
Q 14.796875 37.15625 21.921875 38.8125 
z
M 18.3125 54.390625 
Q 18.3125 48.734375 21.84375 45.5625 
Q 25.390625 42.390625 31.78125 42.390625 
Q 38.140625 42.390625 41.71875 45.5625 
Q 45.3125 48.734375 45.3125 54.390625 
Q 45.3125 60.0625 41.71875 63.234375 
Q 38.140625 66.40625 31.78125 66.40625 
Q 25.390625 66.40625 21.84375 63.234375 
Q 18.3125 60.0625 18.3125 54.390625 
z
" id="DejaVuSans-56"/>
      </defs>
      <use xlink:href="#DejaVuSans-110"/>
      <use x="63.378906" xlink:href="#DejaVuSans-101"/>
      <use x="124.902344" xlink:href="#DejaVuSans-105"/>
      <use x="152.685547" xlink:href="#DejaVuSans-103"/>
      <use x="216.162109" xlink:href="#DejaVuSans-104"/>
      <use x="279.541016" xlink:href="#DejaVuSans-98"/>
      <use x="343.017578" xlink:href="#DejaVuSans-111"/>
      <use x="404.199219" xlink:href="#DejaVuSans-114"/>
      <use x="445.3125" xlink:href="#DejaVuSans-32"/>
      <use x="477.099609" xlink:href="#DejaVuSans-100"/>
      <use x="540.576172" xlink:href="#DejaVuSans-105"/>
      <use x="568.359375" xlink:href="#DejaVuSans-115"/>
      <use x="620.458984" xlink:href="#DejaVuSans-116"/>
      <use x="659.667969" xlink:href="#DejaVuSans-32"/>
      <use x="691.455078" xlink:href="#DejaVuSans-61"/>
      <use x="775.244141" xlink:href="#DejaVuSans-32"/>
      <use x="807.03125" xlink:href="#DejaVuSans-52"/>
      <use x="870.654297" xlink:href="#DejaVuSans-46"/>
      <use x="902.441406" xlink:href="#DejaVuSans-50"/>
      <use x="966.064453" xlink:href="#DejaVuSans-56"/>
      <use x="1029.6875" xlink:href="#DejaVuSans-56"/>
     </g>
    </g>
   </g>
  </g>
  <g id="axes_4">
   <g id="patch_26">
    <path d="M 33.73 317.72 
L 450 317.72 
L 450 239.586667 
L 33.73 239.586667 
z
" style="fill:#ffffff;"/>
   </g>
   <g id="PathCollection_3">
    <defs>
     <path d="M -4.330127 4.330127 
L 4.330127 -4.330127 
M -4.330127 -4.330127 
L 4.330127 4.330127 
" id="md45bd155c8" style="stroke:#ff0000;stroke-width:1.5;"/>
    </defs>
    <g clip-path="url(#pe0d17820e8)">
     <use style="fill:#ff0000;stroke:#ff0000;stroke-width:1.5;" x="114.801828" xlink:href="#md45bd155c8" y="252.490688"/>
    </g>
   </g>
   <g id="matplotlib.axis_5">
    <g id="xtick_13">
     <g id="line2d_28">
      <g>
       <use style="stroke:#000000;stroke-width:0.8;" x="52.651364" xlink:href="#m7ceea94af4" y="317.72"/>
      </g>
     </g>
     <g id="text_13">
      <!-- 0 -->
      <g transform="translate(49.470114 332.318437)scale(0.1 -0.1)">
       <use xlink:href="#DejaVuSans-48"/>
      </g>
     </g>
    </g>
    <g id="xtick_14">
     <g id="line2d_29">
      <g>
       <use style="stroke:#000000;stroke-width:0.8;" x="121.707435" xlink:href="#m7ceea94af4" y="317.72"/>
      </g>
     </g>
     <g id="text_14">
      <!-- 50 -->
      <g transform="translate(115.344935 332.318437)scale(0.1 -0.1)">
       <use xlink:href="#DejaVuSans-53"/>
       <use x="63.623047" xlink:href="#DejaVuSans-48"/>
      </g>
     </g>
    </g>
    <g id="xtick_15">
     <g id="line2d_30">
      <g>
       <use style="stroke:#000000;stroke-width:0.8;" x="190.763507" xlink:href="#m7ceea94af4" y="317.72"/>
      </g>
     </g>
     <g id="text_15">
      <!-- 100 -->
      <g transform="translate(181.219757 332.318437)scale(0.1 -0.1)">
       <defs>
        <path d="M 12.40625 8.296875 
L 28.515625 8.296875 
L 28.515625 63.921875 
L 10.984375 60.40625 
L 10.984375 69.390625 
L 28.421875 72.90625 
L 38.28125 72.90625 
L 38.28125 8.296875 
L 54.390625 8.296875 
L 54.390625 0 
L 12.40625 0 
z
" id="DejaVuSans-49"/>
       </defs>
       <use xlink:href="#DejaVuSans-49"/>
       <use x="63.623047" xlink:href="#DejaVuSans-48"/>
       <use x="127.246094" xlink:href="#DejaVuSans-48"/>
      </g>
     </g>
    </g>
    <g id="xtick_16">
     <g id="line2d_31">
      <g>
       <use style="stroke:#000000;stroke-width:0.8;" x="259.819579" xlink:href="#m7ceea94af4" y="317.72"/>
      </g>
     </g>
     <g id="text_16">
      <!-- 150 -->
      <g transform="translate(250.275829 332.318437)scale(0.1 -0.1)">
       <use xlink:href="#DejaVuSans-49"/>
       <use x="63.623047" xlink:href="#DejaVuSans-53"/>
       <use x="127.246094" xlink:href="#DejaVuSans-48"/>
      </g>
     </g>
    </g>
    <g id="xtick_17">
     <g id="line2d_32">
      <g>
       <use style="stroke:#000000;stroke-width:0.8;" x="328.87565" xlink:href="#m7ceea94af4" y="317.72"/>
      </g>
     </g>
     <g id="text_17">
      <!-- 200 -->
      <g transform="translate(319.3319 332.318437)scale(0.1 -0.1)">
       <use xlink:href="#DejaVuSans-50"/>
       <use x="63.623047" xlink:href="#DejaVuSans-48"/>
       <use x="127.246094" xlink:href="#DejaVuSans-48"/>
      </g>
     </g>
    </g>
    <g id="xtick_18">
     <g id="line2d_33">
      <g>
       <use style="stroke:#000000;stroke-width:0.8;" x="397.931722" xlink:href="#m7ceea94af4" y="317.72"/>
      </g>
     </g>
     <g id="text_18">
      <!-- 250 -->
      <g transform="translate(388.387972 332.318437)scale(0.1 -0.1)">
       <use xlink:href="#DejaVuSans-50"/>
       <use x="63.623047" xlink:href="#DejaVuSans-53"/>
       <use x="127.246094" xlink:href="#DejaVuSans-48"/>
      </g>
     </g>
    </g>
   </g>
   <g id="matplotlib.axis_6">
    <g id="ytick_5">
     <g id="line2d_34">
      <g>
       <use style="stroke:#000000;stroke-width:0.8;" x="33.73" xlink:href="#ma29a235b57" y="291.53285"/>
      </g>
     </g>
     <g id="text_19">
      <!-- 2 -->
      <g transform="translate(20.3675 295.332069)scale(0.1 -0.1)">
       <use xlink:href="#DejaVuSans-50"/>
      </g>
     </g>
    </g>
    <g id="ytick_6">
     <g id="line2d_35">
      <g>
       <use style="stroke:#000000;stroke-width:0.8;" x="33.73" xlink:href="#ma29a235b57" y="257.406097"/>
      </g>
     </g>
     <g id="text_20">
      <!-- 4 -->
      <g transform="translate(20.3675 261.205316)scale(0.1 -0.1)">
       <use xlink:href="#DejaVuSans-52"/>
      </g>
     </g>
    </g>
   </g>
   <g id="line2d_36">
    <path clip-path="url(#pe0d17820e8)" d="M 52.651364 257.269059 
L 54.032485 254.000067 
L 55.413607 260.299313 
L 56.794728 258.300263 
L 58.175849 256.884475 
L 59.556971 249.033311 
L 60.938092 251.979064 
L 62.319214 251.783221 
L 63.700335 255.5773 
L 65.081457 251.698605 
L 66.462578 249.217652 
L 67.843699 250.254037 
L 69.224821 256.544382 
L 70.605942 266.798721 
L 71.987064 268.608142 
L 74.749307 258.869118 
L 76.130428 258.631138 
L 77.511549 262.766126 
L 78.892671 256.149269 
L 80.273792 260.772846 
L 81.654914 256.739675 
L 83.036035 254.451641 
L 84.417157 257.572762 
L 85.798278 255.648931 
L 87.179399 247.659219 
L 88.560521 249.301992 
L 89.941642 253.220524 
L 91.322764 254.553568 
L 92.703885 258.182825 
L 94.085007 252.498603 
L 95.466128 254.805768 
L 96.84725 258.789232 
L 98.228371 260.935655 
L 99.609492 269.3701 
L 100.990614 273.186855 
L 102.371735 278.446285 
L 103.752857 276.238442 
L 105.133978 255.581321 
L 106.5151 250.203063 
L 107.896221 246.018541 
L 109.277342 247.692936 
L 110.658464 248.028938 
L 112.039585 249.308669 
L 113.420707 252.237978 
L 114.801828 252.490688 
L 116.18295 246.623149 
L 117.564071 247.778194 
L 118.945192 250.413394 
L 121.707435 252.062931 
L 123.088557 250.73757 
L 124.469678 252.36912 
L 125.8508 251.670741 
L 127.231921 246.684374 
L 128.613042 246.858526 
L 129.994164 248.412054 
L 131.375285 248.786391 
L 132.756407 259.417598 
L 134.137528 275.411747 
L 135.51865 275.768751 
L 136.899771 283.307345 
L 138.280893 284.183759 
L 139.662014 285.328491 
L 141.043135 285.196963 
L 142.424257 286.092471 
L 143.805378 288.164573 
L 145.1865 291.619413 
L 146.567621 294.557219 
L 147.948743 294.265266 
L 149.329864 294.38108 
L 150.710985 297.973032 
L 152.092107 298.61322 
L 153.473228 297.393053 
L 154.85435 298.185088 
L 156.235471 299.454993 
L 157.616593 300.098484 
L 158.997714 300.614764 
L 160.378835 300.959889 
L 161.759957 300.976431 
L 163.141078 303.77454 
L 164.5222 307.165108 
L 165.903321 307.183964 
L 167.284443 307.527431 
L 168.665564 307.139513 
L 171.427807 309.214656 
L 172.808928 311.301459 
L 174.19005 311.213785 
L 175.571171 310.911961 
L 176.952293 311.691677 
L 178.333414 311.862939 
L 179.714536 312.677111 
L 181.095657 311.734627 
L 182.476778 312.073941 
L 183.8579 311.808191 
L 185.239021 311.233232 
L 186.620143 311.659984 
L 188.001264 312.451203 
L 189.382386 314.058611 
L 190.763507 312.848296 
L 192.144628 313.08171 
L 194.906871 313.187119 
L 196.287993 314.168485 
L 197.669114 313.320546 
L 199.050236 312.924016 
L 200.431357 311.55332 
L 201.812478 313.112082 
L 203.1936 312.09993 
L 204.574721 314.168485 
L 205.955843 313.320546 
L 208.718086 312.924016 
L 211.480328 310.780814 
L 212.86145 311.013661 
L 214.242571 312.710881 
L 215.623693 313.08171 
L 218.385936 313.187119 
L 219.767057 312.848296 
L 221.148179 314.058611 
L 222.5293 311.787879 
L 223.910421 311.55332 
L 225.291543 313.112082 
L 228.053786 311.144996 
L 229.434907 310.28718 
L 230.816029 308.822125 
L 233.578271 309.146409 
L 234.959393 308.271582 
L 236.340514 307.553232 
L 237.721636 307.028126 
L 239.102757 308.449759 
L 240.483879 307.100772 
L 241.865 307.086572 
L 243.246121 307.593744 
L 244.627243 306.981206 
L 246.008364 306.600259 
L 247.389486 306.096395 
L 248.770607 312.710881 
L 250.151729 310.306908 
L 251.53285 310.437645 
L 252.913971 305.02574 
L 254.295093 305.67936 
L 255.676214 304.705646 
L 257.057336 304.790983 
L 258.438457 303.791756 
L 259.819579 300.889809 
L 261.2007 300.91845 
L 262.581821 299.620701 
L 263.962943 298.794068 
L 265.344064 295.897319 
L 266.725186 292.479199 
L 268.106307 295.222734 
L 269.487429 292.989833 
L 270.86855 293.984976 
L 272.249672 280.755878 
L 273.630793 281.454611 
L 275.011914 283.812084 
L 276.393036 288.162535 
L 277.774157 286.105103 
L 279.155279 288.253126 
L 280.5364 289.209289 
L 281.917522 289.483539 
L 283.298643 284.331021 
L 284.679764 283.669138 
L 286.060886 283.56925 
L 287.442007 282.095762 
L 288.823129 284.124745 
L 290.20425 282.935217 
L 291.585372 286.759742 
L 292.966493 286.791411 
L 294.347614 285.127602 
L 295.728736 291.667123 
L 297.109857 292.403973 
L 298.490979 291.719876 
L 299.8721 288.148287 
L 301.253222 289.917895 
L 302.634343 280.994762 
L 304.015464 272.938206 
L 305.396586 271.920981 
L 306.777707 263.415548 
L 309.53995 270.302251 
L 310.921072 265.421484 
L 312.302193 263.405905 
L 313.683315 258.696488 
L 315.064436 252.692725 
L 316.445557 252.357514 
L 317.826679 250.467494 
L 319.2078 248.080215 
L 320.588922 258.99387 
L 321.970043 255.426725 
L 323.351165 259.772343 
L 324.732286 256.834051 
L 326.113407 256.125826 
L 327.494529 253.827585 
L 328.87565 253.13561 
L 330.256772 256.120945 
L 331.637893 255.986946 
L 333.019015 258.26456 
L 334.400136 251.438117 
L 335.781257 259.337977 
L 337.162379 255.426725 
L 338.5435 259.772343 
L 339.924622 256.834051 
L 341.305743 256.125826 
L 342.686865 253.827585 
L 344.067986 253.13561 
L 345.449107 256.120945 
L 346.830229 255.986946 
L 348.21135 258.26456 
L 350.973593 246.563641 
L 352.354715 249.301992 
L 353.735836 253.220524 
L 355.116958 254.553568 
L 356.498079 258.182825 
L 357.8792 252.490688 
L 359.260322 252.498603 
L 360.641443 252.158542 
L 362.022565 248.412054 
L 363.403686 250.942006 
L 364.784808 252.062931 
L 366.165929 249.593617 
L 367.54705 252.36912 
L 368.928172 251.670741 
L 370.309293 250.271295 
L 371.690415 250.507309 
L 373.071536 254.805768 
L 374.452658 249.679039 
L 375.833779 255.579751 
L 377.2149 254.937112 
L 378.596022 252.670459 
L 379.977143 251.132651 
L 381.358265 260.935655 
L 382.739386 265.671302 
L 384.120508 260.066487 
L 385.501629 253.31461 
L 386.88275 259.641552 
L 388.263872 258.459115 
L 389.644993 259.381055 
L 391.026115 254.134711 
L 392.407236 251.681676 
L 393.788358 254.542025 
L 395.169479 250.775359 
L 396.550601 249.152603 
L 397.931722 246.237045 
L 399.312843 247.238035 
L 402.075086 243.145076 
L 403.456208 243.138182 
L 404.837329 245.622674 
L 404.837329 245.622674 
" style="fill:none;stroke:#0000ff;stroke-linecap:square;stroke-width:1.5;"/>
   </g>
   <g id="line2d_37">
    <path clip-path="url(#pe0d17820e8)" d="M 114.801828 317.72 
L 114.801828 239.586667 
" style="fill:none;stroke:#0000ff;stroke-dasharray:7.4,3.2;stroke-dashoffset:0;stroke-opacity:0.5;stroke-width:2;"/>
   </g>
   <g id="patch_27">
    <path d="M 33.73 317.72 
L 33.73 239.586667 
" style="fill:none;stroke:#000000;stroke-linecap:square;stroke-linejoin:miter;stroke-width:0.8;"/>
   </g>
   <g id="patch_28">
    <path d="M 450 317.72 
L 450 239.586667 
" style="fill:none;stroke:#000000;stroke-linecap:square;stroke-linejoin:miter;stroke-width:0.8;"/>
   </g>
   <g id="patch_29">
    <path d="M 33.73 317.72 
L 450 317.72 
" style="fill:none;stroke:#000000;stroke-linecap:square;stroke-linejoin:miter;stroke-width:0.8;"/>
   </g>
   <g id="patch_30">
    <path d="M 33.73 239.586667 
L 450 239.586667 
" style="fill:none;stroke:#000000;stroke-linecap:square;stroke-linejoin:miter;stroke-width:0.8;"/>
   </g>
   <g id="text_21">
    <!-- Matrix profile -->
    <g transform="translate(202.117813 233.586667)scale(0.12 -0.12)">
     <defs>
      <path d="M 9.8125 72.90625 
L 24.515625 72.90625 
L 43.109375 23.296875 
L 61.8125 72.90625 
L 76.515625 72.90625 
L 76.515625 0 
L 66.890625 0 
L 66.890625 64.015625 
L 48.09375 14.015625 
L 38.1875 14.015625 
L 19.390625 64.015625 
L 19.390625 0 
L 9.8125 0 
z
" id="DejaVuSans-77"/>
     </defs>
     <use xlink:href="#DejaVuSans-77"/>
     <use x="86.279297" xlink:href="#DejaVuSans-97"/>
     <use x="147.558594" xlink:href="#DejaVuSans-116"/>
     <use x="186.767578" xlink:href="#DejaVuSans-114"/>
     <use x="227.880859" xlink:href="#DejaVuSans-105"/>
     <use x="255.664062" xlink:href="#DejaVuSans-120"/>
     <use x="314.84375" xlink:href="#DejaVuSans-32"/>
     <use x="346.630859" xlink:href="#DejaVuSans-112"/>
     <use x="410.107422" xlink:href="#DejaVuSans-114"/>
     <use x="448.970703" xlink:href="#DejaVuSans-111"/>
     <use x="510.152344" xlink:href="#DejaVuSans-102"/>
     <use x="545.357422" xlink:href="#DejaVuSans-105"/>
     <use x="573.140625" xlink:href="#DejaVuSans-108"/>
     <use x="600.923828" xlink:href="#DejaVuSans-101"/>
    </g>
   </g>
   <g id="legend_3">
    <g id="patch_31">
     <path d="M 340.35 313.72 
L 444.4 313.72 
Q 446 313.72 446 312.12 
L 446 289.435 
Q 446 287.835 444.4 287.835 
L 340.35 287.835 
Q 338.75 287.835 338.75 289.435 
L 338.75 312.12 
Q 338.75 313.72 340.35 313.72 
z
" style="fill:#ffffff;opacity:0.8;stroke:#cccccc;stroke-linejoin:miter;"/>
    </g>
    <g id="line2d_38">
     <path d="M 341.95 294.31375 
L 357.95 294.31375 
" style="fill:none;stroke:#0000ff;stroke-dasharray:7.4,3.2;stroke-dashoffset:0;stroke-opacity:0.5;stroke-width:2;"/>
    </g>
    <g id="line2d_39"/>
    <g id="text_22">
     <!-- segment start -->
     <g transform="translate(358.75 297.11375)scale(0.08 -0.08)">
      <use xlink:href="#DejaVuSans-115"/>
      <use x="52.099609" xlink:href="#DejaVuSans-101"/>
      <use x="113.623047" xlink:href="#DejaVuSans-103"/>
      <use x="177.099609" xlink:href="#DejaVuSans-109"/>
      <use x="274.511719" xlink:href="#DejaVuSans-101"/>
      <use x="336.035156" xlink:href="#DejaVuSans-110"/>
      <use x="399.414062" xlink:href="#DejaVuSans-116"/>
      <use x="438.623047" xlink:href="#DejaVuSans-32"/>
      <use x="470.410156" xlink:href="#DejaVuSans-115"/>
      <use x="522.509766" xlink:href="#DejaVuSans-116"/>
      <use x="561.71875" xlink:href="#DejaVuSans-97"/>
      <use x="622.998047" xlink:href="#DejaVuSans-114"/>
      <use x="664.111328" xlink:href="#DejaVuSans-116"/>
     </g>
    </g>
    <g id="PathCollection_4">
     <g>
      <use style="fill:#ff0000;stroke:#ff0000;stroke-width:1.5;" x="349.95" xlink:href="#md45bd155c8" y="306.75625"/>
     </g>
    </g>
    <g id="text_23">
     <!-- MP segment = 4.288 -->
     <g transform="translate(358.75 308.85625)scale(0.08 -0.08)">
      <defs>
       <path d="M 19.671875 64.796875 
L 19.671875 37.40625 
L 32.078125 37.40625 
Q 38.96875 37.40625 42.71875 40.96875 
Q 46.484375 44.53125 46.484375 51.125 
Q 46.484375 57.671875 42.71875 61.234375 
Q 38.96875 64.796875 32.078125 64.796875 
z
M 9.8125 72.90625 
L 32.078125 72.90625 
Q 44.34375 72.90625 50.609375 67.359375 
Q 56.890625 61.8125 56.890625 51.125 
Q 56.890625 40.328125 50.609375 34.8125 
Q 44.34375 29.296875 32.078125 29.296875 
L 19.671875 29.296875 
L 19.671875 0 
L 9.8125 0 
z
" id="DejaVuSans-80"/>
      </defs>
      <use xlink:href="#DejaVuSans-77"/>
      <use x="86.279297" xlink:href="#DejaVuSans-80"/>
      <use x="146.582031" xlink:href="#DejaVuSans-32"/>
      <use x="178.369141" xlink:href="#DejaVuSans-115"/>
      <use x="230.46875" xlink:href="#DejaVuSans-101"/>
      <use x="291.992188" xlink:href="#DejaVuSans-103"/>
      <use x="355.46875" xlink:href="#DejaVuSans-109"/>
      <use x="452.880859" xlink:href="#DejaVuSans-101"/>
      <use x="514.404297" xlink:href="#DejaVuSans-110"/>
      <use x="577.783203" xlink:href="#DejaVuSans-116"/>
      <use x="616.992188" xlink:href="#DejaVuSans-32"/>
      <use x="648.779297" xlink:href="#DejaVuSans-61"/>
      <use x="732.568359" xlink:href="#DejaVuSans-32"/>
      <use x="764.355469" xlink:href="#DejaVuSans-52"/>
      <use x="827.978516" xlink:href="#DejaVuSans-46"/>
      <use x="859.765625" xlink:href="#DejaVuSans-50"/>
      <use x="923.388672" xlink:href="#DejaVuSans-56"/>
      <use x="987.011719" xlink:href="#DejaVuSans-56"/>
     </g>
    </g>
   </g>
  </g>
 </g>
 <defs>
  <clipPath id="p1b95bca9d2">
   <rect height="78.133333" width="416.27" x="33.73" y="25.44"/>
  </clipPath>
  <clipPath id="pa60477d5c9">
   <rect height="31.253333" width="83.254" x="241.865" y="29.346667"/>
  </clipPath>
  <clipPath id="p85b686080b">
   <rect height="78.133333" width="416.27" x="33.73" y="132.513333"/>
  </clipPath>
  <clipPath id="pe0d17820e8">
   <rect height="78.133333" width="416.27" x="33.73" y="239.586667"/>
  </clipPath>
 </defs>
</svg>
