<?xml version="1.0" encoding="utf-8" standalone="no"?>
<!DOCTYPE svg PUBLIC "-//W3C//DTD SVG 1.1//EN"
  "http://www.w3.org/Graphics/SVG/1.1/DTD/svg11.dtd">
<!-- Created with matplotlib (https://matplotlib.org/) -->
<svg height="345.6pt" version="1.1" viewBox="0 0 460.8 345.6" width="460.8pt" xmlns="http://www.w3.org/2000/svg" xmlns:xlink="http://www.w3.org/1999/xlink">
 <metadata>
  <rdf:RDF xmlns:cc="http://creativecommons.org/ns#" xmlns:dc="http://purl.org/dc/elements/1.1/" xmlns:rdf="http://www.w3.org/1999/02/22-rdf-syntax-ns#">
   <cc:Work>
    <dc:type rdf:resource="http://purl.org/dc/dcmitype/StillImage"/>
    <dc:date>2021-05-07T16:17:49.061677</dc:date>
    <dc:format>image/svg+xml</dc:format>
    <dc:creator>
     <cc:Agent>
      <dc:title>Matplotlib v3.3.2, https://matplotlib.org/</dc:title>
     </cc:Agent>
    </dc:creator>
   </cc:Work>
  </rdf:RDF>
 </metadata>
 <defs>
  <style type="text/css">*{stroke-linecap:butt;stroke-linejoin:round;}</style>
 </defs>
 <g id="figure_1">
  <g id="patch_1">
   <path d="M 0 345.6 
L 460.8 345.6 
L 460.8 0 
L 0 0 
z
" style="fill:#ffffff;"/>
  </g>
  <g id="axes_1">
   <g id="patch_2">
    <path d="M 57.6 307.584 
L 414.72 307.584 
L 414.72 41.472 
L 57.6 41.472 
z
" style="fill:#ffffff;"/>
   </g>
   <g id="patch_3">
    <path clip-path="url(#pd3002e3816)" d="M 57.6 307.584 
L 76.395789 307.584 
L 76.395789 307.584 
L 57.6 307.584 
z
" style="fill:url(#hbc37428505);opacity:0.5;"/>
   </g>
   <g id="patch_4">
    <path clip-path="url(#pd3002e3816)" d="M 76.395789 307.584 
L 95.191579 307.584 
L 95.191579 307.584 
L 76.395789 307.584 
z
" style="fill:url(#hbc37428505);opacity:0.5;"/>
   </g>
   <g id="patch_5">
    <path clip-path="url(#pd3002e3816)" d="M 95.191579 307.584 
L 113.987368 307.584 
L 113.987368 307.584 
L 95.191579 307.584 
z
" style="fill:url(#hbc37428505);opacity:0.5;"/>
   </g>
   <g id="patch_6">
    <path clip-path="url(#pd3002e3816)" d="M 113.987368 307.584 
L 132.783158 307.584 
L 132.783158 307.584 
L 113.987368 307.584 
z
" style="fill:url(#hbc37428505);opacity:0.5;"/>
   </g>
   <g id="patch_7">
    <path clip-path="url(#pd3002e3816)" d="M 132.783158 307.584 
L 151.578947 307.584 
L 151.578947 307.584 
L 132.783158 307.584 
z
" style="fill:url(#hbc37428505);opacity:0.5;"/>
   </g>
   <g id="patch_8">
    <path clip-path="url(#pd3002e3816)" d="M 151.578947 307.584 
L 170.374737 307.584 
L 170.374737 307.584 
L 151.578947 307.584 
z
" style="fill:url(#hbc37428505);opacity:0.5;"/>
   </g>
   <g id="patch_9">
    <path clip-path="url(#pd3002e3816)" d="M 170.374737 307.584 
L 189.170526 307.584 
L 189.170526 266.908444 
L 170.374737 266.908444 
z
" style="fill:url(#hbc37428505);opacity:0.5;"/>
   </g>
   <g id="patch_10">
    <path clip-path="url(#pd3002e3816)" d="M 189.170526 307.584 
L 207.966316 307.584 
L 207.966316 307.584 
L 189.170526 307.584 
z
" style="fill:url(#hbc37428505);opacity:0.5;"/>
   </g>
   <g id="patch_11">
    <path clip-path="url(#pd3002e3816)" d="M 207.966316 307.584 
L 226.762105 307.584 
L 226.762105 295.068444 
L 207.966316 295.068444 
z
" style="fill:url(#hbc37428505);opacity:0.5;"/>
   </g>
   <g id="patch_12">
    <path clip-path="url(#pd3002e3816)" d="M 226.762105 307.584 
L 245.557895 307.584 
L 245.557895 173.041778 
L 226.762105 173.041778 
z
" style="fill:url(#hbc37428505);opacity:0.5;"/>
   </g>
   <g id="patch_13">
    <path clip-path="url(#pd3002e3816)" d="M 245.557895 307.584 
L 264.353684 307.584 
L 264.353684 307.584 
L 245.557895 307.584 
z
" style="fill:url(#hbc37428505);opacity:0.5;"/>
   </g>
   <g id="patch_14">
    <path clip-path="url(#pd3002e3816)" d="M 264.353684 307.584 
L 283.149474 307.584 
L 283.149474 307.584 
L 264.353684 307.584 
z
" style="fill:url(#hbc37428505);opacity:0.5;"/>
   </g>
   <g id="patch_15">
    <path clip-path="url(#pd3002e3816)" d="M 283.149474 307.584 
L 301.945263 307.584 
L 301.945263 307.584 
L 283.149474 307.584 
z
" style="fill:url(#hbc37428505);opacity:0.5;"/>
   </g>
   <g id="patch_16">
    <path clip-path="url(#pd3002e3816)" d="M 301.945263 307.584 
L 320.741053 307.584 
L 320.741053 307.584 
L 301.945263 307.584 
z
" style="fill:url(#hbc37428505);opacity:0.5;"/>
   </g>
   <g id="patch_17">
    <path clip-path="url(#pd3002e3816)" d="M 320.741053 307.584 
L 339.536842 307.584 
L 339.536842 307.584 
L 320.741053 307.584 
z
" style="fill:url(#hbc37428505);opacity:0.5;"/>
   </g>
   <g id="patch_18">
    <path clip-path="url(#pd3002e3816)" d="M 339.536842 307.584 
L 358.332632 307.584 
L 358.332632 307.584 
L 339.536842 307.584 
z
" style="fill:url(#hbc37428505);opacity:0.5;"/>
   </g>
   <g id="patch_19">
    <path clip-path="url(#pd3002e3816)" d="M 358.332632 307.584 
L 377.128421 307.584 
L 377.128421 307.584 
L 358.332632 307.584 
z
" style="fill:url(#hbc37428505);opacity:0.5;"/>
   </g>
   <g id="patch_20">
    <path clip-path="url(#pd3002e3816)" d="M 377.128421 307.584 
L 395.924211 307.584 
L 395.924211 304.455111 
L 377.128421 304.455111 
z
" style="fill:url(#hbc37428505);opacity:0.5;"/>
   </g>
   <g id="patch_21">
    <path clip-path="url(#pd3002e3816)" d="M 395.924211 307.584 
L 414.72 307.584 
L 414.72 185.557333 
L 395.924211 185.557333 
z
" style="fill:url(#hbc37428505);opacity:0.5;"/>
   </g>
   <g id="patch_22">
    <path clip-path="url(#pd3002e3816)" d="M 57.6 307.584 
L 76.395789 307.584 
L 76.395789 307.584 
L 57.6 307.584 
z
" style="fill:url(#hb6039893ee);opacity:0.5;"/>
   </g>
   <g id="patch_23">
    <path clip-path="url(#pd3002e3816)" d="M 76.395789 307.584 
L 95.191579 307.584 
L 95.191579 307.584 
L 76.395789 307.584 
z
" style="fill:url(#hb6039893ee);opacity:0.5;"/>
   </g>
   <g id="patch_24">
    <path clip-path="url(#pd3002e3816)" d="M 95.191579 307.584 
L 113.987368 307.584 
L 113.987368 307.584 
L 95.191579 307.584 
z
" style="fill:url(#hb6039893ee);opacity:0.5;"/>
   </g>
   <g id="patch_25">
    <path clip-path="url(#pd3002e3816)" d="M 113.987368 307.584 
L 132.783158 307.584 
L 132.783158 307.584 
L 113.987368 307.584 
z
" style="fill:url(#hb6039893ee);opacity:0.5;"/>
   </g>
   <g id="patch_26">
    <path clip-path="url(#pd3002e3816)" d="M 132.783158 307.584 
L 151.578947 307.584 
L 151.578947 307.584 
L 132.783158 307.584 
z
" style="fill:url(#hb6039893ee);opacity:0.5;"/>
   </g>
   <g id="patch_27">
    <path clip-path="url(#pd3002e3816)" d="M 151.578947 307.584 
L 170.374737 307.584 
L 170.374737 307.584 
L 151.578947 307.584 
z
" style="fill:url(#hb6039893ee);opacity:0.5;"/>
   </g>
   <g id="patch_28">
    <path clip-path="url(#pd3002e3816)" d="M 170.374737 307.584 
L 189.170526 307.584 
L 189.170526 266.908444 
L 170.374737 266.908444 
z
" style="fill:url(#hb6039893ee);opacity:0.5;"/>
   </g>
   <g id="patch_29">
    <path clip-path="url(#pd3002e3816)" d="M 189.170526 307.584 
L 207.966316 307.584 
L 207.966316 307.584 
L 189.170526 307.584 
z
" style="fill:url(#hb6039893ee);opacity:0.5;"/>
   </g>
   <g id="patch_30">
    <path clip-path="url(#pd3002e3816)" d="M 207.966316 307.584 
L 226.762105 307.584 
L 226.762105 295.068444 
L 207.966316 295.068444 
z
" style="fill:url(#hb6039893ee);opacity:0.5;"/>
   </g>
   <g id="patch_31">
    <path clip-path="url(#pd3002e3816)" d="M 226.762105 307.584 
L 245.557895 307.584 
L 245.557895 135.495111 
L 226.762105 135.495111 
z
" style="fill:url(#hb6039893ee);opacity:0.5;"/>
   </g>
   <g id="patch_32">
    <path clip-path="url(#pd3002e3816)" d="M 245.557895 307.584 
L 264.353684 307.584 
L 264.353684 307.584 
L 245.557895 307.584 
z
" style="fill:url(#hb6039893ee);opacity:0.5;"/>
   </g>
   <g id="patch_33">
    <path clip-path="url(#pd3002e3816)" d="M 264.353684 307.584 
L 283.149474 307.584 
L 283.149474 307.584 
L 264.353684 307.584 
z
" style="fill:url(#hb6039893ee);opacity:0.5;"/>
   </g>
   <g id="patch_34">
    <path clip-path="url(#pd3002e3816)" d="M 283.149474 307.584 
L 301.945263 307.584 
L 301.945263 307.584 
L 283.149474 307.584 
z
" style="fill:url(#hb6039893ee);opacity:0.5;"/>
   </g>
   <g id="patch_35">
    <path clip-path="url(#pd3002e3816)" d="M 301.945263 307.584 
L 320.741053 307.584 
L 320.741053 307.584 
L 301.945263 307.584 
z
" style="fill:url(#hb6039893ee);opacity:0.5;"/>
   </g>
   <g id="patch_36">
    <path clip-path="url(#pd3002e3816)" d="M 320.741053 307.584 
L 339.536842 307.584 
L 339.536842 307.584 
L 320.741053 307.584 
z
" style="fill:url(#hb6039893ee);opacity:0.5;"/>
   </g>
   <g id="patch_37">
    <path clip-path="url(#pd3002e3816)" d="M 339.536842 307.584 
L 358.332632 307.584 
L 358.332632 307.584 
L 339.536842 307.584 
z
" style="fill:url(#hb6039893ee);opacity:0.5;"/>
   </g>
   <g id="patch_38">
    <path clip-path="url(#pd3002e3816)" d="M 358.332632 307.584 
L 377.128421 307.584 
L 377.128421 307.584 
L 358.332632 307.584 
z
" style="fill:url(#hb6039893ee);opacity:0.5;"/>
   </g>
   <g id="patch_39">
    <path clip-path="url(#pd3002e3816)" d="M 377.128421 307.584 
L 395.924211 307.584 
L 395.924211 307.584 
L 377.128421 307.584 
z
" style="fill:url(#hb6039893ee);opacity:0.5;"/>
   </g>
   <g id="patch_40">
    <path clip-path="url(#pd3002e3816)" d="M 395.924211 307.584 
L 414.72 307.584 
L 414.72 219.975111 
L 395.924211 219.975111 
z
" style="fill:url(#hb6039893ee);opacity:0.5;"/>
   </g>
   <g id="patch_41">
    <path clip-path="url(#pd3002e3816)" d="M 57.6 307.584 
L 76.395789 307.584 
L 76.395789 54.144 
L 57.6 54.144 
z
" style="fill:url(#h7cbf80fb4b);opacity:0.5;"/>
   </g>
   <g id="patch_42">
    <path clip-path="url(#pd3002e3816)" d="M 76.395789 307.584 
L 95.191579 307.584 
L 95.191579 304.455111 
L 76.395789 304.455111 
z
" style="fill:url(#h7cbf80fb4b);opacity:0.5;"/>
   </g>
   <g id="patch_43">
    <path clip-path="url(#pd3002e3816)" d="M 95.191579 307.584 
L 113.987368 307.584 
L 113.987368 307.584 
L 95.191579 307.584 
z
" style="fill:url(#h7cbf80fb4b);opacity:0.5;"/>
   </g>
   <g id="patch_44">
    <path clip-path="url(#pd3002e3816)" d="M 113.987368 307.584 
L 132.783158 307.584 
L 132.783158 307.584 
L 113.987368 307.584 
z
" style="fill:url(#h7cbf80fb4b);opacity:0.5;"/>
   </g>
   <g id="patch_45">
    <path clip-path="url(#pd3002e3816)" d="M 132.783158 307.584 
L 151.578947 307.584 
L 151.578947 307.584 
L 132.783158 307.584 
z
" style="fill:url(#h7cbf80fb4b);opacity:0.5;"/>
   </g>
   <g id="patch_46">
    <path clip-path="url(#pd3002e3816)" d="M 151.578947 307.584 
L 170.374737 307.584 
L 170.374737 307.584 
L 151.578947 307.584 
z
" style="fill:url(#h7cbf80fb4b);opacity:0.5;"/>
   </g>
   <g id="patch_47">
    <path clip-path="url(#pd3002e3816)" d="M 170.374737 307.584 
L 189.170526 307.584 
L 189.170526 307.584 
L 170.374737 307.584 
z
" style="fill:url(#h7cbf80fb4b);opacity:0.5;"/>
   </g>
   <g id="patch_48">
    <path clip-path="url(#pd3002e3816)" d="M 189.170526 307.584 
L 207.966316 307.584 
L 207.966316 307.584 
L 189.170526 307.584 
z
" style="fill:url(#h7cbf80fb4b);opacity:0.5;"/>
   </g>
   <g id="patch_49">
    <path clip-path="url(#pd3002e3816)" d="M 207.966316 307.584 
L 226.762105 307.584 
L 226.762105 307.584 
L 207.966316 307.584 
z
" style="fill:url(#h7cbf80fb4b);opacity:0.5;"/>
   </g>
   <g id="patch_50">
    <path clip-path="url(#pd3002e3816)" d="M 226.762105 307.584 
L 245.557895 307.584 
L 245.557895 251.264 
L 226.762105 251.264 
z
" style="fill:url(#h7cbf80fb4b);opacity:0.5;"/>
   </g>
   <g id="patch_51">
    <path clip-path="url(#pd3002e3816)" d="M 245.557895 307.584 
L 264.353684 307.584 
L 264.353684 307.584 
L 245.557895 307.584 
z
" style="fill:url(#h7cbf80fb4b);opacity:0.5;"/>
   </g>
   <g id="patch_52">
    <path clip-path="url(#pd3002e3816)" d="M 264.353684 307.584 
L 283.149474 307.584 
L 283.149474 307.584 
L 264.353684 307.584 
z
" style="fill:url(#h7cbf80fb4b);opacity:0.5;"/>
   </g>
   <g id="patch_53">
    <path clip-path="url(#pd3002e3816)" d="M 283.149474 307.584 
L 301.945263 307.584 
L 301.945263 307.584 
L 283.149474 307.584 
z
" style="fill:url(#h7cbf80fb4b);opacity:0.5;"/>
   </g>
   <g id="patch_54">
    <path clip-path="url(#pd3002e3816)" d="M 301.945263 307.584 
L 320.741053 307.584 
L 320.741053 307.584 
L 301.945263 307.584 
z
" style="fill:url(#h7cbf80fb4b);opacity:0.5;"/>
   </g>
   <g id="patch_55">
    <path clip-path="url(#pd3002e3816)" d="M 320.741053 307.584 
L 339.536842 307.584 
L 339.536842 307.584 
L 320.741053 307.584 
z
" style="fill:url(#h7cbf80fb4b);opacity:0.5;"/>
   </g>
   <g id="patch_56">
    <path clip-path="url(#pd3002e3816)" d="M 339.536842 307.584 
L 358.332632 307.584 
L 358.332632 307.584 
L 339.536842 307.584 
z
" style="fill:url(#h7cbf80fb4b);opacity:0.5;"/>
   </g>
   <g id="patch_57">
    <path clip-path="url(#pd3002e3816)" d="M 358.332632 307.584 
L 377.128421 307.584 
L 377.128421 307.584 
L 358.332632 307.584 
z
" style="fill:url(#h7cbf80fb4b);opacity:0.5;"/>
   </g>
   <g id="patch_58">
    <path clip-path="url(#pd3002e3816)" d="M 377.128421 307.584 
L 395.924211 307.584 
L 395.924211 307.584 
L 377.128421 307.584 
z
" style="fill:url(#h7cbf80fb4b);opacity:0.5;"/>
   </g>
   <g id="patch_59">
    <path clip-path="url(#pd3002e3816)" d="M 395.924211 307.584 
L 414.72 307.584 
L 414.72 307.584 
L 395.924211 307.584 
z
" style="fill:url(#h7cbf80fb4b);opacity:0.5;"/>
   </g>
   <g id="matplotlib.axis_1">
    <g id="xtick_1">
     <g id="line2d_1">
      <defs>
       <path d="M 0 0 
L 0 3.5 
" id="m363bc33050" style="stroke:#000000;stroke-width:0.8;"/>
      </defs>
      <g>
       <use style="stroke:#000000;stroke-width:0.8;" x="57.6" xlink:href="#m363bc33050" y="307.584"/>
      </g>
     </g>
     <g id="text_1">
      <!-- 0 -->
      <g transform="translate(54.41875 322.182437)scale(0.1 -0.1)">
       <defs>
        <path d="M 31.78125 66.40625 
Q 24.171875 66.40625 20.328125 58.90625 
Q 16.5 51.421875 16.5 36.375 
Q 16.5 21.390625 20.328125 13.890625 
Q 24.171875 6.390625 31.78125 6.390625 
Q 39.453125 6.390625 43.28125 13.890625 
Q 47.125 21.390625 47.125 36.375 
Q 47.125 51.421875 43.28125 58.90625 
Q 39.453125 66.40625 31.78125 66.40625 
z
M 31.78125 74.21875 
Q 44.046875 74.21875 50.515625 64.515625 
Q 56.984375 54.828125 56.984375 36.375 
Q 56.984375 17.96875 50.515625 8.265625 
Q 44.046875 -1.421875 31.78125 -1.421875 
Q 19.53125 -1.421875 13.0625 8.265625 
Q 6.59375 17.96875 6.59375 36.375 
Q 6.59375 54.828125 13.0625 64.515625 
Q 19.53125 74.21875 31.78125 74.21875 
z
" id="DejaVuSans-48"/>
       </defs>
       <use xlink:href="#DejaVuSans-48"/>
      </g>
     </g>
    </g>
    <g id="xtick_2">
     <g id="line2d_2">
      <g>
       <use style="stroke:#000000;stroke-width:0.8;" x="132.783158" xlink:href="#m363bc33050" y="307.584"/>
      </g>
     </g>
     <g id="text_2">
      <!-- 20 -->
      <g transform="translate(126.420658 322.182437)scale(0.1 -0.1)">
       <defs>
        <path d="M 19.1875 8.296875 
L 53.609375 8.296875 
L 53.609375 0 
L 7.328125 0 
L 7.328125 8.296875 
Q 12.9375 14.109375 22.625 23.890625 
Q 32.328125 33.6875 34.8125 36.53125 
Q 39.546875 41.84375 41.421875 45.53125 
Q 43.3125 49.21875 43.3125 52.78125 
Q 43.3125 58.59375 39.234375 62.25 
Q 35.15625 65.921875 28.609375 65.921875 
Q 23.96875 65.921875 18.8125 64.3125 
Q 13.671875 62.703125 7.8125 59.421875 
L 7.8125 69.390625 
Q 13.765625 71.78125 18.9375 73 
Q 24.125 74.21875 28.421875 74.21875 
Q 39.75 74.21875 46.484375 68.546875 
Q 53.21875 62.890625 53.21875 53.421875 
Q 53.21875 48.921875 51.53125 44.890625 
Q 49.859375 40.875 45.40625 35.40625 
Q 44.1875 33.984375 37.640625 27.21875 
Q 31.109375 20.453125 19.1875 8.296875 
z
" id="DejaVuSans-50"/>
       </defs>
       <use xlink:href="#DejaVuSans-50"/>
       <use x="63.623047" xlink:href="#DejaVuSans-48"/>
      </g>
     </g>
    </g>
    <g id="xtick_3">
     <g id="line2d_3">
      <g>
       <use style="stroke:#000000;stroke-width:0.8;" x="207.966316" xlink:href="#m363bc33050" y="307.584"/>
      </g>
     </g>
     <g id="text_3">
      <!-- 40 -->
      <g transform="translate(201.603816 322.182437)scale(0.1 -0.1)">
       <defs>
        <path d="M 37.796875 64.3125 
L 12.890625 25.390625 
L 37.796875 25.390625 
z
M 35.203125 72.90625 
L 47.609375 72.90625 
L 47.609375 25.390625 
L 58.015625 25.390625 
L 58.015625 17.1875 
L 47.609375 17.1875 
L 47.609375 0 
L 37.796875 0 
L 37.796875 17.1875 
L 4.890625 17.1875 
L 4.890625 26.703125 
z
" id="DejaVuSans-52"/>
       </defs>
       <use xlink:href="#DejaVuSans-52"/>
       <use x="63.623047" xlink:href="#DejaVuSans-48"/>
      </g>
     </g>
    </g>
    <g id="xtick_4">
     <g id="line2d_4">
      <g>
       <use style="stroke:#000000;stroke-width:0.8;" x="283.149474" xlink:href="#m363bc33050" y="307.584"/>
      </g>
     </g>
     <g id="text_4">
      <!-- 60 -->
      <g transform="translate(276.786974 322.182437)scale(0.1 -0.1)">
       <defs>
        <path d="M 33.015625 40.375 
Q 26.375 40.375 22.484375 35.828125 
Q 18.609375 31.296875 18.609375 23.390625 
Q 18.609375 15.53125 22.484375 10.953125 
Q 26.375 6.390625 33.015625 6.390625 
Q 39.65625 6.390625 43.53125 10.953125 
Q 47.40625 15.53125 47.40625 23.390625 
Q 47.40625 31.296875 43.53125 35.828125 
Q 39.65625 40.375 33.015625 40.375 
z
M 52.59375 71.296875 
L 52.59375 62.3125 
Q 48.875 64.0625 45.09375 64.984375 
Q 41.3125 65.921875 37.59375 65.921875 
Q 27.828125 65.921875 22.671875 59.328125 
Q 17.53125 52.734375 16.796875 39.40625 
Q 19.671875 43.65625 24.015625 45.921875 
Q 28.375 48.1875 33.59375 48.1875 
Q 44.578125 48.1875 50.953125 41.515625 
Q 57.328125 34.859375 57.328125 23.390625 
Q 57.328125 12.15625 50.6875 5.359375 
Q 44.046875 -1.421875 33.015625 -1.421875 
Q 20.359375 -1.421875 13.671875 8.265625 
Q 6.984375 17.96875 6.984375 36.375 
Q 6.984375 53.65625 15.1875 63.9375 
Q 23.390625 74.21875 37.203125 74.21875 
Q 40.921875 74.21875 44.703125 73.484375 
Q 48.484375 72.75 52.59375 71.296875 
z
" id="DejaVuSans-54"/>
       </defs>
       <use xlink:href="#DejaVuSans-54"/>
       <use x="63.623047" xlink:href="#DejaVuSans-48"/>
      </g>
     </g>
    </g>
    <g id="xtick_5">
     <g id="line2d_5">
      <g>
       <use style="stroke:#000000;stroke-width:0.8;" x="358.332632" xlink:href="#m363bc33050" y="307.584"/>
      </g>
     </g>
     <g id="text_5">
      <!-- 80 -->
      <g transform="translate(351.970132 322.182437)scale(0.1 -0.1)">
       <defs>
        <path d="M 31.78125 34.625 
Q 24.75 34.625 20.71875 30.859375 
Q 16.703125 27.09375 16.703125 20.515625 
Q 16.703125 13.921875 20.71875 10.15625 
Q 24.75 6.390625 31.78125 6.390625 
Q 38.8125 6.390625 42.859375 10.171875 
Q 46.921875 13.96875 46.921875 20.515625 
Q 46.921875 27.09375 42.890625 30.859375 
Q 38.875 34.625 31.78125 34.625 
z
M 21.921875 38.8125 
Q 15.578125 40.375 12.03125 44.71875 
Q 8.5 49.078125 8.5 55.328125 
Q 8.5 64.0625 14.71875 69.140625 
Q 20.953125 74.21875 31.78125 74.21875 
Q 42.671875 74.21875 48.875 69.140625 
Q 55.078125 64.0625 55.078125 55.328125 
Q 55.078125 49.078125 51.53125 44.71875 
Q 48 40.375 41.703125 38.8125 
Q 48.828125 37.15625 52.796875 32.3125 
Q 56.78125 27.484375 56.78125 20.515625 
Q 56.78125 9.90625 50.3125 4.234375 
Q 43.84375 -1.421875 31.78125 -1.421875 
Q 19.734375 -1.421875 13.25 4.234375 
Q 6.78125 9.90625 6.78125 20.515625 
Q 6.78125 27.484375 10.78125 32.3125 
Q 14.796875 37.15625 21.921875 38.8125 
z
M 18.3125 54.390625 
Q 18.3125 48.734375 21.84375 45.5625 
Q 25.390625 42.390625 31.78125 42.390625 
Q 38.140625 42.390625 41.71875 45.5625 
Q 45.3125 48.734375 45.3125 54.390625 
Q 45.3125 60.0625 41.71875 63.234375 
Q 38.140625 66.40625 31.78125 66.40625 
Q 25.390625 66.40625 21.84375 63.234375 
Q 18.3125 60.0625 18.3125 54.390625 
z
" id="DejaVuSans-56"/>
       </defs>
       <use xlink:href="#DejaVuSans-56"/>
       <use x="63.623047" xlink:href="#DejaVuSans-48"/>
      </g>
     </g>
    </g>
    <g id="text_6">
     <!-- Prediction times -->
     <g transform="translate(195.833438 335.860562)scale(0.1 -0.1)">
      <defs>
       <path d="M 19.671875 64.796875 
L 19.671875 37.40625 
L 32.078125 37.40625 
Q 38.96875 37.40625 42.71875 40.96875 
Q 46.484375 44.53125 46.484375 51.125 
Q 46.484375 57.671875 42.71875 61.234375 
Q 38.96875 64.796875 32.078125 64.796875 
z
M 9.8125 72.90625 
L 32.078125 72.90625 
Q 44.34375 72.90625 50.609375 67.359375 
Q 56.890625 61.8125 56.890625 51.125 
Q 56.890625 40.328125 50.609375 34.8125 
Q 44.34375 29.296875 32.078125 29.296875 
L 19.671875 29.296875 
L 19.671875 0 
L 9.8125 0 
z
" id="DejaVuSans-80"/>
       <path d="M 41.109375 46.296875 
Q 39.59375 47.171875 37.8125 47.578125 
Q 36.03125 48 33.890625 48 
Q 26.265625 48 22.1875 43.046875 
Q 18.109375 38.09375 18.109375 28.8125 
L 18.109375 0 
L 9.078125 0 
L 9.078125 54.6875 
L 18.109375 54.6875 
L 18.109375 46.1875 
Q 20.953125 51.171875 25.484375 53.578125 
Q 30.03125 56 36.53125 56 
Q 37.453125 56 38.578125 55.875 
Q 39.703125 55.765625 41.0625 55.515625 
z
" id="DejaVuSans-114"/>
       <path d="M 56.203125 29.59375 
L 56.203125 25.203125 
L 14.890625 25.203125 
Q 15.484375 15.921875 20.484375 11.0625 
Q 25.484375 6.203125 34.421875 6.203125 
Q 39.59375 6.203125 44.453125 7.46875 
Q 49.3125 8.734375 54.109375 11.28125 
L 54.109375 2.78125 
Q 49.265625 0.734375 44.1875 -0.34375 
Q 39.109375 -1.421875 33.890625 -1.421875 
Q 20.796875 -1.421875 13.15625 6.1875 
Q 5.515625 13.8125 5.515625 26.8125 
Q 5.515625 40.234375 12.765625 48.109375 
Q 20.015625 56 32.328125 56 
Q 43.359375 56 49.78125 48.890625 
Q 56.203125 41.796875 56.203125 29.59375 
z
M 47.21875 32.234375 
Q 47.125 39.59375 43.09375 43.984375 
Q 39.0625 48.390625 32.421875 48.390625 
Q 24.90625 48.390625 20.390625 44.140625 
Q 15.875 39.890625 15.1875 32.171875 
z
" id="DejaVuSans-101"/>
       <path d="M 45.40625 46.390625 
L 45.40625 75.984375 
L 54.390625 75.984375 
L 54.390625 0 
L 45.40625 0 
L 45.40625 8.203125 
Q 42.578125 3.328125 38.25 0.953125 
Q 33.9375 -1.421875 27.875 -1.421875 
Q 17.96875 -1.421875 11.734375 6.484375 
Q 5.515625 14.40625 5.515625 27.296875 
Q 5.515625 40.1875 11.734375 48.09375 
Q 17.96875 56 27.875 56 
Q 33.9375 56 38.25 53.625 
Q 42.578125 51.265625 45.40625 46.390625 
z
M 14.796875 27.296875 
Q 14.796875 17.390625 18.875 11.75 
Q 22.953125 6.109375 30.078125 6.109375 
Q 37.203125 6.109375 41.296875 11.75 
Q 45.40625 17.390625 45.40625 27.296875 
Q 45.40625 37.203125 41.296875 42.84375 
Q 37.203125 48.484375 30.078125 48.484375 
Q 22.953125 48.484375 18.875 42.84375 
Q 14.796875 37.203125 14.796875 27.296875 
z
" id="DejaVuSans-100"/>
       <path d="M 9.421875 54.6875 
L 18.40625 54.6875 
L 18.40625 0 
L 9.421875 0 
z
M 9.421875 75.984375 
L 18.40625 75.984375 
L 18.40625 64.59375 
L 9.421875 64.59375 
z
" id="DejaVuSans-105"/>
       <path d="M 48.78125 52.59375 
L 48.78125 44.1875 
Q 44.96875 46.296875 41.140625 47.34375 
Q 37.3125 48.390625 33.40625 48.390625 
Q 24.65625 48.390625 19.8125 42.84375 
Q 14.984375 37.3125 14.984375 27.296875 
Q 14.984375 17.28125 19.8125 11.734375 
Q 24.65625 6.203125 33.40625 6.203125 
Q 37.3125 6.203125 41.140625 7.25 
Q 44.96875 8.296875 48.78125 10.40625 
L 48.78125 2.09375 
Q 45.015625 0.34375 40.984375 -0.53125 
Q 36.96875 -1.421875 32.421875 -1.421875 
Q 20.0625 -1.421875 12.78125 6.34375 
Q 5.515625 14.109375 5.515625 27.296875 
Q 5.515625 40.671875 12.859375 48.328125 
Q 20.21875 56 33.015625 56 
Q 37.15625 56 41.109375 55.140625 
Q 45.0625 54.296875 48.78125 52.59375 
z
" id="DejaVuSans-99"/>
       <path d="M 18.3125 70.21875 
L 18.3125 54.6875 
L 36.8125 54.6875 
L 36.8125 47.703125 
L 18.3125 47.703125 
L 18.3125 18.015625 
Q 18.3125 11.328125 20.140625 9.421875 
Q 21.96875 7.515625 27.59375 7.515625 
L 36.8125 7.515625 
L 36.8125 0 
L 27.59375 0 
Q 17.1875 0 13.234375 3.875 
Q 9.28125 7.765625 9.28125 18.015625 
L 9.28125 47.703125 
L 2.6875 47.703125 
L 2.6875 54.6875 
L 9.28125 54.6875 
L 9.28125 70.21875 
z
" id="DejaVuSans-116"/>
       <path d="M 30.609375 48.390625 
Q 23.390625 48.390625 19.1875 42.75 
Q 14.984375 37.109375 14.984375 27.296875 
Q 14.984375 17.484375 19.15625 11.84375 
Q 23.34375 6.203125 30.609375 6.203125 
Q 37.796875 6.203125 41.984375 11.859375 
Q 46.1875 17.53125 46.1875 27.296875 
Q 46.1875 37.015625 41.984375 42.703125 
Q 37.796875 48.390625 30.609375 48.390625 
z
M 30.609375 56 
Q 42.328125 56 49.015625 48.375 
Q 55.71875 40.765625 55.71875 27.296875 
Q 55.71875 13.875 49.015625 6.21875 
Q 42.328125 -1.421875 30.609375 -1.421875 
Q 18.84375 -1.421875 12.171875 6.21875 
Q 5.515625 13.875 5.515625 27.296875 
Q 5.515625 40.765625 12.171875 48.375 
Q 18.84375 56 30.609375 56 
z
" id="DejaVuSans-111"/>
       <path d="M 54.890625 33.015625 
L 54.890625 0 
L 45.90625 0 
L 45.90625 32.71875 
Q 45.90625 40.484375 42.875 44.328125 
Q 39.84375 48.1875 33.796875 48.1875 
Q 26.515625 48.1875 22.3125 43.546875 
Q 18.109375 38.921875 18.109375 30.90625 
L 18.109375 0 
L 9.078125 0 
L 9.078125 54.6875 
L 18.109375 54.6875 
L 18.109375 46.1875 
Q 21.34375 51.125 25.703125 53.5625 
Q 30.078125 56 35.796875 56 
Q 45.21875 56 50.046875 50.171875 
Q 54.890625 44.34375 54.890625 33.015625 
z
" id="DejaVuSans-110"/>
       <path id="DejaVuSans-32"/>
       <path d="M 52 44.1875 
Q 55.375 50.25 60.0625 53.125 
Q 64.75 56 71.09375 56 
Q 79.640625 56 84.28125 50.015625 
Q 88.921875 44.046875 88.921875 33.015625 
L 88.921875 0 
L 79.890625 0 
L 79.890625 32.71875 
Q 79.890625 40.578125 77.09375 44.375 
Q 74.3125 48.1875 68.609375 48.1875 
Q 61.625 48.1875 57.5625 43.546875 
Q 53.515625 38.921875 53.515625 30.90625 
L 53.515625 0 
L 44.484375 0 
L 44.484375 32.71875 
Q 44.484375 40.625 41.703125 44.40625 
Q 38.921875 48.1875 33.109375 48.1875 
Q 26.21875 48.1875 22.15625 43.53125 
Q 18.109375 38.875 18.109375 30.90625 
L 18.109375 0 
L 9.078125 0 
L 9.078125 54.6875 
L 18.109375 54.6875 
L 18.109375 46.1875 
Q 21.1875 51.21875 25.484375 53.609375 
Q 29.78125 56 35.6875 56 
Q 41.65625 56 45.828125 52.96875 
Q 50 49.953125 52 44.1875 
z
" id="DejaVuSans-109"/>
       <path d="M 44.28125 53.078125 
L 44.28125 44.578125 
Q 40.484375 46.53125 36.375 47.5 
Q 32.28125 48.484375 27.875 48.484375 
Q 21.1875 48.484375 17.84375 46.4375 
Q 14.5 44.390625 14.5 40.28125 
Q 14.5 37.15625 16.890625 35.375 
Q 19.28125 33.59375 26.515625 31.984375 
L 29.59375 31.296875 
Q 39.15625 29.25 43.1875 25.515625 
Q 47.21875 21.78125 47.21875 15.09375 
Q 47.21875 7.46875 41.1875 3.015625 
Q 35.15625 -1.421875 24.609375 -1.421875 
Q 20.21875 -1.421875 15.453125 -0.5625 
Q 10.6875 0.296875 5.421875 2 
L 5.421875 11.28125 
Q 10.40625 8.6875 15.234375 7.390625 
Q 20.0625 6.109375 24.8125 6.109375 
Q 31.15625 6.109375 34.5625 8.28125 
Q 37.984375 10.453125 37.984375 14.40625 
Q 37.984375 18.0625 35.515625 20.015625 
Q 33.0625 21.96875 24.703125 23.78125 
L 21.578125 24.515625 
Q 13.234375 26.265625 9.515625 29.90625 
Q 5.8125 33.546875 5.8125 39.890625 
Q 5.8125 47.609375 11.28125 51.796875 
Q 16.75 56 26.8125 56 
Q 31.78125 56 36.171875 55.265625 
Q 40.578125 54.546875 44.28125 53.078125 
z
" id="DejaVuSans-115"/>
      </defs>
      <use xlink:href="#DejaVuSans-80"/>
      <use x="58.552734" xlink:href="#DejaVuSans-114"/>
      <use x="97.416016" xlink:href="#DejaVuSans-101"/>
      <use x="158.939453" xlink:href="#DejaVuSans-100"/>
      <use x="222.416016" xlink:href="#DejaVuSans-105"/>
      <use x="250.199219" xlink:href="#DejaVuSans-99"/>
      <use x="305.179688" xlink:href="#DejaVuSans-116"/>
      <use x="344.388672" xlink:href="#DejaVuSans-105"/>
      <use x="372.171875" xlink:href="#DejaVuSans-111"/>
      <use x="433.353516" xlink:href="#DejaVuSans-110"/>
      <use x="496.732422" xlink:href="#DejaVuSans-32"/>
      <use x="528.519531" xlink:href="#DejaVuSans-116"/>
      <use x="567.728516" xlink:href="#DejaVuSans-105"/>
      <use x="595.511719" xlink:href="#DejaVuSans-109"/>
      <use x="692.923828" xlink:href="#DejaVuSans-101"/>
      <use x="754.447266" xlink:href="#DejaVuSans-115"/>
     </g>
    </g>
   </g>
   <g id="matplotlib.axis_2">
    <g id="ytick_1">
     <g id="line2d_6">
      <defs>
       <path d="M 0 0 
L -3.5 0 
" id="m7c3988eb9a" style="stroke:#000000;stroke-width:0.8;"/>
      </defs>
      <g>
       <use style="stroke:#000000;stroke-width:0.8;" x="57.6" xlink:href="#m7c3988eb9a" y="307.584"/>
      </g>
     </g>
     <g id="text_7">
      <!-- 0.00 -->
      <g transform="translate(28.334375 311.383219)scale(0.1 -0.1)">
       <defs>
        <path d="M 10.6875 12.40625 
L 21 12.40625 
L 21 0 
L 10.6875 0 
z
" id="DejaVuSans-46"/>
       </defs>
       <use xlink:href="#DejaVuSans-48"/>
       <use x="63.623047" xlink:href="#DejaVuSans-46"/>
       <use x="95.410156" xlink:href="#DejaVuSans-48"/>
       <use x="159.033203" xlink:href="#DejaVuSans-48"/>
      </g>
     </g>
    </g>
    <g id="ytick_2">
     <g id="line2d_7">
      <g>
       <use style="stroke:#000000;stroke-width:0.8;" x="57.6" xlink:href="#m7c3988eb9a" y="276.295111"/>
      </g>
     </g>
     <g id="text_8">
      <!-- 0.02 -->
      <g transform="translate(28.334375 280.09433)scale(0.1 -0.1)">
       <use xlink:href="#DejaVuSans-48"/>
       <use x="63.623047" xlink:href="#DejaVuSans-46"/>
       <use x="95.410156" xlink:href="#DejaVuSans-48"/>
       <use x="159.033203" xlink:href="#DejaVuSans-50"/>
      </g>
     </g>
    </g>
    <g id="ytick_3">
     <g id="line2d_8">
      <g>
       <use style="stroke:#000000;stroke-width:0.8;" x="57.6" xlink:href="#m7c3988eb9a" y="245.006222"/>
      </g>
     </g>
     <g id="text_9">
      <!-- 0.04 -->
      <g transform="translate(28.334375 248.805441)scale(0.1 -0.1)">
       <use xlink:href="#DejaVuSans-48"/>
       <use x="63.623047" xlink:href="#DejaVuSans-46"/>
       <use x="95.410156" xlink:href="#DejaVuSans-48"/>
       <use x="159.033203" xlink:href="#DejaVuSans-52"/>
      </g>
     </g>
    </g>
    <g id="ytick_4">
     <g id="line2d_9">
      <g>
       <use style="stroke:#000000;stroke-width:0.8;" x="57.6" xlink:href="#m7c3988eb9a" y="213.717333"/>
      </g>
     </g>
     <g id="text_10">
      <!-- 0.06 -->
      <g transform="translate(28.334375 217.516552)scale(0.1 -0.1)">
       <use xlink:href="#DejaVuSans-48"/>
       <use x="63.623047" xlink:href="#DejaVuSans-46"/>
       <use x="95.410156" xlink:href="#DejaVuSans-48"/>
       <use x="159.033203" xlink:href="#DejaVuSans-54"/>
      </g>
     </g>
    </g>
    <g id="ytick_5">
     <g id="line2d_10">
      <g>
       <use style="stroke:#000000;stroke-width:0.8;" x="57.6" xlink:href="#m7c3988eb9a" y="182.428444"/>
      </g>
     </g>
     <g id="text_11">
      <!-- 0.08 -->
      <g transform="translate(28.334375 186.227663)scale(0.1 -0.1)">
       <use xlink:href="#DejaVuSans-48"/>
       <use x="63.623047" xlink:href="#DejaVuSans-46"/>
       <use x="95.410156" xlink:href="#DejaVuSans-48"/>
       <use x="159.033203" xlink:href="#DejaVuSans-56"/>
      </g>
     </g>
    </g>
    <g id="ytick_6">
     <g id="line2d_11">
      <g>
       <use style="stroke:#000000;stroke-width:0.8;" x="57.6" xlink:href="#m7c3988eb9a" y="151.139556"/>
      </g>
     </g>
     <g id="text_12">
      <!-- 0.10 -->
      <g transform="translate(28.334375 154.938774)scale(0.1 -0.1)">
       <defs>
        <path d="M 12.40625 8.296875 
L 28.515625 8.296875 
L 28.515625 63.921875 
L 10.984375 60.40625 
L 10.984375 69.390625 
L 28.421875 72.90625 
L 38.28125 72.90625 
L 38.28125 8.296875 
L 54.390625 8.296875 
L 54.390625 0 
L 12.40625 0 
z
" id="DejaVuSans-49"/>
       </defs>
       <use xlink:href="#DejaVuSans-48"/>
       <use x="63.623047" xlink:href="#DejaVuSans-46"/>
       <use x="95.410156" xlink:href="#DejaVuSans-49"/>
       <use x="159.033203" xlink:href="#DejaVuSans-48"/>
      </g>
     </g>
    </g>
    <g id="ytick_7">
     <g id="line2d_12">
      <g>
       <use style="stroke:#000000;stroke-width:0.8;" x="57.6" xlink:href="#m7c3988eb9a" y="119.850667"/>
      </g>
     </g>
     <g id="text_13">
      <!-- 0.12 -->
      <g transform="translate(28.334375 123.649885)scale(0.1 -0.1)">
       <use xlink:href="#DejaVuSans-48"/>
       <use x="63.623047" xlink:href="#DejaVuSans-46"/>
       <use x="95.410156" xlink:href="#DejaVuSans-49"/>
       <use x="159.033203" xlink:href="#DejaVuSans-50"/>
      </g>
     </g>
    </g>
    <g id="ytick_8">
     <g id="line2d_13">
      <g>
       <use style="stroke:#000000;stroke-width:0.8;" x="57.6" xlink:href="#m7c3988eb9a" y="88.561778"/>
      </g>
     </g>
     <g id="text_14">
      <!-- 0.14 -->
      <g transform="translate(28.334375 92.360997)scale(0.1 -0.1)">
       <use xlink:href="#DejaVuSans-48"/>
       <use x="63.623047" xlink:href="#DejaVuSans-46"/>
       <use x="95.410156" xlink:href="#DejaVuSans-49"/>
       <use x="159.033203" xlink:href="#DejaVuSans-52"/>
      </g>
     </g>
    </g>
    <g id="ytick_9">
     <g id="line2d_14">
      <g>
       <use style="stroke:#000000;stroke-width:0.8;" x="57.6" xlink:href="#m7c3988eb9a" y="57.272889"/>
      </g>
     </g>
     <g id="text_15">
      <!-- 0.16 -->
      <g transform="translate(28.334375 61.072108)scale(0.1 -0.1)">
       <use xlink:href="#DejaVuSans-48"/>
       <use x="63.623047" xlink:href="#DejaVuSans-46"/>
       <use x="95.410156" xlink:href="#DejaVuSans-49"/>
       <use x="159.033203" xlink:href="#DejaVuSans-54"/>
      </g>
     </g>
    </g>
   </g>
   <g id="patch_60">
    <path d="M 57.6 307.584 
L 57.6 41.472 
" style="fill:none;stroke:#000000;stroke-linecap:square;stroke-linejoin:miter;stroke-width:0.8;"/>
   </g>
   <g id="patch_61">
    <path d="M 414.72 307.584 
L 414.72 41.472 
" style="fill:none;stroke:#000000;stroke-linecap:square;stroke-linejoin:miter;stroke-width:0.8;"/>
   </g>
   <g id="patch_62">
    <path d="M 57.6 307.584 
L 414.72 307.584 
" style="fill:none;stroke:#000000;stroke-linecap:square;stroke-linejoin:miter;stroke-width:0.8;"/>
   </g>
   <g id="patch_63">
    <path d="M 57.6 41.472 
L 414.72 41.472 
" style="fill:none;stroke:#000000;stroke-linecap:square;stroke-linejoin:miter;stroke-width:0.8;"/>
   </g>
   <g id="text_16">
    <!-- Impact of cost_time_parameter ($\alpha$) -->
    <g transform="translate(131.76 35.472)scale(0.12 -0.12)">
     <defs>
      <path d="M 9.8125 72.90625 
L 19.671875 72.90625 
L 19.671875 0 
L 9.8125 0 
z
" id="DejaVuSans-73"/>
      <path d="M 18.109375 8.203125 
L 18.109375 -20.796875 
L 9.078125 -20.796875 
L 9.078125 54.6875 
L 18.109375 54.6875 
L 18.109375 46.390625 
Q 20.953125 51.265625 25.265625 53.625 
Q 29.59375 56 35.59375 56 
Q 45.5625 56 51.78125 48.09375 
Q 58.015625 40.1875 58.015625 27.296875 
Q 58.015625 14.40625 51.78125 6.484375 
Q 45.5625 -1.421875 35.59375 -1.421875 
Q 29.59375 -1.421875 25.265625 0.953125 
Q 20.953125 3.328125 18.109375 8.203125 
z
M 48.6875 27.296875 
Q 48.6875 37.203125 44.609375 42.84375 
Q 40.53125 48.484375 33.40625 48.484375 
Q 26.265625 48.484375 22.1875 42.84375 
Q 18.109375 37.203125 18.109375 27.296875 
Q 18.109375 17.390625 22.1875 11.75 
Q 26.265625 6.109375 33.40625 6.109375 
Q 40.53125 6.109375 44.609375 11.75 
Q 48.6875 17.390625 48.6875 27.296875 
z
" id="DejaVuSans-112"/>
      <path d="M 34.28125 27.484375 
Q 23.390625 27.484375 19.1875 25 
Q 14.984375 22.515625 14.984375 16.5 
Q 14.984375 11.71875 18.140625 8.90625 
Q 21.296875 6.109375 26.703125 6.109375 
Q 34.1875 6.109375 38.703125 11.40625 
Q 43.21875 16.703125 43.21875 25.484375 
L 43.21875 27.484375 
z
M 52.203125 31.203125 
L 52.203125 0 
L 43.21875 0 
L 43.21875 8.296875 
Q 40.140625 3.328125 35.546875 0.953125 
Q 30.953125 -1.421875 24.3125 -1.421875 
Q 15.921875 -1.421875 10.953125 3.296875 
Q 6 8.015625 6 15.921875 
Q 6 25.140625 12.171875 29.828125 
Q 18.359375 34.515625 30.609375 34.515625 
L 43.21875 34.515625 
L 43.21875 35.40625 
Q 43.21875 41.609375 39.140625 45 
Q 35.0625 48.390625 27.6875 48.390625 
Q 23 48.390625 18.546875 47.265625 
Q 14.109375 46.140625 10.015625 43.890625 
L 10.015625 52.203125 
Q 14.9375 54.109375 19.578125 55.046875 
Q 24.21875 56 28.609375 56 
Q 40.484375 56 46.34375 49.84375 
Q 52.203125 43.703125 52.203125 31.203125 
z
" id="DejaVuSans-97"/>
      <path d="M 37.109375 75.984375 
L 37.109375 68.5 
L 28.515625 68.5 
Q 23.6875 68.5 21.796875 66.546875 
Q 19.921875 64.59375 19.921875 59.515625 
L 19.921875 54.6875 
L 34.71875 54.6875 
L 34.71875 47.703125 
L 19.921875 47.703125 
L 19.921875 0 
L 10.890625 0 
L 10.890625 47.703125 
L 2.296875 47.703125 
L 2.296875 54.6875 
L 10.890625 54.6875 
L 10.890625 58.5 
Q 10.890625 67.625 15.140625 71.796875 
Q 19.390625 75.984375 28.609375 75.984375 
z
" id="DejaVuSans-102"/>
      <path d="M 50.984375 -16.609375 
L 50.984375 -23.578125 
L -0.984375 -23.578125 
L -0.984375 -16.609375 
z
" id="DejaVuSans-95"/>
      <path d="M 31 75.875 
Q 24.46875 64.65625 21.28125 53.65625 
Q 18.109375 42.671875 18.109375 31.390625 
Q 18.109375 20.125 21.3125 9.0625 
Q 24.515625 -2 31 -13.1875 
L 23.1875 -13.1875 
Q 15.875 -1.703125 12.234375 9.375 
Q 8.59375 20.453125 8.59375 31.390625 
Q 8.59375 42.28125 12.203125 53.3125 
Q 15.828125 64.359375 23.1875 75.875 
z
" id="DejaVuSans-40"/>
      <path d="M 40.921875 25.4375 
L 40.96875 36.71875 
Q 41.015625 48.25 32.328125 48.296875 
Q 25.828125 48.34375 21.78125 42.921875 
Q 16.703125 36.234375 14.984375 27.296875 
Q 12.890625 16.546875 15.53125 11.421875 
Q 18.265625 6.203125 24.171875 6.203125 
Q 30.71875 6.203125 36.234375 16.609375 
z
M 33.84375 55.90625 
Q 49.078125 56.15625 48.875 40.375 
Q 48.875 40.375 56.5 54.6875 
L 64.5 54.6875 
L 48.734375 25.046875 
L 48.578125 14.359375 
Q 48.578125 11.96875 49.90625 9.96875 
Q 51.421875 7.625 52.984375 7.625 
L 57.328125 7.625 
L 55.859375 0 
L 50.4375 0 
Q 45.84375 0 42.53125 4.109375 
Q 40.96875 6.15625 40.921875 10.453125 
Q 37.75 5.21875 32.28125 0.78125 
Q 29.6875 -1.265625 22.703125 -1.21875 
Q 11.28125 -1.125 7.125 6.203125 
Q 2.875 13.8125 5.515625 27.296875 
Q 8.34375 41.796875 15.765625 48.390625 
Q 24.125 55.765625 33.84375 55.90625 
z
" id="DejaVuSans-Oblique-945"/>
      <path d="M 8.015625 75.875 
L 15.828125 75.875 
Q 23.140625 64.359375 26.78125 53.3125 
Q 30.421875 42.28125 30.421875 31.390625 
Q 30.421875 20.453125 26.78125 9.375 
Q 23.140625 -1.703125 15.828125 -13.1875 
L 8.015625 -13.1875 
Q 14.5 -2 17.703125 9.0625 
Q 20.90625 20.125 20.90625 31.390625 
Q 20.90625 42.671875 17.703125 53.65625 
Q 14.5 64.65625 8.015625 75.875 
z
" id="DejaVuSans-41"/>
     </defs>
     <use transform="translate(0 0.015625)" xlink:href="#DejaVuSans-73"/>
     <use transform="translate(25.867188 0.015625)" xlink:href="#DejaVuSans-109"/>
     <use transform="translate(123.279297 0.015625)" xlink:href="#DejaVuSans-112"/>
     <use transform="translate(186.755859 0.015625)" xlink:href="#DejaVuSans-97"/>
     <use transform="translate(248.035156 0.015625)" xlink:href="#DejaVuSans-99"/>
     <use transform="translate(303.015625 0.015625)" xlink:href="#DejaVuSans-116"/>
     <use transform="translate(342.224609 0.015625)" xlink:href="#DejaVuSans-32"/>
     <use transform="translate(374.011719 0.015625)" xlink:href="#DejaVuSans-111"/>
     <use transform="translate(435.193359 0.015625)" xlink:href="#DejaVuSans-102"/>
     <use transform="translate(470.398438 0.015625)" xlink:href="#DejaVuSans-32"/>
     <use transform="translate(502.185547 0.015625)" xlink:href="#DejaVuSans-99"/>
     <use transform="translate(557.166016 0.015625)" xlink:href="#DejaVuSans-111"/>
     <use transform="translate(618.347656 0.015625)" xlink:href="#DejaVuSans-115"/>
     <use transform="translate(670.447266 0.015625)" xlink:href="#DejaVuSans-116"/>
     <use transform="translate(709.65625 0.015625)" xlink:href="#DejaVuSans-95"/>
     <use transform="translate(759.65625 0.015625)" xlink:href="#DejaVuSans-116"/>
     <use transform="translate(798.865234 0.015625)" xlink:href="#DejaVuSans-105"/>
     <use transform="translate(826.648438 0.015625)" xlink:href="#DejaVuSans-109"/>
     <use transform="translate(924.060547 0.015625)" xlink:href="#DejaVuSans-101"/>
     <use transform="translate(985.583984 0.015625)" xlink:href="#DejaVuSans-95"/>
     <use transform="translate(1035.583984 0.015625)" xlink:href="#DejaVuSans-112"/>
     <use transform="translate(1099.060547 0.015625)" xlink:href="#DejaVuSans-97"/>
     <use transform="translate(1160.339844 0.015625)" xlink:href="#DejaVuSans-114"/>
     <use transform="translate(1201.453125 0.015625)" xlink:href="#DejaVuSans-97"/>
     <use transform="translate(1262.732422 0.015625)" xlink:href="#DejaVuSans-109"/>
     <use transform="translate(1360.144531 0.015625)" xlink:href="#DejaVuSans-101"/>
     <use transform="translate(1421.667969 0.015625)" xlink:href="#DejaVuSans-116"/>
     <use transform="translate(1460.876953 0.015625)" xlink:href="#DejaVuSans-101"/>
     <use transform="translate(1522.400391 0.015625)" xlink:href="#DejaVuSans-114"/>
     <use transform="translate(1563.513672 0.015625)" xlink:href="#DejaVuSans-32"/>
     <use transform="translate(1595.300781 0.015625)" xlink:href="#DejaVuSans-40"/>
     <use transform="translate(1634.314453 0.015625)" xlink:href="#DejaVuSans-Oblique-945"/>
     <use transform="translate(1700.232422 0.015625)" xlink:href="#DejaVuSans-41"/>
    </g>
   </g>
   <g id="legend_1">
    <g id="patch_64">
     <path d="M 321.82 93.506375 
L 407.72 93.506375 
Q 409.72 93.506375 409.72 91.506375 
L 409.72 48.472 
Q 409.72 46.472 407.72 46.472 
L 321.82 46.472 
Q 319.82 46.472 319.82 48.472 
L 319.82 91.506375 
Q 319.82 93.506375 321.82 93.506375 
z
" style="fill:#ffffff;opacity:0.8;stroke:#cccccc;stroke-linejoin:miter;"/>
    </g>
    <g id="patch_65">
     <path d="M 323.82 58.070438 
L 343.82 58.070438 
L 343.82 51.070438 
L 323.82 51.070438 
z
" style="fill:url(#hbc37428505);opacity:0.5;"/>
    </g>
    <g id="text_17">
     <!-- $\alpha=0.0001$ -->
     <g transform="translate(351.82 58.070438)scale(0.1 -0.1)">
      <defs>
       <path d="M 10.59375 45.40625 
L 73.1875 45.40625 
L 73.1875 37.203125 
L 10.59375 37.203125 
z
M 10.59375 25.484375 
L 73.1875 25.484375 
L 73.1875 17.1875 
L 10.59375 17.1875 
z
" id="DejaVuSans-61"/>
      </defs>
      <use transform="translate(0 0.78125)" xlink:href="#DejaVuSans-Oblique-945"/>
      <use transform="translate(85.400391 0.78125)" xlink:href="#DejaVuSans-61"/>
      <use transform="translate(188.671875 0.78125)" xlink:href="#DejaVuSans-48"/>
      <use transform="translate(252.294922 0.78125)" xlink:href="#DejaVuSans-46"/>
      <use transform="translate(284.082031 0.78125)" xlink:href="#DejaVuSans-48"/>
      <use transform="translate(347.705078 0.78125)" xlink:href="#DejaVuSans-48"/>
      <use transform="translate(411.328125 0.78125)" xlink:href="#DejaVuSans-48"/>
      <use transform="translate(474.951172 0.78125)" xlink:href="#DejaVuSans-49"/>
     </g>
    </g>
    <g id="patch_66">
     <path d="M 323.82 72.748563 
L 343.82 72.748563 
L 343.82 65.748563 
L 323.82 65.748563 
z
" style="fill:url(#hb6039893ee);opacity:0.5;"/>
    </g>
    <g id="text_18">
     <!-- $\alpha=0.001$ -->
     <g transform="translate(351.82 72.748563)scale(0.1 -0.1)">
      <use transform="translate(0 0.78125)" xlink:href="#DejaVuSans-Oblique-945"/>
      <use transform="translate(85.400391 0.78125)" xlink:href="#DejaVuSans-61"/>
      <use transform="translate(188.671875 0.78125)" xlink:href="#DejaVuSans-48"/>
      <use transform="translate(252.294922 0.78125)" xlink:href="#DejaVuSans-46"/>
      <use transform="translate(284.082031 0.78125)" xlink:href="#DejaVuSans-48"/>
      <use transform="translate(347.705078 0.78125)" xlink:href="#DejaVuSans-48"/>
      <use transform="translate(411.328125 0.78125)" xlink:href="#DejaVuSans-49"/>
     </g>
    </g>
    <g id="patch_67">
     <path d="M 323.82 87.426688 
L 343.82 87.426688 
L 343.82 80.426688 
L 323.82 80.426688 
z
" style="fill:url(#h7cbf80fb4b);opacity:0.5;"/>
    </g>
    <g id="text_19">
     <!-- $\alpha=0.01$ -->
     <g transform="translate(351.82 87.426688)scale(0.1 -0.1)">
      <use transform="translate(0 0.78125)" xlink:href="#DejaVuSans-Oblique-945"/>
      <use transform="translate(85.400391 0.78125)" xlink:href="#DejaVuSans-61"/>
      <use transform="translate(188.671875 0.78125)" xlink:href="#DejaVuSans-48"/>
      <use transform="translate(252.294922 0.78125)" xlink:href="#DejaVuSans-46"/>
      <use transform="translate(284.082031 0.78125)" xlink:href="#DejaVuSans-48"/>
      <use transform="translate(347.705078 0.78125)" xlink:href="#DejaVuSans-49"/>
     </g>
    </g>
   </g>
  </g>
 </g>
 <defs>
  <clipPath id="pd3002e3816">
   <rect height="266.112" width="357.12" x="57.6" y="41.472"/>
  </clipPath>
 </defs>
 <defs>
  <pattern height="72" id="hbc37428505" patternUnits="userSpaceOnUse" width="72" x="0" y="0">
   <rect fill="#1f77b4" height="73" width="73" x="0" y="0"/>
   <path d="M -36 36 
L 36 -36 
M -32 40 
L 40 -32 
M -28 44 
L 44 -28 
M -24 48 
L 48 -24 
M -20 52 
L 52 -20 
M -16 56 
L 56 -16 
M -12 60 
L 60 -12 
M -8 64 
L 64 -8 
M -4 68 
L 68 -4 
M 0 72 
L 72 0 
M 4 76 
L 76 4 
M 8 80 
L 80 8 
M 12 84 
L 84 12 
M 16 88 
L 88 16 
M 20 92 
L 92 20 
M 24 96 
L 96 24 
M 28 100 
L 100 28 
M 32 104 
L 104 32 
M 36 108 
L 108 36 
" style="fill:#000000;stroke:#000000;stroke-linecap:butt;stroke-linejoin:miter;stroke-width:1.0;"/>
  </pattern>
  <pattern height="72" id="hb6039893ee" patternUnits="userSpaceOnUse" width="72" x="0" y="0">
   <rect fill="#ff7f0e" height="73" width="73" x="0" y="0"/>
   <path d="M -36 36 
L 36 108 
M -32 32 
L 40 104 
M -28 28 
L 44 100 
M -24 24 
L 48 96 
M -20 20 
L 52 92 
M -16 16 
L 56 88 
M -12 12 
L 60 84 
M -8 8 
L 64 80 
M -4 4 
L 68 76 
M 0 0 
L 72 72 
M 4 -4 
L 76 68 
M 8 -8 
L 80 64 
M 12 -12 
L 84 60 
M 16 -16 
L 88 56 
M 20 -20 
L 92 52 
M 24 -24 
L 96 48 
M 28 -28 
L 100 44 
M 32 -32 
L 104 40 
M 36 -36 
L 108 36 
" style="fill:#000000;stroke:#000000;stroke-linecap:butt;stroke-linejoin:miter;stroke-width:1.0;"/>
  </pattern>
  <pattern height="72" id="h7cbf80fb4b" patternUnits="userSpaceOnUse" width="72" x="0" y="0">
   <rect fill="#2ca02c" height="73" width="73" x="0" y="0"/>
   <path d="M 0 68 
L -1.175571 70.381966 
L -3.804226 70.763932 
L -1.902113 72.618034 
L -2.351141 75.236068 
L -0 74 
L 2.351141 75.236068 
L 1.902113 72.618034 
L 3.804226 70.763932 
L 1.175571 70.381966 
L 0 68 
M 12 68 
L 10.824429 70.381966 
L 8.195774 70.763932 
L 10.097887 72.618034 
L 9.648859 75.236068 
L 12 74 
L 14.351141 75.236068 
L 13.902113 72.618034 
L 15.804226 70.763932 
L 13.175571 70.381966 
L 12 68 
M 24 68 
L 22.824429 70.381966 
L 20.195774 70.763932 
L 22.097887 72.618034 
L 21.648859 75.236068 
L 24 74 
L 26.351141 75.236068 
L 25.902113 72.618034 
L 27.804226 70.763932 
L 25.175571 70.381966 
L 24 68 
M 36 68 
L 34.824429 70.381966 
L 32.195774 70.763932 
L 34.097887 72.618034 
L 33.648859 75.236068 
L 36 74 
L 38.351141 75.236068 
L 37.902113 72.618034 
L 39.804226 70.763932 
L 37.175571 70.381966 
L 36 68 
M 48 68 
L 46.824429 70.381966 
L 44.195774 70.763932 
L 46.097887 72.618034 
L 45.648859 75.236068 
L 48 74 
L 50.351141 75.236068 
L 49.902113 72.618034 
L 51.804226 70.763932 
L 49.175571 70.381966 
L 48 68 
M 60 68 
L 58.824429 70.381966 
L 56.195774 70.763932 
L 58.097887 72.618034 
L 57.648859 75.236068 
L 60 74 
L 62.351141 75.236068 
L 61.902113 72.618034 
L 63.804226 70.763932 
L 61.175571 70.381966 
L 60 68 
M 72 68 
L 70.824429 70.381966 
L 68.195774 70.763932 
L 70.097887 72.618034 
L 69.648859 75.236068 
L 72 74 
L 74.351141 75.236068 
L 73.902113 72.618034 
L 75.804226 70.763932 
L 73.175571 70.381966 
L 72 68 
M 6 56 
L 4.824429 58.381966 
L 2.195774 58.763932 
L 4.097887 60.618034 
L 3.648859 63.236068 
L 6 62 
L 8.351141 63.236068 
L 7.902113 60.618034 
L 9.804226 58.763932 
L 7.175571 58.381966 
L 6 56 
M 18 56 
L 16.824429 58.381966 
L 14.195774 58.763932 
L 16.097887 60.618034 
L 15.648859 63.236068 
L 18 62 
L 20.351141 63.236068 
L 19.902113 60.618034 
L 21.804226 58.763932 
L 19.175571 58.381966 
L 18 56 
M 30 56 
L 28.824429 58.381966 
L 26.195774 58.763932 
L 28.097887 60.618034 
L 27.648859 63.236068 
L 30 62 
L 32.351141 63.236068 
L 31.902113 60.618034 
L 33.804226 58.763932 
L 31.175571 58.381966 
L 30 56 
M 42 56 
L 40.824429 58.381966 
L 38.195774 58.763932 
L 40.097887 60.618034 
L 39.648859 63.236068 
L 42 62 
L 44.351141 63.236068 
L 43.902113 60.618034 
L 45.804226 58.763932 
L 43.175571 58.381966 
L 42 56 
M 54 56 
L 52.824429 58.381966 
L 50.195774 58.763932 
L 52.097887 60.618034 
L 51.648859 63.236068 
L 54 62 
L 56.351141 63.236068 
L 55.902113 60.618034 
L 57.804226 58.763932 
L 55.175571 58.381966 
L 54 56 
M 66 56 
L 64.824429 58.381966 
L 62.195774 58.763932 
L 64.097887 60.618034 
L 63.648859 63.236068 
L 66 62 
L 68.351141 63.236068 
L 67.902113 60.618034 
L 69.804226 58.763932 
L 67.175571 58.381966 
L 66 56 
M 0 44 
L -1.175571 46.381966 
L -3.804226 46.763932 
L -1.902113 48.618034 
L -2.351141 51.236068 
L -0 50 
L 2.351141 51.236068 
L 1.902113 48.618034 
L 3.804226 46.763932 
L 1.175571 46.381966 
L 0 44 
M 12 44 
L 10.824429 46.381966 
L 8.195774 46.763932 
L 10.097887 48.618034 
L 9.648859 51.236068 
L 12 50 
L 14.351141 51.236068 
L 13.902113 48.618034 
L 15.804226 46.763932 
L 13.175571 46.381966 
L 12 44 
M 24 44 
L 22.824429 46.381966 
L 20.195774 46.763932 
L 22.097887 48.618034 
L 21.648859 51.236068 
L 24 50 
L 26.351141 51.236068 
L 25.902113 48.618034 
L 27.804226 46.763932 
L 25.175571 46.381966 
L 24 44 
M 36 44 
L 34.824429 46.381966 
L 32.195774 46.763932 
L 34.097887 48.618034 
L 33.648859 51.236068 
L 36 50 
L 38.351141 51.236068 
L 37.902113 48.618034 
L 39.804226 46.763932 
L 37.175571 46.381966 
L 36 44 
M 48 44 
L 46.824429 46.381966 
L 44.195774 46.763932 
L 46.097887 48.618034 
L 45.648859 51.236068 
L 48 50 
L 50.351141 51.236068 
L 49.902113 48.618034 
L 51.804226 46.763932 
L 49.175571 46.381966 
L 48 44 
M 60 44 
L 58.824429 46.381966 
L 56.195774 46.763932 
L 58.097887 48.618034 
L 57.648859 51.236068 
L 60 50 
L 62.351141 51.236068 
L 61.902113 48.618034 
L 63.804226 46.763932 
L 61.175571 46.381966 
L 60 44 
M 72 44 
L 70.824429 46.381966 
L 68.195774 46.763932 
L 70.097887 48.618034 
L 69.648859 51.236068 
L 72 50 
L 74.351141 51.236068 
L 73.902113 48.618034 
L 75.804226 46.763932 
L 73.175571 46.381966 
L 72 44 
M 6 32 
L 4.824429 34.381966 
L 2.195774 34.763932 
L 4.097887 36.618034 
L 3.648859 39.236068 
L 6 38 
L 8.351141 39.236068 
L 7.902113 36.618034 
L 9.804226 34.763932 
L 7.175571 34.381966 
L 6 32 
M 18 32 
L 16.824429 34.381966 
L 14.195774 34.763932 
L 16.097887 36.618034 
L 15.648859 39.236068 
L 18 38 
L 20.351141 39.236068 
L 19.902113 36.618034 
L 21.804226 34.763932 
L 19.175571 34.381966 
L 18 32 
M 30 32 
L 28.824429 34.381966 
L 26.195774 34.763932 
L 28.097887 36.618034 
L 27.648859 39.236068 
L 30 38 
L 32.351141 39.236068 
L 31.902113 36.618034 
L 33.804226 34.763932 
L 31.175571 34.381966 
L 30 32 
M 42 32 
L 40.824429 34.381966 
L 38.195774 34.763932 
L 40.097887 36.618034 
L 39.648859 39.236068 
L 42 38 
L 44.351141 39.236068 
L 43.902113 36.618034 
L 45.804226 34.763932 
L 43.175571 34.381966 
L 42 32 
M 54 32 
L 52.824429 34.381966 
L 50.195774 34.763932 
L 52.097887 36.618034 
L 51.648859 39.236068 
L 54 38 
L 56.351141 39.236068 
L 55.902113 36.618034 
L 57.804226 34.763932 
L 55.175571 34.381966 
L 54 32 
M 66 32 
L 64.824429 34.381966 
L 62.195774 34.763932 
L 64.097887 36.618034 
L 63.648859 39.236068 
L 66 38 
L 68.351141 39.236068 
L 67.902113 36.618034 
L 69.804226 34.763932 
L 67.175571 34.381966 
L 66 32 
M 0 20 
L -1.175571 22.381966 
L -3.804226 22.763932 
L -1.902113 24.618034 
L -2.351141 27.236068 
L -0 26 
L 2.351141 27.236068 
L 1.902113 24.618034 
L 3.804226 22.763932 
L 1.175571 22.381966 
L 0 20 
M 12 20 
L 10.824429 22.381966 
L 8.195774 22.763932 
L 10.097887 24.618034 
L 9.648859 27.236068 
L 12 26 
L 14.351141 27.236068 
L 13.902113 24.618034 
L 15.804226 22.763932 
L 13.175571 22.381966 
L 12 20 
M 24 20 
L 22.824429 22.381966 
L 20.195774 22.763932 
L 22.097887 24.618034 
L 21.648859 27.236068 
L 24 26 
L 26.351141 27.236068 
L 25.902113 24.618034 
L 27.804226 22.763932 
L 25.175571 22.381966 
L 24 20 
M 36 20 
L 34.824429 22.381966 
L 32.195774 22.763932 
L 34.097887 24.618034 
L 33.648859 27.236068 
L 36 26 
L 38.351141 27.236068 
L 37.902113 24.618034 
L 39.804226 22.763932 
L 37.175571 22.381966 
L 36 20 
M 48 20 
L 46.824429 22.381966 
L 44.195774 22.763932 
L 46.097887 24.618034 
L 45.648859 27.236068 
L 48 26 
L 50.351141 27.236068 
L 49.902113 24.618034 
L 51.804226 22.763932 
L 49.175571 22.381966 
L 48 20 
M 60 20 
L 58.824429 22.381966 
L 56.195774 22.763932 
L 58.097887 24.618034 
L 57.648859 27.236068 
L 60 26 
L 62.351141 27.236068 
L 61.902113 24.618034 
L 63.804226 22.763932 
L 61.175571 22.381966 
L 60 20 
M 72 20 
L 70.824429 22.381966 
L 68.195774 22.763932 
L 70.097887 24.618034 
L 69.648859 27.236068 
L 72 26 
L 74.351141 27.236068 
L 73.902113 24.618034 
L 75.804226 22.763932 
L 73.175571 22.381966 
L 72 20 
M 6 8 
L 4.824429 10.381966 
L 2.195774 10.763932 
L 4.097887 12.618034 
L 3.648859 15.236068 
L 6 14 
L 8.351141 15.236068 
L 7.902113 12.618034 
L 9.804226 10.763932 
L 7.175571 10.381966 
L 6 8 
M 18 8 
L 16.824429 10.381966 
L 14.195774 10.763932 
L 16.097887 12.618034 
L 15.648859 15.236068 
L 18 14 
L 20.351141 15.236068 
L 19.902113 12.618034 
L 21.804226 10.763932 
L 19.175571 10.381966 
L 18 8 
M 30 8 
L 28.824429 10.381966 
L 26.195774 10.763932 
L 28.097887 12.618034 
L 27.648859 15.236068 
L 30 14 
L 32.351141 15.236068 
L 31.902113 12.618034 
L 33.804226 10.763932 
L 31.175571 10.381966 
L 30 8 
M 42 8 
L 40.824429 10.381966 
L 38.195774 10.763932 
L 40.097887 12.618034 
L 39.648859 15.236068 
L 42 14 
L 44.351141 15.236068 
L 43.902113 12.618034 
L 45.804226 10.763932 
L 43.175571 10.381966 
L 42 8 
M 54 8 
L 52.824429 10.381966 
L 50.195774 10.763932 
L 52.097887 12.618034 
L 51.648859 15.236068 
L 54 14 
L 56.351141 15.236068 
L 55.902113 12.618034 
L 57.804226 10.763932 
L 55.175571 10.381966 
L 54 8 
M 66 8 
L 64.824429 10.381966 
L 62.195774 10.763932 
L 64.097887 12.618034 
L 63.648859 15.236068 
L 66 14 
L 68.351141 15.236068 
L 67.902113 12.618034 
L 69.804226 10.763932 
L 67.175571 10.381966 
L 66 8 
M 0 -4 
L -1.175571 -1.618034 
L -3.804226 -1.236068 
L -1.902113 0.618034 
L -2.351141 3.236068 
L -0 2 
L 2.351141 3.236068 
L 1.902113 0.618034 
L 3.804226 -1.236068 
L 1.175571 -1.618034 
L 0 -4 
M 12 -4 
L 10.824429 -1.618034 
L 8.195774 -1.236068 
L 10.097887 0.618034 
L 9.648859 3.236068 
L 12 2 
L 14.351141 3.236068 
L 13.902113 0.618034 
L 15.804226 -1.236068 
L 13.175571 -1.618034 
L 12 -4 
M 24 -4 
L 22.824429 -1.618034 
L 20.195774 -1.236068 
L 22.097887 0.618034 
L 21.648859 3.236068 
L 24 2 
L 26.351141 3.236068 
L 25.902113 0.618034 
L 27.804226 -1.236068 
L 25.175571 -1.618034 
L 24 -4 
M 36 -4 
L 34.824429 -1.618034 
L 32.195774 -1.236068 
L 34.097887 0.618034 
L 33.648859 3.236068 
L 36 2 
L 38.351141 3.236068 
L 37.902113 0.618034 
L 39.804226 -1.236068 
L 37.175571 -1.618034 
L 36 -4 
M 48 -4 
L 46.824429 -1.618034 
L 44.195774 -1.236068 
L 46.097887 0.618034 
L 45.648859 3.236068 
L 48 2 
L 50.351141 3.236068 
L 49.902113 0.618034 
L 51.804226 -1.236068 
L 49.175571 -1.618034 
L 48 -4 
M 60 -4 
L 58.824429 -1.618034 
L 56.195774 -1.236068 
L 58.097887 0.618034 
L 57.648859 3.236068 
L 60 2 
L 62.351141 3.236068 
L 61.902113 0.618034 
L 63.804226 -1.236068 
L 61.175571 -1.618034 
L 60 -4 
M 72 -4 
L 70.824429 -1.618034 
L 68.195774 -1.236068 
L 70.097887 0.618034 
L 69.648859 3.236068 
L 72 2 
L 74.351141 3.236068 
L 73.902113 0.618034 
L 75.804226 -1.236068 
L 73.175571 -1.618034 
L 72 -4 
" style="fill:#000000;stroke:#000000;stroke-linecap:butt;stroke-linejoin:miter;stroke-width:1.0;"/>
  </pattern>
 </defs>
</svg>
