<?xml version="1.0" encoding="utf-8" standalone="no"?>
<!DOCTYPE svg PUBLIC "-//W3C//DTD SVG 1.1//EN"
  "http://www.w3.org/Graphics/SVG/1.1/DTD/svg11.dtd">
<!-- Created with matplotlib (https://matplotlib.org/) -->
<svg height="345.6pt" version="1.1" viewBox="0 0 460.8 345.6" width="460.8pt" xmlns="http://www.w3.org/2000/svg" xmlns:xlink="http://www.w3.org/1999/xlink">
 <metadata>
  <rdf:RDF xmlns:cc="http://creativecommons.org/ns#" xmlns:dc="http://purl.org/dc/elements/1.1/" xmlns:rdf="http://www.w3.org/1999/02/22-rdf-syntax-ns#">
   <cc:Work>
    <dc:type rdf:resource="http://purl.org/dc/dcmitype/StillImage"/>
    <dc:date>2021-05-07T16:15:46.384647</dc:date>
    <dc:format>image/svg+xml</dc:format>
    <dc:creator>
     <cc:Agent>
      <dc:title>Matplotlib v3.3.2, https://matplotlib.org/</dc:title>
     </cc:Agent>
    </dc:creator>
   </cc:Work>
  </rdf:RDF>
 </metadata>
 <defs>
  <style type="text/css">*{stroke-linecap:butt;stroke-linejoin:round;}</style>
 </defs>
 <g id="figure_1">
  <g id="patch_1">
   <path d="M 0 345.6 
L 460.8 345.6 
L 460.8 0 
L 0 0 
z
" style="fill:#ffffff;"/>
  </g>
  <g id="axes_1">
   <g id="patch_2">
    <path d="M 57.6 87.353379 
L 219.927273 87.353379 
L 219.927273 41.472 
L 57.6 41.472 
z
" style="fill:#ffffff;"/>
   </g>
   <g id="matplotlib.axis_1"/>
   <g id="matplotlib.axis_2">
    <g id="ytick_1">
     <g id="line2d_1">
      <defs>
       <path d="M 0 0 
L -3.5 0 
" id="mc74886f1f3" style="stroke:#000000;stroke-width:0.8;"/>
      </defs>
      <g>
       <use style="stroke:#000000;stroke-width:0.8;" x="57.6" xlink:href="#mc74886f1f3" y="79.528138"/>
      </g>
     </g>
     <g id="text_1">
      <!-- −1 -->
      <g transform="translate(35.857813 83.327357)scale(0.1 -0.1)">
       <defs>
        <path d="M 10.59375 35.5 
L 73.1875 35.5 
L 73.1875 27.203125 
L 10.59375 27.203125 
z
" id="DejaVuSans-8722"/>
        <path d="M 12.40625 8.296875 
L 28.515625 8.296875 
L 28.515625 63.921875 
L 10.984375 60.40625 
L 10.984375 69.390625 
L 28.421875 72.90625 
L 38.28125 72.90625 
L 38.28125 8.296875 
L 54.390625 8.296875 
L 54.390625 0 
L 12.40625 0 
z
" id="DejaVuSans-49"/>
       </defs>
       <use xlink:href="#DejaVuSans-8722"/>
       <use x="83.789062" xlink:href="#DejaVuSans-49"/>
      </g>
     </g>
    </g>
    <g id="ytick_2">
     <g id="line2d_2">
      <g>
       <use style="stroke:#000000;stroke-width:0.8;" x="57.6" xlink:href="#mc74886f1f3" y="63.763995"/>
      </g>
     </g>
     <g id="text_2">
      <!-- 0 -->
      <g transform="translate(44.2375 67.563214)scale(0.1 -0.1)">
       <defs>
        <path d="M 31.78125 66.40625 
Q 24.171875 66.40625 20.328125 58.90625 
Q 16.5 51.421875 16.5 36.375 
Q 16.5 21.390625 20.328125 13.890625 
Q 24.171875 6.390625 31.78125 6.390625 
Q 39.453125 6.390625 43.28125 13.890625 
Q 47.125 21.390625 47.125 36.375 
Q 47.125 51.421875 43.28125 58.90625 
Q 39.453125 66.40625 31.78125 66.40625 
z
M 31.78125 74.21875 
Q 44.046875 74.21875 50.515625 64.515625 
Q 56.984375 54.828125 56.984375 36.375 
Q 56.984375 17.96875 50.515625 8.265625 
Q 44.046875 -1.421875 31.78125 -1.421875 
Q 19.53125 -1.421875 13.0625 8.265625 
Q 6.59375 17.96875 6.59375 36.375 
Q 6.59375 54.828125 13.0625 64.515625 
Q 19.53125 74.21875 31.78125 74.21875 
z
" id="DejaVuSans-48"/>
       </defs>
       <use xlink:href="#DejaVuSans-48"/>
      </g>
     </g>
    </g>
    <g id="ytick_3">
     <g id="line2d_3">
      <g>
       <use style="stroke:#000000;stroke-width:0.8;" x="57.6" xlink:href="#mc74886f1f3" y="47.999853"/>
      </g>
     </g>
     <g id="text_3">
      <!-- 1 -->
      <g transform="translate(44.2375 51.799071)scale(0.1 -0.1)">
       <use xlink:href="#DejaVuSans-49"/>
      </g>
     </g>
    </g>
   </g>
   <g id="line2d_4">
    <path clip-path="url(#p1f15109635)" d="M 64.978512 84.205359 
L 65.51709 84.788632 
L 66.055667 85.037706 
L 66.594245 84.550594 
L 67.132823 84.375612 
L 67.6714 83.551147 
L 68.209978 83.833325 
L 68.748555 83.536959 
L 69.287133 84.241616 
L 69.82571 84.11235 
L 70.364288 84.303097 
L 70.902865 84.26211 
L 71.441443 84.374035 
L 72.518598 84.005154 
L 73.057176 84.916322 
L 73.595753 84.604192 
L 74.134331 84.145455 
L 74.672908 84.189595 
L 75.211486 83.412422 
L 75.750063 85.11495 
L 76.288641 84.627838 
L 77.904374 83.897958 
L 78.442951 84.605768 
L 78.981529 83.776574 
L 79.520106 84.238464 
L 80.058684 83.831749 
L 80.597261 84.731881 
L 81.135839 83.324143 
L 82.212994 85.267862 
L 82.751571 84.137573 
L 83.828727 84.11235 
L 84.367304 84.586851 
L 84.905882 84.460738 
L 85.444459 84.599462 
L 85.983037 84.0556 
L 86.521614 84.569511 
L 87.060192 84.438668 
L 87.598769 84.449703 
L 88.137347 84.109198 
L 88.675924 84.526947 
L 89.214502 84.060329 
L 89.75308 84.550594 
L 90.291657 84.255804 
L 90.830235 84.328319 
L 91.368812 84.175407 
L 92.445967 84.366153 
L 92.984545 84.005154 
L 93.523122 84.392952 
L 94.0617 84.153337 
L 94.600277 84.347236 
L 95.138855 84.848536 
L 95.677433 84.173831 
L 96.21601 84.6972 
L 96.754588 84.82489 
L 97.293165 84.164372 
L 97.831743 84.175407 
L 98.37032 84.523795 
L 98.908898 84.002001 
L 99.447475 84.489113 
L 100.524631 84.500148 
L 101.063208 84.788632 
L 101.601786 84.5301 
L 102.140363 84.019342 
L 103.217518 84.422904 
L 103.756096 84.361424 
L 104.294673 84.823313 
L 104.833251 84.038259 
L 105.371828 83.946827 
L 105.910406 84.583698 
L 106.448984 83.855395 
L 106.987561 84.405563 
L 107.526139 83.223253 
L 108.064716 83.749775 
L 108.603294 84.872182 
L 109.141871 84.180136 
L 109.680449 83.894805 
L 110.219026 83.853818 
L 111.296181 83.19803 
L 111.834759 83.280004 
L 112.373337 82.346766 
L 112.911914 83.2201 
L 113.450492 83.439222 
L 113.989069 82.950533 
L 114.527647 82.709342 
L 115.066224 81.560136 
L 116.143379 80.753012 
L 116.681957 79.947464 
L 117.220534 79.452312 
L 117.759112 78.627217 
L 119.374845 74.179679 
L 119.913422 73.975849 
L 120.990577 69.860147 
L 121.529155 69.521218 
L 122.067732 67.89026 
L 122.60631 65.557955 
L 124.222043 60.963968 
L 125.299198 59.341838 
L 126.91493 55.497279 
L 127.453508 55.25924 
L 128.530663 53.674786 
L 129.069241 53.85434 
L 129.607818 52.901555 
L 130.146396 52.820685 
L 130.684973 52.194218 
L 131.223551 52.473716 
L 131.762128 52.053917 
L 132.300706 51.169391 
L 132.839283 51.894857 
L 133.377861 50.837556 
L 133.916438 51.383783 
L 134.455016 51.379054 
L 134.993594 51.142277 
L 135.532171 50.581862 
L 136.070749 51.397656 
L 136.609326 50.830147 
L 137.686481 50.562629 
L 138.763636 51.272646 
L 140.379369 50.338621 
L 140.917947 50.221966 
L 141.456524 50.922209 
L 141.995102 51.033031 
L 142.533679 49.876259 
L 143.072257 50.877124 
L 143.610834 50.812649 
L 144.687989 50.986054 
L 145.226567 50.527318 
L 145.765144 51.030351 
L 146.303722 50.613547 
L 146.8423 50.875075 
L 147.919455 50.146298 
L 148.458032 51.29046 
L 148.99661 50.596837 
L 150.073765 50.546707 
L 150.612342 50.379765 
L 151.15092 50.364474 
L 151.689497 50.883114 
L 152.228075 50.678969 
L 152.766653 49.958705 
L 153.30523 50.046984 
L 153.843808 50.287545 
L 154.382385 50.799407 
L 154.920963 50.61339 
L 155.45954 49.382841 
L 156.536695 50.751957 
L 157.075273 50.219917 
L 157.613851 50.952161 
L 158.152428 50.815328 
L 158.691006 50.401993 
L 159.229583 50.735877 
L 159.768161 50.878858 
L 160.306738 50.247504 
L 160.845316 51.101921 
L 161.383893 50.501149 
L 161.922471 50.809496 
L 162.999626 50.777495 
L 163.538204 51.1407 
L 164.076781 49.936635 
L 164.615359 50.444871 
L 165.153936 50.372198 
L 166.231091 50.829359 
L 166.769669 50.287387 
L 167.846824 51.092462 
L 168.385401 51.073703 
L 168.923979 50.555851 
L 169.462557 50.385598 
L 170.001134 50.013564 
L 170.539712 50.151343 
L 171.078289 50.440457 
L 171.616867 50.397421 
L 172.155444 50.129588 
L 172.694022 50.634829 
L 173.232599 50.37677 
L 174.309754 51.098452 
L 174.848332 50.824314 
L 175.38691 49.774737 
L 175.925487 48.450077 
L 176.464065 47.615208 
L 177.54122 43.557517 
L 178.079797 43.614268 
L 178.618375 43.790827 
L 179.156952 45.252163 
L 179.69553 48.109886 
L 180.234107 49.906526 
L 180.772685 50.042885 
L 181.311263 52.318597 
L 182.926995 55.711829 
L 184.00415 57.163233 
L 184.542728 57.292026 
L 185.619883 58.353899 
L 186.158461 55.560178 
L 187.235616 52.494683 
L 187.774193 52.165054 
L 188.312771 51.039337 
L 188.851348 50.537407 
L 189.389926 50.425324 
L 189.928503 50.163954 
L 190.467081 51.205491 
L 191.005658 51.354147 
L 191.544236 50.07331 
L 192.082814 51.283366 
L 192.621391 50.391588 
L 193.159969 50.91685 
L 193.698546 50.455906 
L 194.237124 51.078905 
L 194.775701 50.670614 
L 195.314279 50.968083 
L 196.391434 49.766067 
L 196.930011 49.81131 
L 197.468589 51.083792 
L 198.007167 50.945698 
L 198.545744 51.416731 
L 199.084322 50.399943 
L 199.622899 50.241356 
L 200.161477 50.61875 
L 200.700054 50.825418 
L 201.238632 50.03926 
L 201.777209 51.343743 
L 202.315787 50.476715 
L 202.854364 51.221098 
L 203.392942 50.786322 
L 203.93152 50.845123 
L 204.470097 51.192564 
L 205.008675 50.848276 
L 205.547252 50.748331 
L 206.08583 50.959413 
L 206.624407 50.418072 
L 207.162985 50.559004 
L 207.701562 50.87539 
L 208.24014 50.343981 
L 208.778718 51.426662 
L 209.855873 50.817378 
L 210.39445 50.991729 
L 210.933028 50.80256 
L 212.010183 50.895095 
L 212.54876 51.241906 
L 212.54876 51.241906 
" style="fill:none;stroke:#000000;stroke-linecap:square;stroke-width:1.5;"/>
   </g>
   <g id="patch_3">
    <path d="M 57.6 87.353379 
L 57.6 41.472 
" style="fill:none;stroke:#000000;stroke-linecap:square;stroke-linejoin:miter;stroke-width:0.8;"/>
   </g>
   <g id="patch_4">
    <path d="M 219.927273 87.353379 
L 219.927273 41.472 
" style="fill:none;stroke:#000000;stroke-linecap:square;stroke-linejoin:miter;stroke-width:0.8;"/>
   </g>
   <g id="patch_5">
    <path d="M 57.6 87.353379 
L 219.927273 87.353379 
" style="fill:none;stroke:#000000;stroke-linecap:square;stroke-linejoin:miter;stroke-width:0.8;"/>
   </g>
   <g id="patch_6">
    <path d="M 57.6 41.472 
L 219.927273 41.472 
" style="fill:none;stroke:#000000;stroke-linecap:square;stroke-linejoin:miter;stroke-width:0.8;"/>
   </g>
  </g>
  <g id="axes_2">
   <g id="patch_7">
    <path d="M 57.6 142.411034 
L 219.927273 142.411034 
L 219.927273 96.529655 
L 57.6 96.529655 
z
" style="fill:#ffffff;"/>
   </g>
   <g id="matplotlib.axis_3"/>
   <g id="matplotlib.axis_4">
    <g id="ytick_4">
     <g id="line2d_5">
      <g>
       <use style="stroke:#000000;stroke-width:0.8;" x="57.6" xlink:href="#mc74886f1f3" y="134.531368"/>
      </g>
     </g>
     <g id="text_4">
      <!-- −1 -->
      <g transform="translate(35.857813 138.330587)scale(0.1 -0.1)">
       <use xlink:href="#DejaVuSans-8722"/>
       <use x="83.789062" xlink:href="#DejaVuSans-49"/>
      </g>
     </g>
    </g>
    <g id="ytick_5">
     <g id="line2d_6">
      <g>
       <use style="stroke:#000000;stroke-width:0.8;" x="57.6" xlink:href="#mc74886f1f3" y="118.84607"/>
      </g>
     </g>
     <g id="text_5">
      <!-- 0 -->
      <g transform="translate(44.2375 122.645289)scale(0.1 -0.1)">
       <use xlink:href="#DejaVuSans-48"/>
      </g>
     </g>
    </g>
    <g id="ytick_6">
     <g id="line2d_7">
      <g>
       <use style="stroke:#000000;stroke-width:0.8;" x="57.6" xlink:href="#mc74886f1f3" y="103.160772"/>
      </g>
     </g>
     <g id="text_6">
      <!-- 1 -->
      <g transform="translate(44.2375 106.959991)scale(0.1 -0.1)">
       <use xlink:href="#DejaVuSans-49"/>
      </g>
     </g>
    </g>
   </g>
   <g id="line2d_8">
    <path clip-path="url(#pc57a58e1ef)" d="M 64.978512 139.552232 
L 65.51709 139.039323 
L 66.055667 139.883192 
L 66.594245 139.773395 
L 67.132823 138.684835 
L 67.6714 139.760847 
L 68.209978 140.003969 
L 69.82571 139.498902 
L 70.364288 140.265913 
L 70.902865 139.900446 
L 71.441443 139.790649 
L 71.980021 139.056577 
L 72.518598 139.928679 
L 73.057176 139.381262 
L 73.595753 139.423613 
L 74.134331 139.817314 
L 74.672908 139.152257 
L 75.211486 139.980441 
L 75.750063 139.113044 
L 76.288641 139.594582 
L 76.827218 139.271465 
L 77.365796 140.035339 
L 77.904374 139.608699 
L 78.442951 139.74673 
L 78.981529 139.279308 
L 79.520106 139.290288 
L 80.058684 139.784374 
L 80.597261 139.715359 
L 81.135839 140.325517 
L 81.674416 139.94907 
L 82.212994 139.982009 
L 82.751571 139.78908 
L 83.290149 139.023637 
L 83.828727 139.705948 
L 84.367304 139.193039 
L 84.905882 139.999263 
L 85.444459 139.376557 
L 85.983037 139.771826 
L 86.521614 139.506745 
L 87.060192 139.669872 
L 87.598769 140.033771 
L 88.137347 139.398516 
L 88.675924 138.537393 
L 89.214502 139.94907 
L 89.75308 139.293425 
L 90.291657 139.103633 
L 91.368812 139.164805 
L 91.90739 139.742024 
L 92.445967 139.964755 
L 92.984545 138.97815 
L 93.523122 139.247937 
L 94.0617 140.13102 
L 94.600277 139.360871 
L 95.138855 140.069847 
L 95.677433 139.418907 
L 96.21601 139.974167 
L 96.754588 139.467531 
L 97.293165 139.784374 
L 97.831743 139.544389 
L 98.37032 140.087101 
L 98.908898 139.122455 
L 99.447475 139.925542 
L 100.524631 139.845547 
L 101.063208 139.1601 
L 101.601786 138.97815 
L 102.140363 139.25578 
L 102.678941 139.316953 
L 103.217518 139.880055 
L 103.756096 139.447141 
L 104.294673 140.01338 
L 104.833251 139.549095 
L 105.371828 138.664444 
L 105.910406 138.957759 
L 106.448984 140.093375 
L 106.987561 138.898155 
L 107.526139 139.751435 
L 108.064716 138.642485 
L 109.141871 139.302836 
L 109.680449 139.167942 
L 110.219026 139.219704 
L 110.757604 138.788358 
L 111.296181 138.771104 
L 111.834759 139.211861 
L 112.373337 138.110753 
L 112.911914 138.132713 
L 113.450492 137.318646 
L 113.989069 137.290412 
L 114.527647 136.325766 
L 115.066224 136.973569 
L 115.604802 135.538364 
L 116.143379 135.210542 
L 116.681957 133.472297 
L 117.220534 133.196549 
L 117.759112 131.805263 
L 118.29769 131.009862 
L 118.836267 129.835033 
L 119.374845 127.487101 
L 119.913422 126.220042 
L 120.452 123.819251 
L 120.990577 123.399355 
L 121.529155 121.701422 
L 122.067732 119.61203 
L 122.60631 118.406286 
L 123.144887 116.516803 
L 123.683465 115.484711 
L 124.222043 112.896793 
L 124.76062 112.5067 
L 125.299198 111.905639 
L 126.376353 109.969603 
L 126.91493 109.777458 
L 127.453508 108.394642 
L 127.992085 108.268532 
L 128.530663 108.787245 
L 129.069241 107.593123 
L 129.607818 107.154719 
L 130.146396 108.165009 
L 130.684973 107.277221 
L 131.223551 107.053706 
L 131.762128 106.018633 
L 132.839283 105.935972 
L 133.377861 106.729648 
L 133.916438 106.43147 
L 134.455016 105.911032 
L 136.070749 106.455782 
L 136.609326 106.167487 
L 137.147904 105.512312 
L 137.686481 106.117137 
L 138.225059 105.582268 
L 138.763636 106.305047 
L 139.302214 105.325657 
L 139.840791 105.834958 
L 140.379369 106.148037 
L 140.917947 106.312419 
L 141.456524 106.636791 
L 141.995102 106.678357 
L 142.533679 106.066473 
L 143.072257 106.003105 
L 143.610834 106.838661 
L 144.149412 105.73222 
L 144.687989 106.376885 
L 145.226567 106.269441 
L 145.765144 105.693791 
L 146.303722 105.929227 
L 146.8423 106.457037 
L 147.380877 105.382594 
L 147.919455 105.874956 
L 148.458032 105.684536 
L 148.99661 106.177839 
L 149.535187 105.223075 
L 150.073765 106.462057 
L 150.612342 106.728393 
L 151.15092 106.201681 
L 151.689497 106.011418 
L 152.228075 106.403707 
L 152.766653 106.487467 
L 153.30523 105.627442 
L 153.843808 106.132665 
L 154.382385 106.047337 
L 154.920963 106.244658 
L 155.45954 105.749003 
L 155.998118 105.950873 
L 156.536695 106.363553 
L 157.075273 106.551149 
L 157.613851 106.570756 
L 158.152428 105.74069 
L 158.691006 105.766727 
L 159.229583 106.069454 
L 159.768161 106.008751 
L 160.306738 106.312262 
L 160.845316 106.060983 
L 161.383893 106.079335 
L 161.922471 105.688771 
L 162.461048 105.739749 
L 162.999626 106.163408 
L 163.538204 106.442293 
L 164.076781 106.188191 
L 164.615359 105.672772 
L 165.153936 106.107255 
L 165.692514 106.299086 
L 166.231091 106.005457 
L 166.769669 105.94052 
L 167.846824 106.130312 
L 168.385401 105.619599 
L 168.923979 106.402139 
L 169.462557 106.379395 
L 170.001134 104.824668 
L 170.539712 106.905323 
L 171.078289 105.931737 
L 171.616867 105.281738 
L 172.694022 104.834393 
L 173.232599 103.716972 
L 173.771177 101.76478 
L 174.309754 98.735949 
L 174.848332 98.615172 
L 175.38691 99.534331 
L 175.925487 101.874577 
L 176.464065 102.635314 
L 177.54122 106.65028 
L 178.618375 109.293096 
L 179.69553 112.697747 
L 180.234107 113.812815 
L 180.772685 112.730686 
L 182.388418 108.328764 
L 183.465573 106.444018 
L 184.00415 106.466605 
L 185.081305 105.788844 
L 185.619883 106.697807 
L 186.158461 106.393825 
L 186.697038 105.412083 
L 187.235616 105.638578 
L 187.774193 106.222699 
L 188.312771 107.104997 
L 188.851348 106.101922 
L 189.389926 106.049063 
L 189.928503 106.163879 
L 190.467081 106.562442 
L 191.005658 105.992909 
L 191.544236 105.912287 
L 192.082814 105.713554 
L 192.621391 106.050631 
L 193.159969 106.658907 
L 193.698546 105.370517 
L 194.237124 106.326692 
L 194.775701 106.156507 
L 195.314279 106.197916 
L 196.391434 106.576716 
L 196.930011 106.054866 
L 197.468589 107.094174 
L 198.007167 105.874485 
L 198.545744 107.06547 
L 199.084322 105.773472 
L 199.622899 106.276813 
L 200.161477 106.116823 
L 200.700054 106.251717 
L 201.238632 105.923267 
L 201.777209 105.92907 
L 202.315787 106.456567 
L 202.854364 106.023652 
L 203.93152 106.034946 
L 204.470097 106.804623 
L 205.008675 106.358377 
L 205.547252 106.390532 
L 206.08583 105.83888 
L 206.624407 105.997144 
L 207.701562 105.693163 
L 208.778718 105.882171 
L 209.317295 106.455469 
L 209.855873 106.819681 
L 210.39445 106.48433 
L 210.933028 106.398845 
L 211.471605 105.51937 
L 212.010183 106.067885 
L 212.54876 105.934874 
L 212.54876 105.934874 
" style="fill:none;stroke:#ff0000;stroke-linecap:square;stroke-width:1.5;"/>
   </g>
   <g id="patch_8">
    <path d="M 57.6 142.411034 
L 57.6 96.529655 
" style="fill:none;stroke:#000000;stroke-linecap:square;stroke-linejoin:miter;stroke-width:0.8;"/>
   </g>
   <g id="patch_9">
    <path d="M 219.927273 142.411034 
L 219.927273 96.529655 
" style="fill:none;stroke:#000000;stroke-linecap:square;stroke-linejoin:miter;stroke-width:0.8;"/>
   </g>
   <g id="patch_10">
    <path d="M 57.6 142.411034 
L 219.927273 142.411034 
" style="fill:none;stroke:#000000;stroke-linecap:square;stroke-linejoin:miter;stroke-width:0.8;"/>
   </g>
   <g id="patch_11">
    <path d="M 57.6 96.529655 
L 219.927273 96.529655 
" style="fill:none;stroke:#000000;stroke-linecap:square;stroke-linejoin:miter;stroke-width:0.8;"/>
   </g>
  </g>
  <g id="axes_3">
   <g id="patch_12">
    <path d="M 57.6 197.46869 
L 219.927273 197.46869 
L 219.927273 151.58731 
L 57.6 151.58731 
z
" style="fill:#ffffff;"/>
   </g>
   <g id="matplotlib.axis_5"/>
   <g id="matplotlib.axis_6">
    <g id="ytick_7">
     <g id="line2d_9">
      <g>
       <use style="stroke:#000000;stroke-width:0.8;" x="57.6" xlink:href="#mc74886f1f3" y="189.162462"/>
      </g>
     </g>
     <g id="text_7">
      <!-- −1 -->
      <g transform="translate(35.857813 192.961681)scale(0.1 -0.1)">
       <use xlink:href="#DejaVuSans-8722"/>
       <use x="83.789062" xlink:href="#DejaVuSans-49"/>
      </g>
     </g>
    </g>
    <g id="ytick_8">
     <g id="line2d_10">
      <g>
       <use style="stroke:#000000;stroke-width:0.8;" x="57.6" xlink:href="#mc74886f1f3" y="173.680355"/>
      </g>
     </g>
     <g id="text_8">
      <!-- 0 -->
      <g transform="translate(44.2375 177.479573)scale(0.1 -0.1)">
       <use xlink:href="#DejaVuSans-48"/>
      </g>
     </g>
    </g>
    <g id="ytick_9">
     <g id="line2d_11">
      <g>
       <use style="stroke:#000000;stroke-width:0.8;" x="57.6" xlink:href="#mc74886f1f3" y="158.198248"/>
      </g>
     </g>
     <g id="text_9">
      <!-- 1 -->
      <g transform="translate(44.2375 161.997466)scale(0.1 -0.1)">
       <use xlink:href="#DejaVuSans-49"/>
      </g>
     </g>
    </g>
   </g>
   <g id="line2d_12">
    <path clip-path="url(#p145569562b)" d="M 64.978512 194.728279 
L 65.51709 194.494499 
L 66.055667 193.969656 
L 66.594245 194.51153 
L 67.132823 193.947981 
L 67.6714 194.785563 
L 68.209978 194.078031 
L 68.748555 195.383172 
L 69.287133 194.129122 
L 69.82571 194.791756 
L 70.364288 194.576555 
L 70.902865 194.503789 
L 71.441443 194.548687 
L 71.980021 194.169375 
L 72.518598 193.965011 
L 73.057176 194.664803 
L 73.595753 195.09985 
L 74.134331 193.978945 
L 74.672908 194.410896 
L 75.750063 194.071838 
L 76.288641 194.184857 
L 76.827218 194.516174 
L 77.365796 194.684929 
L 77.904374 193.999072 
L 78.442951 194.565717 
L 78.981529 193.947981 
L 79.520106 194.564169 
L 80.058684 194.074934 
L 80.597261 194.183309 
L 81.135839 194.688026 
L 82.212994 193.68943 
L 82.751571 194.626097 
L 83.290149 194.852136 
L 83.828727 194.107447 
L 84.367304 194.756147 
L 84.905882 194.677188 
L 85.444459 193.686333 
L 85.983037 194.235948 
L 86.521614 194.365998 
L 87.060192 194.807238 
L 87.598769 193.771485 
L 88.137347 194.319552 
L 88.675924 193.495904 
L 89.75308 194.413993 
L 90.291657 193.519127 
L 90.830235 194.491403 
L 91.90739 194.331937 
L 92.445967 194.551783 
L 92.984545 194.516174 
L 93.523122 193.999072 
L 94.0617 194.972897 
L 94.600277 194.73602 
L 95.138855 194.347419 
L 96.21601 194.449601 
L 96.754588 194.054808 
L 97.293165 193.955722 
L 97.831743 194.749954 
L 98.908898 193.882956 
L 99.447475 194.602874 
L 99.986053 193.567121 
L 100.524631 195.041018 
L 101.063208 194.799497 
L 101.601786 194.412444 
L 103.217518 194.844395 
L 103.756096 194.04397 
L 104.294673 193.814835 
L 104.833251 194.649321 
L 105.371828 194.384577 
L 105.910406 195.155585 
L 106.448984 193.821028 
L 107.526139 193.867474 
L 108.064716 194.686478 
L 108.603294 193.714201 
L 109.141871 193.251286 
L 109.680449 193.506741 
L 110.219026 193.999072 
L 111.296181 192.381192 
L 111.834759 193.051567 
L 112.373337 193.341082 
L 112.911914 192.777534 
L 113.450492 191.692238 
L 114.527647 191.215389 
L 115.066224 190.10687 
L 115.604802 189.684209 
L 116.143379 189.100998 
L 116.681957 188.010593 
L 117.220534 187.323962 
L 117.759112 185.505898 
L 118.836267 182.644649 
L 119.374845 179.12727 
L 119.913422 178.304396 
L 120.452 175.840418 
L 120.990577 174.84848 
L 121.529155 173.352552 
L 122.067732 171.394112 
L 122.60631 171.021303 
L 123.144887 168.655172 
L 124.222043 167.310242 
L 125.299198 165.105435 
L 125.837775 164.974147 
L 126.376353 163.877084 
L 126.91493 163.75973 
L 127.453508 163.809892 
L 127.992085 163.455352 
L 129.069241 161.456147 
L 129.607818 161.651531 
L 130.146396 162.208887 
L 130.684973 161.67429 
L 131.223551 162.113672 
L 131.762128 161.46234 
L 132.300706 161.607717 
L 132.839283 161.309532 
L 133.377861 161.497175 
L 133.916438 161.868745 
L 134.455016 161.409546 
L 134.993594 161.228715 
L 135.532171 162.08085 
L 136.609326 160.50632 
L 137.686481 162.024495 
L 138.225059 161.263395 
L 138.763636 160.896624 
L 139.840791 160.912261 
L 140.379369 161.835769 
L 140.917947 162.300387 
L 141.456524 161.692869 
L 141.995102 161.629857 
L 142.533679 161.35474 
L 144.149412 162.074503 
L 144.687989 161.072965 
L 145.226567 161.032866 
L 145.765144 161.458624 
L 146.303722 162.196192 
L 146.8423 161.576288 
L 147.380877 161.205337 
L 147.919455 161.320524 
L 148.458032 161.578611 
L 148.99661 160.53682 
L 149.535187 161.315105 
L 150.073765 161.776937 
L 150.612342 161.80852 
L 151.15092 161.438962 
L 151.689497 161.429828 
L 152.228075 161.287702 
L 152.766653 160.997567 
L 153.30523 161.676303 
L 153.843808 161.861004 
L 154.382385 161.336161 
L 154.920963 162.028056 
L 155.45954 161.200228 
L 155.998118 160.625223 
L 156.536695 160.817356 
L 157.075273 160.81395 
L 157.613851 160.615314 
L 158.152428 161.15951 
L 158.691006 160.862099 
L 159.229583 162.134418 
L 159.768161 161.060579 
L 160.306738 161.735909 
L 160.845316 161.016301 
L 161.383893 162.256882 
L 161.922471 162.078838 
L 162.461048 162.065523 
L 162.999626 161.447323 
L 163.538204 161.410011 
L 164.076781 161.598273 
L 164.615359 160.997722 
L 165.153936 161.389419 
L 165.692514 161.135358 
L 166.231091 161.394064 
L 166.769669 160.736694 
L 167.308246 160.770135 
L 167.846824 161.031009 
L 168.385401 161.564832 
L 168.923979 160.914893 
L 170.001134 160.551992 
L 170.539712 159.794762 
L 171.616867 156.029204 
L 172.155444 155.114212 
L 172.694022 153.672828 
L 173.232599 154.409776 
L 173.771177 156.044686 
L 174.309754 158.171928 
L 174.848332 159.823559 
L 175.38691 163.193859 
L 177.002642 167.790806 
L 177.54122 167.940983 
L 178.079797 168.255579 
L 179.69553 162.416657 
L 180.234107 161.325943 
L 180.772685 161.350405 
L 181.311263 161.589758 
L 182.388418 161.121115 
L 182.926995 161.268349 
L 183.465573 162.049267 
L 184.00415 160.803112 
L 184.542728 160.732668 
L 185.081305 161.542847 
L 185.619883 161.274078 
L 186.158461 161.339412 
L 187.235616 162.259669 
L 187.774193 161.379201 
L 188.312771 161.069559 
L 188.851348 161.437259 
L 189.389926 161.369293 
L 189.928503 161.444536 
L 190.467081 160.932078 
L 191.005658 161.014443 
L 192.082814 160.736229 
L 192.621391 160.759298 
L 193.159969 161.067701 
L 193.698546 161.631405 
L 194.237124 161.355514 
L 195.314279 160.561282 
L 195.852856 161.902496 
L 196.391434 161.217723 
L 196.930011 161.037511 
L 197.468589 161.363255 
L 198.007167 160.998651 
L 198.545744 161.204408 
L 199.084322 160.840734 
L 199.622899 160.630951 
L 200.161477 160.887025 
L 200.700054 160.941522 
L 201.238632 160.66656 
L 202.315787 161.645029 
L 202.854364 161.905593 
L 203.392942 160.980692 
L 204.470097 161.843974 
L 205.008675 161.793038 
L 205.547252 161.18103 
L 206.624407 161.184901 
L 207.162985 161.721201 
L 207.701562 160.399184 
L 208.24014 161.969379 
L 209.317295 161.694881 
L 209.855873 161.245281 
L 210.39445 161.015836 
L 210.933028 161.188152 
L 211.471605 161.022184 
L 212.010183 161.811152 
L 212.54876 161.237695 
L 212.54876 161.237695 
" style="fill:none;stroke:#ff0000;stroke-linecap:square;stroke-width:1.5;"/>
   </g>
   <g id="patch_13">
    <path d="M 57.6 197.46869 
L 57.6 151.58731 
" style="fill:none;stroke:#000000;stroke-linecap:square;stroke-linejoin:miter;stroke-width:0.8;"/>
   </g>
   <g id="patch_14">
    <path d="M 219.927273 197.46869 
L 219.927273 151.58731 
" style="fill:none;stroke:#000000;stroke-linecap:square;stroke-linejoin:miter;stroke-width:0.8;"/>
   </g>
   <g id="patch_15">
    <path d="M 57.6 197.46869 
L 219.927273 197.46869 
" style="fill:none;stroke:#000000;stroke-linecap:square;stroke-linejoin:miter;stroke-width:0.8;"/>
   </g>
   <g id="patch_16">
    <path d="M 57.6 151.58731 
L 219.927273 151.58731 
" style="fill:none;stroke:#000000;stroke-linecap:square;stroke-linejoin:miter;stroke-width:0.8;"/>
   </g>
  </g>
  <g id="axes_4">
   <g id="patch_17">
    <path d="M 57.6 252.526345 
L 219.927273 252.526345 
L 219.927273 206.644966 
L 57.6 206.644966 
z
" style="fill:#ffffff;"/>
   </g>
   <g id="matplotlib.axis_7"/>
   <g id="matplotlib.axis_8">
    <g id="ytick_10">
     <g id="line2d_13">
      <g>
       <use style="stroke:#000000;stroke-width:0.8;" x="57.6" xlink:href="#mc74886f1f3" y="243.517034"/>
      </g>
     </g>
     <g id="text_10">
      <!-- −1 -->
      <g transform="translate(35.857813 247.316253)scale(0.1 -0.1)">
       <use xlink:href="#DejaVuSans-8722"/>
       <use x="83.789062" xlink:href="#DejaVuSans-49"/>
      </g>
     </g>
    </g>
    <g id="ytick_11">
     <g id="line2d_14">
      <g>
       <use style="stroke:#000000;stroke-width:0.8;" x="57.6" xlink:href="#mc74886f1f3" y="227.999793"/>
      </g>
     </g>
     <g id="text_11">
      <!-- 0 -->
      <g transform="translate(44.2375 231.799012)scale(0.1 -0.1)">
       <use xlink:href="#DejaVuSans-48"/>
      </g>
     </g>
    </g>
    <g id="ytick_12">
     <g id="line2d_15">
      <g>
       <use style="stroke:#000000;stroke-width:0.8;" x="57.6" xlink:href="#mc74886f1f3" y="212.482552"/>
      </g>
     </g>
     <g id="text_12">
      <!-- 1 -->
      <g transform="translate(44.2375 216.28177)scale(0.1 -0.1)">
       <use xlink:href="#DejaVuSans-49"/>
      </g>
     </g>
    </g>
   </g>
   <g id="line2d_16">
    <path clip-path="url(#pe6eef9da8a)" d="M 64.978512 249.405828 
L 65.51709 249.202552 
L 66.055667 249.505138 
L 66.594245 248.861172 
L 67.132823 249.677379 
L 67.6714 249.314276 
L 68.209978 249.337552 
L 68.748555 249.01169 
L 69.287133 248.873586 
L 69.82571 249.633931 
L 70.364288 249.14669 
L 70.902865 249.162207 
L 71.441443 248.903069 
L 71.980021 249.727034 
L 72.518598 249.258414 
L 73.595753 249.585828 
L 74.672908 248.774276 
L 75.211486 248.204793 
L 75.750063 248.510483 
L 76.288641 249.084621 
L 76.827218 248.889103 
L 77.904374 249.121862 
L 78.442951 249.798414 
L 78.981529 249.303414 
L 79.520106 248.999276 
L 80.597261 249.502034 
L 81.135839 248.76031 
L 82.212994 249.914793 
L 82.751571 249.317379 
L 83.290149 249.419793 
L 83.828727 248.800655 
L 84.367304 249.413586 
L 84.905882 249.131172 
L 85.444459 249.28169 
L 85.983037 249.247552 
L 86.521614 249.556345 
L 87.060192 248.896862 
L 87.598769 248.47169 
L 88.137347 249.503586 
L 89.214502 248.889103 
L 89.75308 249.16531 
L 90.291657 249.303414 
L 90.830235 249.719276 
L 91.368812 249.339103 
L 91.90739 249.123414 
L 92.445967 249.067552 
L 92.984545 249.292552 
L 93.523122 248.40031 
L 94.0617 249.311172 
L 94.600277 248.640828 
L 95.138855 249.072207 
L 95.677433 248.661 
L 96.21601 249.379448 
L 97.293165 248.505828 
L 97.831743 249.405828 
L 98.908898 247.908414 
L 99.447475 249.562552 
L 99.986053 249.016345 
L 100.524631 249.145138 
L 101.063208 249.053586 
L 101.601786 249.574966 
L 102.678941 248.628414 
L 103.217518 248.98531 
L 103.756096 250.440828 
L 104.294673 248.96669 
L 104.833251 248.67031 
L 105.910406 249.134276 
L 106.448984 249.162207 
L 106.987561 248.822379 
L 107.526139 248.841 
L 108.603294 248.206345 
L 109.141871 248.626862 
L 109.680449 247.992207 
L 110.219026 247.806 
L 110.757604 248.107034 
L 111.296181 247.45531 
L 111.834759 247.009966 
L 112.911914 245.327897 
L 113.450492 245.351172 
L 113.989069 244.579966 
L 114.527647 243.484448 
L 115.066224 242.75219 
L 116.681957 239.023707 
L 118.836267 232.817897 
L 119.374845 230.667828 
L 119.913422 229.052064 
L 120.452 227.93864 
L 121.529155 224.278448 
L 122.067732 223.119776 
L 122.60631 222.443845 
L 123.144887 221.003224 
L 123.683465 220.731362 
L 124.222043 219.547707 
L 124.76062 219.437224 
L 125.299198 218.317345 
L 125.837775 218.303069 
L 126.376353 217.647 
L 127.453508 217.045241 
L 127.992085 216.890534 
L 128.530663 217.163638 
L 129.069241 215.484052 
L 129.607818 215.835983 
L 130.146396 216.741724 
L 130.684973 216.418034 
L 131.223551 216.35069 
L 131.762128 216.488483 
L 132.300706 215.69431 
L 132.839283 215.263862 
L 133.377861 216.127086 
L 133.916438 215.733724 
L 134.455016 215.527345 
L 134.993594 216.357052 
L 136.070749 215.287603 
L 137.147904 216.560793 
L 137.686481 215.683293 
L 138.225059 215.628828 
L 138.763636 216.18031 
L 139.302214 215.971759 
L 139.840791 215.615948 
L 140.379369 215.523466 
L 140.917947 215.808517 
L 141.456524 215.390793 
L 141.995102 215.696793 
L 142.533679 216.608897 
L 143.072257 215.992397 
L 143.610834 215.608966 
L 144.149412 216.29219 
L 145.226567 215.934052 
L 145.765144 216.291259 
L 146.8423 215.688724 
L 147.919455 216.731638 
L 148.99661 215.347345 
L 149.535187 216.063 
L 150.073765 215.622466 
L 151.15092 216.537052 
L 151.689497 215.64869 
L 152.228075 216.04019 
L 152.766653 215.303121 
L 153.30523 215.020241 
L 153.843808 215.649466 
L 154.382385 215.209241 
L 154.920963 215.632241 
L 155.45954 216.390259 
L 155.998118 215.858793 
L 156.536695 215.531845 
L 157.075273 215.377914 
L 157.613851 215.455034 
L 158.152428 215.848552 
L 159.229583 215.560241 
L 159.768161 216.263483 
L 160.306738 215.474741 
L 160.845316 215.769724 
L 161.383893 216.54419 
L 161.922471 215.994569 
L 162.461048 214.863517 
L 162.999626 215.860345 
L 163.538204 216.396621 
L 164.076781 214.973534 
L 165.153936 216.137638 
L 165.692514 215.917914 
L 166.231091 215.214672 
L 166.769669 215.153845 
L 167.308246 215.246793 
L 167.846824 216.080069 
L 168.385401 215.018845 
L 168.923979 216.056172 
L 170.001134 216.54931 
L 170.539712 215.818138 
L 171.616867 215.161293 
L 172.155444 214.237552 
L 172.694022 213.939931 
L 173.232599 213.074379 
L 173.771177 211.033241 
L 174.848332 208.730483 
L 175.38691 209.050138 
L 175.925487 210.305483 
L 176.464065 210.570828 
L 177.002642 213.215586 
L 177.54122 214.389155 
L 178.079797 216.342776 
L 178.618375 217.326259 
L 179.69553 219.940603 
L 180.234107 221.147379 
L 180.772685 223.030397 
L 181.311263 223.64519 
L 181.84984 222.677224 
L 182.388418 221.952414 
L 182.926995 218.583621 
L 183.465573 216.652034 
L 184.00415 216.523241 
L 185.081305 215.2125 
L 185.619883 215.731862 
L 186.158461 215.46419 
L 186.697038 215.793466 
L 187.235616 215.524552 
L 187.774193 216.015207 
L 188.312771 216.339983 
L 188.851348 215.290397 
L 189.389926 216.149741 
L 189.928503 215.687948 
L 190.467081 215.700207 
L 191.005658 216.241914 
L 191.544236 215.771897 
L 192.082814 215.828534 
L 192.621391 215.406155 
L 193.159969 215.575914 
L 193.698546 215.904414 
L 194.237124 216.468621 
L 194.775701 216.417414 
L 195.314279 216.683069 
L 195.852856 215.584448 
L 196.391434 216.356897 
L 198.007167 215.198379 
L 198.545744 216.243466 
L 199.084322 215.91869 
L 199.622899 214.911621 
L 200.161477 215.469621 
L 200.700054 216.497483 
L 201.238632 215.477224 
L 201.777209 215.710603 
L 202.315787 215.672897 
L 202.854364 215.837069 
L 203.392942 216.604862 
L 204.470097 215.738534 
L 205.008675 216.109552 
L 206.08583 215.789897 
L 206.624407 215.588638 
L 207.162985 215.677241 
L 207.701562 216.11731 
L 208.778718 215.413603 
L 209.317295 216.046241 
L 209.855873 215.369069 
L 210.933028 216.197845 
L 211.471605 216.402517 
L 212.010183 215.174483 
L 212.54876 215.074397 
L 212.54876 215.074397 
" style="fill:none;stroke:#ff0000;stroke-linecap:square;stroke-width:1.5;"/>
   </g>
   <g id="patch_18">
    <path d="M 57.6 252.526345 
L 57.6 206.644966 
" style="fill:none;stroke:#000000;stroke-linecap:square;stroke-linejoin:miter;stroke-width:0.8;"/>
   </g>
   <g id="patch_19">
    <path d="M 219.927273 252.526345 
L 219.927273 206.644966 
" style="fill:none;stroke:#000000;stroke-linecap:square;stroke-linejoin:miter;stroke-width:0.8;"/>
   </g>
   <g id="patch_20">
    <path d="M 57.6 252.526345 
L 219.927273 252.526345 
" style="fill:none;stroke:#000000;stroke-linecap:square;stroke-linejoin:miter;stroke-width:0.8;"/>
   </g>
   <g id="patch_21">
    <path d="M 57.6 206.644966 
L 219.927273 206.644966 
" style="fill:none;stroke:#000000;stroke-linecap:square;stroke-linejoin:miter;stroke-width:0.8;"/>
   </g>
  </g>
  <g id="axes_5">
   <g id="patch_22">
    <path d="M 57.6 307.584 
L 219.927273 307.584 
L 219.927273 261.702621 
L 57.6 261.702621 
z
" style="fill:#ffffff;"/>
   </g>
   <g id="matplotlib.axis_9"/>
   <g id="matplotlib.axis_10">
    <g id="ytick_13">
     <g id="line2d_17">
      <g>
       <use style="stroke:#000000;stroke-width:0.8;" x="57.6" xlink:href="#mc74886f1f3" y="298.573268"/>
      </g>
     </g>
     <g id="text_13">
      <!-- −1 -->
      <g transform="translate(35.857813 302.372487)scale(0.1 -0.1)">
       <use xlink:href="#DejaVuSans-8722"/>
       <use x="83.789062" xlink:href="#DejaVuSans-49"/>
      </g>
     </g>
    </g>
    <g id="ytick_14">
     <g id="line2d_18">
      <g>
       <use style="stroke:#000000;stroke-width:0.8;" x="57.6" xlink:href="#mc74886f1f3" y="282.97945"/>
      </g>
     </g>
     <g id="text_14">
      <!-- 0 -->
      <g transform="translate(44.2375 286.778669)scale(0.1 -0.1)">
       <use xlink:href="#DejaVuSans-48"/>
      </g>
     </g>
    </g>
    <g id="ytick_15">
     <g id="line2d_19">
      <g>
       <use style="stroke:#000000;stroke-width:0.8;" x="57.6" xlink:href="#mc74886f1f3" y="267.385632"/>
      </g>
     </g>
     <g id="text_15">
      <!-- 1 -->
      <g transform="translate(44.2375 271.184851)scale(0.1 -0.1)">
       <use xlink:href="#DejaVuSans-49"/>
      </g>
     </g>
    </g>
   </g>
   <g id="line2d_20">
    <path clip-path="url(#pe71f51ea87)" d="M 64.978512 303.981204 
L 65.51709 303.625665 
L 66.055667 305.172572 
L 66.594245 303.572646 
L 67.132823 304.918393 
L 67.6714 304.352337 
L 68.209978 304.561294 
L 68.748555 304.3461 
L 69.287133 304.653298 
L 69.82571 304.158974 
L 70.364288 304.187043 
L 70.902865 304.862255 
L 71.441443 304.765573 
L 71.980021 303.594478 
L 72.518598 304.657976 
L 73.057176 304.199518 
L 73.595753 304.302437 
L 74.134331 303.932863 
L 74.672908 304.731267 
L 75.211486 305.061856 
L 75.750063 304.350778 
L 76.288641 305.498483 
L 76.827218 304.488003 
L 77.904374 305.072772 
L 78.442951 304.555057 
L 78.981529 304.385084 
L 79.520106 305.390885 
L 80.058684 304.559735 
L 80.597261 304.466172 
L 81.135839 305.110197 
L 81.674416 304.21979 
L 82.212994 304.505157 
L 83.290149 304.829508 
L 83.828727 304.372609 
L 84.367304 304.734386 
L 84.905882 304.311793 
L 85.983037 304.516072 
L 86.521614 304.97453 
L 87.598769 304.081005 
L 88.137347 303.756653 
L 88.675924 304.639263 
L 89.214502 303.670887 
L 89.75308 304.318031 
L 90.291657 304.760895 
L 90.830235 303.762891 
L 91.368812 304.679807 
L 91.90739 304.923071 
L 92.445967 303.962492 
L 92.984545 304.553497 
L 93.523122 304.101277 
L 94.0617 304.339862 
L 94.600277 304.840424 
L 95.138855 304.158974 
L 96.21601 304.753098 
L 96.754588 303.744178 
L 97.293165 304.84978 
L 97.831743 304.653298 
L 98.37032 305.153859 
L 99.447475 304.027986 
L 99.986053 304.631466 
L 100.524631 305.055618 
L 101.063208 304.606516 
L 101.601786 304.862255 
L 102.678941 304.481766 
L 103.217518 304.670451 
L 103.756096 304.21823 
L 104.294673 304.729708 
L 104.833251 304.109074 
L 105.371828 304.007714 
L 105.910406 304.601838 
L 106.448984 303.015947 
L 106.987561 304.157414 
L 107.526139 304.548819 
L 108.064716 303.985882 
L 108.603294 302.811668 
L 109.141871 303.407352 
L 109.680449 302.727461 
L 110.219026 303.402674 
L 110.757604 301.89787 
L 111.296181 301.673319 
L 111.834759 301.858886 
L 112.911914 300.020374 
L 113.450492 298.624728 
L 113.989069 298.184826 
L 114.527647 297.021527 
L 115.604802 293.846782 
L 117.220534 291.119267 
L 117.759112 289.545695 
L 118.29769 288.331092 
L 118.836267 285.811911 
L 119.374845 284.22379 
L 119.913422 283.198949 
L 120.452 281.638538 
L 120.990577 279.479729 
L 121.529155 277.943426 
L 122.067732 277.997537 
L 122.60631 276.221713 
L 123.144887 274.942864 
L 123.683465 274.200442 
L 124.222043 274.528848 
L 124.76062 273.704403 
L 125.299198 273.431355 
L 125.837775 272.884324 
L 126.376353 271.79416 
L 126.91493 272.098551 
L 127.453508 271.399792 
L 127.992085 272.093561 
L 128.530663 271.707303 
L 129.069241 271.492576 
L 129.607818 271.858563 
L 130.146396 271.443923 
L 130.684973 271.39028 
L 131.223551 270.469777 
L 131.762128 271.777319 
L 132.839283 270.682945 
L 133.377861 271.304358 
L 133.916438 271.289076 
L 134.455016 269.677143 
L 134.993594 270.082427 
L 136.070749 271.296094 
L 136.609326 270.801925 
L 137.147904 271.473239 
L 137.686481 270.980319 
L 138.225059 271.194266 
L 138.763636 270.036113 
L 139.302214 270.9457 
L 139.840791 271.047684 
L 140.379369 270.705088 
L 140.917947 271.666915 
L 141.456524 270.152131 
L 141.995102 271.037548 
L 142.533679 270.805356 
L 143.072257 270.021143 
L 143.610834 271.397453 
L 144.149412 271.335546 
L 144.687989 269.934441 
L 145.226567 270.787111 
L 145.765144 270.569266 
L 146.303722 271.113958 
L 146.8423 271.344278 
L 147.380877 270.216222 
L 147.919455 271.871038 
L 148.458032 270.456678 
L 148.99661 270.097553 
L 149.535187 270.914513 
L 150.073765 270.165074 
L 150.612342 270.327094 
L 151.15092 270.293099 
L 151.689497 270.840442 
L 152.228075 271.030843 
L 152.766653 271.405406 
L 154.382385 270.917943 
L 154.920963 270.831554 
L 155.45954 270.106753 
L 155.998118 271.016029 
L 156.536695 270.681385 
L 157.075273 270.479289 
L 157.613851 270.61324 
L 158.691006 271.240268 
L 159.229583 270.353447 
L 159.768161 269.997284 
L 160.306738 270.950379 
L 160.845316 270.92231 
L 161.383893 271.287205 
L 161.922471 270.710078 
L 162.461048 270.867887 
L 162.999626 270.044534 
L 163.538204 271.085889 
L 164.076781 270.556947 
L 164.615359 271.114114 
L 165.153936 270.308849 
L 165.692514 270.456834 
L 166.769669 271.080275 
L 167.308246 270.942114 
L 167.846824 270.605755 
L 168.385401 270.078996 
L 168.923979 270.031903 
L 169.462557 269.60011 
L 170.001134 269.395831 
L 170.539712 267.016058 
L 171.078289 265.866794 
L 171.616867 263.788138 
L 172.155444 263.992417 
L 172.694022 264.031401 
L 173.232599 265.676549 
L 173.771177 268.121348 
L 174.309754 269.086294 
L 174.848332 270.46697 
L 175.925487 274.793475 
L 176.464065 275.910148 
L 177.002642 277.648079 
L 177.54122 278.641406 
L 178.079797 277.729791 
L 178.618375 276.1531 
L 179.156952 273.487961 
L 179.69553 272.743668 
L 180.234107 271.051115 
L 180.772685 271.185533 
L 181.311263 271.49741 
L 182.388418 271.016808 
L 182.926995 271.030063 
L 183.465573 271.204558 
L 184.542728 270.635072 
L 185.081305 271.211731 
L 186.158461 270.788827 
L 186.697038 270.358905 
L 187.235616 270.735496 
L 187.774193 270.551645 
L 188.312771 271.090879 
L 188.851348 270.777599 
L 189.389926 270.695732 
L 190.467081 270.906248 
L 191.005658 270.165854 
L 191.544236 270.031279 
L 192.082814 271.001526 
L 192.621391 271.433163 
L 193.159969 270.951782 
L 194.237124 271.641185 
L 194.775701 270.369977 
L 195.314279 270.242263 
L 195.852856 271.133606 
L 196.930011 270.774013 
L 197.468589 270.329121 
L 198.007167 271.568518 
L 198.545744 271.380612 
L 199.084322 270.402412 
L 199.622899 270.771362 
L 200.161477 271.506142 
L 200.700054 270.12453 
L 201.238632 270.694796 
L 201.777209 271.081211 
L 202.315787 270.152599 
L 202.854364 270.949911 
L 203.392942 270.90734 
L 203.93152 270.405842 
L 204.470097 270.404751 
L 205.008675 270.919503 
L 205.547252 271.039107 
L 206.08583 270.633044 
L 206.624407 271.176177 
L 207.162985 271.113178 
L 207.701562 271.467002 
L 208.778718 271.28471 
L 209.317295 270.576595 
L 209.855873 270.851202 
L 210.39445 270.508918 
L 210.933028 271.214382 
L 211.471605 270.870226 
L 212.010183 270.717251 
L 212.54876 271.834236 
L 212.54876 271.834236 
" style="fill:none;stroke:#ff0000;stroke-linecap:square;stroke-width:1.5;"/>
   </g>
   <g id="patch_23">
    <path d="M 57.6 307.584 
L 57.6 261.702621 
" style="fill:none;stroke:#000000;stroke-linecap:square;stroke-linejoin:miter;stroke-width:0.8;"/>
   </g>
   <g id="patch_24">
    <path d="M 219.927273 307.584 
L 219.927273 261.702621 
" style="fill:none;stroke:#000000;stroke-linecap:square;stroke-linejoin:miter;stroke-width:0.8;"/>
   </g>
   <g id="patch_25">
    <path d="M 57.6 307.584 
L 219.927273 307.584 
" style="fill:none;stroke:#000000;stroke-linecap:square;stroke-linejoin:miter;stroke-width:0.8;"/>
   </g>
   <g id="patch_26">
    <path d="M 57.6 261.702621 
L 219.927273 261.702621 
" style="fill:none;stroke:#000000;stroke-linecap:square;stroke-linejoin:miter;stroke-width:0.8;"/>
   </g>
  </g>
  <g id="axes_6">
   <g id="patch_27">
    <path d="M 252.392727 87.353379 
L 414.72 87.353379 
L 414.72 41.472 
L 252.392727 41.472 
z
" style="fill:#ffffff;"/>
   </g>
   <g id="matplotlib.axis_11"/>
   <g id="matplotlib.axis_12">
    <g id="ytick_16">
     <g id="line2d_21">
      <g>
       <use style="stroke:#000000;stroke-width:0.8;" x="252.392727" xlink:href="#mc74886f1f3" y="71.312164"/>
      </g>
     </g>
     <g id="text_16">
      <!-- 0.0 -->
      <g transform="translate(229.489602 75.111383)scale(0.1 -0.1)">
       <defs>
        <path d="M 10.6875 12.40625 
L 21 12.40625 
L 21 0 
L 10.6875 0 
z
" id="DejaVuSans-46"/>
       </defs>
       <use xlink:href="#DejaVuSans-48"/>
       <use x="63.623047" xlink:href="#DejaVuSans-46"/>
       <use x="95.410156" xlink:href="#DejaVuSans-48"/>
      </g>
     </g>
    </g>
    <g id="ytick_17">
     <g id="line2d_22">
      <g>
       <use style="stroke:#000000;stroke-width:0.8;" x="252.392727" xlink:href="#mc74886f1f3" y="53.336357"/>
      </g>
     </g>
     <g id="text_17">
      <!-- 2.5 -->
      <g transform="translate(229.489602 57.135575)scale(0.1 -0.1)">
       <defs>
        <path d="M 19.1875 8.296875 
L 53.609375 8.296875 
L 53.609375 0 
L 7.328125 0 
L 7.328125 8.296875 
Q 12.9375 14.109375 22.625 23.890625 
Q 32.328125 33.6875 34.8125 36.53125 
Q 39.546875 41.84375 41.421875 45.53125 
Q 43.3125 49.21875 43.3125 52.78125 
Q 43.3125 58.59375 39.234375 62.25 
Q 35.15625 65.921875 28.609375 65.921875 
Q 23.96875 65.921875 18.8125 64.3125 
Q 13.671875 62.703125 7.8125 59.421875 
L 7.8125 69.390625 
Q 13.765625 71.78125 18.9375 73 
Q 24.125 74.21875 28.421875 74.21875 
Q 39.75 74.21875 46.484375 68.546875 
Q 53.21875 62.890625 53.21875 53.421875 
Q 53.21875 48.921875 51.53125 44.890625 
Q 49.859375 40.875 45.40625 35.40625 
Q 44.1875 33.984375 37.640625 27.21875 
Q 31.109375 20.453125 19.1875 8.296875 
z
" id="DejaVuSans-50"/>
        <path d="M 10.796875 72.90625 
L 49.515625 72.90625 
L 49.515625 64.59375 
L 19.828125 64.59375 
L 19.828125 46.734375 
Q 21.96875 47.46875 24.109375 47.828125 
Q 26.265625 48.1875 28.421875 48.1875 
Q 40.625 48.1875 47.75 41.5 
Q 54.890625 34.8125 54.890625 23.390625 
Q 54.890625 11.625 47.5625 5.09375 
Q 40.234375 -1.421875 26.90625 -1.421875 
Q 22.3125 -1.421875 17.546875 -0.640625 
Q 12.796875 0.140625 7.71875 1.703125 
L 7.71875 11.625 
Q 12.109375 9.234375 16.796875 8.0625 
Q 21.484375 6.890625 26.703125 6.890625 
Q 35.15625 6.890625 40.078125 11.328125 
Q 45.015625 15.765625 45.015625 23.390625 
Q 45.015625 31 40.078125 35.4375 
Q 35.15625 39.890625 26.703125 39.890625 
Q 22.75 39.890625 18.8125 39.015625 
Q 14.890625 38.140625 10.796875 36.28125 
z
" id="DejaVuSans-53"/>
       </defs>
       <use xlink:href="#DejaVuSans-50"/>
       <use x="63.623047" xlink:href="#DejaVuSans-46"/>
       <use x="95.410156" xlink:href="#DejaVuSans-53"/>
      </g>
     </g>
    </g>
   </g>
   <g id="line2d_23">
    <path clip-path="url(#pd79559cd0e)" d="M 259.77124 67.255312 
L 260.309817 67.392575 
L 260.848395 67.41465 
L 261.386972 67.262862 
L 261.92555 66.852726 
L 262.464127 67.127612 
L 263.002705 67.008037 
L 263.541282 67.151987 
L 264.07986 66.910176 
L 264.618438 66.838705 
L 265.157015 66.62508 
L 265.695593 66.912549 
L 266.23417 66.264485 
L 266.772748 66.917079 
L 267.849903 67.07994 
L 268.927058 67.297807 
L 269.465636 67.018463 
L 271.081368 66.981433 
L 271.619946 66.778162 
L 272.158523 67.00099 
L 273.235678 66.75767 
L 273.774256 67.372155 
L 275.389989 66.900541 
L 275.928566 67.054055 
L 276.467144 66.638454 
L 277.005721 67.061964 
L 277.544299 66.667287 
L 278.082876 66.771044 
L 278.621454 67.380855 
L 279.160031 66.799733 
L 279.698609 66.897953 
L 280.237186 67.40825 
L 280.775764 66.940592 
L 281.314342 66.726895 
L 282.391497 67.065056 
L 282.930074 66.76939 
L 284.007229 67.190527 
L 284.545807 67.19743 
L 285.084384 66.885082 
L 285.622962 67.294499 
L 286.161539 66.775142 
L 286.700117 67.014364 
L 287.238695 67.044707 
L 287.777272 67.407459 
L 288.31585 66.77356 
L 288.854427 66.521036 
L 289.393005 66.630185 
L 289.931582 67.042766 
L 290.47016 66.930166 
L 291.008737 67.054918 
L 291.547315 66.883644 
L 292.085893 67.021411 
L 293.163048 66.737537 
L 293.701625 67.265738 
L 294.240203 67.110067 
L 294.77878 66.796354 
L 295.317358 66.851 
L 295.855935 67.114525 
L 296.394513 66.750695 
L 296.93309 66.737609 
L 297.471668 66.574101 
L 298.010246 67.523367 
L 298.548823 66.936493 
L 299.087401 67.257972 
L 299.625978 66.946416 
L 300.164556 67.063474 
L 300.703133 66.726895 
L 301.241711 67.12869 
L 301.780288 66.56461 
L 302.318866 66.670163 
L 302.857443 66.643056 
L 303.396021 67.116898 
L 303.934599 66.449996 
L 305.011754 66.954613 
L 305.550331 66.667431 
L 306.088909 67.213105 
L 306.627486 66.251543 
L 307.166064 64.125436 
L 308.243219 46.216499 
L 308.781796 43.557517 
L 309.320374 44.123396 
L 309.858952 48.232665 
L 310.936107 79.686733 
L 311.474684 84.552425 
L 312.013262 84.42947 
L 312.551839 84.541639 
L 313.090417 85.151379 
L 313.628994 85.267862 
L 315.244727 84.672503 
L 315.783305 84.868799 
L 316.321882 84.387047 
L 316.86046 84.750878 
L 317.399037 84.361162 
L 317.937615 84.622171 
L 318.476192 84.654528 
L 319.01477 84.475488 
L 319.553347 84.000208 
L 320.091925 84.240365 
L 320.630503 84.744407 
L 321.16908 84.044788 
L 322.246235 84.13251 
L 322.784813 83.879411 
L 323.32339 84.224546 
L 323.861968 84.204413 
L 324.400545 83.644287 
L 324.939123 83.634221 
L 325.4777 83.501919 
L 326.016278 83.551532 
L 327.093433 83.14456 
L 327.632011 83.092789 
L 328.170588 82.782167 
L 328.709166 82.819557 
L 329.247743 82.715297 
L 330.324898 82.939635 
L 330.863476 82.268059 
L 331.402053 82.446379 
L 333.556364 81.672701 
L 334.094941 81.825854 
L 335.172096 81.152121 
L 335.710674 80.494926 
L 336.249251 81.278671 
L 336.787829 80.671808 
L 337.326406 80.479826 
L 337.864984 80.410799 
L 338.942139 79.682419 
L 339.480717 79.805374 
L 340.019294 79.336565 
L 340.557872 79.450891 
L 341.096449 78.741206 
L 341.635027 78.87926 
L 342.173604 78.810233 
L 342.712182 78.211063 
L 343.789337 77.729887 
L 344.327915 77.665102 
L 344.866492 77.378496 
L 345.40507 77.367495 
L 345.943647 77.172062 
L 346.482225 77.105048 
L 347.55938 75.765994 
L 348.097957 75.97099 
L 349.175113 75.30948 
L 349.71369 76.021107 
L 350.252268 75.295244 
L 350.790845 75.188467 
L 351.329423 75.30265 
L 351.868 74.35252 
L 352.406578 74.57089 
L 353.483733 73.858761 
L 354.02231 73.333148 
L 354.560888 73.783119 
L 355.099466 73.24895 
L 355.638043 73.46883 
L 356.176621 72.881812 
L 356.715198 73.140448 
L 357.253776 72.988085 
L 357.792353 71.993785 
L 358.330931 72.060749 
L 360.485241 71.243096 
L 361.562396 71.621219 
L 362.100974 70.751714 
L 363.178129 70.60872 
L 363.716706 70.060976 
L 364.255284 70.296028 
L 364.793861 70.35506 
L 365.332439 70.156607 
L 365.871016 69.593605 
L 366.409594 69.848502 
L 366.948172 69.865615 
L 367.486749 69.557797 
L 368.025327 69.640989 
L 368.563904 69.461015 
L 369.102482 69.052677 
L 369.641059 69.503007 
L 371.256792 68.729256 
L 371.795369 69.383863 
L 372.872525 68.59832 
L 373.411102 68.85861 
L 373.94968 67.971468 
L 374.488257 68.349967 
L 375.026835 68.022519 
L 375.565412 68.69956 
L 376.10399 68.188113 
L 377.181145 68.522463 
L 377.719723 68.097514 
L 378.2583 68.000373 
L 378.796878 68.107725 
L 379.335455 67.901938 
L 379.874033 67.879072 
L 380.41261 68.04143 
L 380.951188 68.064151 
L 381.489765 67.581681 
L 382.028343 67.420689 
L 382.56692 68.024892 
L 383.105498 67.809039 
L 383.644076 67.8767 
L 384.721231 67.827374 
L 385.259808 67.54084 
L 385.798386 67.810045 
L 386.336963 67.324914 
L 386.875541 67.710747 
L 387.952696 67.217275 
L 389.029851 67.627914 
L 389.568429 67.291767 
L 390.107006 67.440103 
L 390.645584 67.744542 
L 391.184161 67.260777 
L 393.338471 67.418173 
L 393.877049 66.998761 
L 394.415626 66.932466 
L 396.031359 67.591172 
L 396.569937 67.293708 
L 398.185669 67.085333 
L 398.724247 67.228204 
L 399.262824 67.094824 
L 399.801402 67.572333 
L 400.339979 66.893279 
L 400.878557 67.074907 
L 401.417135 67.432553 
L 401.955712 67.169531 
L 402.49429 67.224034 
L 403.032867 67.159393 
L 403.571445 66.848124 
L 404.110022 67.567228 
L 405.187177 66.808649 
L 405.725755 67.49439 
L 406.264333 67.204117 
L 407.341488 67.06369 
L 407.341488 67.06369 
" style="fill:none;stroke:#000000;stroke-linecap:square;stroke-width:1.5;"/>
   </g>
   <g id="patch_28">
    <path d="M 252.392727 87.353379 
L 252.392727 41.472 
" style="fill:none;stroke:#000000;stroke-linecap:square;stroke-linejoin:miter;stroke-width:0.8;"/>
   </g>
   <g id="patch_29">
    <path d="M 414.72 87.353379 
L 414.72 41.472 
" style="fill:none;stroke:#000000;stroke-linecap:square;stroke-linejoin:miter;stroke-width:0.8;"/>
   </g>
   <g id="patch_30">
    <path d="M 252.392727 87.353379 
L 414.72 87.353379 
" style="fill:none;stroke:#000000;stroke-linecap:square;stroke-linejoin:miter;stroke-width:0.8;"/>
   </g>
   <g id="patch_31">
    <path d="M 252.392727 41.472 
L 414.72 41.472 
" style="fill:none;stroke:#000000;stroke-linecap:square;stroke-linejoin:miter;stroke-width:0.8;"/>
   </g>
  </g>
  <g id="axes_7">
   <g id="patch_32">
    <path d="M 252.392727 142.411034 
L 414.72 142.411034 
L 414.72 96.529655 
L 252.392727 96.529655 
z
" style="fill:#ffffff;"/>
   </g>
   <g id="matplotlib.axis_13"/>
   <g id="matplotlib.axis_14">
    <g id="ytick_18">
     <g id="line2d_24">
      <g>
       <use style="stroke:#000000;stroke-width:0.8;" x="252.392727" xlink:href="#mc74886f1f3" y="126.214796"/>
      </g>
     </g>
     <g id="text_18">
      <!-- 0.0 -->
      <g transform="translate(229.489602 130.014015)scale(0.1 -0.1)">
       <use xlink:href="#DejaVuSans-48"/>
       <use x="63.623047" xlink:href="#DejaVuSans-46"/>
       <use x="95.410156" xlink:href="#DejaVuSans-48"/>
      </g>
     </g>
    </g>
    <g id="ytick_19">
     <g id="line2d_25">
      <g>
       <use style="stroke:#000000;stroke-width:0.8;" x="252.392727" xlink:href="#mc74886f1f3" y="107.839547"/>
      </g>
     </g>
     <g id="text_19">
      <!-- 2.5 -->
      <g transform="translate(229.489602 111.638766)scale(0.1 -0.1)">
       <use xlink:href="#DejaVuSans-50"/>
       <use x="63.623047" xlink:href="#DejaVuSans-46"/>
       <use x="95.410156" xlink:href="#DejaVuSans-53"/>
      </g>
     </g>
    </g>
   </g>
   <g id="line2d_26">
    <path clip-path="url(#pd3c5b0284c)" d="M 259.77124 121.339108 
L 260.309817 121.823773 
L 260.848395 121.850748 
L 261.386972 122.266837 
L 261.92555 121.823994 
L 262.464127 121.548512 
L 263.002705 121.56652 
L 263.541282 122.052141 
L 265.157015 121.61481 
L 265.695593 121.805986 
L 266.772748 121.574899 
L 267.311325 121.406949 
L 267.849903 122.006791 
L 268.38848 121.561154 
L 268.927058 122.044423 
L 269.465636 121.573796 
L 270.004213 121.891174 
L 270.542791 121.478686 
L 271.081368 121.922779 
L 271.619946 121.465015 
L 272.697101 122.048613 
L 273.235678 121.421943 
L 273.774256 121.776439 
L 274.312833 121.771734 
L 275.389989 121.497649 
L 276.467144 121.892791 
L 277.005721 122.454191 
L 277.544299 121.868021 
L 278.082876 121.768574 
L 278.621454 121.906021 
L 279.698609 121.422458 
L 281.314342 121.871034 
L 281.852919 121.631715 
L 282.391497 121.997089 
L 282.930074 121.702497 
L 283.468652 121.135877 
L 284.007229 121.723297 
L 284.545807 121.828404 
L 285.084384 121.507719 
L 285.622962 122.01958 
L 286.161539 121.751007 
L 286.700117 121.608195 
L 287.238695 121.884485 
L 287.777272 121.749611 
L 288.31585 121.904771 
L 288.854427 121.338593 
L 289.393005 121.766663 
L 289.931582 121.440245 
L 290.47016 121.865081 
L 291.008737 121.641711 
L 291.547315 122.026048 
L 292.085893 122.156292 
L 293.701625 121.587541 
L 294.240203 121.817085 
L 294.77878 121.862141 
L 295.317358 121.55204 
L 296.394513 121.127572 
L 296.93309 121.818261 
L 297.471668 121.282071 
L 299.087401 121.697057 
L 299.625978 121.913812 
L 300.164556 121.502206 
L 300.703133 121.783274 
L 302.318866 121.055173 
L 302.857443 118.950546 
L 303.934599 100.156488 
L 304.473176 98.615172 
L 305.011754 98.631343 
L 305.550331 102.537921 
L 306.627486 134.884974 
L 307.166064 139.156851 
L 307.704641 139.865401 
L 308.243219 140.325517 
L 308.781796 140.323312 
L 309.320374 139.772055 
L 309.858952 139.994028 
L 310.936107 139.792635 
L 311.474684 140.042538 
L 312.551839 139.45747 
L 313.090417 140.023428 
L 314.167572 139.3972 
L 314.706149 139.731629 
L 315.244727 139.122306 
L 315.783305 139.580217 
L 316.86046 138.995884 
L 317.399037 139.39426 
L 317.937615 138.736426 
L 319.01477 138.997354 
L 319.553347 139.453795 
L 320.091925 138.896658 
L 321.16908 138.683505 
L 321.707658 138.732751 
L 322.246235 138.246174 
L 322.784813 138.371126 
L 323.32339 138.171203 
L 323.861968 138.214569 
L 324.400545 138.430662 
L 324.939123 137.675071 
L 325.4777 137.825748 
L 326.016278 137.486174 
L 326.554856 137.819133 
L 327.093433 137.328882 
L 327.632011 137.437663 
L 328.170588 137.007682 
L 328.709166 136.935651 
L 329.247743 137.034878 
L 329.786321 137.001802 
L 330.324898 136.493175 
L 330.863476 136.707798 
L 331.402053 136.280022 
L 331.940631 136.44246 
L 332.479209 135.449461 
L 333.017786 135.733175 
L 333.556364 135.457546 
L 334.094941 135.76331 
L 334.633519 135.314219 
L 335.172096 135.313484 
L 336.249251 134.342536 
L 337.326406 134.209499 
L 337.864984 133.728068 
L 338.403562 133.675147 
L 338.942139 133.190482 
L 339.480717 133.3563 
L 340.019294 133.048845 
L 340.557872 133.095812 
L 341.096449 132.396524 
L 341.635027 131.897526 
L 342.173604 131.754566 
L 342.712182 131.996752 
L 343.250759 131.6671 
L 343.789337 131.519951 
L 344.327915 131.148036 
L 344.866492 130.582078 
L 345.40507 130.376129 
L 345.943647 130.314167 
L 346.482225 129.49544 
L 347.020802 130.053533 
L 347.55938 129.24708 
L 348.097957 129.526016 
L 348.636535 128.764693 
L 349.175113 128.757122 
L 349.71369 129.115733 
L 350.790845 128.061362 
L 351.329423 128.200426 
L 351.868 128.127366 
L 352.406578 127.895102 
L 352.945155 127.536565 
L 353.483733 127.016766 
L 354.02231 127.246897 
L 354.560888 126.842803 
L 355.099466 126.929564 
L 355.638043 126.559119 
L 356.176621 126.713037 
L 356.715198 126.208926 
L 357.253776 126.341328 
L 357.792353 126.178771 
L 358.330931 125.811489 
L 358.869508 125.739215 
L 359.946663 125.049658 
L 360.485241 125.578814 
L 361.023819 124.673921 
L 361.562396 125.053113 
L 362.100974 124.873991 
L 362.639551 125.005337 
L 363.178129 124.544119 
L 363.716706 124.463267 
L 364.255284 124.054822 
L 365.871016 124.087604 
L 366.409594 123.736049 
L 366.948172 123.961844 
L 368.025327 123.659387 
L 368.563904 123.890842 
L 369.102482 123.119963 
L 369.641059 123.653286 
L 370.179637 123.681952 
L 370.718214 123.072114 
L 371.256792 123.508784 
L 371.795369 123.105337 
L 372.872525 123.097986 
L 373.411102 122.795015 
L 373.94968 122.654187 
L 374.488257 122.65235 
L 375.026835 122.862269 
L 376.10399 123.061383 
L 376.642567 122.238098 
L 377.181145 122.636327 
L 378.2583 122.523503 
L 379.335455 122.160775 
L 380.41261 122.410532 
L 380.951188 122.711151 
L 381.489765 122.859402 
L 382.028343 122.303955 
L 383.105498 122.508655 
L 383.644076 122.076617 
L 384.182653 122.310644 
L 385.798386 122.162686 
L 386.336963 122.340338 
L 386.875541 122.332915 
L 387.414118 122.49447 
L 389.029851 121.659204 
L 389.568429 122.332694 
L 390.645584 122.112412 
L 391.184161 122.084114 
L 391.722739 121.724914 
L 392.261316 122.126818 
L 392.799894 122.030678 
L 393.338471 122.073162 
L 394.954204 121.728295 
L 395.492782 122.087715 
L 396.031359 122.021491 
L 396.569937 121.705878 
L 397.647092 121.837665 
L 398.185669 122.04876 
L 398.724247 121.930423 
L 399.262824 122.174814 
L 399.801402 122.139313 
L 400.339979 122.32064 
L 401.417135 121.410624 
L 401.955712 122.02568 
L 402.49429 121.812748 
L 403.032867 121.909328 
L 403.571445 122.13211 
L 404.110022 121.476554 
L 404.6486 121.987239 
L 405.187177 122.089185 
L 405.725755 122.029355 
L 406.264333 121.804957 
L 406.80291 121.740276 
L 407.341488 122.084481 
L 407.341488 122.084481 
" style="fill:none;stroke:#ff0000;stroke-linecap:square;stroke-width:1.5;"/>
   </g>
   <g id="patch_33">
    <path d="M 252.392727 142.411034 
L 252.392727 96.529655 
" style="fill:none;stroke:#000000;stroke-linecap:square;stroke-linejoin:miter;stroke-width:0.8;"/>
   </g>
   <g id="patch_34">
    <path d="M 414.72 142.411034 
L 414.72 96.529655 
" style="fill:none;stroke:#000000;stroke-linecap:square;stroke-linejoin:miter;stroke-width:0.8;"/>
   </g>
   <g id="patch_35">
    <path d="M 252.392727 142.411034 
L 414.72 142.411034 
" style="fill:none;stroke:#000000;stroke-linecap:square;stroke-linejoin:miter;stroke-width:0.8;"/>
   </g>
   <g id="patch_36">
    <path d="M 252.392727 96.529655 
L 414.72 96.529655 
" style="fill:none;stroke:#000000;stroke-linecap:square;stroke-linejoin:miter;stroke-width:0.8;"/>
   </g>
  </g>
  <g id="axes_8">
   <g id="patch_37">
    <path d="M 252.392727 197.46869 
L 414.72 197.46869 
L 414.72 151.58731 
L 252.392727 151.58731 
z
" style="fill:#ffffff;"/>
   </g>
   <g id="matplotlib.axis_15"/>
   <g id="matplotlib.axis_16">
    <g id="ytick_20">
     <g id="line2d_27">
      <g>
       <use style="stroke:#000000;stroke-width:0.8;" x="252.392727" xlink:href="#mc74886f1f3" y="181.299915"/>
      </g>
     </g>
     <g id="text_20">
      <!-- 0.0 -->
      <g transform="translate(229.489602 185.099134)scale(0.1 -0.1)">
       <use xlink:href="#DejaVuSans-48"/>
       <use x="63.623047" xlink:href="#DejaVuSans-46"/>
       <use x="95.410156" xlink:href="#DejaVuSans-48"/>
      </g>
     </g>
    </g>
    <g id="ytick_21">
     <g id="line2d_28">
      <g>
       <use style="stroke:#000000;stroke-width:0.8;" x="252.392727" xlink:href="#mc74886f1f3" y="163.342991"/>
      </g>
     </g>
     <g id="text_21">
      <!-- 2.5 -->
      <g transform="translate(229.489602 167.142209)scale(0.1 -0.1)">
       <use xlink:href="#DejaVuSans-50"/>
       <use x="63.623047" xlink:href="#DejaVuSans-46"/>
       <use x="95.410156" xlink:href="#DejaVuSans-53"/>
      </g>
     </g>
    </g>
   </g>
   <g id="line2d_29">
    <path clip-path="url(#pebd012f366)" d="M 259.77124 177.1092 
L 260.309817 176.792296 
L 260.848395 176.928554 
L 261.386972 177.376471 
L 261.92555 176.973877 
L 262.464127 177.192233 
L 263.002705 177.156319 
L 263.541282 176.720541 
L 264.07986 176.959727 
L 264.618438 176.798833 
L 265.157015 176.934443 
L 265.695593 177.661986 
L 266.23417 176.764858 
L 266.772748 177.053965 
L 267.849903 177.122345 
L 268.38848 177.36541 
L 268.927058 176.770676 
L 269.465636 176.988171 
L 270.004213 177.058059 
L 270.542791 176.848178 
L 271.081368 177.138506 
L 271.619946 176.868362 
L 272.158523 177.13082 
L 273.235678 177.092177 
L 273.774256 177.320805 
L 274.312833 176.482432 
L 274.851411 176.810612 
L 275.389989 176.738354 
L 275.928566 176.946079 
L 277.005721 176.79007 
L 277.544299 177.070557 
L 278.082876 176.913757 
L 279.698609 177.077524 
L 280.775764 176.643182 
L 281.314342 177.342281 
L 282.391497 176.540181 
L 282.930074 177.068761 
L 283.468652 176.846957 
L 284.007229 176.765289 
L 284.545807 177.005768 
L 285.084384 176.758681 
L 285.622962 177.200924 
L 286.700117 176.862472 
L 287.777272 177.296886 
L 288.31585 177.390908 
L 291.008737 176.418721 
L 291.547315 176.922017 
L 292.085893 176.553828 
L 292.62447 176.750924 
L 293.163048 177.213925 
L 293.701625 176.976606 
L 295.317358 176.903198 
L 295.855935 177.22865 
L 296.394513 176.68082 
L 297.471668 176.530772 
L 298.010246 176.601091 
L 298.548823 176.27722 
L 299.087401 176.997436 
L 299.625978 176.493134 
L 300.164556 176.814635 
L 301.241711 176.781019 
L 302.318866 176.797037 
L 302.857443 176.427914 
L 303.396021 176.840924 
L 303.934599 176.36722 
L 304.473176 176.274275 
L 305.011754 173.972772 
L 306.088909 156.198289 
L 306.627486 153.672828 
L 307.166064 154.170594 
L 307.704641 158.313615 
L 308.781796 190.052839 
L 309.320374 194.123315 
L 309.858952 195.383172 
L 310.397529 194.841592 
L 310.936107 194.647657 
L 312.013262 194.678543 
L 312.551839 195.084369 
L 313.090417 194.589476 
L 314.167572 194.4214 
L 314.706149 194.759708 
L 317.937615 194.28349 
L 319.01477 193.943745 
L 319.553347 194.155637 
L 320.630503 193.597536 
L 321.16908 193.703841 
L 321.707658 193.978941 
L 322.246235 193.537201 
L 324.939123 193.150768 
L 325.4777 193.191709 
L 326.016278 192.811023 
L 326.554856 192.811023 
L 327.093433 192.404478 
L 327.632011 192.342706 
L 328.170588 192.816769 
L 328.709166 192.320439 
L 329.247743 191.977821 
L 329.786321 192.268723 
L 330.863476 191.421875 
L 331.402053 191.64885 
L 331.940631 191.357948 
L 332.479209 191.448451 
L 333.556364 190.938474 
L 334.094941 190.86521 
L 334.633519 191.130254 
L 335.172096 190.343023 
L 335.710674 190.080852 
L 338.942139 189.421473 
L 340.019294 188.416819 
L 340.557872 188.314393 
L 341.096449 188.420411 
L 341.635027 187.9378 
L 342.173604 188.400514 
L 342.712182 187.324105 
L 343.250759 186.919643 
L 343.789337 187.433355 
L 344.866492 186.841063 
L 345.40507 186.795525 
L 345.943647 186.361901 
L 346.482225 186.221765 
L 347.020802 185.788931 
L 347.55938 185.906298 
L 348.097957 185.857886 
L 348.636535 184.859912 
L 349.175113 184.830103 
L 349.71369 185.141764 
L 350.252268 184.339089 
L 350.790845 184.30691 
L 351.329423 183.800453 
L 352.945155 183.576207 
L 353.483733 183.407556 
L 354.02231 183.073844 
L 354.560888 183.045903 
L 355.099466 182.383077 
L 355.638043 182.598848 
L 356.176621 182.194745 
L 356.715198 182.238129 
L 357.253776 182.590228 
L 357.792353 181.720194 
L 358.330931 181.631745 
L 358.869508 181.66995 
L 359.408086 181.391158 
L 359.946663 181.341463 
L 361.023819 180.712092 
L 362.100974 180.371255 
L 362.639551 179.988054 
L 363.178129 180.256905 
L 363.716706 179.914646 
L 364.793861 180.324208 
L 365.332439 179.692986 
L 365.871016 179.803888 
L 366.409594 179.424782 
L 367.486749 179.703832 
L 368.025327 179.218708 
L 369.102482 178.876593 
L 369.641059 179.092291 
L 370.179637 178.952012 
L 370.718214 179.098899 
L 371.256792 178.404541 
L 371.795369 178.386297 
L 372.333947 178.559042 
L 372.872525 178.330271 
L 374.488257 178.162841 
L 375.565412 178.084261 
L 376.10399 178.222745 
L 377.181145 177.534564 
L 377.719723 177.548498 
L 378.2583 178.116655 
L 378.796878 178.027948 
L 379.335455 178.218651 
L 379.874033 177.577014 
L 380.41261 178.055386 
L 380.951188 177.643886 
L 381.489765 177.658826 
L 382.028343 177.99146 
L 382.56692 177.228578 
L 383.105498 177.453399 
L 383.644076 177.330286 
L 384.182653 177.819002 
L 384.721231 177.250701 
L 385.259808 177.321164 
L 385.798386 177.067612 
L 386.336963 177.656671 
L 386.875541 177.471715 
L 387.414118 177.083773 
L 387.952696 177.916328 
L 388.491273 177.095481 
L 389.568429 177.331148 
L 390.107006 177.359807 
L 390.645584 176.980341 
L 391.184161 177.028466 
L 392.261316 177.613862 
L 392.799894 177.141882 
L 393.338471 176.842648 
L 393.877049 176.383453 
L 394.954204 177.097995 
L 396.031359 176.727436 
L 396.569937 177.048362 
L 397.108514 176.86671 
L 397.647092 177.285609 
L 398.724247 176.836039 
L 399.262824 176.911746 
L 399.801402 177.361459 
L 400.878557 177.541316 
L 401.955712 177.370222 
L 402.49429 177.11078 
L 403.032867 177.071275 
L 403.571445 177.211555 
L 404.110022 176.892568 
L 404.6486 177.130318 
L 405.187177 177.200493 
L 407.341488 177.005266 
L 407.341488 177.005266 
" style="fill:none;stroke:#ff0000;stroke-linecap:square;stroke-width:1.5;"/>
   </g>
   <g id="patch_38">
    <path d="M 252.392727 197.46869 
L 252.392727 151.58731 
" style="fill:none;stroke:#000000;stroke-linecap:square;stroke-linejoin:miter;stroke-width:0.8;"/>
   </g>
   <g id="patch_39">
    <path d="M 414.72 197.46869 
L 414.72 151.58731 
" style="fill:none;stroke:#000000;stroke-linecap:square;stroke-linejoin:miter;stroke-width:0.8;"/>
   </g>
   <g id="patch_40">
    <path d="M 252.392727 197.46869 
L 414.72 197.46869 
" style="fill:none;stroke:#000000;stroke-linecap:square;stroke-linejoin:miter;stroke-width:0.8;"/>
   </g>
   <g id="patch_41">
    <path d="M 252.392727 151.58731 
L 414.72 151.58731 
" style="fill:none;stroke:#000000;stroke-linecap:square;stroke-linejoin:miter;stroke-width:0.8;"/>
   </g>
  </g>
  <g id="axes_9">
   <g id="patch_42">
    <path d="M 252.392727 252.526345 
L 414.72 252.526345 
L 414.72 206.644966 
L 252.392727 206.644966 
z
" style="fill:#ffffff;"/>
   </g>
   <g id="matplotlib.axis_17"/>
   <g id="matplotlib.axis_18">
    <g id="ytick_22">
     <g id="line2d_30">
      <g>
       <use style="stroke:#000000;stroke-width:0.8;" x="252.392727" xlink:href="#mc74886f1f3" y="236.550078"/>
      </g>
     </g>
     <g id="text_22">
      <!-- 0.0 -->
      <g transform="translate(229.489602 240.349296)scale(0.1 -0.1)">
       <use xlink:href="#DejaVuSans-48"/>
       <use x="63.623047" xlink:href="#DejaVuSans-46"/>
       <use x="95.410156" xlink:href="#DejaVuSans-48"/>
      </g>
     </g>
    </g>
    <g id="ytick_23">
     <g id="line2d_31">
      <g>
       <use style="stroke:#000000;stroke-width:0.8;" x="252.392727" xlink:href="#mc74886f1f3" y="218.235181"/>
      </g>
     </g>
     <g id="text_23">
      <!-- 2.5 -->
      <g transform="translate(229.489602 222.0344)scale(0.1 -0.1)">
       <use xlink:href="#DejaVuSans-50"/>
       <use x="63.623047" xlink:href="#DejaVuSans-46"/>
       <use x="95.410156" xlink:href="#DejaVuSans-53"/>
      </g>
     </g>
    </g>
   </g>
   <g id="line2d_32">
    <path clip-path="url(#pd3267b7987)" d="M 259.77124 232.335161 
L 260.309817 232.018972 
L 260.848395 232.109228 
L 261.386972 231.933259 
L 261.92555 232.374648 
L 262.464127 232.129887 
L 264.07986 232.271059 
L 264.618438 231.864834 
L 265.157015 231.7926 
L 265.695593 232.270033 
L 266.23417 232.538016 
L 266.772748 231.821318 
L 267.311325 232.408933 
L 268.38848 231.724689 
L 268.927058 232.150327 
L 270.004213 232.211132 
L 271.081368 232.389593 
L 271.619946 232.183733 
L 272.158523 231.724689 
L 272.697101 232.271352 
L 273.774256 232.182341 
L 274.312833 231.859706 
L 274.851411 232.535379 
L 275.389989 231.957141 
L 275.928566 231.834138 
L 277.005721 232.19626 
L 277.544299 232.038606 
L 278.082876 232.455599 
L 278.621454 231.618682 
L 279.160031 232.180656 
L 279.698609 232.20637 
L 280.237186 231.702344 
L 281.314342 232.139338 
L 281.852919 232.085126 
L 282.391497 232.39919 
L 282.930074 232.128349 
L 283.468652 232.141755 
L 284.007229 231.936262 
L 284.545807 232.401827 
L 285.622962 231.665055 
L 286.161539 232.106957 
L 286.700117 231.259197 
L 287.238695 232.04813 
L 287.777272 231.534067 
L 288.31585 232.104027 
L 288.854427 231.821098 
L 289.393005 232.268348 
L 289.931582 231.996262 
L 290.47016 231.887325 
L 291.008737 231.931574 
L 291.547315 231.61751 
L 292.085893 231.6137 
L 292.62447 231.955236 
L 293.163048 230.957734 
L 293.701625 228.765514 
L 294.77878 210.533401 
L 295.317358 208.730483 
L 295.855935 209.028649 
L 296.394513 213.336313 
L 297.471668 245.684815 
L 298.010246 249.852553 
L 299.087401 250.440828 
L 299.625978 250.116288 
L 300.164556 250.363905 
L 300.703133 250.319217 
L 301.241711 249.895044 
L 301.780288 250.169767 
L 302.318866 249.949256 
L 302.857443 250.367568 
L 303.396021 249.862809 
L 304.473176 250.101636 
L 305.011754 249.454754 
L 305.550331 249.986618 
L 306.627486 249.786619 
L 307.166064 249.749257 
L 307.704641 249.474534 
L 308.243219 249.418856 
L 308.781796 249.674532 
L 309.320374 249.109701 
L 309.858952 249.270872 
L 310.397529 249.558782 
L 310.936107 249.048895 
L 311.474684 249.039372 
L 312.013262 249.276 
L 312.551839 248.856223 
L 313.090417 248.755125 
L 313.628994 248.443771 
L 314.167572 248.495053 
L 314.706149 248.763183 
L 315.244727 248.341208 
L 316.86046 248.068682 
L 317.399037 247.8196 
L 317.937615 247.363925 
L 318.476192 247.728758 
L 319.01477 247.333156 
L 319.553347 247.259164 
L 320.091925 247.558063 
L 320.630503 246.966125 
L 322.246235 246.780779 
L 322.784813 246.089208 
L 323.32339 246.224006 
L 323.861968 245.654046 
L 324.400545 245.876755 
L 324.939123 245.867232 
L 325.4777 245.34196 
L 326.016278 245.640127 
L 326.554856 244.972 
L 327.632011 244.561013 
L 328.170588 244.363212 
L 328.709166 244.02109 
L 329.247743 244.333909 
L 329.786321 243.225638 
L 330.324898 243.750396 
L 330.863476 243.153623 
L 331.940631 242.756703 
L 332.479209 242.536704 
L 333.017786 242.48447 
L 334.094941 241.779713 
L 334.633519 241.983375 
L 335.172096 241.182941 
L 336.249251 240.977008 
L 336.787829 240.640307 
L 337.326406 240.689904 
L 337.864984 239.979945 
L 338.403562 240.382287 
L 338.942139 239.844122 
L 340.019294 239.208741 
L 340.557872 239.007497 
L 341.635027 239.003175 
L 342.173604 238.626181 
L 342.712182 237.869483 
L 343.250759 237.870069 
L 343.789337 237.342673 
L 344.327915 237.451757 
L 345.943647 237.04825 
L 346.482225 236.477984 
L 347.020802 236.756728 
L 348.636535 236.212446 
L 349.175113 236.322116 
L 349.71369 235.814771 
L 350.790845 235.811914 
L 351.329423 235.370672 
L 351.868 235.757482 
L 352.406578 234.980857 
L 352.945155 235.370305 
L 353.483733 234.885473 
L 354.02231 234.756097 
L 354.560888 234.506941 
L 355.099466 234.475952 
L 355.638043 234.135442 
L 356.176621 234.563058 
L 356.715198 234.17698 
L 357.792353 234.112438 
L 358.330931 233.919546 
L 359.408086 233.845334 
L 359.946663 233.584017 
L 361.023819 233.782184 
L 361.562396 233.608852 
L 362.100974 233.252664 
L 362.639551 233.609145 
L 363.178129 233.553907 
L 363.716706 233.332883 
L 364.793861 233.433761 
L 365.332439 233.144899 
L 366.948172 232.862923 
L 367.486749 233.411271 
L 368.025327 232.958526 
L 369.102482 233.076987 
L 369.641059 232.812447 
L 370.179637 232.998233 
L 370.718214 232.542559 
L 371.795369 232.577943 
L 372.333947 232.811128 
L 372.872525 232.850615 
L 373.411102 233.131346 
L 373.94968 232.471497 
L 374.488257 232.444464 
L 375.026835 232.885926 
L 375.565412 233.003508 
L 376.642567 232.783876 
L 377.181145 232.511057 
L 377.719723 233.061896 
L 378.2583 232.745195 
L 378.796878 232.676404 
L 379.335455 232.403219 
L 380.41261 232.714645 
L 380.951188 232.482559 
L 381.489765 232.637576 
L 382.028343 232.14051 
L 382.56692 232.655891 
L 383.105498 232.702631 
L 383.644076 232.227909 
L 384.182653 232.440801 
L 384.721231 232.288055 
L 385.259808 232.407834 
L 385.798386 231.810036 
L 386.336963 232.203586 
L 386.875541 232.218312 
L 387.414118 232.48168 
L 388.491273 232.165491 
L 389.029851 232.443951 
L 389.568429 233.069881 
L 390.107006 231.980951 
L 390.645584 232.017873 
L 392.261316 232.47494 
L 393.338471 231.833113 
L 393.877049 232.289813 
L 394.415626 231.893039 
L 394.954204 232.773253 
L 395.492782 232.360582 
L 396.031359 232.527028 
L 396.569937 232.159997 
L 397.108514 232.387761 
L 398.185669 232.159191 
L 398.724247 232.312523 
L 399.262824 232.606514 
L 399.801402 232.484903 
L 400.339979 231.949962 
L 400.878557 232.257286 
L 401.417135 231.753187 
L 401.955712 232.360435 
L 402.49429 231.999925 
L 403.032867 232.240509 
L 404.110022 231.832746 
L 404.6486 232.295381 
L 405.187177 231.710916 
L 406.264333 231.884834 
L 406.80291 232.308934 
L 407.341488 232.351058 
L 407.341488 232.351058 
" style="fill:none;stroke:#ff0000;stroke-linecap:square;stroke-width:1.5;"/>
   </g>
   <g id="patch_43">
    <path d="M 252.392727 252.526345 
L 252.392727 206.644966 
" style="fill:none;stroke:#000000;stroke-linecap:square;stroke-linejoin:miter;stroke-width:0.8;"/>
   </g>
   <g id="patch_44">
    <path d="M 414.72 252.526345 
L 414.72 206.644966 
" style="fill:none;stroke:#000000;stroke-linecap:square;stroke-linejoin:miter;stroke-width:0.8;"/>
   </g>
   <g id="patch_45">
    <path d="M 252.392727 252.526345 
L 414.72 252.526345 
" style="fill:none;stroke:#000000;stroke-linecap:square;stroke-linejoin:miter;stroke-width:0.8;"/>
   </g>
   <g id="patch_46">
    <path d="M 252.392727 206.644966 
L 414.72 206.644966 
" style="fill:none;stroke:#000000;stroke-linecap:square;stroke-linejoin:miter;stroke-width:0.8;"/>
   </g>
  </g>
  <g id="axes_10">
   <g id="patch_47">
    <path d="M 252.392727 307.584 
L 414.72 307.584 
L 414.72 261.702621 
L 252.392727 261.702621 
z
" style="fill:#ffffff;"/>
   </g>
   <g id="matplotlib.axis_19"/>
   <g id="matplotlib.axis_20">
    <g id="ytick_24">
     <g id="line2d_33">
      <g>
       <use style="stroke:#000000;stroke-width:0.8;" x="252.392727" xlink:href="#mc74886f1f3" y="291.68811"/>
      </g>
     </g>
     <g id="text_24">
      <!-- 0.0 -->
      <g transform="translate(229.489602 295.487328)scale(0.1 -0.1)">
       <use xlink:href="#DejaVuSans-48"/>
       <use x="63.623047" xlink:href="#DejaVuSans-46"/>
       <use x="95.410156" xlink:href="#DejaVuSans-48"/>
      </g>
     </g>
    </g>
    <g id="ytick_25">
     <g id="line2d_34">
      <g>
       <use style="stroke:#000000;stroke-width:0.8;" x="252.392727" xlink:href="#mc74886f1f3" y="273.461888"/>
      </g>
     </g>
     <g id="text_25">
      <!-- 2.5 -->
      <g transform="translate(229.489602 277.261106)scale(0.1 -0.1)">
       <use xlink:href="#DejaVuSans-50"/>
       <use x="63.623047" xlink:href="#DejaVuSans-46"/>
       <use x="95.410156" xlink:href="#DejaVuSans-53"/>
      </g>
     </g>
    </g>
   </g>
   <g id="line2d_35">
    <path clip-path="url(#pf04bc43b7f)" d="M 259.77124 287.2735 
L 260.309817 287.156561 
L 260.848395 287.211604 
L 261.386972 286.872961 
L 262.464127 287.42383 
L 263.002705 286.577404 
L 263.541282 287.154228 
L 264.07986 287.048661 
L 265.157015 287.414279 
L 265.695593 287.200376 
L 266.23417 287.231507 
L 266.772748 286.694562 
L 267.311325 287.150291 
L 267.849903 287.01148 
L 268.38848 287.153499 
L 268.927058 287.575326 
L 270.004213 286.867711 
L 270.542791 287.133085 
L 271.081368 286.86516 
L 271.619946 287.1056 
L 272.158523 287.224143 
L 272.697101 286.958332 
L 273.235678 287.243463 
L 273.774256 287.036049 
L 274.312833 287.266574 
L 274.851411 286.967737 
L 275.389989 287.352602 
L 275.928566 287.429298 
L 276.467144 287.177338 
L 277.005721 287.574087 
L 277.544299 287.387523 
L 278.082876 287.589324 
L 278.621454 287.203293 
L 279.160031 287.237048 
L 279.698609 286.74093 
L 280.237186 287.429589 
L 280.775764 287.11814 
L 281.314342 287.526043 
L 282.391497 287.411728 
L 282.930074 286.988952 
L 284.007229 287.247983 
L 284.545807 287.868914 
L 285.084384 287.479165 
L 285.622962 287.498266 
L 286.161539 287.091748 
L 286.700117 286.992014 
L 287.238695 287.09656 
L 287.777272 287.590928 
L 288.31585 287.33423 
L 288.854427 287.488569 
L 289.393005 286.957603 
L 289.931582 286.999378 
L 291.008737 286.740492 
L 291.547315 287.197241 
L 292.085893 287.080812 
L 292.62447 287.511024 
L 293.163048 286.927566 
L 294.240203 286.954541 
L 294.77878 287.201033 
L 295.317358 286.840518 
L 295.855935 286.641925 
L 296.394513 286.976558 
L 298.548823 286.919765 
L 299.625978 287.374619 
L 300.164556 287.105308 
L 300.703133 287.169319 
L 301.241711 287.02453 
L 302.318866 287.046183 
L 302.857443 287.137897 
L 303.396021 286.764843 
L 304.473176 287.111943 
L 305.011754 286.976267 
L 306.088909 287.235954 
L 306.627486 286.544816 
L 307.166064 283.879996 
L 308.243219 266.683191 
L 308.781796 263.788138 
L 309.320374 264.520832 
L 309.858952 268.343235 
L 310.936107 300.21944 
L 311.474684 304.640392 
L 312.013262 305.098235 
L 312.551839 305.22436 
L 313.090417 305.223631 
L 313.628994 305.498483 
L 314.167572 305.378919 
L 315.244727 304.779641 
L 315.783305 304.969922 
L 316.321882 304.655702 
L 316.86046 305.206134 
L 317.399037 304.420949 
L 317.937615 304.491666 
L 318.476192 304.963361 
L 319.01477 304.68049 
L 319.553347 304.923992 
L 321.16908 304.33565 
L 321.707658 305.157288 
L 322.246235 304.544887 
L 323.861968 304.22848 
L 324.400545 304.413658 
L 324.939123 304.009765 
L 325.4777 304.100167 
L 326.016278 303.748765 
L 326.554856 304.088502 
L 327.093433 303.643782 
L 327.632011 303.550464 
L 328.170588 304.010494 
L 328.709166 303.653989 
L 329.247743 303.099912 
L 329.786321 303.098454 
L 330.324898 303.543174 
L 330.863476 303.258116 
L 331.940631 302.347533 
L 332.479209 302.905985 
L 333.017786 302.203911 
L 333.556364 302.176936 
L 334.094941 301.872194 
L 334.633519 301.781062 
L 335.172096 301.980093 
L 336.787829 301.04691 
L 337.326406 301.297703 
L 337.864984 300.822363 
L 338.403562 300.990044 
L 338.942139 300.653224 
L 339.480717 300.478252 
L 340.019294 299.886993 
L 340.557872 299.757223 
L 341.096449 299.446648 
L 341.635027 299.542153 
L 342.173604 299.088685 
L 342.712182 299.213352 
L 343.250759 298.640757 
L 344.327915 298.492542 
L 344.866492 298.673127 
L 346.482225 297.39248 
L 347.020802 297.448325 
L 347.55938 296.811136 
L 348.097957 297.110557 
L 348.636535 296.747126 
L 349.175113 296.554876 
L 349.71369 296.178468 
L 350.252268 296.199246 
L 350.790845 295.581449 
L 351.329423 295.563223 
L 354.02231 294.30904 
L 354.560888 294.341556 
L 355.099466 293.673747 
L 356.176621 293.578023 
L 357.253776 294.048697 
L 357.792353 292.983702 
L 358.330931 292.949146 
L 358.869508 292.460391 
L 359.408086 292.599056 
L 359.946663 292.214264 
L 360.485241 292.158908 
L 361.023819 291.752781 
L 361.562396 292.143816 
L 362.100974 291.564521 
L 362.639551 291.458299 
L 363.178129 291.486681 
L 363.716706 290.921077 
L 364.255284 290.914516 
L 364.793861 291.118693 
L 365.332439 290.966898 
L 365.871016 290.948708 
L 366.409594 290.423429 
L 366.948172 290.329819 
L 367.486749 290.39033 
L 368.025327 289.925561 
L 368.563904 290.008527 
L 369.641059 289.821453 
L 370.179637 289.499286 
L 370.718214 289.706409 
L 371.795369 289.381909 
L 372.872525 288.764988 
L 373.411102 288.948709 
L 373.94968 288.396381 
L 374.488257 289.0125 
L 375.026835 288.576602 
L 375.565412 288.574998 
L 376.10399 289.122587 
L 376.642567 289.212333 
L 377.719723 288.379467 
L 378.2583 288.587902 
L 378.796878 288.446685 
L 379.335455 288.786714 
L 379.874033 288.510696 
L 380.41261 288.041261 
L 380.951188 288.442165 
L 381.489765 288.155139 
L 382.56692 288.221409 
L 383.644076 288.115916 
L 384.182653 288.32457 
L 384.721231 288.074141 
L 385.259808 287.179015 
L 385.798386 287.672727 
L 386.336963 287.732436 
L 386.875541 287.379212 
L 387.414118 287.789812 
L 387.952696 287.752704 
L 389.029851 288.157253 
L 389.568429 287.622058 
L 390.107006 287.472676 
L 390.645584 287.899461 
L 391.722739 287.542519 
L 392.261316 287.552361 
L 392.799894 288.092659 
L 393.338471 287.690516 
L 393.877049 288.033023 
L 394.415626 287.23785 
L 394.954204 287.819631 
L 395.492782 287.442202 
L 396.031359 287.483102 
L 396.569937 287.80957 
L 397.647092 287.345166 
L 398.185669 287.685413 
L 399.262824 286.917433 
L 399.801402 287.711658 
L 400.339979 287.12368 
L 400.878557 287.528959 
L 401.417135 287.290414 
L 401.955712 287.259721 
L 402.49429 286.888198 
L 403.032867 287.354424 
L 403.571445 287.143 
L 404.110022 287.343416 
L 404.6486 286.972184 
L 405.187177 288.136986 
L 405.725755 287.461084 
L 406.264333 287.103194 
L 406.80291 287.740164 
L 407.341488 287.230996 
L 407.341488 287.230996 
" style="fill:none;stroke:#ff0000;stroke-linecap:square;stroke-width:1.5;"/>
   </g>
   <g id="patch_48">
    <path d="M 252.392727 307.584 
L 252.392727 261.702621 
" style="fill:none;stroke:#000000;stroke-linecap:square;stroke-linejoin:miter;stroke-width:0.8;"/>
   </g>
   <g id="patch_49">
    <path d="M 414.72 307.584 
L 414.72 261.702621 
" style="fill:none;stroke:#000000;stroke-linecap:square;stroke-linejoin:miter;stroke-width:0.8;"/>
   </g>
   <g id="patch_50">
    <path d="M 252.392727 307.584 
L 414.72 307.584 
" style="fill:none;stroke:#000000;stroke-linecap:square;stroke-linejoin:miter;stroke-width:0.8;"/>
   </g>
   <g id="patch_51">
    <path d="M 252.392727 261.702621 
L 414.72 261.702621 
" style="fill:none;stroke:#000000;stroke-linecap:square;stroke-linejoin:miter;stroke-width:0.8;"/>
   </g>
  </g>
  <g id="text_26">
   <!-- Queries (in black) and their nearest neighbors (red) -->
   <g transform="translate(75.505313 16.030125)scale(0.12 -0.12)">
    <defs>
     <path d="M 39.40625 66.21875 
Q 28.65625 66.21875 22.328125 58.203125 
Q 16.015625 50.203125 16.015625 36.375 
Q 16.015625 22.609375 22.328125 14.59375 
Q 28.65625 6.59375 39.40625 6.59375 
Q 50.140625 6.59375 56.421875 14.59375 
Q 62.703125 22.609375 62.703125 36.375 
Q 62.703125 50.203125 56.421875 58.203125 
Q 50.140625 66.21875 39.40625 66.21875 
z
M 53.21875 1.3125 
L 66.21875 -12.890625 
L 54.296875 -12.890625 
L 43.5 -1.21875 
Q 41.890625 -1.3125 41.03125 -1.359375 
Q 40.1875 -1.421875 39.40625 -1.421875 
Q 24.03125 -1.421875 14.8125 8.859375 
Q 5.609375 19.140625 5.609375 36.375 
Q 5.609375 53.65625 14.8125 63.9375 
Q 24.03125 74.21875 39.40625 74.21875 
Q 54.734375 74.21875 63.90625 63.9375 
Q 73.09375 53.65625 73.09375 36.375 
Q 73.09375 23.6875 67.984375 14.640625 
Q 62.890625 5.609375 53.21875 1.3125 
z
" id="DejaVuSans-81"/>
     <path d="M 8.5 21.578125 
L 8.5 54.6875 
L 17.484375 54.6875 
L 17.484375 21.921875 
Q 17.484375 14.15625 20.5 10.265625 
Q 23.53125 6.390625 29.59375 6.390625 
Q 36.859375 6.390625 41.078125 11.03125 
Q 45.3125 15.671875 45.3125 23.6875 
L 45.3125 54.6875 
L 54.296875 54.6875 
L 54.296875 0 
L 45.3125 0 
L 45.3125 8.40625 
Q 42.046875 3.421875 37.71875 1 
Q 33.40625 -1.421875 27.6875 -1.421875 
Q 18.265625 -1.421875 13.375 4.4375 
Q 8.5 10.296875 8.5 21.578125 
z
M 31.109375 56 
z
" id="DejaVuSans-117"/>
     <path d="M 56.203125 29.59375 
L 56.203125 25.203125 
L 14.890625 25.203125 
Q 15.484375 15.921875 20.484375 11.0625 
Q 25.484375 6.203125 34.421875 6.203125 
Q 39.59375 6.203125 44.453125 7.46875 
Q 49.3125 8.734375 54.109375 11.28125 
L 54.109375 2.78125 
Q 49.265625 0.734375 44.1875 -0.34375 
Q 39.109375 -1.421875 33.890625 -1.421875 
Q 20.796875 -1.421875 13.15625 6.1875 
Q 5.515625 13.8125 5.515625 26.8125 
Q 5.515625 40.234375 12.765625 48.109375 
Q 20.015625 56 32.328125 56 
Q 43.359375 56 49.78125 48.890625 
Q 56.203125 41.796875 56.203125 29.59375 
z
M 47.21875 32.234375 
Q 47.125 39.59375 43.09375 43.984375 
Q 39.0625 48.390625 32.421875 48.390625 
Q 24.90625 48.390625 20.390625 44.140625 
Q 15.875 39.890625 15.1875 32.171875 
z
" id="DejaVuSans-101"/>
     <path d="M 41.109375 46.296875 
Q 39.59375 47.171875 37.8125 47.578125 
Q 36.03125 48 33.890625 48 
Q 26.265625 48 22.1875 43.046875 
Q 18.109375 38.09375 18.109375 28.8125 
L 18.109375 0 
L 9.078125 0 
L 9.078125 54.6875 
L 18.109375 54.6875 
L 18.109375 46.1875 
Q 20.953125 51.171875 25.484375 53.578125 
Q 30.03125 56 36.53125 56 
Q 37.453125 56 38.578125 55.875 
Q 39.703125 55.765625 41.0625 55.515625 
z
" id="DejaVuSans-114"/>
     <path d="M 9.421875 54.6875 
L 18.40625 54.6875 
L 18.40625 0 
L 9.421875 0 
z
M 9.421875 75.984375 
L 18.40625 75.984375 
L 18.40625 64.59375 
L 9.421875 64.59375 
z
" id="DejaVuSans-105"/>
     <path d="M 44.28125 53.078125 
L 44.28125 44.578125 
Q 40.484375 46.53125 36.375 47.5 
Q 32.28125 48.484375 27.875 48.484375 
Q 21.1875 48.484375 17.84375 46.4375 
Q 14.5 44.390625 14.5 40.28125 
Q 14.5 37.15625 16.890625 35.375 
Q 19.28125 33.59375 26.515625 31.984375 
L 29.59375 31.296875 
Q 39.15625 29.25 43.1875 25.515625 
Q 47.21875 21.78125 47.21875 15.09375 
Q 47.21875 7.46875 41.1875 3.015625 
Q 35.15625 -1.421875 24.609375 -1.421875 
Q 20.21875 -1.421875 15.453125 -0.5625 
Q 10.6875 0.296875 5.421875 2 
L 5.421875 11.28125 
Q 10.40625 8.6875 15.234375 7.390625 
Q 20.0625 6.109375 24.8125 6.109375 
Q 31.15625 6.109375 34.5625 8.28125 
Q 37.984375 10.453125 37.984375 14.40625 
Q 37.984375 18.0625 35.515625 20.015625 
Q 33.0625 21.96875 24.703125 23.78125 
L 21.578125 24.515625 
Q 13.234375 26.265625 9.515625 29.90625 
Q 5.8125 33.546875 5.8125 39.890625 
Q 5.8125 47.609375 11.28125 51.796875 
Q 16.75 56 26.8125 56 
Q 31.78125 56 36.171875 55.265625 
Q 40.578125 54.546875 44.28125 53.078125 
z
" id="DejaVuSans-115"/>
     <path id="DejaVuSans-32"/>
     <path d="M 31 75.875 
Q 24.46875 64.65625 21.28125 53.65625 
Q 18.109375 42.671875 18.109375 31.390625 
Q 18.109375 20.125 21.3125 9.0625 
Q 24.515625 -2 31 -13.1875 
L 23.1875 -13.1875 
Q 15.875 -1.703125 12.234375 9.375 
Q 8.59375 20.453125 8.59375 31.390625 
Q 8.59375 42.28125 12.203125 53.3125 
Q 15.828125 64.359375 23.1875 75.875 
z
" id="DejaVuSans-40"/>
     <path d="M 54.890625 33.015625 
L 54.890625 0 
L 45.90625 0 
L 45.90625 32.71875 
Q 45.90625 40.484375 42.875 44.328125 
Q 39.84375 48.1875 33.796875 48.1875 
Q 26.515625 48.1875 22.3125 43.546875 
Q 18.109375 38.921875 18.109375 30.90625 
L 18.109375 0 
L 9.078125 0 
L 9.078125 54.6875 
L 18.109375 54.6875 
L 18.109375 46.1875 
Q 21.34375 51.125 25.703125 53.5625 
Q 30.078125 56 35.796875 56 
Q 45.21875 56 50.046875 50.171875 
Q 54.890625 44.34375 54.890625 33.015625 
z
" id="DejaVuSans-110"/>
     <path d="M 48.6875 27.296875 
Q 48.6875 37.203125 44.609375 42.84375 
Q 40.53125 48.484375 33.40625 48.484375 
Q 26.265625 48.484375 22.1875 42.84375 
Q 18.109375 37.203125 18.109375 27.296875 
Q 18.109375 17.390625 22.1875 11.75 
Q 26.265625 6.109375 33.40625 6.109375 
Q 40.53125 6.109375 44.609375 11.75 
Q 48.6875 17.390625 48.6875 27.296875 
z
M 18.109375 46.390625 
Q 20.953125 51.265625 25.265625 53.625 
Q 29.59375 56 35.59375 56 
Q 45.5625 56 51.78125 48.09375 
Q 58.015625 40.1875 58.015625 27.296875 
Q 58.015625 14.40625 51.78125 6.484375 
Q 45.5625 -1.421875 35.59375 -1.421875 
Q 29.59375 -1.421875 25.265625 0.953125 
Q 20.953125 3.328125 18.109375 8.203125 
L 18.109375 0 
L 9.078125 0 
L 9.078125 75.984375 
L 18.109375 75.984375 
z
" id="DejaVuSans-98"/>
     <path d="M 9.421875 75.984375 
L 18.40625 75.984375 
L 18.40625 0 
L 9.421875 0 
z
" id="DejaVuSans-108"/>
     <path d="M 34.28125 27.484375 
Q 23.390625 27.484375 19.1875 25 
Q 14.984375 22.515625 14.984375 16.5 
Q 14.984375 11.71875 18.140625 8.90625 
Q 21.296875 6.109375 26.703125 6.109375 
Q 34.1875 6.109375 38.703125 11.40625 
Q 43.21875 16.703125 43.21875 25.484375 
L 43.21875 27.484375 
z
M 52.203125 31.203125 
L 52.203125 0 
L 43.21875 0 
L 43.21875 8.296875 
Q 40.140625 3.328125 35.546875 0.953125 
Q 30.953125 -1.421875 24.3125 -1.421875 
Q 15.921875 -1.421875 10.953125 3.296875 
Q 6 8.015625 6 15.921875 
Q 6 25.140625 12.171875 29.828125 
Q 18.359375 34.515625 30.609375 34.515625 
L 43.21875 34.515625 
L 43.21875 35.40625 
Q 43.21875 41.609375 39.140625 45 
Q 35.0625 48.390625 27.6875 48.390625 
Q 23 48.390625 18.546875 47.265625 
Q 14.109375 46.140625 10.015625 43.890625 
L 10.015625 52.203125 
Q 14.9375 54.109375 19.578125 55.046875 
Q 24.21875 56 28.609375 56 
Q 40.484375 56 46.34375 49.84375 
Q 52.203125 43.703125 52.203125 31.203125 
z
" id="DejaVuSans-97"/>
     <path d="M 48.78125 52.59375 
L 48.78125 44.1875 
Q 44.96875 46.296875 41.140625 47.34375 
Q 37.3125 48.390625 33.40625 48.390625 
Q 24.65625 48.390625 19.8125 42.84375 
Q 14.984375 37.3125 14.984375 27.296875 
Q 14.984375 17.28125 19.8125 11.734375 
Q 24.65625 6.203125 33.40625 6.203125 
Q 37.3125 6.203125 41.140625 7.25 
Q 44.96875 8.296875 48.78125 10.40625 
L 48.78125 2.09375 
Q 45.015625 0.34375 40.984375 -0.53125 
Q 36.96875 -1.421875 32.421875 -1.421875 
Q 20.0625 -1.421875 12.78125 6.34375 
Q 5.515625 14.109375 5.515625 27.296875 
Q 5.515625 40.671875 12.859375 48.328125 
Q 20.21875 56 33.015625 56 
Q 37.15625 56 41.109375 55.140625 
Q 45.0625 54.296875 48.78125 52.59375 
z
" id="DejaVuSans-99"/>
     <path d="M 9.078125 75.984375 
L 18.109375 75.984375 
L 18.109375 31.109375 
L 44.921875 54.6875 
L 56.390625 54.6875 
L 27.390625 29.109375 
L 57.625 0 
L 45.90625 0 
L 18.109375 26.703125 
L 18.109375 0 
L 9.078125 0 
z
" id="DejaVuSans-107"/>
     <path d="M 8.015625 75.875 
L 15.828125 75.875 
Q 23.140625 64.359375 26.78125 53.3125 
Q 30.421875 42.28125 30.421875 31.390625 
Q 30.421875 20.453125 26.78125 9.375 
Q 23.140625 -1.703125 15.828125 -13.1875 
L 8.015625 -13.1875 
Q 14.5 -2 17.703125 9.0625 
Q 20.90625 20.125 20.90625 31.390625 
Q 20.90625 42.671875 17.703125 53.65625 
Q 14.5 64.65625 8.015625 75.875 
z
" id="DejaVuSans-41"/>
     <path d="M 45.40625 46.390625 
L 45.40625 75.984375 
L 54.390625 75.984375 
L 54.390625 0 
L 45.40625 0 
L 45.40625 8.203125 
Q 42.578125 3.328125 38.25 0.953125 
Q 33.9375 -1.421875 27.875 -1.421875 
Q 17.96875 -1.421875 11.734375 6.484375 
Q 5.515625 14.40625 5.515625 27.296875 
Q 5.515625 40.1875 11.734375 48.09375 
Q 17.96875 56 27.875 56 
Q 33.9375 56 38.25 53.625 
Q 42.578125 51.265625 45.40625 46.390625 
z
M 14.796875 27.296875 
Q 14.796875 17.390625 18.875 11.75 
Q 22.953125 6.109375 30.078125 6.109375 
Q 37.203125 6.109375 41.296875 11.75 
Q 45.40625 17.390625 45.40625 27.296875 
Q 45.40625 37.203125 41.296875 42.84375 
Q 37.203125 48.484375 30.078125 48.484375 
Q 22.953125 48.484375 18.875 42.84375 
Q 14.796875 37.203125 14.796875 27.296875 
z
" id="DejaVuSans-100"/>
     <path d="M 18.3125 70.21875 
L 18.3125 54.6875 
L 36.8125 54.6875 
L 36.8125 47.703125 
L 18.3125 47.703125 
L 18.3125 18.015625 
Q 18.3125 11.328125 20.140625 9.421875 
Q 21.96875 7.515625 27.59375 7.515625 
L 36.8125 7.515625 
L 36.8125 0 
L 27.59375 0 
Q 17.1875 0 13.234375 3.875 
Q 9.28125 7.765625 9.28125 18.015625 
L 9.28125 47.703125 
L 2.6875 47.703125 
L 2.6875 54.6875 
L 9.28125 54.6875 
L 9.28125 70.21875 
z
" id="DejaVuSans-116"/>
     <path d="M 54.890625 33.015625 
L 54.890625 0 
L 45.90625 0 
L 45.90625 32.71875 
Q 45.90625 40.484375 42.875 44.328125 
Q 39.84375 48.1875 33.796875 48.1875 
Q 26.515625 48.1875 22.3125 43.546875 
Q 18.109375 38.921875 18.109375 30.90625 
L 18.109375 0 
L 9.078125 0 
L 9.078125 75.984375 
L 18.109375 75.984375 
L 18.109375 46.1875 
Q 21.34375 51.125 25.703125 53.5625 
Q 30.078125 56 35.796875 56 
Q 45.21875 56 50.046875 50.171875 
Q 54.890625 44.34375 54.890625 33.015625 
z
" id="DejaVuSans-104"/>
     <path d="M 45.40625 27.984375 
Q 45.40625 37.75 41.375 43.109375 
Q 37.359375 48.484375 30.078125 48.484375 
Q 22.859375 48.484375 18.828125 43.109375 
Q 14.796875 37.75 14.796875 27.984375 
Q 14.796875 18.265625 18.828125 12.890625 
Q 22.859375 7.515625 30.078125 7.515625 
Q 37.359375 7.515625 41.375 12.890625 
Q 45.40625 18.265625 45.40625 27.984375 
z
M 54.390625 6.78125 
Q 54.390625 -7.171875 48.1875 -13.984375 
Q 42 -20.796875 29.203125 -20.796875 
Q 24.46875 -20.796875 20.265625 -20.09375 
Q 16.0625 -19.390625 12.109375 -17.921875 
L 12.109375 -9.1875 
Q 16.0625 -11.328125 19.921875 -12.34375 
Q 23.78125 -13.375 27.78125 -13.375 
Q 36.625 -13.375 41.015625 -8.765625 
Q 45.40625 -4.15625 45.40625 5.171875 
L 45.40625 9.625 
Q 42.625 4.78125 38.28125 2.390625 
Q 33.9375 0 27.875 0 
Q 17.828125 0 11.671875 7.65625 
Q 5.515625 15.328125 5.515625 27.984375 
Q 5.515625 40.671875 11.671875 48.328125 
Q 17.828125 56 27.875 56 
Q 33.9375 56 38.28125 53.609375 
Q 42.625 51.21875 45.40625 46.390625 
L 45.40625 54.6875 
L 54.390625 54.6875 
z
" id="DejaVuSans-103"/>
     <path d="M 30.609375 48.390625 
Q 23.390625 48.390625 19.1875 42.75 
Q 14.984375 37.109375 14.984375 27.296875 
Q 14.984375 17.484375 19.15625 11.84375 
Q 23.34375 6.203125 30.609375 6.203125 
Q 37.796875 6.203125 41.984375 11.859375 
Q 46.1875 17.53125 46.1875 27.296875 
Q 46.1875 37.015625 41.984375 42.703125 
Q 37.796875 48.390625 30.609375 48.390625 
z
M 30.609375 56 
Q 42.328125 56 49.015625 48.375 
Q 55.71875 40.765625 55.71875 27.296875 
Q 55.71875 13.875 49.015625 6.21875 
Q 42.328125 -1.421875 30.609375 -1.421875 
Q 18.84375 -1.421875 12.171875 6.21875 
Q 5.515625 13.875 5.515625 27.296875 
Q 5.515625 40.765625 12.171875 48.375 
Q 18.84375 56 30.609375 56 
z
" id="DejaVuSans-111"/>
    </defs>
    <use xlink:href="#DejaVuSans-81"/>
    <use x="78.710938" xlink:href="#DejaVuSans-117"/>
    <use x="142.089844" xlink:href="#DejaVuSans-101"/>
    <use x="203.613281" xlink:href="#DejaVuSans-114"/>
    <use x="244.726562" xlink:href="#DejaVuSans-105"/>
    <use x="272.509766" xlink:href="#DejaVuSans-101"/>
    <use x="334.033203" xlink:href="#DejaVuSans-115"/>
    <use x="386.132812" xlink:href="#DejaVuSans-32"/>
    <use x="417.919922" xlink:href="#DejaVuSans-40"/>
    <use x="456.933594" xlink:href="#DejaVuSans-105"/>
    <use x="484.716797" xlink:href="#DejaVuSans-110"/>
    <use x="548.095703" xlink:href="#DejaVuSans-32"/>
    <use x="579.882812" xlink:href="#DejaVuSans-98"/>
    <use x="643.359375" xlink:href="#DejaVuSans-108"/>
    <use x="671.142578" xlink:href="#DejaVuSans-97"/>
    <use x="732.421875" xlink:href="#DejaVuSans-99"/>
    <use x="787.402344" xlink:href="#DejaVuSans-107"/>
    <use x="845.3125" xlink:href="#DejaVuSans-41"/>
    <use x="884.326172" xlink:href="#DejaVuSans-32"/>
    <use x="916.113281" xlink:href="#DejaVuSans-97"/>
    <use x="977.392578" xlink:href="#DejaVuSans-110"/>
    <use x="1040.771484" xlink:href="#DejaVuSans-100"/>
    <use x="1104.248047" xlink:href="#DejaVuSans-32"/>
    <use x="1136.035156" xlink:href="#DejaVuSans-116"/>
    <use x="1175.244141" xlink:href="#DejaVuSans-104"/>
    <use x="1238.623047" xlink:href="#DejaVuSans-101"/>
    <use x="1300.146484" xlink:href="#DejaVuSans-105"/>
    <use x="1327.929688" xlink:href="#DejaVuSans-114"/>
    <use x="1369.042969" xlink:href="#DejaVuSans-32"/>
    <use x="1400.830078" xlink:href="#DejaVuSans-110"/>
    <use x="1464.208984" xlink:href="#DejaVuSans-101"/>
    <use x="1525.732422" xlink:href="#DejaVuSans-97"/>
    <use x="1587.011719" xlink:href="#DejaVuSans-114"/>
    <use x="1625.875" xlink:href="#DejaVuSans-101"/>
    <use x="1687.398438" xlink:href="#DejaVuSans-115"/>
    <use x="1739.498047" xlink:href="#DejaVuSans-116"/>
    <use x="1778.707031" xlink:href="#DejaVuSans-32"/>
    <use x="1810.494141" xlink:href="#DejaVuSans-110"/>
    <use x="1873.873047" xlink:href="#DejaVuSans-101"/>
    <use x="1935.396484" xlink:href="#DejaVuSans-105"/>
    <use x="1963.179688" xlink:href="#DejaVuSans-103"/>
    <use x="2026.65625" xlink:href="#DejaVuSans-104"/>
    <use x="2090.035156" xlink:href="#DejaVuSans-98"/>
    <use x="2153.511719" xlink:href="#DejaVuSans-111"/>
    <use x="2214.693359" xlink:href="#DejaVuSans-114"/>
    <use x="2255.806641" xlink:href="#DejaVuSans-115"/>
    <use x="2307.90625" xlink:href="#DejaVuSans-32"/>
    <use x="2339.693359" xlink:href="#DejaVuSans-40"/>
    <use x="2378.707031" xlink:href="#DejaVuSans-114"/>
    <use x="2417.570312" xlink:href="#DejaVuSans-101"/>
    <use x="2479.09375" xlink:href="#DejaVuSans-100"/>
    <use x="2542.570312" xlink:href="#DejaVuSans-41"/>
   </g>
  </g>
 </g>
 <defs>
  <clipPath id="p1f15109635">
   <rect height="45.881379" width="162.327273" x="57.6" y="41.472"/>
  </clipPath>
  <clipPath id="pc57a58e1ef">
   <rect height="45.881379" width="162.327273" x="57.6" y="96.529655"/>
  </clipPath>
  <clipPath id="p145569562b">
   <rect height="45.881379" width="162.327273" x="57.6" y="151.58731"/>
  </clipPath>
  <clipPath id="pe6eef9da8a">
   <rect height="45.881379" width="162.327273" x="57.6" y="206.644966"/>
  </clipPath>
  <clipPath id="pe71f51ea87">
   <rect height="45.881379" width="162.327273" x="57.6" y="261.702621"/>
  </clipPath>
  <clipPath id="pd79559cd0e">
   <rect height="45.881379" width="162.327273" x="252.392727" y="41.472"/>
  </clipPath>
  <clipPath id="pd3c5b0284c">
   <rect height="45.881379" width="162.327273" x="252.392727" y="96.529655"/>
  </clipPath>
  <clipPath id="pebd012f366">
   <rect height="45.881379" width="162.327273" x="252.392727" y="151.58731"/>
  </clipPath>
  <clipPath id="pd3267b7987">
   <rect height="45.881379" width="162.327273" x="252.392727" y="206.644966"/>
  </clipPath>
  <clipPath id="pf04bc43b7f">
   <rect height="45.881379" width="162.327273" x="252.392727" y="261.702621"/>
  </clipPath>
 </defs>
</svg>
