<?xml version="1.0" encoding="utf-8" standalone="no"?>
<!DOCTYPE svg PUBLIC "-//W3C//DTD SVG 1.1//EN"
  "http://www.w3.org/Graphics/SVG/1.1/DTD/svg11.dtd">
<!-- Created with matplotlib (https://matplotlib.org/) -->
<svg height="345.6pt" version="1.1" viewBox="0 0 460.8 345.6" width="460.8pt" xmlns="http://www.w3.org/2000/svg" xmlns:xlink="http://www.w3.org/1999/xlink">
 <metadata>
  <rdf:RDF xmlns:cc="http://creativecommons.org/ns#" xmlns:dc="http://purl.org/dc/elements/1.1/" xmlns:rdf="http://www.w3.org/1999/02/22-rdf-syntax-ns#">
   <cc:Work>
    <dc:type rdf:resource="http://purl.org/dc/dcmitype/StillImage"/>
    <dc:date>2021-05-07T16:17:52.951683</dc:date>
    <dc:format>image/svg+xml</dc:format>
    <dc:creator>
     <cc:Agent>
      <dc:title>Matplotlib v3.3.2, https://matplotlib.org/</dc:title>
     </cc:Agent>
    </dc:creator>
   </cc:Work>
  </rdf:RDF>
 </metadata>
 <defs>
  <style type="text/css">*{stroke-linecap:butt;stroke-linejoin:round;}</style>
 </defs>
 <g id="figure_1">
  <g id="patch_1">
   <path d="M 0 345.6 
L 460.8 345.6 
L 460.8 0 
L 0 0 
z
" style="fill:#ffffff;"/>
  </g>
  <g id="axes_1">
   <g id="patch_2">
    <path d="M 32.56 150.32 
L 221.302904 150.32 
L 221.302904 25.44 
L 32.56 25.44 
z
" style="fill:#ffffff;"/>
   </g>
   <g id="matplotlib.axis_1">
    <g id="xtick_1">
     <g id="line2d_1">
      <defs>
       <path d="M 0 0 
L 0 3.5 
" id="m237c863666" style="stroke:#000000;stroke-width:0.8;"/>
      </defs>
      <g>
       <use style="stroke:#000000;stroke-width:0.8;" x="41.139223" xlink:href="#m237c863666" y="150.32"/>
      </g>
     </g>
     <g id="text_1">
      <!-- 0 -->
      <g transform="translate(37.957973 164.918437)scale(0.1 -0.1)">
       <defs>
        <path d="M 31.78125 66.40625 
Q 24.171875 66.40625 20.328125 58.90625 
Q 16.5 51.421875 16.5 36.375 
Q 16.5 21.390625 20.328125 13.890625 
Q 24.171875 6.390625 31.78125 6.390625 
Q 39.453125 6.390625 43.28125 13.890625 
Q 47.125 21.390625 47.125 36.375 
Q 47.125 51.421875 43.28125 58.90625 
Q 39.453125 66.40625 31.78125 66.40625 
z
M 31.78125 74.21875 
Q 44.046875 74.21875 50.515625 64.515625 
Q 56.984375 54.828125 56.984375 36.375 
Q 56.984375 17.96875 50.515625 8.265625 
Q 44.046875 -1.421875 31.78125 -1.421875 
Q 19.53125 -1.421875 13.0625 8.265625 
Q 6.59375 17.96875 6.59375 36.375 
Q 6.59375 54.828125 13.0625 64.515625 
Q 19.53125 74.21875 31.78125 74.21875 
z
" id="DejaVuSans-48"/>
       </defs>
       <use xlink:href="#DejaVuSans-48"/>
      </g>
     </g>
    </g>
    <g id="xtick_2">
     <g id="line2d_2">
      <g>
       <use style="stroke:#000000;stroke-width:0.8;" x="75.80275" xlink:href="#m237c863666" y="150.32"/>
      </g>
     </g>
     <g id="text_2">
      <!-- 20 -->
      <g transform="translate(69.44025 164.918437)scale(0.1 -0.1)">
       <defs>
        <path d="M 19.1875 8.296875 
L 53.609375 8.296875 
L 53.609375 0 
L 7.328125 0 
L 7.328125 8.296875 
Q 12.9375 14.109375 22.625 23.890625 
Q 32.328125 33.6875 34.8125 36.53125 
Q 39.546875 41.84375 41.421875 45.53125 
Q 43.3125 49.21875 43.3125 52.78125 
Q 43.3125 58.59375 39.234375 62.25 
Q 35.15625 65.921875 28.609375 65.921875 
Q 23.96875 65.921875 18.8125 64.3125 
Q 13.671875 62.703125 7.8125 59.421875 
L 7.8125 69.390625 
Q 13.765625 71.78125 18.9375 73 
Q 24.125 74.21875 28.421875 74.21875 
Q 39.75 74.21875 46.484375 68.546875 
Q 53.21875 62.890625 53.21875 53.421875 
Q 53.21875 48.921875 51.53125 44.890625 
Q 49.859375 40.875 45.40625 35.40625 
Q 44.1875 33.984375 37.640625 27.21875 
Q 31.109375 20.453125 19.1875 8.296875 
z
" id="DejaVuSans-50"/>
       </defs>
       <use xlink:href="#DejaVuSans-50"/>
       <use x="63.623047" xlink:href="#DejaVuSans-48"/>
      </g>
     </g>
    </g>
    <g id="xtick_3">
     <g id="line2d_3">
      <g>
       <use style="stroke:#000000;stroke-width:0.8;" x="110.466277" xlink:href="#m237c863666" y="150.32"/>
      </g>
     </g>
     <g id="text_3">
      <!-- 40 -->
      <g transform="translate(104.103777 164.918437)scale(0.1 -0.1)">
       <defs>
        <path d="M 37.796875 64.3125 
L 12.890625 25.390625 
L 37.796875 25.390625 
z
M 35.203125 72.90625 
L 47.609375 72.90625 
L 47.609375 25.390625 
L 58.015625 25.390625 
L 58.015625 17.1875 
L 47.609375 17.1875 
L 47.609375 0 
L 37.796875 0 
L 37.796875 17.1875 
L 4.890625 17.1875 
L 4.890625 26.703125 
z
" id="DejaVuSans-52"/>
       </defs>
       <use xlink:href="#DejaVuSans-52"/>
       <use x="63.623047" xlink:href="#DejaVuSans-48"/>
      </g>
     </g>
    </g>
    <g id="xtick_4">
     <g id="line2d_4">
      <g>
       <use style="stroke:#000000;stroke-width:0.8;" x="145.129804" xlink:href="#m237c863666" y="150.32"/>
      </g>
     </g>
     <g id="text_4">
      <!-- 60 -->
      <g transform="translate(138.767304 164.918437)scale(0.1 -0.1)">
       <defs>
        <path d="M 33.015625 40.375 
Q 26.375 40.375 22.484375 35.828125 
Q 18.609375 31.296875 18.609375 23.390625 
Q 18.609375 15.53125 22.484375 10.953125 
Q 26.375 6.390625 33.015625 6.390625 
Q 39.65625 6.390625 43.53125 10.953125 
Q 47.40625 15.53125 47.40625 23.390625 
Q 47.40625 31.296875 43.53125 35.828125 
Q 39.65625 40.375 33.015625 40.375 
z
M 52.59375 71.296875 
L 52.59375 62.3125 
Q 48.875 64.0625 45.09375 64.984375 
Q 41.3125 65.921875 37.59375 65.921875 
Q 27.828125 65.921875 22.671875 59.328125 
Q 17.53125 52.734375 16.796875 39.40625 
Q 19.671875 43.65625 24.015625 45.921875 
Q 28.375 48.1875 33.59375 48.1875 
Q 44.578125 48.1875 50.953125 41.515625 
Q 57.328125 34.859375 57.328125 23.390625 
Q 57.328125 12.15625 50.6875 5.359375 
Q 44.046875 -1.421875 33.015625 -1.421875 
Q 20.359375 -1.421875 13.671875 8.265625 
Q 6.984375 17.96875 6.984375 36.375 
Q 6.984375 53.65625 15.1875 63.9375 
Q 23.390625 74.21875 37.203125 74.21875 
Q 40.921875 74.21875 44.703125 73.484375 
Q 48.484375 72.75 52.59375 71.296875 
z
" id="DejaVuSans-54"/>
       </defs>
       <use xlink:href="#DejaVuSans-54"/>
       <use x="63.623047" xlink:href="#DejaVuSans-48"/>
      </g>
     </g>
    </g>
    <g id="xtick_5">
     <g id="line2d_5">
      <g>
       <use style="stroke:#000000;stroke-width:0.8;" x="179.79333" xlink:href="#m237c863666" y="150.32"/>
      </g>
     </g>
     <g id="text_5">
      <!-- 80 -->
      <g transform="translate(173.43083 164.918437)scale(0.1 -0.1)">
       <defs>
        <path d="M 31.78125 34.625 
Q 24.75 34.625 20.71875 30.859375 
Q 16.703125 27.09375 16.703125 20.515625 
Q 16.703125 13.921875 20.71875 10.15625 
Q 24.75 6.390625 31.78125 6.390625 
Q 38.8125 6.390625 42.859375 10.171875 
Q 46.921875 13.96875 46.921875 20.515625 
Q 46.921875 27.09375 42.890625 30.859375 
Q 38.875 34.625 31.78125 34.625 
z
M 21.921875 38.8125 
Q 15.578125 40.375 12.03125 44.71875 
Q 8.5 49.078125 8.5 55.328125 
Q 8.5 64.0625 14.71875 69.140625 
Q 20.953125 74.21875 31.78125 74.21875 
Q 42.671875 74.21875 48.875 69.140625 
Q 55.078125 64.0625 55.078125 55.328125 
Q 55.078125 49.078125 51.53125 44.71875 
Q 48 40.375 41.703125 38.8125 
Q 48.828125 37.15625 52.796875 32.3125 
Q 56.78125 27.484375 56.78125 20.515625 
Q 56.78125 9.90625 50.3125 4.234375 
Q 43.84375 -1.421875 31.78125 -1.421875 
Q 19.734375 -1.421875 13.25 4.234375 
Q 6.78125 9.90625 6.78125 20.515625 
Q 6.78125 27.484375 10.78125 32.3125 
Q 14.796875 37.15625 21.921875 38.8125 
z
M 18.3125 54.390625 
Q 18.3125 48.734375 21.84375 45.5625 
Q 25.390625 42.390625 31.78125 42.390625 
Q 38.140625 42.390625 41.71875 45.5625 
Q 45.3125 48.734375 45.3125 54.390625 
Q 45.3125 60.0625 41.71875 63.234375 
Q 38.140625 66.40625 31.78125 66.40625 
Q 25.390625 66.40625 21.84375 63.234375 
Q 18.3125 60.0625 18.3125 54.390625 
z
" id="DejaVuSans-56"/>
       </defs>
       <use xlink:href="#DejaVuSans-56"/>
       <use x="63.623047" xlink:href="#DejaVuSans-48"/>
      </g>
     </g>
    </g>
    <g id="xtick_6">
     <g id="line2d_6">
      <g>
       <use style="stroke:#000000;stroke-width:0.8;" x="214.456857" xlink:href="#m237c863666" y="150.32"/>
      </g>
     </g>
     <g id="text_6">
      <!-- 100 -->
      <g transform="translate(204.913107 164.918437)scale(0.1 -0.1)">
       <defs>
        <path d="M 12.40625 8.296875 
L 28.515625 8.296875 
L 28.515625 63.921875 
L 10.984375 60.40625 
L 10.984375 69.390625 
L 28.421875 72.90625 
L 38.28125 72.90625 
L 38.28125 8.296875 
L 54.390625 8.296875 
L 54.390625 0 
L 12.40625 0 
z
" id="DejaVuSans-49"/>
       </defs>
       <use xlink:href="#DejaVuSans-49"/>
       <use x="63.623047" xlink:href="#DejaVuSans-48"/>
       <use x="127.246094" xlink:href="#DejaVuSans-48"/>
      </g>
     </g>
    </g>
   </g>
   <g id="matplotlib.axis_2">
    <g id="ytick_1">
     <g id="line2d_7">
      <defs>
       <path d="M 0 0 
L -3.5 0 
" id="m9ae9c548f5" style="stroke:#000000;stroke-width:0.8;"/>
      </defs>
      <g>
       <use style="stroke:#000000;stroke-width:0.8;" x="32.56" xlink:href="#m9ae9c548f5" y="148.75304"/>
      </g>
     </g>
     <g id="text_7">
      <!-- −2 -->
      <g transform="translate(10.817813 152.552258)scale(0.1 -0.1)">
       <defs>
        <path d="M 10.59375 35.5 
L 73.1875 35.5 
L 73.1875 27.203125 
L 10.59375 27.203125 
z
" id="DejaVuSans-8722"/>
       </defs>
       <use xlink:href="#DejaVuSans-8722"/>
       <use x="83.789062" xlink:href="#DejaVuSans-50"/>
      </g>
     </g>
    </g>
    <g id="ytick_2">
     <g id="line2d_8">
      <g>
       <use style="stroke:#000000;stroke-width:0.8;" x="32.56" xlink:href="#m9ae9c548f5" y="116.695431"/>
      </g>
     </g>
     <g id="text_8">
      <!-- −1 -->
      <g transform="translate(10.817813 120.49465)scale(0.1 -0.1)">
       <use xlink:href="#DejaVuSans-8722"/>
       <use x="83.789062" xlink:href="#DejaVuSans-49"/>
      </g>
     </g>
    </g>
    <g id="ytick_3">
     <g id="line2d_9">
      <g>
       <use style="stroke:#000000;stroke-width:0.8;" x="32.56" xlink:href="#m9ae9c548f5" y="84.637823"/>
      </g>
     </g>
     <g id="text_9">
      <!-- 0 -->
      <g transform="translate(19.1975 88.437041)scale(0.1 -0.1)">
       <use xlink:href="#DejaVuSans-48"/>
      </g>
     </g>
    </g>
    <g id="ytick_4">
     <g id="line2d_10">
      <g>
       <use style="stroke:#000000;stroke-width:0.8;" x="32.56" xlink:href="#m9ae9c548f5" y="52.580214"/>
      </g>
     </g>
     <g id="text_10">
      <!-- 1 -->
      <g transform="translate(19.1975 56.379433)scale(0.1 -0.1)">
       <use xlink:href="#DejaVuSans-49"/>
      </g>
     </g>
    </g>
   </g>
   <g id="line2d_11">
    <path clip-path="url(#p47029b6bb8)" d="M 41.139223 108.887345 
L 42.872399 106.305739 
L 44.605576 99.99143 
L 46.338752 85.534353 
L 48.071928 73.485841 
L 49.805105 79.790729 
L 51.538281 73.661253 
L 53.271457 74.637731 
L 55.004634 75.303646 
L 56.73781 72.654678 
L 58.470986 71.725384 
L 60.204163 62.343168 
L 61.937339 57.433348 
L 63.670515 56.648364 
L 65.403692 53.78479 
L 67.136868 51.632097 
L 68.870044 41.993076 
L 70.603221 43.31665 
L 72.336397 41.2969 
L 74.069573 46.807082 
L 75.80275 63.277643 
L 77.535926 59.060836 
L 79.269102 53.483944 
L 81.002279 58.272006 
L 82.735455 43.628731 
L 84.468631 53.011541 
L 86.201808 52.716331 
L 87.934984 53.923944 
L 89.668161 44.03525 
L 91.401337 34.555712 
L 93.134513 33.556071 
L 94.86769 31.116364 
L 96.600866 36.843895 
L 98.334042 49.622963 
L 100.067219 51.867512 
L 101.800395 50.858829 
L 103.533571 42.921634 
L 105.266748 35.164505 
L 106.999924 37.663336 
L 108.7331 39.613636 
L 110.466277 46.378354 
L 112.199453 55.539571 
L 113.932629 66.547539 
L 115.665806 53.962151 
L 117.398982 57.250161 
L 119.132158 60.076389 
L 120.865335 68.158773 
L 122.598511 63.142809 
L 124.331687 73.554839 
L 126.064864 74.927328 
L 127.79804 80.704412 
L 129.531216 78.208319 
L 131.264393 81.503768 
L 132.997569 89.120592 
L 134.730745 89.302409 
L 136.463922 86.539035 
L 138.197098 86.109901 
L 139.930274 84.158509 
L 141.663451 88.250825 
L 143.396627 90.591043 
L 145.129804 94.929408 
L 146.86298 97.249057 
L 148.596156 102.495054 
L 150.329333 113.632131 
L 152.062509 112.48747 
L 153.795685 115.079552 
L 155.528862 125.596743 
L 157.262038 122.611113 
L 158.995214 128.46453 
L 160.728391 128.129405 
L 162.461567 123.425692 
L 164.194743 122.593562 
L 165.92792 115.242741 
L 167.661096 123.209195 
L 169.394272 120.613496 
L 171.127449 125.031534 
L 172.860625 130.649464 
L 174.593801 134.383901 
L 176.326978 136.393876 
L 178.060154 136.031526 
L 179.79333 143.548467 
L 181.526507 137.736803 
L 183.259683 134.732591 
L 184.992859 144.643636 
L 186.726036 135.042208 
L 188.459212 122.810917 
L 190.192388 115.206045 
L 191.925565 116.366826 
L 193.658741 123.274765 
L 195.391917 116.471991 
L 197.125094 119.073079 
L 198.85827 111.186499 
L 200.591447 109.842818 
L 202.324623 103.542051 
L 204.057799 101.24296 
L 205.790976 96.684518 
L 207.524152 96.616777 
L 209.257328 85.09527 
L 210.990505 84.276499 
L 212.723681 81.683073 
" style="fill:none;stroke:#0000ff;stroke-linecap:square;stroke-width:1.5;"/>
   </g>
   <g id="patch_3">
    <path d="M 32.56 150.32 
L 32.56 25.44 
" style="fill:none;stroke:#000000;stroke-linecap:square;stroke-linejoin:miter;stroke-width:0.8;"/>
   </g>
   <g id="patch_4">
    <path d="M 221.302904 150.32 
L 221.302904 25.44 
" style="fill:none;stroke:#000000;stroke-linecap:square;stroke-linejoin:miter;stroke-width:0.8;"/>
   </g>
   <g id="patch_5">
    <path d="M 32.56 150.32 
L 221.302904 150.32 
" style="fill:none;stroke:#000000;stroke-linecap:square;stroke-linejoin:miter;stroke-width:0.8;"/>
   </g>
   <g id="patch_6">
    <path d="M 32.56 25.44 
L 221.302904 25.44 
" style="fill:none;stroke:#000000;stroke-linecap:square;stroke-linejoin:miter;stroke-width:0.8;"/>
   </g>
   <g id="text_11">
    <!-- Raw time series -->
    <g transform="translate(79.176139 19.44)scale(0.12 -0.12)">
     <defs>
      <path d="M 44.390625 34.1875 
Q 47.5625 33.109375 50.5625 29.59375 
Q 53.5625 26.078125 56.59375 19.921875 
L 66.609375 0 
L 56 0 
L 46.6875 18.703125 
Q 43.0625 26.03125 39.671875 28.421875 
Q 36.28125 30.8125 30.421875 30.8125 
L 19.671875 30.8125 
L 19.671875 0 
L 9.8125 0 
L 9.8125 72.90625 
L 32.078125 72.90625 
Q 44.578125 72.90625 50.734375 67.671875 
Q 56.890625 62.453125 56.890625 51.90625 
Q 56.890625 45.015625 53.6875 40.46875 
Q 50.484375 35.9375 44.390625 34.1875 
z
M 19.671875 64.796875 
L 19.671875 38.921875 
L 32.078125 38.921875 
Q 39.203125 38.921875 42.84375 42.21875 
Q 46.484375 45.515625 46.484375 51.90625 
Q 46.484375 58.296875 42.84375 61.546875 
Q 39.203125 64.796875 32.078125 64.796875 
z
" id="DejaVuSans-82"/>
      <path d="M 34.28125 27.484375 
Q 23.390625 27.484375 19.1875 25 
Q 14.984375 22.515625 14.984375 16.5 
Q 14.984375 11.71875 18.140625 8.90625 
Q 21.296875 6.109375 26.703125 6.109375 
Q 34.1875 6.109375 38.703125 11.40625 
Q 43.21875 16.703125 43.21875 25.484375 
L 43.21875 27.484375 
z
M 52.203125 31.203125 
L 52.203125 0 
L 43.21875 0 
L 43.21875 8.296875 
Q 40.140625 3.328125 35.546875 0.953125 
Q 30.953125 -1.421875 24.3125 -1.421875 
Q 15.921875 -1.421875 10.953125 3.296875 
Q 6 8.015625 6 15.921875 
Q 6 25.140625 12.171875 29.828125 
Q 18.359375 34.515625 30.609375 34.515625 
L 43.21875 34.515625 
L 43.21875 35.40625 
Q 43.21875 41.609375 39.140625 45 
Q 35.0625 48.390625 27.6875 48.390625 
Q 23 48.390625 18.546875 47.265625 
Q 14.109375 46.140625 10.015625 43.890625 
L 10.015625 52.203125 
Q 14.9375 54.109375 19.578125 55.046875 
Q 24.21875 56 28.609375 56 
Q 40.484375 56 46.34375 49.84375 
Q 52.203125 43.703125 52.203125 31.203125 
z
" id="DejaVuSans-97"/>
      <path d="M 4.203125 54.6875 
L 13.1875 54.6875 
L 24.421875 12.015625 
L 35.59375 54.6875 
L 46.1875 54.6875 
L 57.421875 12.015625 
L 68.609375 54.6875 
L 77.59375 54.6875 
L 63.28125 0 
L 52.6875 0 
L 40.921875 44.828125 
L 29.109375 0 
L 18.5 0 
z
" id="DejaVuSans-119"/>
      <path id="DejaVuSans-32"/>
      <path d="M 18.3125 70.21875 
L 18.3125 54.6875 
L 36.8125 54.6875 
L 36.8125 47.703125 
L 18.3125 47.703125 
L 18.3125 18.015625 
Q 18.3125 11.328125 20.140625 9.421875 
Q 21.96875 7.515625 27.59375 7.515625 
L 36.8125 7.515625 
L 36.8125 0 
L 27.59375 0 
Q 17.1875 0 13.234375 3.875 
Q 9.28125 7.765625 9.28125 18.015625 
L 9.28125 47.703125 
L 2.6875 47.703125 
L 2.6875 54.6875 
L 9.28125 54.6875 
L 9.28125 70.21875 
z
" id="DejaVuSans-116"/>
      <path d="M 9.421875 54.6875 
L 18.40625 54.6875 
L 18.40625 0 
L 9.421875 0 
z
M 9.421875 75.984375 
L 18.40625 75.984375 
L 18.40625 64.59375 
L 9.421875 64.59375 
z
" id="DejaVuSans-105"/>
      <path d="M 52 44.1875 
Q 55.375 50.25 60.0625 53.125 
Q 64.75 56 71.09375 56 
Q 79.640625 56 84.28125 50.015625 
Q 88.921875 44.046875 88.921875 33.015625 
L 88.921875 0 
L 79.890625 0 
L 79.890625 32.71875 
Q 79.890625 40.578125 77.09375 44.375 
Q 74.3125 48.1875 68.609375 48.1875 
Q 61.625 48.1875 57.5625 43.546875 
Q 53.515625 38.921875 53.515625 30.90625 
L 53.515625 0 
L 44.484375 0 
L 44.484375 32.71875 
Q 44.484375 40.625 41.703125 44.40625 
Q 38.921875 48.1875 33.109375 48.1875 
Q 26.21875 48.1875 22.15625 43.53125 
Q 18.109375 38.875 18.109375 30.90625 
L 18.109375 0 
L 9.078125 0 
L 9.078125 54.6875 
L 18.109375 54.6875 
L 18.109375 46.1875 
Q 21.1875 51.21875 25.484375 53.609375 
Q 29.78125 56 35.6875 56 
Q 41.65625 56 45.828125 52.96875 
Q 50 49.953125 52 44.1875 
z
" id="DejaVuSans-109"/>
      <path d="M 56.203125 29.59375 
L 56.203125 25.203125 
L 14.890625 25.203125 
Q 15.484375 15.921875 20.484375 11.0625 
Q 25.484375 6.203125 34.421875 6.203125 
Q 39.59375 6.203125 44.453125 7.46875 
Q 49.3125 8.734375 54.109375 11.28125 
L 54.109375 2.78125 
Q 49.265625 0.734375 44.1875 -0.34375 
Q 39.109375 -1.421875 33.890625 -1.421875 
Q 20.796875 -1.421875 13.15625 6.1875 
Q 5.515625 13.8125 5.515625 26.8125 
Q 5.515625 40.234375 12.765625 48.109375 
Q 20.015625 56 32.328125 56 
Q 43.359375 56 49.78125 48.890625 
Q 56.203125 41.796875 56.203125 29.59375 
z
M 47.21875 32.234375 
Q 47.125 39.59375 43.09375 43.984375 
Q 39.0625 48.390625 32.421875 48.390625 
Q 24.90625 48.390625 20.390625 44.140625 
Q 15.875 39.890625 15.1875 32.171875 
z
" id="DejaVuSans-101"/>
      <path d="M 44.28125 53.078125 
L 44.28125 44.578125 
Q 40.484375 46.53125 36.375 47.5 
Q 32.28125 48.484375 27.875 48.484375 
Q 21.1875 48.484375 17.84375 46.4375 
Q 14.5 44.390625 14.5 40.28125 
Q 14.5 37.15625 16.890625 35.375 
Q 19.28125 33.59375 26.515625 31.984375 
L 29.59375 31.296875 
Q 39.15625 29.25 43.1875 25.515625 
Q 47.21875 21.78125 47.21875 15.09375 
Q 47.21875 7.46875 41.1875 3.015625 
Q 35.15625 -1.421875 24.609375 -1.421875 
Q 20.21875 -1.421875 15.453125 -0.5625 
Q 10.6875 0.296875 5.421875 2 
L 5.421875 11.28125 
Q 10.40625 8.6875 15.234375 7.390625 
Q 20.0625 6.109375 24.8125 6.109375 
Q 31.15625 6.109375 34.5625 8.28125 
Q 37.984375 10.453125 37.984375 14.40625 
Q 37.984375 18.0625 35.515625 20.015625 
Q 33.0625 21.96875 24.703125 23.78125 
L 21.578125 24.515625 
Q 13.234375 26.265625 9.515625 29.90625 
Q 5.8125 33.546875 5.8125 39.890625 
Q 5.8125 47.609375 11.28125 51.796875 
Q 16.75 56 26.8125 56 
Q 31.78125 56 36.171875 55.265625 
Q 40.578125 54.546875 44.28125 53.078125 
z
" id="DejaVuSans-115"/>
      <path d="M 41.109375 46.296875 
Q 39.59375 47.171875 37.8125 47.578125 
Q 36.03125 48 33.890625 48 
Q 26.265625 48 22.1875 43.046875 
Q 18.109375 38.09375 18.109375 28.8125 
L 18.109375 0 
L 9.078125 0 
L 9.078125 54.6875 
L 18.109375 54.6875 
L 18.109375 46.1875 
Q 20.953125 51.171875 25.484375 53.578125 
Q 30.03125 56 36.53125 56 
Q 37.453125 56 38.578125 55.875 
Q 39.703125 55.765625 41.0625 55.515625 
z
" id="DejaVuSans-114"/>
     </defs>
     <use xlink:href="#DejaVuSans-82"/>
     <use x="67.232422" xlink:href="#DejaVuSans-97"/>
     <use x="128.511719" xlink:href="#DejaVuSans-119"/>
     <use x="210.298828" xlink:href="#DejaVuSans-32"/>
     <use x="242.085938" xlink:href="#DejaVuSans-116"/>
     <use x="281.294922" xlink:href="#DejaVuSans-105"/>
     <use x="309.078125" xlink:href="#DejaVuSans-109"/>
     <use x="406.490234" xlink:href="#DejaVuSans-101"/>
     <use x="468.013672" xlink:href="#DejaVuSans-32"/>
     <use x="499.800781" xlink:href="#DejaVuSans-115"/>
     <use x="551.900391" xlink:href="#DejaVuSans-101"/>
     <use x="613.423828" xlink:href="#DejaVuSans-114"/>
     <use x="654.537109" xlink:href="#DejaVuSans-105"/>
     <use x="682.320312" xlink:href="#DejaVuSans-101"/>
     <use x="743.84375" xlink:href="#DejaVuSans-115"/>
    </g>
   </g>
  </g>
  <g id="axes_2">
   <g id="patch_7">
    <path d="M 257.56 150.32 
L 446.302904 150.32 
L 446.302904 25.44 
L 257.56 25.44 
z
" style="fill:#ffffff;"/>
   </g>
   <g id="matplotlib.axis_3">
    <g id="xtick_7">
     <g id="line2d_12">
      <g>
       <use style="stroke:#000000;stroke-width:0.8;" x="266.139223" xlink:href="#m237c863666" y="150.32"/>
      </g>
     </g>
     <g id="text_12">
      <!-- 0 -->
      <g transform="translate(262.957973 164.918437)scale(0.1 -0.1)">
       <use xlink:href="#DejaVuSans-48"/>
      </g>
     </g>
    </g>
    <g id="xtick_8">
     <g id="line2d_13">
      <g>
       <use style="stroke:#000000;stroke-width:0.8;" x="300.80275" xlink:href="#m237c863666" y="150.32"/>
      </g>
     </g>
     <g id="text_13">
      <!-- 20 -->
      <g transform="translate(294.44025 164.918437)scale(0.1 -0.1)">
       <use xlink:href="#DejaVuSans-50"/>
       <use x="63.623047" xlink:href="#DejaVuSans-48"/>
      </g>
     </g>
    </g>
    <g id="xtick_9">
     <g id="line2d_14">
      <g>
       <use style="stroke:#000000;stroke-width:0.8;" x="335.466277" xlink:href="#m237c863666" y="150.32"/>
      </g>
     </g>
     <g id="text_14">
      <!-- 40 -->
      <g transform="translate(329.103777 164.918437)scale(0.1 -0.1)">
       <use xlink:href="#DejaVuSans-52"/>
       <use x="63.623047" xlink:href="#DejaVuSans-48"/>
      </g>
     </g>
    </g>
    <g id="xtick_10">
     <g id="line2d_15">
      <g>
       <use style="stroke:#000000;stroke-width:0.8;" x="370.129804" xlink:href="#m237c863666" y="150.32"/>
      </g>
     </g>
     <g id="text_15">
      <!-- 60 -->
      <g transform="translate(363.767304 164.918437)scale(0.1 -0.1)">
       <use xlink:href="#DejaVuSans-54"/>
       <use x="63.623047" xlink:href="#DejaVuSans-48"/>
      </g>
     </g>
    </g>
    <g id="xtick_11">
     <g id="line2d_16">
      <g>
       <use style="stroke:#000000;stroke-width:0.8;" x="404.79333" xlink:href="#m237c863666" y="150.32"/>
      </g>
     </g>
     <g id="text_16">
      <!-- 80 -->
      <g transform="translate(398.43083 164.918437)scale(0.1 -0.1)">
       <use xlink:href="#DejaVuSans-56"/>
       <use x="63.623047" xlink:href="#DejaVuSans-48"/>
      </g>
     </g>
    </g>
    <g id="xtick_12">
     <g id="line2d_17">
      <g>
       <use style="stroke:#000000;stroke-width:0.8;" x="439.456857" xlink:href="#m237c863666" y="150.32"/>
      </g>
     </g>
     <g id="text_17">
      <!-- 100 -->
      <g transform="translate(429.913107 164.918437)scale(0.1 -0.1)">
       <use xlink:href="#DejaVuSans-49"/>
       <use x="63.623047" xlink:href="#DejaVuSans-48"/>
       <use x="127.246094" xlink:href="#DejaVuSans-48"/>
      </g>
     </g>
    </g>
   </g>
   <g id="matplotlib.axis_4">
    <g id="ytick_5">
     <g id="line2d_18">
      <g>
       <use style="stroke:#000000;stroke-width:0.8;" x="257.56" xlink:href="#m9ae9c548f5" y="148.75304"/>
      </g>
     </g>
     <g id="text_18">
      <!-- −2 -->
      <g transform="translate(235.817813 152.552258)scale(0.1 -0.1)">
       <use xlink:href="#DejaVuSans-8722"/>
       <use x="83.789062" xlink:href="#DejaVuSans-50"/>
      </g>
     </g>
    </g>
    <g id="ytick_6">
     <g id="line2d_19">
      <g>
       <use style="stroke:#000000;stroke-width:0.8;" x="257.56" xlink:href="#m9ae9c548f5" y="116.695431"/>
      </g>
     </g>
     <g id="text_19">
      <!-- −1 -->
      <g transform="translate(235.817813 120.49465)scale(0.1 -0.1)">
       <use xlink:href="#DejaVuSans-8722"/>
       <use x="83.789062" xlink:href="#DejaVuSans-49"/>
      </g>
     </g>
    </g>
    <g id="ytick_7">
     <g id="line2d_20">
      <g>
       <use style="stroke:#000000;stroke-width:0.8;" x="257.56" xlink:href="#m9ae9c548f5" y="84.637823"/>
      </g>
     </g>
     <g id="text_20">
      <!-- 0 -->
      <g transform="translate(244.1975 88.437041)scale(0.1 -0.1)">
       <use xlink:href="#DejaVuSans-48"/>
      </g>
     </g>
    </g>
    <g id="ytick_8">
     <g id="line2d_21">
      <g>
       <use style="stroke:#000000;stroke-width:0.8;" x="257.56" xlink:href="#m9ae9c548f5" y="52.580214"/>
      </g>
     </g>
     <g id="text_21">
      <!-- 1 -->
      <g transform="translate(244.1975 56.379433)scale(0.1 -0.1)">
       <use xlink:href="#DejaVuSans-49"/>
      </g>
     </g>
    </g>
   </g>
   <g id="line2d_22">
    <path clip-path="url(#p24fb961517)" d="M 266.139223 108.887345 
L 267.872399 106.305739 
L 269.605576 99.99143 
L 271.338752 85.534353 
L 273.071928 73.485841 
L 274.805105 79.790729 
L 276.538281 73.661253 
L 278.271457 74.637731 
L 280.004634 75.303646 
L 281.73781 72.654678 
L 283.470986 71.725384 
L 285.204163 62.343168 
L 286.937339 57.433348 
L 288.670515 56.648364 
L 290.403692 53.78479 
L 292.136868 51.632097 
L 293.870044 41.993076 
L 295.603221 43.31665 
L 297.336397 41.2969 
L 299.069573 46.807082 
L 300.80275 63.277643 
L 302.535926 59.060836 
L 304.269102 53.483944 
L 306.002279 58.272006 
L 307.735455 43.628731 
L 309.468631 53.011541 
L 311.201808 52.716331 
L 312.934984 53.923944 
L 314.668161 44.03525 
L 316.401337 34.555712 
L 318.134513 33.556071 
L 319.86769 31.116364 
L 321.600866 36.843895 
L 323.334042 49.622963 
L 325.067219 51.867512 
L 326.800395 50.858829 
L 328.533571 42.921634 
L 330.266748 35.164505 
L 331.999924 37.663336 
L 333.7331 39.613636 
L 335.466277 46.378354 
L 337.199453 55.539571 
L 338.932629 66.547539 
L 340.665806 53.962151 
L 342.398982 57.250161 
L 344.132158 60.076389 
L 345.865335 68.158773 
L 347.598511 63.142809 
L 349.331687 73.554839 
L 351.064864 74.927328 
L 352.79804 80.704412 
L 354.531216 78.208319 
L 356.264393 81.503768 
L 357.997569 89.120592 
L 359.730745 89.302409 
L 361.463922 86.539035 
L 363.197098 86.109901 
L 364.930274 84.158509 
L 366.663451 88.250825 
L 368.396627 90.591043 
L 370.129804 94.929408 
L 371.86298 97.249057 
L 373.596156 102.495054 
L 375.329333 113.632131 
L 377.062509 112.48747 
L 378.795685 115.079552 
L 380.528862 125.596743 
L 382.262038 122.611113 
L 383.995214 128.46453 
L 385.728391 128.129405 
L 387.461567 123.425692 
L 389.194743 122.593562 
L 390.92792 115.242741 
L 392.661096 123.209195 
L 394.394272 120.613496 
L 396.127449 125.031534 
L 397.860625 130.649464 
L 399.593801 134.383901 
L 401.326978 136.393876 
L 403.060154 136.031526 
L 404.79333 143.548467 
L 406.526507 137.736803 
L 408.259683 134.732591 
L 409.992859 144.643636 
L 411.726036 135.042208 
L 413.459212 122.810917 
L 415.192388 115.206045 
L 416.925565 116.366826 
L 418.658741 123.274765 
L 420.391917 116.471991 
L 422.125094 119.073079 
L 423.85827 111.186499 
L 425.591447 109.842818 
L 427.324623 103.542051 
L 429.057799 101.24296 
L 430.790976 96.684518 
L 432.524152 96.616777 
L 434.257328 85.09527 
L 435.990505 84.276499 
L 437.723681 81.683073 
" style="fill:none;stroke:#0000ff;stroke-linecap:square;stroke-opacity:0.4;stroke-width:1.5;"/>
   </g>
   <g id="line2d_23">
    <path clip-path="url(#p24fb961517)" d="M 266.139223 85.025275 
L 267.872399 85.025275 
L 269.605576 85.025275 
L 271.338752 85.025275 
L 273.071928 85.025275 
L 274.805105 85.025275 
L 276.538281 85.025275 
L 278.271457 85.025275 
L 280.004634 85.025275 
L 281.73781 85.025275 
L 283.470986 52.698086 
L 285.204163 52.698086 
L 286.937339 52.698086 
L 288.670515 52.698086 
L 290.403692 52.698086 
L 292.136868 52.698086 
L 293.870044 52.698086 
L 295.603221 52.698086 
L 297.336397 52.698086 
L 299.069573 52.698086 
L 300.80275 51.596594 
L 302.535926 51.596594 
L 304.269102 51.596594 
L 306.002279 51.596594 
L 307.735455 51.596594 
L 309.468631 51.596594 
L 311.201808 51.596594 
L 312.934984 51.596594 
L 314.668161 51.596594 
L 316.401337 51.596594 
L 318.134513 40.922875 
L 319.86769 40.922875 
L 321.600866 40.922875 
L 323.334042 40.922875 
L 325.067219 40.922875 
L 326.800395 40.922875 
L 328.533571 40.922875 
L 330.266748 40.922875 
L 331.999924 40.922875 
L 333.7331 40.922875 
L 335.466277 61.953791 
L 337.199453 61.953791 
L 338.932629 61.953791 
L 340.665806 61.953791 
L 342.398982 61.953791 
L 344.132158 61.953791 
L 345.865335 61.953791 
L 347.598511 61.953791 
L 349.331687 61.953791 
L 351.064864 61.953791 
L 352.79804 85.448881 
L 354.531216 85.448881 
L 356.264393 85.448881 
L 357.997569 85.448881 
L 359.730745 85.448881 
L 361.463922 85.448881 
L 363.197098 85.448881 
L 364.930274 85.448881 
L 366.663451 85.448881 
L 368.396627 85.448881 
L 370.129804 114.067446 
L 371.86298 114.067446 
L 373.596156 114.067446 
L 375.329333 114.067446 
L 377.062509 114.067446 
L 378.795685 114.067446 
L 380.528862 114.067446 
L 382.262038 114.067446 
L 383.995214 114.067446 
L 385.728391 114.067446 
L 387.461567 126.757499 
L 389.194743 126.757499 
L 390.92792 126.757499 
L 392.661096 126.757499 
L 394.394272 126.757499 
L 396.127449 126.757499 
L 397.860625 126.757499 
L 399.593801 126.757499 
L 401.326978 126.757499 
L 403.060154 126.757499 
L 404.79333 128.983425 
L 406.526507 128.983425 
L 408.259683 128.983425 
L 409.992859 128.983425 
L 411.726036 128.983425 
L 413.459212 128.983425 
L 415.192388 128.983425 
L 416.925565 128.983425 
L 418.658741 128.983425 
L 420.391917 128.983425 
L 422.125094 98.924354 
L 423.85827 98.924354 
L 425.591447 98.924354 
L 427.324623 98.924354 
L 429.057799 98.924354 
L 430.790976 98.924354 
L 432.524152 98.924354 
L 434.257328 98.924354 
L 435.990505 98.924354 
L 437.723681 98.924354 
" style="fill:none;stroke:#0000ff;stroke-linecap:square;stroke-width:1.5;"/>
   </g>
   <g id="patch_8">
    <path d="M 257.56 150.32 
L 257.56 25.44 
" style="fill:none;stroke:#000000;stroke-linecap:square;stroke-linejoin:miter;stroke-width:0.8;"/>
   </g>
   <g id="patch_9">
    <path d="M 446.302904 150.32 
L 446.302904 25.44 
" style="fill:none;stroke:#000000;stroke-linecap:square;stroke-linejoin:miter;stroke-width:0.8;"/>
   </g>
   <g id="patch_10">
    <path d="M 257.56 150.32 
L 446.302904 150.32 
" style="fill:none;stroke:#000000;stroke-linecap:square;stroke-linejoin:miter;stroke-width:0.8;"/>
   </g>
   <g id="patch_11">
    <path d="M 257.56 25.44 
L 446.302904 25.44 
" style="fill:none;stroke:#000000;stroke-linecap:square;stroke-linejoin:miter;stroke-width:0.8;"/>
   </g>
   <g id="text_22">
    <!-- PAA -->
    <g transform="translate(340.322389 19.44)scale(0.12 -0.12)">
     <defs>
      <path d="M 19.671875 64.796875 
L 19.671875 37.40625 
L 32.078125 37.40625 
Q 38.96875 37.40625 42.71875 40.96875 
Q 46.484375 44.53125 46.484375 51.125 
Q 46.484375 57.671875 42.71875 61.234375 
Q 38.96875 64.796875 32.078125 64.796875 
z
M 9.8125 72.90625 
L 32.078125 72.90625 
Q 44.34375 72.90625 50.609375 67.359375 
Q 56.890625 61.8125 56.890625 51.125 
Q 56.890625 40.328125 50.609375 34.8125 
Q 44.34375 29.296875 32.078125 29.296875 
L 19.671875 29.296875 
L 19.671875 0 
L 9.8125 0 
z
" id="DejaVuSans-80"/>
      <path d="M 34.1875 63.1875 
L 20.796875 26.90625 
L 47.609375 26.90625 
z
M 28.609375 72.90625 
L 39.796875 72.90625 
L 67.578125 0 
L 57.328125 0 
L 50.6875 18.703125 
L 17.828125 18.703125 
L 11.1875 0 
L 0.78125 0 
z
" id="DejaVuSans-65"/>
     </defs>
     <use xlink:href="#DejaVuSans-80"/>
     <use x="53.927734" xlink:href="#DejaVuSans-65"/>
     <use x="125.085938" xlink:href="#DejaVuSans-65"/>
    </g>
   </g>
  </g>
  <g id="axes_3">
   <g id="patch_12">
    <path d="M 32.56 317.72 
L 221.302904 317.72 
L 221.302904 192.84 
L 32.56 192.84 
z
" style="fill:#ffffff;"/>
   </g>
   <g id="matplotlib.axis_5">
    <g id="xtick_13">
     <g id="line2d_24">
      <g>
       <use style="stroke:#000000;stroke-width:0.8;" x="41.139223" xlink:href="#m237c863666" y="317.72"/>
      </g>
     </g>
     <g id="text_23">
      <!-- 0 -->
      <g transform="translate(37.957973 332.318437)scale(0.1 -0.1)">
       <use xlink:href="#DejaVuSans-48"/>
      </g>
     </g>
    </g>
    <g id="xtick_14">
     <g id="line2d_25">
      <g>
       <use style="stroke:#000000;stroke-width:0.8;" x="75.80275" xlink:href="#m237c863666" y="317.72"/>
      </g>
     </g>
     <g id="text_24">
      <!-- 20 -->
      <g transform="translate(69.44025 332.318437)scale(0.1 -0.1)">
       <use xlink:href="#DejaVuSans-50"/>
       <use x="63.623047" xlink:href="#DejaVuSans-48"/>
      </g>
     </g>
    </g>
    <g id="xtick_15">
     <g id="line2d_26">
      <g>
       <use style="stroke:#000000;stroke-width:0.8;" x="110.466277" xlink:href="#m237c863666" y="317.72"/>
      </g>
     </g>
     <g id="text_25">
      <!-- 40 -->
      <g transform="translate(104.103777 332.318437)scale(0.1 -0.1)">
       <use xlink:href="#DejaVuSans-52"/>
       <use x="63.623047" xlink:href="#DejaVuSans-48"/>
      </g>
     </g>
    </g>
    <g id="xtick_16">
     <g id="line2d_27">
      <g>
       <use style="stroke:#000000;stroke-width:0.8;" x="145.129804" xlink:href="#m237c863666" y="317.72"/>
      </g>
     </g>
     <g id="text_26">
      <!-- 60 -->
      <g transform="translate(138.767304 332.318437)scale(0.1 -0.1)">
       <use xlink:href="#DejaVuSans-54"/>
       <use x="63.623047" xlink:href="#DejaVuSans-48"/>
      </g>
     </g>
    </g>
    <g id="xtick_17">
     <g id="line2d_28">
      <g>
       <use style="stroke:#000000;stroke-width:0.8;" x="179.79333" xlink:href="#m237c863666" y="317.72"/>
      </g>
     </g>
     <g id="text_27">
      <!-- 80 -->
      <g transform="translate(173.43083 332.318437)scale(0.1 -0.1)">
       <use xlink:href="#DejaVuSans-56"/>
       <use x="63.623047" xlink:href="#DejaVuSans-48"/>
      </g>
     </g>
    </g>
    <g id="xtick_18">
     <g id="line2d_29">
      <g>
       <use style="stroke:#000000;stroke-width:0.8;" x="214.456857" xlink:href="#m237c863666" y="317.72"/>
      </g>
     </g>
     <g id="text_28">
      <!-- 100 -->
      <g transform="translate(204.913107 332.318437)scale(0.1 -0.1)">
       <use xlink:href="#DejaVuSans-49"/>
       <use x="63.623047" xlink:href="#DejaVuSans-48"/>
       <use x="127.246094" xlink:href="#DejaVuSans-48"/>
      </g>
     </g>
    </g>
   </g>
   <g id="matplotlib.axis_6">
    <g id="ytick_9">
     <g id="line2d_30">
      <g>
       <use style="stroke:#000000;stroke-width:0.8;" x="32.56" xlink:href="#m9ae9c548f5" y="316.15304"/>
      </g>
     </g>
     <g id="text_29">
      <!-- −2 -->
      <g transform="translate(10.817813 319.952258)scale(0.1 -0.1)">
       <use xlink:href="#DejaVuSans-8722"/>
       <use x="83.789062" xlink:href="#DejaVuSans-50"/>
      </g>
     </g>
    </g>
    <g id="ytick_10">
     <g id="line2d_31">
      <g>
       <use style="stroke:#000000;stroke-width:0.8;" x="32.56" xlink:href="#m9ae9c548f5" y="284.095431"/>
      </g>
     </g>
     <g id="text_30">
      <!-- −1 -->
      <g transform="translate(10.817813 287.89465)scale(0.1 -0.1)">
       <use xlink:href="#DejaVuSans-8722"/>
       <use x="83.789062" xlink:href="#DejaVuSans-49"/>
      </g>
     </g>
    </g>
    <g id="ytick_11">
     <g id="line2d_32">
      <g>
       <use style="stroke:#000000;stroke-width:0.8;" x="32.56" xlink:href="#m9ae9c548f5" y="252.037823"/>
      </g>
     </g>
     <g id="text_31">
      <!-- 0 -->
      <g transform="translate(19.1975 255.837041)scale(0.1 -0.1)">
       <use xlink:href="#DejaVuSans-48"/>
      </g>
     </g>
    </g>
    <g id="ytick_12">
     <g id="line2d_33">
      <g>
       <use style="stroke:#000000;stroke-width:0.8;" x="32.56" xlink:href="#m9ae9c548f5" y="219.980214"/>
      </g>
     </g>
     <g id="text_32">
      <!-- 1 -->
      <g transform="translate(19.1975 223.779433)scale(0.1 -0.1)">
       <use xlink:href="#DejaVuSans-49"/>
      </g>
     </g>
    </g>
   </g>
   <g id="line2d_34">
    <path clip-path="url(#pe1bab94af7)" d="M 41.139223 276.287345 
L 42.872399 273.705739 
L 44.605576 267.39143 
L 46.338752 252.934353 
L 48.071928 240.885841 
L 49.805105 247.190729 
L 51.538281 241.061253 
L 53.271457 242.037731 
L 55.004634 242.703646 
L 56.73781 240.054678 
L 58.470986 239.125384 
L 60.204163 229.743168 
L 61.937339 224.833348 
L 63.670515 224.048364 
L 65.403692 221.18479 
L 67.136868 219.032097 
L 68.870044 209.393076 
L 70.603221 210.71665 
L 72.336397 208.6969 
L 74.069573 214.207082 
L 75.80275 230.677643 
L 77.535926 226.460836 
L 79.269102 220.883944 
L 81.002279 225.672006 
L 82.735455 211.028731 
L 84.468631 220.411541 
L 86.201808 220.116331 
L 87.934984 221.323944 
L 89.668161 211.43525 
L 91.401337 201.955712 
L 93.134513 200.956071 
L 94.86769 198.516364 
L 96.600866 204.243895 
L 98.334042 217.022963 
L 100.067219 219.267512 
L 101.800395 218.258829 
L 103.533571 210.321634 
L 105.266748 202.564505 
L 106.999924 205.063336 
L 108.7331 207.013636 
L 110.466277 213.778354 
L 112.199453 222.939571 
L 113.932629 233.947539 
L 115.665806 221.362151 
L 117.398982 224.650161 
L 119.132158 227.476389 
L 120.865335 235.558773 
L 122.598511 230.542809 
L 124.331687 240.954839 
L 126.064864 242.327328 
L 127.79804 248.104412 
L 129.531216 245.608319 
L 131.264393 248.903768 
L 132.997569 256.520592 
L 134.730745 256.702409 
L 136.463922 253.939035 
L 138.197098 253.509901 
L 139.930274 251.558509 
L 141.663451 255.650825 
L 143.396627 257.991043 
L 145.129804 262.329408 
L 146.86298 264.649057 
L 148.596156 269.895054 
L 150.329333 281.032131 
L 152.062509 279.88747 
L 153.795685 282.479552 
L 155.528862 292.996743 
L 157.262038 290.011113 
L 158.995214 295.86453 
L 160.728391 295.529405 
L 162.461567 290.825692 
L 164.194743 289.993562 
L 165.92792 282.642741 
L 167.661096 290.609195 
L 169.394272 288.013496 
L 171.127449 292.431534 
L 172.860625 298.049464 
L 174.593801 301.783901 
L 176.326978 303.793876 
L 178.060154 303.431526 
L 179.79333 310.948467 
L 181.526507 305.136803 
L 183.259683 302.132591 
L 184.992859 312.043636 
L 186.726036 302.442208 
L 188.459212 290.210917 
L 190.192388 282.606045 
L 191.925565 283.766826 
L 193.658741 290.674765 
L 195.391917 283.871991 
L 197.125094 286.473079 
L 198.85827 278.586499 
L 200.591447 277.242818 
L 202.324623 270.942051 
L 204.057799 268.64296 
L 205.790976 264.084518 
L 207.524152 264.016777 
L 209.257328 252.49527 
L 210.990505 251.676499 
L 212.723681 249.083073 
" style="fill:none;stroke:#0000ff;stroke-linecap:square;stroke-opacity:0.4;stroke-width:1.5;"/>
   </g>
   <g id="line2d_35">
    <path clip-path="url(#pe1bab94af7)" d="M 41.139223 257.080827 
L 42.872399 257.080827 
L 44.605576 257.080827 
L 46.338752 257.080827 
L 48.071928 257.080827 
L 49.805105 257.080827 
L 51.538281 257.080827 
L 53.271457 257.080827 
L 55.004634 257.080827 
L 56.73781 257.080827 
L 58.470986 223.598025 
L 60.204163 223.598025 
L 61.937339 223.598025 
L 63.670515 223.598025 
L 65.403692 223.598025 
L 67.136868 223.598025 
L 68.870044 223.598025 
L 70.603221 223.598025 
L 72.336397 223.598025 
L 74.069573 223.598025 
L 75.80275 223.598025 
L 77.535926 223.598025 
L 79.269102 223.598025 
L 81.002279 223.598025 
L 82.735455 223.598025 
L 84.468631 223.598025 
L 86.201808 223.598025 
L 87.934984 223.598025 
L 89.668161 223.598025 
L 91.401337 223.598025 
L 93.134513 202.857587 
L 94.86769 202.857587 
L 96.600866 202.857587 
L 98.334042 202.857587 
L 100.067219 202.857587 
L 101.800395 202.857587 
L 103.533571 202.857587 
L 105.266748 202.857587 
L 106.999924 202.857587 
L 108.7331 202.857587 
L 110.466277 223.598025 
L 112.199453 223.598025 
L 113.932629 223.598025 
L 115.665806 223.598025 
L 117.398982 223.598025 
L 119.132158 223.598025 
L 120.865335 223.598025 
L 122.598511 223.598025 
L 124.331687 223.598025 
L 126.064864 223.598025 
L 127.79804 257.080827 
L 129.531216 257.080827 
L 131.264393 257.080827 
L 132.997569 257.080827 
L 134.730745 257.080827 
L 136.463922 257.080827 
L 138.197098 257.080827 
L 139.930274 257.080827 
L 141.663451 257.080827 
L 143.396627 257.080827 
L 145.129804 280.47762 
L 146.86298 280.47762 
L 148.596156 280.47762 
L 150.329333 280.47762 
L 152.062509 280.47762 
L 153.795685 280.47762 
L 155.528862 280.47762 
L 157.262038 280.47762 
L 158.995214 280.47762 
L 160.728391 280.47762 
L 162.461567 301.218058 
L 164.194743 301.218058 
L 165.92792 301.218058 
L 167.661096 301.218058 
L 169.394272 301.218058 
L 171.127449 301.218058 
L 172.860625 301.218058 
L 174.593801 301.218058 
L 176.326978 301.218058 
L 178.060154 301.218058 
L 179.79333 301.218058 
L 181.526507 301.218058 
L 183.259683 301.218058 
L 184.992859 301.218058 
L 186.726036 301.218058 
L 188.459212 301.218058 
L 190.192388 301.218058 
L 191.925565 301.218058 
L 193.658741 301.218058 
L 195.391917 301.218058 
L 197.125094 267.706825 
L 198.85827 267.706825 
L 200.591447 267.706825 
L 202.324623 267.706825 
L 204.057799 267.706825 
L 205.790976 267.706825 
L 207.524152 267.706825 
L 209.257328 267.706825 
L 210.990505 267.706825 
L 212.723681 267.706825 
" style="fill:none;stroke:#0000ff;stroke-linecap:square;stroke-width:1.5;"/>
   </g>
   <g id="patch_13">
    <path d="M 32.56 317.72 
L 32.56 192.84 
" style="fill:none;stroke:#000000;stroke-linecap:square;stroke-linejoin:miter;stroke-width:0.8;"/>
   </g>
   <g id="patch_14">
    <path d="M 221.302904 317.72 
L 221.302904 192.84 
" style="fill:none;stroke:#000000;stroke-linecap:square;stroke-linejoin:miter;stroke-width:0.8;"/>
   </g>
   <g id="patch_15">
    <path d="M 32.56 317.72 
L 221.302904 317.72 
" style="fill:none;stroke:#000000;stroke-linecap:square;stroke-linejoin:miter;stroke-width:0.8;"/>
   </g>
   <g id="patch_16">
    <path d="M 32.56 192.84 
L 221.302904 192.84 
" style="fill:none;stroke:#000000;stroke-linecap:square;stroke-linejoin:miter;stroke-width:0.8;"/>
   </g>
   <g id="text_33">
    <!-- SAX, 8 symbols -->
    <g transform="translate(80.463327 186.84)scale(0.12 -0.12)">
     <defs>
      <path d="M 53.515625 70.515625 
L 53.515625 60.890625 
Q 47.90625 63.578125 42.921875 64.890625 
Q 37.9375 66.21875 33.296875 66.21875 
Q 25.25 66.21875 20.875 63.09375 
Q 16.5 59.96875 16.5 54.203125 
Q 16.5 49.359375 19.40625 46.890625 
Q 22.3125 44.4375 30.421875 42.921875 
L 36.375 41.703125 
Q 47.40625 39.59375 52.65625 34.296875 
Q 57.90625 29 57.90625 20.125 
Q 57.90625 9.515625 50.796875 4.046875 
Q 43.703125 -1.421875 29.984375 -1.421875 
Q 24.8125 -1.421875 18.96875 -0.25 
Q 13.140625 0.921875 6.890625 3.21875 
L 6.890625 13.375 
Q 12.890625 10.015625 18.65625 8.296875 
Q 24.421875 6.59375 29.984375 6.59375 
Q 38.421875 6.59375 43.015625 9.90625 
Q 47.609375 13.234375 47.609375 19.390625 
Q 47.609375 24.75 44.3125 27.78125 
Q 41.015625 30.8125 33.5 32.328125 
L 27.484375 33.5 
Q 16.453125 35.6875 11.515625 40.375 
Q 6.59375 45.0625 6.59375 53.421875 
Q 6.59375 63.09375 13.40625 68.65625 
Q 20.21875 74.21875 32.171875 74.21875 
Q 37.3125 74.21875 42.625 73.28125 
Q 47.953125 72.359375 53.515625 70.515625 
z
" id="DejaVuSans-83"/>
      <path d="M 6.296875 72.90625 
L 16.890625 72.90625 
L 35.015625 45.796875 
L 53.21875 72.90625 
L 63.8125 72.90625 
L 40.375 37.890625 
L 65.375 0 
L 54.78125 0 
L 34.28125 31 
L 13.625 0 
L 2.984375 0 
L 29 38.921875 
z
" id="DejaVuSans-88"/>
      <path d="M 11.71875 12.40625 
L 22.015625 12.40625 
L 22.015625 4 
L 14.015625 -11.625 
L 7.71875 -11.625 
L 11.71875 4 
z
" id="DejaVuSans-44"/>
      <path d="M 32.171875 -5.078125 
Q 28.375 -14.84375 24.75 -17.8125 
Q 21.140625 -20.796875 15.09375 -20.796875 
L 7.90625 -20.796875 
L 7.90625 -13.28125 
L 13.1875 -13.28125 
Q 16.890625 -13.28125 18.9375 -11.515625 
Q 21 -9.765625 23.484375 -3.21875 
L 25.09375 0.875 
L 2.984375 54.6875 
L 12.5 54.6875 
L 29.59375 11.921875 
L 46.6875 54.6875 
L 56.203125 54.6875 
z
" id="DejaVuSans-121"/>
      <path d="M 48.6875 27.296875 
Q 48.6875 37.203125 44.609375 42.84375 
Q 40.53125 48.484375 33.40625 48.484375 
Q 26.265625 48.484375 22.1875 42.84375 
Q 18.109375 37.203125 18.109375 27.296875 
Q 18.109375 17.390625 22.1875 11.75 
Q 26.265625 6.109375 33.40625 6.109375 
Q 40.53125 6.109375 44.609375 11.75 
Q 48.6875 17.390625 48.6875 27.296875 
z
M 18.109375 46.390625 
Q 20.953125 51.265625 25.265625 53.625 
Q 29.59375 56 35.59375 56 
Q 45.5625 56 51.78125 48.09375 
Q 58.015625 40.1875 58.015625 27.296875 
Q 58.015625 14.40625 51.78125 6.484375 
Q 45.5625 -1.421875 35.59375 -1.421875 
Q 29.59375 -1.421875 25.265625 0.953125 
Q 20.953125 3.328125 18.109375 8.203125 
L 18.109375 0 
L 9.078125 0 
L 9.078125 75.984375 
L 18.109375 75.984375 
z
" id="DejaVuSans-98"/>
      <path d="M 30.609375 48.390625 
Q 23.390625 48.390625 19.1875 42.75 
Q 14.984375 37.109375 14.984375 27.296875 
Q 14.984375 17.484375 19.15625 11.84375 
Q 23.34375 6.203125 30.609375 6.203125 
Q 37.796875 6.203125 41.984375 11.859375 
Q 46.1875 17.53125 46.1875 27.296875 
Q 46.1875 37.015625 41.984375 42.703125 
Q 37.796875 48.390625 30.609375 48.390625 
z
M 30.609375 56 
Q 42.328125 56 49.015625 48.375 
Q 55.71875 40.765625 55.71875 27.296875 
Q 55.71875 13.875 49.015625 6.21875 
Q 42.328125 -1.421875 30.609375 -1.421875 
Q 18.84375 -1.421875 12.171875 6.21875 
Q 5.515625 13.875 5.515625 27.296875 
Q 5.515625 40.765625 12.171875 48.375 
Q 18.84375 56 30.609375 56 
z
" id="DejaVuSans-111"/>
      <path d="M 9.421875 75.984375 
L 18.40625 75.984375 
L 18.40625 0 
L 9.421875 0 
z
" id="DejaVuSans-108"/>
     </defs>
     <use xlink:href="#DejaVuSans-83"/>
     <use x="65.351562" xlink:href="#DejaVuSans-65"/>
     <use x="133.759766" xlink:href="#DejaVuSans-88"/>
     <use x="202.265625" xlink:href="#DejaVuSans-44"/>
     <use x="234.052734" xlink:href="#DejaVuSans-32"/>
     <use x="265.839844" xlink:href="#DejaVuSans-56"/>
     <use x="329.462891" xlink:href="#DejaVuSans-32"/>
     <use x="361.25" xlink:href="#DejaVuSans-115"/>
     <use x="413.349609" xlink:href="#DejaVuSans-121"/>
     <use x="472.529297" xlink:href="#DejaVuSans-109"/>
     <use x="569.941406" xlink:href="#DejaVuSans-98"/>
     <use x="633.417969" xlink:href="#DejaVuSans-111"/>
     <use x="694.599609" xlink:href="#DejaVuSans-108"/>
     <use x="722.382812" xlink:href="#DejaVuSans-115"/>
    </g>
   </g>
  </g>
  <g id="axes_4">
   <g id="patch_17">
    <path d="M 257.56 317.72 
L 446.302904 317.72 
L 446.302904 192.84 
L 257.56 192.84 
z
" style="fill:#ffffff;"/>
   </g>
   <g id="matplotlib.axis_7">
    <g id="xtick_19">
     <g id="line2d_36">
      <g>
       <use style="stroke:#000000;stroke-width:0.8;" x="266.139223" xlink:href="#m237c863666" y="317.72"/>
      </g>
     </g>
     <g id="text_34">
      <!-- 0 -->
      <g transform="translate(262.957973 332.318437)scale(0.1 -0.1)">
       <use xlink:href="#DejaVuSans-48"/>
      </g>
     </g>
    </g>
    <g id="xtick_20">
     <g id="line2d_37">
      <g>
       <use style="stroke:#000000;stroke-width:0.8;" x="300.80275" xlink:href="#m237c863666" y="317.72"/>
      </g>
     </g>
     <g id="text_35">
      <!-- 20 -->
      <g transform="translate(294.44025 332.318437)scale(0.1 -0.1)">
       <use xlink:href="#DejaVuSans-50"/>
       <use x="63.623047" xlink:href="#DejaVuSans-48"/>
      </g>
     </g>
    </g>
    <g id="xtick_21">
     <g id="line2d_38">
      <g>
       <use style="stroke:#000000;stroke-width:0.8;" x="335.466277" xlink:href="#m237c863666" y="317.72"/>
      </g>
     </g>
     <g id="text_36">
      <!-- 40 -->
      <g transform="translate(329.103777 332.318437)scale(0.1 -0.1)">
       <use xlink:href="#DejaVuSans-52"/>
       <use x="63.623047" xlink:href="#DejaVuSans-48"/>
      </g>
     </g>
    </g>
    <g id="xtick_22">
     <g id="line2d_39">
      <g>
       <use style="stroke:#000000;stroke-width:0.8;" x="370.129804" xlink:href="#m237c863666" y="317.72"/>
      </g>
     </g>
     <g id="text_37">
      <!-- 60 -->
      <g transform="translate(363.767304 332.318437)scale(0.1 -0.1)">
       <use xlink:href="#DejaVuSans-54"/>
       <use x="63.623047" xlink:href="#DejaVuSans-48"/>
      </g>
     </g>
    </g>
    <g id="xtick_23">
     <g id="line2d_40">
      <g>
       <use style="stroke:#000000;stroke-width:0.8;" x="404.79333" xlink:href="#m237c863666" y="317.72"/>
      </g>
     </g>
     <g id="text_38">
      <!-- 80 -->
      <g transform="translate(398.43083 332.318437)scale(0.1 -0.1)">
       <use xlink:href="#DejaVuSans-56"/>
       <use x="63.623047" xlink:href="#DejaVuSans-48"/>
      </g>
     </g>
    </g>
    <g id="xtick_24">
     <g id="line2d_41">
      <g>
       <use style="stroke:#000000;stroke-width:0.8;" x="439.456857" xlink:href="#m237c863666" y="317.72"/>
      </g>
     </g>
     <g id="text_39">
      <!-- 100 -->
      <g transform="translate(429.913107 332.318437)scale(0.1 -0.1)">
       <use xlink:href="#DejaVuSans-49"/>
       <use x="63.623047" xlink:href="#DejaVuSans-48"/>
       <use x="127.246094" xlink:href="#DejaVuSans-48"/>
      </g>
     </g>
    </g>
   </g>
   <g id="matplotlib.axis_8">
    <g id="ytick_13">
     <g id="line2d_42">
      <g>
       <use style="stroke:#000000;stroke-width:0.8;" x="257.56" xlink:href="#m9ae9c548f5" y="314.825155"/>
      </g>
     </g>
     <g id="text_40">
      <!-- −2 -->
      <g transform="translate(235.817813 318.624374)scale(0.1 -0.1)">
       <use xlink:href="#DejaVuSans-8722"/>
       <use x="83.789062" xlink:href="#DejaVuSans-50"/>
      </g>
     </g>
    </g>
    <g id="ytick_14">
     <g id="line2d_43">
      <g>
       <use style="stroke:#000000;stroke-width:0.8;" x="257.56" xlink:href="#m9ae9c548f5" y="283.129413"/>
      </g>
     </g>
     <g id="text_41">
      <!-- −1 -->
      <g transform="translate(235.817813 286.928632)scale(0.1 -0.1)">
       <use xlink:href="#DejaVuSans-8722"/>
       <use x="83.789062" xlink:href="#DejaVuSans-49"/>
      </g>
     </g>
    </g>
    <g id="ytick_15">
     <g id="line2d_44">
      <g>
       <use style="stroke:#000000;stroke-width:0.8;" x="257.56" xlink:href="#m9ae9c548f5" y="251.433672"/>
      </g>
     </g>
     <g id="text_42">
      <!-- 0 -->
      <g transform="translate(244.1975 255.23289)scale(0.1 -0.1)">
       <use xlink:href="#DejaVuSans-48"/>
      </g>
     </g>
    </g>
    <g id="ytick_16">
     <g id="line2d_45">
      <g>
       <use style="stroke:#000000;stroke-width:0.8;" x="257.56" xlink:href="#m9ae9c548f5" y="219.73793"/>
      </g>
     </g>
     <g id="text_43">
      <!-- 1 -->
      <g transform="translate(244.1975 223.537149)scale(0.1 -0.1)">
       <use xlink:href="#DejaVuSans-49"/>
      </g>
     </g>
    </g>
   </g>
   <g id="line2d_46">
    <path clip-path="url(#p7d66271e60)" d="M 266.139223 275.409465 
L 267.872399 272.857 
L 269.605576 266.613968 
L 271.338752 252.320082 
L 273.071928 240.407574 
L 274.805105 246.641293 
L 276.538281 240.581006 
L 278.271457 241.546461 
L 280.004634 242.204859 
L 281.73781 239.585793 
L 283.470986 238.666988 
L 285.204163 229.390679 
L 286.937339 224.536282 
L 288.670515 223.760159 
L 290.403692 220.928908 
L 292.136868 218.800515 
L 293.870044 209.270299 
L 295.603221 210.578933 
L 297.336397 208.581982 
L 299.069573 214.029965 
L 300.80275 230.314606 
L 302.535926 226.145399 
L 304.269102 220.631458 
L 306.002279 225.365473 
L 307.735455 210.887491 
L 309.468631 220.164388 
L 311.201808 219.87251 
L 312.934984 221.066491 
L 314.668161 211.289421 
L 316.401337 201.916888 
L 318.134513 200.928532 
L 319.86769 198.516364 
L 321.600866 204.179243 
L 323.334042 216.814061 
L 325.067219 219.033272 
L 326.800395 218.035976 
L 328.533571 210.188376 
L 330.266748 202.51881 
L 331.999924 204.989434 
L 333.7331 206.917719 
L 335.466277 213.606077 
L 337.199453 222.663882 
L 338.932629 233.547591 
L 340.665806 221.104267 
L 342.398982 224.355163 
L 344.132158 227.149488 
L 345.865335 235.140637 
L 347.598511 230.181294 
L 349.331687 240.475792 
L 351.064864 241.832789 
L 352.79804 247.544662 
L 354.531216 245.076744 
L 356.264393 248.334994 
L 357.997569 255.86584 
L 359.730745 256.045605 
L 361.463922 253.313423 
L 363.197098 252.889133 
L 364.930274 250.959769 
L 366.663451 255.005891 
L 368.396627 257.319692 
L 370.129804 261.609085 
L 371.86298 263.902551 
L 373.596156 269.08933 
L 375.329333 280.100692 
L 377.062509 278.968952 
L 378.795685 281.531774 
L 380.528862 291.930247 
L 382.262038 288.978319 
L 383.995214 294.765662 
L 385.728391 294.434321 
L 387.461567 289.783703 
L 389.194743 288.960966 
L 390.92792 281.693121 
L 392.661096 289.56965 
L 394.394272 287.003251 
L 396.127449 291.371419 
L 397.860625 296.925933 
L 399.593801 300.618216 
L 401.326978 302.605502 
L 403.060154 302.247243 
L 404.79333 309.679332 
L 406.526507 303.93327 
L 408.259683 300.96297 
L 409.992859 310.762139 
L 411.726036 301.269091 
L 413.459212 289.175868 
L 415.192388 281.656839 
L 416.925565 282.804518 
L 418.658741 289.63448 
L 420.391917 282.908496 
L 422.125094 285.480222 
L 423.85827 277.682667 
L 425.591447 276.354152 
L 427.324623 270.124509 
L 429.057799 267.85137 
L 430.790976 263.344384 
L 432.524152 263.277407 
L 434.257328 251.885955 
L 435.990505 251.076427 
L 437.723681 248.512275 
" style="fill:none;stroke:#0000ff;stroke-linecap:square;stroke-opacity:0.4;stroke-width:1.5;"/>
   </g>
   <g id="line2d_47">
    <path clip-path="url(#p7d66271e60)" d="M 266.139223 268.404627 
L 267.872399 265.741321 
L 269.605576 263.078015 
L 271.338752 260.414709 
L 273.071928 257.751403 
L 274.805105 255.088098 
L 276.538281 252.424792 
L 278.271457 249.761486 
L 280.004634 247.09818 
L 281.73781 244.434874 
L 283.470986 235.299779 
L 285.204163 232.636474 
L 286.937339 229.973168 
L 288.670515 227.309862 
L 290.403692 224.646556 
L 292.136868 221.98325 
L 293.870044 219.319945 
L 295.603221 216.656639 
L 297.336397 213.993333 
L 299.069573 211.330027 
L 300.80275 235.299779 
L 302.535926 232.636474 
L 304.269102 229.973168 
L 306.002279 227.309862 
L 307.735455 224.646556 
L 309.468631 221.98325 
L 311.201808 219.319945 
L 312.934984 216.656639 
L 314.668161 213.993333 
L 316.401337 211.330027 
L 318.134513 201.579638 
L 319.86769 201.852737 
L 321.600866 202.125836 
L 323.334042 202.398935 
L 325.067219 202.672034 
L 326.800395 202.945132 
L 328.533571 203.218231 
L 330.266748 203.49133 
L 331.999924 203.764429 
L 333.7331 204.037527 
L 335.466277 211.330027 
L 337.199453 213.993333 
L 338.932629 216.656639 
L 340.665806 219.319945 
L 342.398982 221.98325 
L 344.132158 224.646556 
L 345.865335 227.309862 
L 347.598511 229.973168 
L 349.331687 232.636474 
L 351.064864 235.299779 
L 352.79804 252.601325 
L 354.531216 253.449864 
L 356.264393 254.298403 
L 357.997569 255.146942 
L 359.730745 255.995481 
L 361.463922 256.84402 
L 363.197098 257.692559 
L 364.930274 258.541098 
L 366.663451 259.389637 
L 368.396627 260.238176 
L 370.129804 267.567564 
L 371.86298 270.23087 
L 373.596156 272.894175 
L 375.329333 275.557481 
L 377.062509 278.220787 
L 378.795685 280.884093 
L 380.528862 283.547399 
L 382.262038 286.210704 
L 383.995214 288.87401 
L 385.728391 291.537316 
L 387.461567 293.128183 
L 389.194743 294.668311 
L 390.92792 296.208439 
L 392.661096 297.748568 
L 394.394272 299.288696 
L 396.127449 300.828824 
L 397.860625 302.368953 
L 399.593801 303.909081 
L 401.326978 305.44921 
L 403.060154 306.989338 
L 404.79333 312.043636 
L 406.526507 309.380331 
L 408.259683 306.717025 
L 409.992859 304.053719 
L 411.726036 301.390413 
L 413.459212 298.727107 
L 415.192388 296.063802 
L 416.925565 293.400496 
L 418.658741 290.73719 
L 420.391917 288.073884 
L 422.125094 278.910679 
L 423.85827 276.247373 
L 425.591447 273.584067 
L 427.324623 270.920761 
L 429.057799 268.257455 
L 430.790976 265.59415 
L 432.524152 262.930844 
L 434.257328 260.267538 
L 435.990505 257.604232 
L 437.723681 254.940926 
" style="fill:none;stroke:#0000ff;stroke-linecap:square;stroke-width:1.5;"/>
   </g>
   <g id="patch_18">
    <path d="M 257.56 317.72 
L 257.56 192.84 
" style="fill:none;stroke:#000000;stroke-linecap:square;stroke-linejoin:miter;stroke-width:0.8;"/>
   </g>
   <g id="patch_19">
    <path d="M 446.302904 317.72 
L 446.302904 192.84 
" style="fill:none;stroke:#000000;stroke-linecap:square;stroke-linejoin:miter;stroke-width:0.8;"/>
   </g>
   <g id="patch_20">
    <path d="M 257.56 317.72 
L 446.302904 317.72 
" style="fill:none;stroke:#000000;stroke-linecap:square;stroke-linejoin:miter;stroke-width:0.8;"/>
   </g>
   <g id="patch_21">
    <path d="M 257.56 192.84 
L 446.302904 192.84 
" style="fill:none;stroke:#000000;stroke-linecap:square;stroke-linejoin:miter;stroke-width:0.8;"/>
   </g>
   <g id="text_44">
    <!-- 1d-SAX, 64 symbols(8x8) -->
    <g transform="translate(275.986452 186.84)scale(0.12 -0.12)">
     <defs>
      <path d="M 45.40625 46.390625 
L 45.40625 75.984375 
L 54.390625 75.984375 
L 54.390625 0 
L 45.40625 0 
L 45.40625 8.203125 
Q 42.578125 3.328125 38.25 0.953125 
Q 33.9375 -1.421875 27.875 -1.421875 
Q 17.96875 -1.421875 11.734375 6.484375 
Q 5.515625 14.40625 5.515625 27.296875 
Q 5.515625 40.1875 11.734375 48.09375 
Q 17.96875 56 27.875 56 
Q 33.9375 56 38.25 53.625 
Q 42.578125 51.265625 45.40625 46.390625 
z
M 14.796875 27.296875 
Q 14.796875 17.390625 18.875 11.75 
Q 22.953125 6.109375 30.078125 6.109375 
Q 37.203125 6.109375 41.296875 11.75 
Q 45.40625 17.390625 45.40625 27.296875 
Q 45.40625 37.203125 41.296875 42.84375 
Q 37.203125 48.484375 30.078125 48.484375 
Q 22.953125 48.484375 18.875 42.84375 
Q 14.796875 37.203125 14.796875 27.296875 
z
" id="DejaVuSans-100"/>
      <path d="M 4.890625 31.390625 
L 31.203125 31.390625 
L 31.203125 23.390625 
L 4.890625 23.390625 
z
" id="DejaVuSans-45"/>
      <path d="M 31 75.875 
Q 24.46875 64.65625 21.28125 53.65625 
Q 18.109375 42.671875 18.109375 31.390625 
Q 18.109375 20.125 21.3125 9.0625 
Q 24.515625 -2 31 -13.1875 
L 23.1875 -13.1875 
Q 15.875 -1.703125 12.234375 9.375 
Q 8.59375 20.453125 8.59375 31.390625 
Q 8.59375 42.28125 12.203125 53.3125 
Q 15.828125 64.359375 23.1875 75.875 
z
" id="DejaVuSans-40"/>
      <path d="M 54.890625 54.6875 
L 35.109375 28.078125 
L 55.90625 0 
L 45.3125 0 
L 29.390625 21.484375 
L 13.484375 0 
L 2.875 0 
L 24.125 28.609375 
L 4.6875 54.6875 
L 15.28125 54.6875 
L 29.78125 35.203125 
L 44.28125 54.6875 
z
" id="DejaVuSans-120"/>
      <path d="M 8.015625 75.875 
L 15.828125 75.875 
Q 23.140625 64.359375 26.78125 53.3125 
Q 30.421875 42.28125 30.421875 31.390625 
Q 30.421875 20.453125 26.78125 9.375 
Q 23.140625 -1.703125 15.828125 -13.1875 
L 8.015625 -13.1875 
Q 14.5 -2 17.703125 9.0625 
Q 20.90625 20.125 20.90625 31.390625 
Q 20.90625 42.671875 17.703125 53.65625 
Q 14.5 64.65625 8.015625 75.875 
z
" id="DejaVuSans-41"/>
     </defs>
     <use xlink:href="#DejaVuSans-49"/>
     <use x="63.623047" xlink:href="#DejaVuSans-100"/>
     <use x="127.099609" xlink:href="#DejaVuSans-45"/>
     <use x="163.183594" xlink:href="#DejaVuSans-83"/>
     <use x="228.535156" xlink:href="#DejaVuSans-65"/>
     <use x="296.943359" xlink:href="#DejaVuSans-88"/>
     <use x="365.449219" xlink:href="#DejaVuSans-44"/>
     <use x="397.236328" xlink:href="#DejaVuSans-32"/>
     <use x="429.023438" xlink:href="#DejaVuSans-54"/>
     <use x="492.646484" xlink:href="#DejaVuSans-52"/>
     <use x="556.269531" xlink:href="#DejaVuSans-32"/>
     <use x="588.056641" xlink:href="#DejaVuSans-115"/>
     <use x="640.15625" xlink:href="#DejaVuSans-121"/>
     <use x="699.335938" xlink:href="#DejaVuSans-109"/>
     <use x="796.748047" xlink:href="#DejaVuSans-98"/>
     <use x="860.224609" xlink:href="#DejaVuSans-111"/>
     <use x="921.40625" xlink:href="#DejaVuSans-108"/>
     <use x="949.189453" xlink:href="#DejaVuSans-115"/>
     <use x="1001.289062" xlink:href="#DejaVuSans-40"/>
     <use x="1040.302734" xlink:href="#DejaVuSans-56"/>
     <use x="1103.925781" xlink:href="#DejaVuSans-120"/>
     <use x="1163.105469" xlink:href="#DejaVuSans-56"/>
     <use x="1226.728516" xlink:href="#DejaVuSans-41"/>
    </g>
   </g>
  </g>
 </g>
 <defs>
  <clipPath id="p47029b6bb8">
   <rect height="124.88" width="188.742904" x="32.56" y="25.44"/>
  </clipPath>
  <clipPath id="p24fb961517">
   <rect height="124.88" width="188.742904" x="257.56" y="25.44"/>
  </clipPath>
  <clipPath id="pe1bab94af7">
   <rect height="124.88" width="188.742904" x="32.56" y="192.84"/>
  </clipPath>
  <clipPath id="p7d66271e60">
   <rect height="124.88" width="188.742904" x="257.56" y="192.84"/>
  </clipPath>
 </defs>
</svg>
